<svg fill="none" height="244" viewBox="0 0 328 244" width="328" xmlns="http://www.w3.org/2000/svg">
    <rect fill="black" height="244" rx="16" width="328" />
    <path
        d="M217 121C219.761 121 222.021 123.242 221.799 125.995C220.95 136.497 217.435 146.639 211.551 155.445C204.738 165.641 195.055 173.588 183.726 178.281C172.397 182.973 159.931 184.201 147.904 181.809C135.878 179.416 124.83 173.511 116.159 164.841C107.489 156.17 101.584 145.122 99.1913 133.096C96.799 121.069 98.0268 108.603 102.719 97.2736C107.412 85.9446 115.359 76.2615 125.555 69.4489C134.361 63.5648 144.503 60.0502 155.005 59.2015C157.758 58.979 160 61.2386 160 64V116C160 118.761 162.239 121 165 121H217Z"
        fill="#FF5306" />
    <path
        d="M225 113C227.761 113 230.021 110.758 229.798 108.005C229.279 101.574 227.757 95.2533 225.281 89.2736C222.165 81.7514 217.598 74.9166 211.841 69.1594C206.083 63.4021 199.249 58.8353 191.726 55.7195C185.747 53.2426 179.426 51.7213 172.995 51.2015C170.242 50.979 168 53.2386 168 56L168 108C168 110.761 170.239 113 173 113H225Z"
        fill="#1D3C77" />
    <path
        d="M85.8849 30V19.8182H89.902C90.6742 19.8182 91.3321 19.9657 91.8757 20.2607C92.4193 20.5523 92.8336 20.9583 93.1186 21.4787C93.407 21.9957 93.5511 22.5923 93.5511 23.2685C93.5511 23.9446 93.4053 24.5412 93.1136 25.0582C92.822 25.5753 92.3994 25.978 91.8459 26.2663C91.2957 26.5547 90.6295 26.6989 89.8473 26.6989H87.2869V24.9737H89.4993C89.9136 24.9737 90.255 24.9025 90.5234 24.7599C90.7952 24.6141 90.9974 24.4136 91.13 24.1584C91.2659 23.8999 91.3338 23.6032 91.3338 23.2685C91.3338 22.9304 91.2659 22.6354 91.13 22.3835C90.9974 22.1283 90.7952 21.9311 90.5234 21.7919C90.2517 21.6494 89.907 21.5781 89.4893 21.5781H88.0376V30H85.8849ZM94.6096 30V22.3636H96.6629V23.696H96.7424C96.8816 23.2221 97.1153 22.8641 97.4434 22.6222C97.7716 22.3769 98.1494 22.2543 98.577 22.2543C98.683 22.2543 98.7974 22.2609 98.92 22.2741C99.0426 22.2874 99.1503 22.3056 99.2431 22.3288V24.2081C99.1437 24.1783 99.0062 24.1518 98.8305 24.1286C98.6548 24.1054 98.4941 24.0938 98.3483 24.0938C98.0367 24.0938 97.7583 24.1617 97.513 24.2976C97.2711 24.4302 97.0788 24.6158 96.9363 24.8544C96.7971 25.093 96.7275 25.3681 96.7275 25.6797V30H94.6096ZM103.133 30.1491C102.361 30.1491 101.693 29.9851 101.129 29.657C100.569 29.3255 100.137 28.8648 99.8318 28.2749C99.5269 27.6816 99.3744 26.9938 99.3744 26.2116C99.3744 25.4228 99.5269 24.7334 99.8318 24.1435C100.137 23.5502 100.569 23.0895 101.129 22.7614C101.693 22.4299 102.361 22.2642 103.133 22.2642C103.905 22.2642 104.571 22.4299 105.132 22.7614C105.695 23.0895 106.129 23.5502 106.434 24.1435C106.739 24.7334 106.891 25.4228 106.891 26.2116C106.891 26.9938 106.739 27.6816 106.434 28.2749C106.129 28.8648 105.695 29.3255 105.132 29.657C104.571 29.9851 103.905 30.1491 103.133 30.1491ZM103.143 28.5085C103.494 28.5085 103.788 28.4091 104.023 28.2102C104.258 28.008 104.436 27.733 104.555 27.3849C104.677 27.0369 104.739 26.6409 104.739 26.1967C104.739 25.7526 104.677 25.3565 104.555 25.0085C104.436 24.6605 104.258 24.3854 104.023 24.1832C103.788 23.9811 103.494 23.88 103.143 23.88C102.788 23.88 102.49 23.9811 102.248 24.1832C102.009 24.3854 101.829 24.6605 101.706 25.0085C101.587 25.3565 101.527 25.7526 101.527 26.1967C101.527 26.6409 101.587 27.0369 101.706 27.3849C101.829 27.733 102.009 28.008 102.248 28.2102C102.49 28.4091 102.788 28.5085 103.143 28.5085ZM111.409 33.0227C110.723 33.0227 110.135 32.9283 109.644 32.7393C109.157 32.5537 108.769 32.3002 108.481 31.9787C108.192 31.6572 108.005 31.2959 107.919 30.8949L109.878 30.6314C109.937 30.7839 110.032 30.9264 110.161 31.0589C110.29 31.1915 110.461 31.2976 110.673 31.3771C110.889 31.46 111.15 31.5014 111.459 31.5014C111.919 31.5014 112.299 31.3887 112.597 31.1634C112.899 30.9413 113.05 30.5684 113.05 30.0447V28.6477H112.96C112.867 28.8598 112.728 29.0604 112.542 29.2493C112.357 29.4382 112.118 29.5923 111.827 29.7116C111.535 29.831 111.187 29.8906 110.783 29.8906C110.209 29.8906 109.687 29.758 109.216 29.4929C108.749 29.2244 108.376 28.8151 108.098 28.2649C107.823 27.7114 107.685 27.0121 107.685 26.1669C107.685 25.3018 107.826 24.5793 108.108 23.9993C108.39 23.4193 108.764 22.9851 109.231 22.6967C109.702 22.4084 110.217 22.2642 110.778 22.2642C111.205 22.2642 111.563 22.3371 111.851 22.483C112.14 22.6255 112.372 22.8045 112.547 23.0199C112.726 23.232 112.864 23.4408 112.96 23.6463H113.04V22.3636H115.143V30.0746C115.143 30.7242 114.984 31.2678 114.665 31.7053C114.347 32.1428 113.906 32.4709 113.343 32.6896C112.783 32.9117 112.138 33.0227 111.409 33.0227ZM111.454 28.2997C111.795 28.2997 112.083 28.2152 112.319 28.0462C112.557 27.8738 112.74 27.6286 112.866 27.3104C112.995 26.9889 113.06 26.6044 113.06 26.157C113.06 25.7095 112.997 25.3217 112.871 24.9936C112.745 24.6622 112.562 24.4053 112.324 24.223C112.085 24.0407 111.795 23.9496 111.454 23.9496C111.106 23.9496 110.812 24.044 110.574 24.233C110.335 24.4186 110.154 24.6771 110.032 25.0085C109.909 25.34 109.848 25.7228 109.848 26.157C109.848 26.5978 109.909 26.9789 110.032 27.3004C110.158 27.6186 110.338 27.8655 110.574 28.0412C110.812 28.2135 111.106 28.2997 111.454 28.2997ZM116.528 30V22.3636H118.581V23.696H118.661C118.8 23.2221 119.034 22.8641 119.362 22.6222C119.69 22.3769 120.068 22.2543 120.495 22.2543C120.601 22.2543 120.716 22.2609 120.838 22.2741C120.961 22.2874 121.069 22.3056 121.162 22.3288V24.2081C121.062 24.1783 120.925 24.1518 120.749 24.1286C120.573 24.1054 120.412 24.0938 120.267 24.0938C119.955 24.0938 119.677 24.1617 119.431 24.2976C119.189 24.4302 118.997 24.6158 118.855 24.8544C118.715 25.093 118.646 25.3681 118.646 25.6797V30H116.528ZM125.081 30.1491C124.296 30.1491 123.619 29.9901 123.053 29.6719C122.489 29.3504 122.055 28.8963 121.75 28.3097C121.445 27.7197 121.293 27.022 121.293 26.2166C121.293 25.4311 121.445 24.7417 121.75 24.1484C122.055 23.5552 122.484 23.0928 123.038 22.7614C123.595 22.4299 124.248 22.2642 124.997 22.2642C125.5 22.2642 125.969 22.3454 126.404 22.5078C126.841 22.6669 127.222 22.9072 127.547 23.2287C127.875 23.5502 128.13 23.9545 128.313 24.4418C128.495 24.9257 128.586 25.4924 128.586 26.142V26.7237H122.138V25.4112H126.593C126.593 25.1063 126.526 24.8362 126.394 24.6009C126.261 24.3655 126.077 24.1816 125.842 24.049C125.61 23.9131 125.34 23.8452 125.031 23.8452C124.71 23.8452 124.425 23.9197 124.176 24.0689C123.931 24.2147 123.739 24.4119 123.6 24.6605C123.46 24.9058 123.389 25.1792 123.386 25.4808V26.7287C123.386 27.1065 123.455 27.433 123.595 27.7081C123.737 27.9832 123.938 28.1953 124.196 28.3445C124.455 28.4936 124.761 28.5682 125.116 28.5682C125.351 28.5682 125.567 28.535 125.762 28.4688C125.958 28.4025 126.125 28.303 126.264 28.1705C126.404 28.0379 126.51 27.8755 126.583 27.6832L128.541 27.8125C128.442 28.2831 128.238 28.6941 127.93 29.0455C127.625 29.3935 127.231 29.6652 126.747 29.8608C126.266 30.053 125.711 30.1491 125.081 30.1491ZM136.022 24.5412L134.083 24.6605C134.05 24.4948 133.979 24.3456 133.869 24.2131C133.76 24.0772 133.616 23.9695 133.437 23.8899C133.261 23.8071 133.051 23.7656 132.805 23.7656C132.477 23.7656 132.2 23.8352 131.975 23.9744C131.75 24.1103 131.637 24.2926 131.637 24.5213C131.637 24.7036 131.71 24.8577 131.856 24.9837C132.002 25.1096 132.252 25.2107 132.606 25.2869L133.989 25.5653C134.731 25.7178 135.284 25.9631 135.649 26.3011C136.014 26.6392 136.196 27.0833 136.196 27.6335C136.196 28.134 136.048 28.5732 135.753 28.951C135.462 29.3288 135.061 29.6238 134.55 29.8359C134.043 30.0447 133.458 30.1491 132.795 30.1491C131.784 30.1491 130.979 29.9387 130.379 29.5178C129.783 29.0935 129.433 28.5168 129.33 27.7876L131.413 27.6783C131.476 27.9865 131.629 28.2218 131.871 28.3842C132.113 28.5433 132.422 28.6229 132.8 28.6229C133.172 28.6229 133.47 28.5516 133.695 28.4091C133.924 28.2633 134.04 28.076 134.043 27.8473C134.04 27.6551 133.959 27.4976 133.8 27.375C133.641 27.2491 133.395 27.1529 133.064 27.0866L131.741 26.8232C130.996 26.674 130.44 26.4155 130.076 26.0476C129.715 25.6797 129.534 25.2107 129.534 24.6406C129.534 24.1501 129.667 23.7275 129.932 23.3729C130.2 23.0182 130.576 22.7448 131.06 22.5526C131.547 22.3603 132.118 22.2642 132.77 22.2642C133.735 22.2642 134.494 22.468 135.047 22.8757C135.604 23.2834 135.929 23.8385 136.022 24.5412ZM143.583 24.5412L141.644 24.6605C141.611 24.4948 141.54 24.3456 141.431 24.2131C141.321 24.0772 141.177 23.9695 140.998 23.8899C140.822 23.8071 140.612 23.7656 140.367 23.7656C140.038 23.7656 139.762 23.8352 139.536 23.9744C139.311 24.1103 139.198 24.2926 139.198 24.5213C139.198 24.7036 139.271 24.8577 139.417 24.9837C139.563 25.1096 139.813 25.2107 140.168 25.2869L141.55 25.5653C142.292 25.7178 142.846 25.9631 143.21 26.3011C143.575 26.6392 143.757 27.0833 143.757 27.6335C143.757 28.134 143.61 28.5732 143.315 28.951C143.023 29.3288 142.622 29.6238 142.112 29.8359C141.605 30.0447 141.02 30.1491 140.357 30.1491C139.346 30.1491 138.54 29.9387 137.94 29.5178C137.344 29.0935 136.994 28.5168 136.891 27.7876L138.975 27.6783C139.038 27.9865 139.19 28.2218 139.432 28.3842C139.674 28.5433 139.984 28.6229 140.362 28.6229C140.733 28.6229 141.031 28.5516 141.257 28.4091C141.485 28.2633 141.601 28.076 141.605 27.8473C141.601 27.6551 141.52 27.4976 141.361 27.375C141.202 27.2491 140.957 27.1529 140.625 27.0866L139.303 26.8232C138.557 26.674 138.002 26.4155 137.637 26.0476C137.276 25.6797 137.095 25.2107 137.095 24.6406C137.095 24.1501 137.228 23.7275 137.493 23.3729C137.762 23.0182 138.138 22.7448 138.622 22.5526C139.109 22.3603 139.679 22.2642 140.332 22.2642C141.296 22.2642 142.055 22.468 142.609 22.8757C143.166 23.2834 143.49 23.8385 143.583 24.5412ZM149.237 30L147.159 22.3636H149.302L150.485 27.4943H150.555L151.788 22.3636H153.891L155.144 27.4645H155.208L156.372 22.3636H158.51L156.436 30H154.194L152.882 25.1974H152.787L151.475 30H149.237ZM159.339 30V22.3636H161.457V30H159.339ZM160.403 21.3793C160.088 21.3793 159.818 21.2749 159.593 21.0661C159.371 20.8539 159.26 20.6004 159.26 20.3054C159.26 20.0137 159.371 19.7635 159.593 19.5547C159.818 19.3426 160.088 19.2365 160.403 19.2365C160.718 19.2365 160.987 19.3426 161.209 19.5547C161.434 19.7635 161.547 20.0137 161.547 20.3054C161.547 20.6004 161.434 20.8539 161.209 21.0661C160.987 21.2749 160.718 21.3793 160.403 21.3793ZM166.916 22.3636V23.9545H162.317V22.3636H166.916ZM163.361 20.5341H165.479V27.6534C165.479 27.849 165.509 28.0014 165.568 28.1108C165.628 28.2169 165.711 28.2914 165.817 28.3345C165.926 28.3776 166.052 28.3991 166.195 28.3991C166.294 28.3991 166.394 28.3909 166.493 28.3743C166.592 28.3544 166.669 28.3395 166.722 28.3295L167.055 29.9055C166.949 29.9387 166.8 29.9768 166.607 30.0199C166.415 30.0663 166.181 30.0945 165.906 30.1044C165.396 30.1243 164.948 30.0563 164.564 29.9006C164.183 29.7448 163.886 29.5028 163.674 29.1747C163.462 28.8466 163.358 28.4323 163.361 27.9318V20.5341ZM170.277 25.5852V30H168.159V19.8182H170.217V23.7109H170.307C170.479 23.2602 170.758 22.9072 171.142 22.652C171.527 22.3935 172.009 22.2642 172.589 22.2642C173.119 22.2642 173.582 22.3802 173.976 22.6122C174.374 22.8409 174.682 23.1707 174.901 23.6016C175.123 24.0291 175.232 24.5412 175.229 25.1378V30H173.111V25.5156C173.114 25.045 172.995 24.6787 172.753 24.4169C172.514 24.1551 172.18 24.0241 171.749 24.0241C171.46 24.0241 171.205 24.0855 170.983 24.2081C170.764 24.3307 170.592 24.5097 170.466 24.745C170.343 24.977 170.28 25.2571 170.277 25.5852ZM179.576 30V19.8182H186.436V21.593H181.728V24.0192H186.083V25.794H181.728V28.2251H186.456V30H179.576ZM189.578 22.3636L190.98 25.0334L192.417 22.3636H194.589L192.377 26.1818L194.649 30H192.486L190.98 27.3601L189.498 30H187.311L189.578 26.1818L187.39 22.3636H189.578ZM198.754 30.1491C197.968 30.1491 197.292 29.9901 196.725 29.6719C196.162 29.3504 195.728 28.8963 195.423 28.3097C195.118 27.7197 194.965 27.022 194.965 26.2166C194.965 25.4311 195.118 24.7417 195.423 24.1484C195.728 23.5552 196.157 23.0928 196.71 22.7614C197.267 22.4299 197.92 22.2642 198.669 22.2642C199.173 22.2642 199.642 22.3454 200.076 22.5078C200.514 22.6669 200.895 22.9072 201.22 23.2287C201.548 23.5502 201.803 23.9545 201.985 24.4418C202.168 24.9257 202.259 25.4924 202.259 26.142V26.7237H195.811V25.4112H200.265C200.265 25.1063 200.199 24.8362 200.066 24.6009C199.934 24.3655 199.75 24.1816 199.514 24.049C199.282 23.9131 199.012 23.8452 198.704 23.8452C198.383 23.8452 198.098 23.9197 197.849 24.0689C197.604 24.2147 197.411 24.4119 197.272 24.6605C197.133 24.9058 197.062 25.1792 197.058 25.4808V26.7287C197.058 27.1065 197.128 27.433 197.267 27.7081C197.41 27.9832 197.61 28.1953 197.869 28.3445C198.127 28.4936 198.434 28.5682 198.789 28.5682C199.024 28.5682 199.239 28.535 199.435 28.4688C199.63 28.4025 199.798 28.303 199.937 28.1705C200.076 28.0379 200.182 27.8755 200.255 27.6832L202.214 27.8125C202.115 28.2831 201.911 28.6941 201.603 29.0455C201.298 29.3935 200.903 29.6652 200.419 29.8608C199.939 30.053 199.384 30.1491 198.754 30.1491ZM203.341 30V22.3636H205.394V23.696H205.474C205.613 23.2221 205.847 22.8641 206.175 22.6222C206.503 22.3769 206.881 22.2543 207.308 22.2543C207.414 22.2543 207.529 22.2609 207.651 22.2741C207.774 22.2874 207.882 22.3056 207.974 22.3288V24.2081C207.875 24.1783 207.737 24.1518 207.562 24.1286C207.386 24.1054 207.225 24.0938 207.08 24.0938C206.768 24.0938 206.49 24.1617 206.244 24.2976C206.002 24.4302 205.81 24.6158 205.668 24.8544C205.528 25.093 205.459 25.3681 205.459 25.6797V30H203.341ZM211.864 30.1491C211.082 30.1491 210.409 29.9834 209.846 29.652C209.286 29.3172 208.855 28.8532 208.553 28.2599C208.255 27.6667 208.106 26.9839 208.106 26.2116C208.106 25.4295 208.256 24.7434 208.558 24.1534C208.863 23.5601 209.296 23.0978 209.856 22.7663C210.416 22.4316 211.082 22.2642 211.854 22.2642C212.52 22.2642 213.104 22.3852 213.604 22.6271C214.105 22.8691 214.501 23.2088 214.792 23.6463C215.084 24.0838 215.245 24.5975 215.275 25.1875H213.276C213.22 24.8063 213.071 24.4998 212.829 24.2678C212.59 24.0324 212.277 23.9148 211.889 23.9148C211.561 23.9148 211.274 24.0043 211.029 24.1832C210.787 24.3589 210.598 24.6158 210.462 24.9538C210.326 25.2919 210.258 25.7012 210.258 26.1818C210.258 26.669 210.325 27.0833 210.457 27.4247C210.593 27.7661 210.784 28.0263 211.029 28.2053C211.274 28.3842 211.561 28.4737 211.889 28.4737C212.131 28.4737 212.348 28.424 212.54 28.3246C212.736 28.2251 212.897 28.081 213.023 27.892C213.152 27.6998 213.236 27.4695 213.276 27.201H215.275C215.242 27.7843 215.082 28.2981 214.797 28.7422C214.516 29.183 214.126 29.5277 213.629 29.7763C213.132 30.0249 212.544 30.1491 211.864 30.1491ZM216.331 30V22.3636H218.449V30H216.331ZM217.395 21.3793C217.08 21.3793 216.81 21.2749 216.584 21.0661C216.362 20.8539 216.251 20.6004 216.251 20.3054C216.251 20.0137 216.362 19.7635 216.584 19.5547C216.81 19.3426 217.08 19.2365 217.395 19.2365C217.71 19.2365 217.978 19.3426 218.2 19.5547C218.425 19.7635 218.538 20.0137 218.538 20.3054C218.538 20.6004 218.425 20.8539 218.2 21.0661C217.978 21.2749 217.71 21.3793 217.395 21.3793ZM226.199 24.5412L224.26 24.6605C224.227 24.4948 224.156 24.3456 224.046 24.2131C223.937 24.0772 223.793 23.9695 223.614 23.8899C223.438 23.8071 223.228 23.7656 222.982 23.7656C222.654 23.7656 222.377 23.8352 222.152 23.9744C221.927 24.1103 221.814 24.2926 221.814 24.5213C221.814 24.7036 221.887 24.8577 222.033 24.9837C222.179 25.1096 222.429 25.2107 222.783 25.2869L224.165 25.5653C224.908 25.7178 225.461 25.9631 225.826 26.3011C226.191 26.6392 226.373 27.0833 226.373 27.6335C226.373 28.134 226.225 28.5732 225.93 28.951C225.639 29.3288 225.238 29.6238 224.727 29.8359C224.22 30.0447 223.635 30.1491 222.972 30.1491C221.961 30.1491 221.156 29.9387 220.556 29.5178C219.96 29.0935 219.61 28.5168 219.507 27.7876L221.59 27.6783C221.653 27.9865 221.806 28.2218 222.048 28.3842C222.29 28.5433 222.599 28.6229 222.977 28.6229C223.348 28.6229 223.647 28.5516 223.872 28.4091C224.101 28.2633 224.217 28.076 224.22 27.8473C224.217 27.6551 224.136 27.4976 223.977 27.375C223.817 27.2491 223.572 27.1529 223.241 27.0866L221.918 26.8232C221.173 26.674 220.617 26.4155 220.253 26.0476C219.892 25.6797 219.711 25.2107 219.711 24.6406C219.711 24.1501 219.844 23.7275 220.109 23.3729C220.377 23.0182 220.753 22.7448 221.237 22.5526C221.724 22.3603 222.295 22.2642 222.947 22.2642C223.912 22.2642 224.671 22.468 225.224 22.8757C225.781 23.2834 226.106 23.8385 226.199 24.5412ZM230.887 30.1491C230.101 30.1491 229.425 29.9901 228.858 29.6719C228.295 29.3504 227.861 28.8963 227.556 28.3097C227.251 27.7197 227.098 27.022 227.098 26.2166C227.098 25.4311 227.251 24.7417 227.556 24.1484C227.861 23.5552 228.29 23.0928 228.843 22.7614C229.4 22.4299 230.053 22.2642 230.802 22.2642C231.306 22.2642 231.775 22.3454 232.209 22.5078C232.647 22.6669 233.028 22.9072 233.353 23.2287C233.681 23.5502 233.936 23.9545 234.118 24.4418C234.3 24.9257 234.392 25.4924 234.392 26.142V26.7237H227.943V25.4112H232.398C232.398 25.1063 232.332 24.8362 232.199 24.6009C232.067 24.3655 231.883 24.1816 231.647 24.049C231.415 23.9131 231.145 23.8452 230.837 23.8452C230.515 23.8452 230.23 23.9197 229.982 24.0689C229.737 24.2147 229.544 24.4119 229.405 24.6605C229.266 24.9058 229.195 25.1792 229.191 25.4808V26.7287C229.191 27.1065 229.261 27.433 229.4 27.7081C229.543 27.9832 229.743 28.1953 230.002 28.3445C230.26 28.4936 230.567 28.5682 230.921 28.5682C231.157 28.5682 231.372 28.535 231.568 28.4688C231.763 28.4025 231.931 28.303 232.07 28.1705C232.209 28.0379 232.315 27.8755 232.388 27.6832L234.347 27.8125C234.247 28.2831 234.044 28.6941 233.735 29.0455C233.43 29.3935 233.036 29.6652 232.552 29.8608C232.072 30.053 231.516 30.1491 230.887 30.1491ZM241.827 24.5412L239.888 24.6605C239.855 24.4948 239.784 24.3456 239.675 24.2131C239.565 24.0772 239.421 23.9695 239.242 23.8899C239.066 23.8071 238.856 23.7656 238.611 23.7656C238.283 23.7656 238.006 23.8352 237.78 23.9744C237.555 24.1103 237.442 24.2926 237.442 24.5213C237.442 24.7036 237.515 24.8577 237.661 24.9837C237.807 25.1096 238.057 25.2107 238.412 25.2869L239.794 25.5653C240.536 25.7178 241.09 25.9631 241.455 26.3011C241.819 26.6392 242.001 27.0833 242.001 27.6335C242.001 28.134 241.854 28.5732 241.559 28.951C241.267 29.3288 240.866 29.6238 240.356 29.8359C239.849 30.0447 239.264 30.1491 238.601 30.1491C237.59 30.1491 236.785 29.9387 236.185 29.5178C235.588 29.0935 235.238 28.5168 235.136 27.7876L237.219 27.6783C237.282 27.9865 237.434 28.2218 237.676 28.3842C237.918 28.5433 238.228 28.6229 238.606 28.6229C238.977 28.6229 239.275 28.5516 239.501 28.4091C239.729 28.2633 239.845 28.076 239.849 27.8473C239.845 27.6551 239.764 27.4976 239.605 27.375C239.446 27.2491 239.201 27.1529 238.869 27.0866L237.547 26.8232C236.801 26.674 236.246 26.4155 235.881 26.0476C235.52 25.6797 235.339 25.2107 235.339 24.6406C235.339 24.1501 235.472 23.7275 235.737 23.3729C236.006 23.0182 236.382 22.7448 236.866 22.5526C237.353 22.3603 237.923 22.2642 238.576 22.2642C239.54 22.2642 240.299 22.468 240.853 22.8757C241.41 23.2834 241.735 23.8385 241.827 24.5412Z"
        fill="white" />
    <path
        d="M214.276 202.273V211H212.959V202.273H214.276ZM215.791 211V204.455H217.014V205.52H217.095C217.231 205.159 217.454 204.878 217.764 204.676C218.074 204.472 218.444 204.369 218.876 204.369C219.314 204.369 219.68 204.472 219.976 204.676C220.274 204.881 220.494 205.162 220.636 205.52H220.704C220.861 205.17 221.109 204.892 221.45 204.685C221.791 204.474 222.197 204.369 222.669 204.369C223.263 204.369 223.747 204.555 224.122 204.928C224.5 205.3 224.689 205.861 224.689 206.611V211H223.414V206.73C223.414 206.287 223.294 205.966 223.052 205.767C222.811 205.568 222.522 205.469 222.187 205.469C221.772 205.469 221.45 205.597 221.22 205.852C220.99 206.105 220.875 206.43 220.875 206.828V211H219.605V206.649C219.605 206.294 219.494 206.009 219.272 205.793C219.051 205.577 218.763 205.469 218.407 205.469C218.166 205.469 217.943 205.533 217.738 205.661C217.537 205.786 217.373 205.96 217.248 206.185C217.126 206.409 217.065 206.669 217.065 206.964V211H215.791ZM226.096 213.455V204.455H227.341V205.516H227.447C227.521 205.379 227.628 205.222 227.767 205.043C227.906 204.864 228.099 204.707 228.346 204.574C228.594 204.438 228.92 204.369 229.326 204.369C229.855 204.369 230.326 204.503 230.741 204.77C231.156 205.037 231.481 205.422 231.717 205.925C231.956 206.428 232.075 207.033 232.075 207.74C232.075 208.447 231.957 209.054 231.721 209.56C231.486 210.062 231.162 210.45 230.75 210.723C230.338 210.993 229.868 211.128 229.339 211.128C228.942 211.128 228.616 211.061 228.363 210.928C228.113 210.794 227.917 210.638 227.775 210.459C227.633 210.28 227.524 210.121 227.447 209.982H227.371V213.455H226.096ZM227.345 207.727C227.345 208.187 227.412 208.591 227.545 208.938C227.679 209.284 227.872 209.555 228.125 209.751C228.378 209.945 228.687 210.041 229.054 210.041C229.434 210.041 229.753 209.94 230.008 209.739C230.264 209.534 230.457 209.257 230.588 208.908C230.721 208.558 230.788 208.165 230.788 207.727C230.788 207.295 230.723 206.908 230.592 206.564C230.464 206.22 230.271 205.949 230.013 205.75C229.757 205.551 229.437 205.452 229.054 205.452C228.684 205.452 228.372 205.547 228.116 205.737C227.863 205.928 227.672 206.193 227.541 206.534C227.41 206.875 227.345 207.273 227.345 207.727ZM233.203 211V204.455H234.434V205.494H234.502C234.622 205.142 234.832 204.865 235.133 204.663C235.437 204.459 235.781 204.357 236.164 204.357C236.244 204.357 236.338 204.359 236.446 204.365C236.556 204.371 236.643 204.378 236.705 204.386V205.605C236.654 205.591 236.563 205.575 236.433 205.558C236.302 205.538 236.171 205.528 236.041 205.528C235.74 205.528 235.471 205.592 235.235 205.72C235.002 205.845 234.818 206.02 234.681 206.244C234.545 206.466 234.477 206.719 234.477 207.003V211H233.203ZM240.031 211.132C239.417 211.132 238.882 210.991 238.424 210.71C237.967 210.429 237.612 210.036 237.359 209.53C237.106 209.024 236.98 208.433 236.98 207.757C236.98 207.078 237.106 206.484 237.359 205.976C237.612 205.467 237.967 205.072 238.424 204.791C238.882 204.51 239.417 204.369 240.031 204.369C240.644 204.369 241.18 204.51 241.637 204.791C242.095 205.072 242.45 205.467 242.703 205.976C242.956 206.484 243.082 207.078 243.082 207.757C243.082 208.433 242.956 209.024 242.703 209.53C242.45 210.036 242.095 210.429 241.637 210.71C241.18 210.991 240.644 211.132 240.031 211.132ZM240.035 210.062C240.433 210.062 240.762 209.957 241.024 209.747C241.285 209.537 241.478 209.257 241.603 208.908C241.731 208.558 241.795 208.173 241.795 207.753C241.795 207.335 241.731 206.952 241.603 206.602C241.478 206.25 241.285 205.967 241.024 205.754C240.762 205.541 240.433 205.435 240.035 205.435C239.635 205.435 239.302 205.541 239.038 205.754C238.777 205.967 238.582 206.25 238.454 206.602C238.329 206.952 238.267 207.335 238.267 207.753C238.267 208.173 238.329 208.558 238.454 208.908C238.582 209.257 238.777 209.537 239.038 209.747C239.302 209.957 239.635 210.062 240.035 210.062ZM249.581 204.455L247.207 211H245.844L243.466 204.455H244.834L246.491 209.491H246.56L248.213 204.455H249.581ZM253.077 211.132C252.432 211.132 251.876 210.994 251.411 210.719C250.948 210.44 250.59 210.05 250.337 209.547C250.087 209.041 249.962 208.449 249.962 207.77C249.962 207.099 250.087 206.509 250.337 205.997C250.59 205.486 250.942 205.087 251.394 204.8C251.848 204.513 252.379 204.369 252.987 204.369C253.357 204.369 253.715 204.43 254.061 204.553C254.408 204.675 254.719 204.866 254.994 205.128C255.27 205.389 255.487 205.729 255.646 206.146C255.805 206.561 255.885 207.065 255.885 207.659V208.111H250.682V207.156H254.636C254.636 206.821 254.568 206.524 254.432 206.266C254.296 206.004 254.104 205.798 253.857 205.648C253.612 205.497 253.325 205.422 252.996 205.422C252.638 205.422 252.325 205.51 252.058 205.686C251.794 205.859 251.59 206.087 251.445 206.368C251.303 206.646 251.232 206.949 251.232 207.276V208.021C251.232 208.459 251.308 208.831 251.462 209.138C251.618 209.445 251.835 209.679 252.114 209.841C252.392 210 252.717 210.08 253.09 210.08C253.331 210.08 253.551 210.045 253.75 209.977C253.949 209.906 254.121 209.801 254.266 209.662C254.411 209.523 254.521 209.351 254.598 209.146L255.804 209.364C255.707 209.719 255.534 210.03 255.284 210.297C255.037 210.561 254.726 210.767 254.351 210.915C253.979 211.06 253.554 211.132 253.077 211.132ZM259.449 211.128C258.921 211.128 258.449 210.993 258.034 210.723C257.622 210.45 257.298 210.062 257.063 209.56C256.83 209.054 256.713 208.447 256.713 207.74C256.713 207.033 256.831 206.428 257.067 205.925C257.306 205.422 257.632 205.037 258.047 204.77C258.462 204.503 258.932 204.369 259.458 204.369C259.864 204.369 260.19 204.438 260.438 204.574C260.688 204.707 260.881 204.864 261.017 205.043C261.156 205.222 261.264 205.379 261.341 205.516H261.418V202.273H262.692V211H261.448V209.982H261.341C261.264 210.121 261.154 210.28 261.009 210.459C260.867 210.638 260.671 210.794 260.421 210.928C260.171 211.061 259.847 211.128 259.449 211.128ZM259.73 210.041C260.097 210.041 260.406 209.945 260.659 209.751C260.915 209.555 261.108 209.284 261.239 208.938C261.372 208.591 261.439 208.187 261.439 207.727C261.439 207.273 261.374 206.875 261.243 206.534C261.112 206.193 260.921 205.928 260.668 205.737C260.415 205.547 260.102 205.452 259.73 205.452C259.347 205.452 259.027 205.551 258.771 205.75C258.516 205.949 258.323 206.22 258.192 206.564C258.064 206.908 258 207.295 258 207.727C258 208.165 258.065 208.558 258.196 208.908C258.327 209.257 258.52 209.534 258.776 209.739C259.034 209.94 259.352 210.041 259.73 210.041ZM269.907 211.132C269.262 211.132 268.707 210.994 268.241 210.719C267.778 210.44 267.42 210.05 267.167 209.547C266.917 209.041 266.792 208.449 266.792 207.77C266.792 207.099 266.917 206.509 267.167 205.997C267.42 205.486 267.772 205.087 268.224 204.8C268.679 204.513 269.21 204.369 269.818 204.369C270.187 204.369 270.545 204.43 270.892 204.553C271.238 204.675 271.549 204.866 271.825 205.128C272.1 205.389 272.318 205.729 272.477 206.146C272.636 206.561 272.715 207.065 272.715 207.659V208.111H267.512V207.156H271.467C271.467 206.821 271.399 206.524 271.262 206.266C271.126 206.004 270.934 205.798 270.687 205.648C270.443 205.497 270.156 205.422 269.826 205.422C269.468 205.422 269.156 205.51 268.889 205.686C268.625 205.859 268.42 206.087 268.275 206.368C268.133 206.646 268.062 206.949 268.062 207.276V208.021C268.062 208.459 268.139 208.831 268.292 209.138C268.448 209.445 268.666 209.679 268.944 209.841C269.223 210 269.548 210.08 269.92 210.08C270.162 210.08 270.382 210.045 270.581 209.977C270.779 209.906 270.951 209.801 271.096 209.662C271.241 209.523 271.352 209.351 271.429 209.146L272.635 209.364C272.538 209.719 272.365 210.03 272.115 210.297C271.867 210.561 271.556 210.767 271.181 210.915C270.809 211.06 270.385 211.132 269.907 211.132ZM273.829 211V204.455H275.061V205.494H275.129C275.248 205.142 275.458 204.865 275.76 204.663C276.064 204.459 276.407 204.357 276.791 204.357C276.87 204.357 276.964 204.359 277.072 204.365C277.183 204.371 277.27 204.378 277.332 204.386V205.605C277.281 205.591 277.19 205.575 277.059 205.558C276.929 205.538 276.798 205.528 276.667 205.528C276.366 205.528 276.098 205.592 275.862 205.72C275.629 205.845 275.444 206.02 275.308 206.244C275.172 206.466 275.103 206.719 275.103 207.003V211H273.829ZM280.721 211.132C280.076 211.132 279.521 210.994 279.055 210.719C278.592 210.44 278.234 210.05 277.981 209.547C277.731 209.041 277.606 208.449 277.606 207.77C277.606 207.099 277.731 206.509 277.981 205.997C278.234 205.486 278.586 205.087 279.038 204.8C279.493 204.513 280.024 204.369 280.632 204.369C281.001 204.369 281.359 204.43 281.706 204.553C282.052 204.675 282.363 204.866 282.639 205.128C282.914 205.389 283.132 205.729 283.291 206.146C283.45 206.561 283.53 207.065 283.53 207.659V208.111H278.326V207.156H282.281C282.281 206.821 282.213 206.524 282.076 206.266C281.94 206.004 281.748 205.798 281.501 205.648C281.257 205.497 280.97 205.422 280.64 205.422C280.282 205.422 279.97 205.51 279.703 205.686C279.439 205.859 279.234 206.087 279.089 206.368C278.947 206.646 278.876 206.949 278.876 207.276V208.021C278.876 208.459 278.953 208.831 279.106 209.138C279.262 209.445 279.48 209.679 279.758 209.841C280.037 210 280.362 210.08 280.734 210.08C280.976 210.08 281.196 210.045 281.395 209.977C281.593 209.906 281.765 209.801 281.91 209.662C282.055 209.523 282.166 209.351 282.243 209.146L283.449 209.364C283.352 209.719 283.179 210.03 282.929 210.297C282.682 210.561 282.37 210.767 281.995 210.915C281.623 211.06 281.199 211.132 280.721 211.132ZM287.4 211.132C286.767 211.132 286.221 210.989 285.764 210.702C285.309 210.412 284.96 210.013 284.716 209.504C284.471 208.996 284.349 208.413 284.349 207.757C284.349 207.092 284.474 206.506 284.724 205.997C284.974 205.486 285.326 205.087 285.781 204.8C286.236 204.513 286.771 204.369 287.388 204.369C287.885 204.369 288.328 204.462 288.717 204.646C289.106 204.828 289.42 205.084 289.659 205.413C289.9 205.743 290.044 206.128 290.089 206.568H288.849C288.781 206.261 288.625 205.997 288.38 205.776C288.139 205.554 287.815 205.443 287.409 205.443C287.054 205.443 286.743 205.537 286.476 205.724C286.211 205.909 286.005 206.173 285.858 206.517C285.71 206.858 285.636 207.261 285.636 207.727C285.636 208.205 285.709 208.616 285.853 208.963C285.998 209.31 286.203 209.578 286.467 209.768C286.734 209.959 287.048 210.054 287.409 210.054C287.65 210.054 287.869 210.01 288.065 209.922C288.264 209.831 288.43 209.702 288.564 209.534C288.7 209.366 288.795 209.165 288.849 208.929H290.089C290.044 209.352 289.906 209.73 289.676 210.062C289.446 210.395 289.138 210.656 288.751 210.847C288.368 211.037 287.917 211.132 287.4 211.132ZM294.207 204.455V205.477H290.632V204.455H294.207ZM291.591 202.886H292.865V209.078C292.865 209.325 292.902 209.511 292.976 209.636C293.05 209.759 293.145 209.842 293.261 209.888C293.381 209.93 293.51 209.952 293.649 209.952C293.751 209.952 293.841 209.945 293.917 209.93C293.994 209.916 294.054 209.905 294.096 209.896L294.327 210.949C294.253 210.977 294.148 211.006 294.011 211.034C293.875 211.065 293.704 211.082 293.5 211.085C293.165 211.091 292.852 211.031 292.562 210.906C292.273 210.781 292.038 210.588 291.859 210.327C291.68 210.065 291.591 209.737 291.591 209.342V202.886ZM295.317 211V204.455H296.591V211H295.317ZM295.96 203.445C295.739 203.445 295.548 203.371 295.389 203.223C295.233 203.072 295.155 202.893 295.155 202.686C295.155 202.476 295.233 202.297 295.389 202.149C295.548 201.999 295.739 201.923 295.96 201.923C296.182 201.923 296.371 201.999 296.527 202.149C296.686 202.297 296.766 202.476 296.766 202.686C296.766 202.893 296.686 203.072 296.527 203.223C296.371 203.371 296.182 203.445 295.96 203.445ZM299.279 202.273V211H298.005V202.273H299.279ZM303.514 211.132C302.869 211.132 302.314 210.994 301.848 210.719C301.385 210.44 301.027 210.05 300.774 209.547C300.524 209.041 300.399 208.449 300.399 207.77C300.399 207.099 300.524 206.509 300.774 205.997C301.027 205.486 301.379 205.087 301.831 204.8C302.286 204.513 302.817 204.369 303.425 204.369C303.794 204.369 304.152 204.43 304.499 204.553C304.845 204.675 305.156 204.866 305.432 205.128C305.707 205.389 305.925 205.729 306.084 206.146C306.243 206.561 306.323 207.065 306.323 207.659V208.111H301.119V207.156H305.074C305.074 206.821 305.006 206.524 304.869 206.266C304.733 206.004 304.541 205.798 304.294 205.648C304.05 205.497 303.763 205.422 303.433 205.422C303.075 205.422 302.763 205.51 302.496 205.686C302.232 205.859 302.027 206.087 301.882 206.368C301.74 206.646 301.669 206.949 301.669 207.276V208.021C301.669 208.459 301.746 208.831 301.899 209.138C302.055 209.445 302.273 209.679 302.551 209.841C302.83 210 303.155 210.08 303.527 210.08C303.769 210.08 303.989 210.045 304.188 209.977C304.386 209.906 304.558 209.801 304.703 209.662C304.848 209.523 304.959 209.351 305.036 209.146L306.242 209.364C306.145 209.719 305.972 210.03 305.722 210.297C305.474 210.561 305.163 210.767 304.788 210.915C304.416 211.06 303.992 211.132 303.514 211.132ZM215.972 219.455V220.477H212.273V219.455H215.972ZM213.287 226V218.696C213.287 218.287 213.376 217.947 213.555 217.678C213.734 217.405 213.972 217.202 214.267 217.068C214.563 216.932 214.884 216.864 215.23 216.864C215.486 216.864 215.705 216.885 215.886 216.928C216.068 216.967 216.203 217.004 216.291 217.038L215.993 218.07C215.933 218.053 215.857 218.033 215.763 218.01C215.669 217.984 215.555 217.972 215.422 217.972C215.112 217.972 214.891 218.048 214.757 218.202C214.626 218.355 214.561 218.577 214.561 218.866V226H213.287ZM221.133 223.286V219.455H222.411V226H221.158V224.866H221.09C220.939 225.216 220.698 225.507 220.365 225.74C220.036 225.97 219.625 226.085 219.134 226.085C218.713 226.085 218.341 225.993 218.017 225.808C217.696 225.621 217.444 225.344 217.259 224.977C217.077 224.611 216.986 224.158 216.986 223.618V219.455H218.26V223.464C218.26 223.911 218.384 224.266 218.631 224.53C218.878 224.794 219.199 224.926 219.594 224.926C219.833 224.926 220.07 224.866 220.306 224.747C220.544 224.628 220.742 224.447 220.898 224.206C221.057 223.964 221.135 223.658 221.133 223.286ZM225.097 222.114V226H223.823V219.455H225.046V220.52H225.127C225.277 220.173 225.513 219.895 225.834 219.685C226.158 219.474 226.566 219.369 227.057 219.369C227.503 219.369 227.894 219.463 228.229 219.651C228.564 219.835 228.824 220.111 229.009 220.477C229.194 220.844 229.286 221.297 229.286 221.837V226H228.012V221.99C228.012 221.516 227.888 221.145 227.641 220.878C227.394 220.608 227.054 220.473 226.623 220.473C226.327 220.473 226.064 220.537 225.834 220.665C225.607 220.793 225.427 220.98 225.293 221.227C225.162 221.472 225.097 221.767 225.097 222.114ZM233.452 226.132C232.818 226.132 232.273 225.989 231.816 225.702C231.361 225.412 231.012 225.013 230.767 224.504C230.523 223.996 230.401 223.413 230.401 222.757C230.401 222.092 230.526 221.506 230.776 220.997C231.026 220.486 231.378 220.087 231.833 219.8C232.287 219.513 232.823 219.369 233.439 219.369C233.936 219.369 234.379 219.462 234.769 219.646C235.158 219.828 235.472 220.084 235.71 220.413C235.952 220.743 236.095 221.128 236.141 221.568H234.901C234.833 221.261 234.676 220.997 234.432 220.776C234.191 220.554 233.867 220.443 233.46 220.443C233.105 220.443 232.794 220.537 232.527 220.724C232.263 220.909 232.057 221.173 231.909 221.517C231.762 221.858 231.688 222.261 231.688 222.727C231.688 223.205 231.76 223.616 231.905 223.963C232.05 224.31 232.254 224.578 232.519 224.768C232.786 224.959 233.1 225.054 233.46 225.054C233.702 225.054 233.921 225.01 234.117 224.922C234.316 224.831 234.482 224.702 234.615 224.534C234.752 224.366 234.847 224.165 234.901 223.929H236.141C236.095 224.352 235.958 224.73 235.727 225.062C235.497 225.395 235.189 225.656 234.803 225.847C234.419 226.037 233.969 226.132 233.452 226.132ZM240.259 219.455V220.477H236.684V219.455H240.259ZM237.642 217.886H238.916V224.078C238.916 224.325 238.953 224.511 239.027 224.636C239.101 224.759 239.196 224.842 239.313 224.888C239.432 224.93 239.561 224.952 239.701 224.952C239.803 224.952 239.892 224.945 239.969 224.93C240.046 224.916 240.105 224.905 240.148 224.896L240.378 225.949C240.304 225.977 240.199 226.006 240.063 226.034C239.926 226.065 239.756 226.082 239.551 226.085C239.216 226.091 238.904 226.031 238.614 225.906C238.324 225.781 238.09 225.588 237.911 225.327C237.732 225.065 237.642 224.737 237.642 224.342V217.886ZM241.368 226V219.455H242.642V226H241.368ZM242.012 218.445C241.79 218.445 241.6 218.371 241.441 218.223C241.284 218.072 241.206 217.893 241.206 217.686C241.206 217.476 241.284 217.297 241.441 217.149C241.6 216.999 241.79 216.923 242.012 216.923C242.233 216.923 242.422 216.999 242.578 217.149C242.738 217.297 242.817 217.476 242.817 217.686C242.817 217.893 242.738 218.072 242.578 218.223C242.422 218.371 242.233 218.445 242.012 218.445ZM246.814 226.132C246.2 226.132 245.664 225.991 245.207 225.71C244.75 225.429 244.395 225.036 244.142 224.53C243.889 224.024 243.763 223.433 243.763 222.757C243.763 222.078 243.889 221.484 244.142 220.976C244.395 220.467 244.75 220.072 245.207 219.791C245.664 219.51 246.2 219.369 246.814 219.369C247.427 219.369 247.963 219.51 248.42 219.791C248.878 220.072 249.233 220.467 249.486 220.976C249.738 221.484 249.865 222.078 249.865 222.757C249.865 223.433 249.738 224.024 249.486 224.53C249.233 225.036 248.878 225.429 248.42 225.71C247.963 225.991 247.427 226.132 246.814 226.132ZM246.818 225.062C247.216 225.062 247.545 224.957 247.807 224.747C248.068 224.537 248.261 224.257 248.386 223.908C248.514 223.558 248.578 223.173 248.578 222.753C248.578 222.335 248.514 221.952 248.386 221.602C248.261 221.25 248.068 220.967 247.807 220.754C247.545 220.541 247.216 220.435 246.818 220.435C246.417 220.435 246.085 220.541 245.821 220.754C245.559 220.967 245.365 221.25 245.237 221.602C245.112 221.952 245.049 222.335 245.049 222.753C245.049 223.173 245.112 223.558 245.237 223.908C245.365 224.257 245.559 224.537 245.821 224.747C246.085 224.957 246.417 225.062 246.818 225.062ZM252.261 222.114V226H250.987V219.455H252.21V220.52H252.291C252.442 220.173 252.677 219.895 252.998 219.685C253.322 219.474 253.73 219.369 254.221 219.369C254.667 219.369 255.058 219.463 255.393 219.651C255.728 219.835 255.988 220.111 256.173 220.477C256.358 220.844 256.45 221.297 256.45 221.837V226H255.176V221.99C255.176 221.516 255.052 221.145 254.805 220.878C254.558 220.608 254.219 220.473 253.787 220.473C253.491 220.473 253.228 220.537 252.998 220.665C252.771 220.793 252.591 220.98 252.457 221.227C252.326 221.472 252.261 221.767 252.261 222.114Z"
        fill="white" />
    <circle cx="192.5" cy="214.5" fill="#FF5306" r="8.5" />
    <path
        d="M50.0028 210.273V219H48.7926L44.3565 212.599H44.2756V219H42.9588V210.273H44.1776L48.6179 216.682H48.6989V210.273H50.0028ZM54.2785 219.132C53.6648 219.132 53.1293 218.991 52.6719 218.71C52.2146 218.429 51.8594 218.036 51.6066 217.53C51.3538 217.024 51.2273 216.433 51.2273 215.757C51.2273 215.078 51.3538 214.484 51.6066 213.976C51.8594 213.467 52.2146 213.072 52.6719 212.791C53.1293 212.51 53.6648 212.369 54.2785 212.369C54.8921 212.369 55.4276 212.51 55.885 212.791C56.3424 213.072 56.6975 213.467 56.9504 213.976C57.2032 214.484 57.3296 215.078 57.3296 215.757C57.3296 216.433 57.2032 217.024 56.9504 217.53C56.6975 218.036 56.3424 218.429 55.885 218.71C55.4276 218.991 54.8921 219.132 54.2785 219.132ZM54.2827 218.062C54.6805 218.062 55.01 217.957 55.2714 217.747C55.5327 217.537 55.7259 217.257 55.8509 216.908C55.9788 216.558 56.0427 216.173 56.0427 215.753C56.0427 215.335 55.9788 214.952 55.8509 214.602C55.7259 214.25 55.5327 213.967 55.2714 213.754C55.01 213.541 54.6805 213.435 54.2827 213.435C53.8822 213.435 53.5498 213.541 53.2856 213.754C53.0242 213.967 52.8296 214.25 52.7018 214.602C52.5768 214.952 52.5143 215.335 52.5143 215.753C52.5143 216.173 52.5768 216.558 52.7018 216.908C52.8296 217.257 53.0242 217.537 53.2856 217.747C53.5498 217.957 53.8822 218.062 54.2827 218.062ZM66.2325 214.053L65.0776 214.257C65.0293 214.109 64.9526 213.969 64.8475 213.835C64.7452 213.702 64.606 213.592 64.4299 213.507C64.2538 213.422 64.0336 213.379 63.7694 213.379C63.4086 213.379 63.1075 213.46 62.866 213.622C62.6245 213.781 62.5038 213.987 62.5038 214.24C62.5038 214.459 62.5847 214.635 62.7467 214.768C62.9086 214.902 63.17 215.011 63.5308 215.097L64.5705 215.335C65.1728 215.474 65.6217 215.689 65.9171 215.979C66.2126 216.268 66.3603 216.645 66.3603 217.108C66.3603 217.5 66.2467 217.849 66.0194 218.156C65.795 218.46 65.481 218.699 65.0776 218.872C64.6771 219.045 64.2126 219.132 63.6842 219.132C62.9512 219.132 62.3532 218.976 61.8901 218.663C61.4271 218.348 61.143 217.901 61.0379 217.321L62.2694 217.134C62.3461 217.455 62.5038 217.697 62.7424 217.862C62.981 218.024 63.2921 218.105 63.6756 218.105C64.0933 218.105 64.4271 218.018 64.6771 217.845C64.9271 217.669 65.0521 217.455 65.0521 217.202C65.0521 216.997 64.9754 216.825 64.8219 216.686C64.6714 216.547 64.4398 216.442 64.1273 216.371L63.0194 216.128C62.4086 215.989 61.9569 215.767 61.6643 215.463C61.3745 215.159 61.2296 214.774 61.2296 214.308C61.2296 213.922 61.3376 213.584 61.5535 213.294C61.7694 213.004 62.0677 212.778 62.4484 212.616C62.829 212.452 63.2651 212.369 63.7566 212.369C64.464 212.369 65.0208 212.523 65.4271 212.83C65.8333 213.134 66.1018 213.541 66.2325 214.053ZM67.4612 219V212.455H68.7354V219H67.4612ZM68.1047 211.445C67.8831 211.445 67.6928 211.371 67.5337 211.223C67.3774 211.072 67.2993 210.893 67.2993 210.686C67.2993 210.476 67.3774 210.297 67.5337 210.149C67.6928 209.999 67.8831 209.923 68.1047 209.923C68.3263 209.923 68.5152 209.999 68.6714 210.149C68.8305 210.297 68.9101 210.476 68.9101 210.686C68.9101 210.893 68.8305 211.072 68.6714 211.223C68.5152 211.371 68.3263 211.445 68.1047 211.445ZM72.8938 221.591C72.3739 221.591 71.9265 221.523 71.5515 221.386C71.1793 221.25 70.8754 221.07 70.6396 220.845C70.4038 220.621 70.2276 220.375 70.1112 220.108L71.2063 219.656C71.283 219.781 71.3853 219.913 71.5131 220.053C71.6438 220.195 71.82 220.315 72.0415 220.415C72.266 220.514 72.5543 220.564 72.9066 220.564C73.3896 220.564 73.7887 220.446 74.104 220.21C74.4194 219.977 74.5771 219.605 74.5771 219.094V217.807H74.4961C74.4194 217.946 74.3086 218.101 74.1637 218.271C74.0217 218.442 73.8256 218.589 73.5756 218.714C73.3256 218.839 73.0004 218.902 72.5998 218.902C72.0827 218.902 71.6168 218.781 71.2021 218.54C70.7901 218.295 70.4634 217.936 70.2219 217.462C69.9833 216.984 69.864 216.398 69.864 215.702C69.864 215.006 69.9819 214.409 70.2177 213.912C70.4563 213.415 70.783 213.034 71.1978 212.77C71.6126 212.503 72.0827 212.369 72.6083 212.369C73.0146 212.369 73.3427 212.438 73.5927 212.574C73.8427 212.707 74.0373 212.864 74.1765 213.043C74.3185 213.222 74.4279 213.379 74.5046 213.516H74.5984V212.455H75.8469V219.145C75.8469 219.707 75.7163 220.169 75.4549 220.53C75.1935 220.891 74.8398 221.158 74.3938 221.331C73.9506 221.504 73.4506 221.591 72.8938 221.591ZM72.881 217.845C73.2475 217.845 73.5572 217.76 73.81 217.589C74.0657 217.416 74.2589 217.169 74.3896 216.848C74.5231 216.524 74.5898 216.136 74.5898 215.685C74.5898 215.244 74.5245 214.857 74.3938 214.521C74.2631 214.186 74.0714 213.925 73.8185 213.737C73.5657 213.547 73.2532 213.452 72.881 213.452C72.4975 213.452 72.1779 213.551 71.9222 213.75C71.6665 213.946 71.4734 214.213 71.3427 214.551C71.2148 214.889 71.1509 215.267 71.1509 215.685C71.1509 216.114 71.2163 216.49 71.3469 216.814C71.4776 217.138 71.6708 217.391 71.9265 217.572C72.185 217.754 72.5032 217.845 72.881 217.845ZM78.5299 215.114V219H77.2558V212.455H78.4788V213.52H78.5597C78.7103 213.173 78.9461 212.895 79.2671 212.685C79.591 212.474 79.9987 212.369 80.4901 212.369C80.9362 212.369 81.3268 212.463 81.662 212.651C81.9972 212.835 82.2572 213.111 82.4418 213.477C82.6265 213.844 82.7188 214.297 82.7188 214.837V219H81.4447V214.99C81.4447 214.516 81.3211 214.145 81.0739 213.878C80.8268 213.608 80.4873 213.473 80.0555 213.473C79.76 213.473 79.4972 213.537 79.2671 213.665C79.0398 213.793 78.8594 213.98 78.7259 214.227C78.5952 214.472 78.5299 214.767 78.5299 215.114ZM84.1276 219V212.455H85.4018V219H84.1276ZM84.7711 211.445C84.5495 211.445 84.3592 211.371 84.2001 211.223C84.0438 211.072 83.9657 210.893 83.9657 210.686C83.9657 210.476 84.0438 210.297 84.2001 210.149C84.3592 209.999 84.5495 209.923 84.7711 209.923C84.9927 209.923 85.1816 209.999 85.3379 210.149C85.4969 210.297 85.5765 210.476 85.5765 210.686C85.5765 210.893 85.4969 211.072 85.3379 211.223C85.1816 211.371 84.9927 211.445 84.7711 211.445ZM89.931 212.455V213.477H86.2321V212.455H89.931ZM87.2463 219V211.696C87.2463 211.287 87.3358 210.947 87.5148 210.678C87.6937 210.405 87.931 210.202 88.2264 210.068C88.5219 209.932 88.8429 209.864 89.1895 209.864C89.4452 209.864 89.6639 209.885 89.8457 209.928C90.0276 209.967 90.1625 210.004 90.2506 210.038L89.9523 211.07C89.8926 211.053 89.8159 211.033 89.7222 211.01C89.6284 210.984 89.5148 210.972 89.3812 210.972C89.0716 210.972 88.85 211.048 88.7165 211.202C88.5858 211.355 88.5205 211.577 88.5205 211.866V219H87.2463ZM90.9456 219V212.455H92.2197V219H90.9456ZM91.5891 211.445C91.3675 211.445 91.1771 211.371 91.018 211.223C90.8618 211.072 90.7837 210.893 90.7837 210.686C90.7837 210.476 90.8618 210.297 91.018 210.149C91.1771 209.999 91.3675 209.923 91.5891 209.923C91.8107 209.923 91.9996 209.999 92.1558 210.149C92.3149 210.297 92.3945 210.476 92.3945 210.686C92.3945 210.893 92.3149 211.072 92.1558 211.223C91.9996 211.371 91.8107 211.445 91.5891 211.445ZM96.391 219.132C95.7575 219.132 95.212 218.989 94.7546 218.702C94.3001 218.412 93.9506 218.013 93.7063 217.504C93.462 216.996 93.3398 216.413 93.3398 215.757C93.3398 215.092 93.4648 214.506 93.7148 213.997C93.9648 213.486 94.3171 213.087 94.7717 212.8C95.2262 212.513 95.7617 212.369 96.3782 212.369C96.8754 212.369 97.3185 212.462 97.7077 212.646C98.0969 212.828 98.4109 213.084 98.6495 213.413C98.891 213.743 99.0344 214.128 99.0799 214.568H97.8398C97.7717 214.261 97.6154 213.997 97.3711 213.776C97.1296 213.554 96.8058 213.443 96.3995 213.443C96.0444 213.443 95.7333 213.537 95.4663 213.724C95.2021 213.909 94.9961 214.173 94.8484 214.517C94.7006 214.858 94.6268 215.261 94.6268 215.727C94.6268 216.205 94.6992 216.616 94.8441 216.963C94.989 217.31 95.1935 217.578 95.4577 217.768C95.7248 217.959 96.0387 218.054 96.3995 218.054C96.641 218.054 96.8597 218.01 97.0558 217.922C97.2546 217.831 97.4208 217.702 97.5543 217.534C97.6907 217.366 97.7859 217.165 97.8398 216.929H99.0799C99.0344 217.352 98.8967 217.73 98.6665 218.062C98.4364 218.395 98.1282 218.656 97.7418 218.847C97.3583 219.037 96.908 219.132 96.391 219.132ZM102.047 219.145C101.633 219.145 101.258 219.068 100.922 218.915C100.587 218.759 100.321 218.533 100.125 218.237C99.9322 217.942 99.8357 217.58 99.8357 217.151C99.8357 216.781 99.9067 216.477 100.049 216.239C100.191 216 100.383 215.811 100.624 215.672C100.865 215.533 101.135 215.428 101.434 215.357C101.732 215.286 102.036 215.232 102.346 215.195C102.738 215.149 103.056 215.112 103.3 215.084C103.544 215.053 103.722 215.003 103.833 214.935C103.944 214.866 103.999 214.756 103.999 214.602V214.572C103.999 214.2 103.894 213.912 103.684 213.707C103.476 213.503 103.167 213.401 102.755 213.401C102.326 213.401 101.988 213.496 101.74 213.686C101.496 213.874 101.327 214.082 101.233 214.312L100.036 214.04C100.178 213.642 100.385 213.321 100.658 213.077C100.934 212.83 101.25 212.651 101.608 212.54C101.966 212.426 102.343 212.369 102.738 212.369C102.999 212.369 103.276 212.401 103.569 212.463C103.864 212.523 104.14 212.634 104.395 212.795C104.654 212.957 104.865 213.189 105.03 213.49C105.195 213.788 105.277 214.176 105.277 214.653V219H104.033V218.105H103.982C103.9 218.27 103.776 218.432 103.611 218.591C103.446 218.75 103.235 218.882 102.976 218.987C102.718 219.092 102.408 219.145 102.047 219.145ZM102.324 218.122C102.677 218.122 102.978 218.053 103.228 217.913C103.481 217.774 103.672 217.592 103.803 217.368C103.937 217.141 104.003 216.898 104.003 216.639V215.795C103.958 215.841 103.87 215.884 103.739 215.923C103.611 215.96 103.465 215.993 103.3 216.021C103.135 216.047 102.975 216.071 102.819 216.094C102.662 216.114 102.532 216.131 102.427 216.145C102.179 216.176 101.954 216.229 101.749 216.303C101.547 216.376 101.385 216.483 101.263 216.622C101.144 216.759 101.084 216.94 101.084 217.168C101.084 217.483 101.201 217.722 101.434 217.884C101.667 218.043 101.963 218.122 102.324 218.122ZM107.949 215.114V219H106.675V212.455H107.898V213.52H107.978C108.129 213.173 108.365 212.895 108.686 212.685C109.01 212.474 109.417 212.369 109.909 212.369C110.355 212.369 110.746 212.463 111.081 212.651C111.416 212.835 111.676 213.111 111.861 213.477C112.045 213.844 112.138 214.297 112.138 214.837V219H110.863V214.99C110.863 214.516 110.74 214.145 110.493 213.878C110.246 213.608 109.906 213.473 109.474 213.473C109.179 213.473 108.916 213.537 108.686 213.665C108.459 213.793 108.278 213.98 108.145 214.227C108.014 214.472 107.949 214.767 107.949 215.114ZM116.602 212.455V213.477H113.026V212.455H116.602ZM113.985 210.886H115.259V217.078C115.259 217.325 115.296 217.511 115.37 217.636C115.444 217.759 115.539 217.842 115.656 217.888C115.775 217.93 115.904 217.952 116.044 217.952C116.146 217.952 116.235 217.945 116.312 217.93C116.389 217.916 116.448 217.905 116.491 217.896L116.721 218.949C116.647 218.977 116.542 219.006 116.406 219.034C116.269 219.065 116.099 219.082 115.894 219.085C115.559 219.091 115.247 219.031 114.957 218.906C114.667 218.781 114.433 218.588 114.254 218.327C114.075 218.065 113.985 217.737 113.985 217.342V210.886ZM123.408 219.132C122.763 219.132 122.208 218.994 121.742 218.719C121.279 218.44 120.921 218.05 120.668 217.547C120.418 217.041 120.293 216.449 120.293 215.77C120.293 215.099 120.418 214.509 120.668 213.997C120.921 213.486 121.273 213.087 121.725 212.8C122.179 212.513 122.711 212.369 123.319 212.369C123.688 212.369 124.046 212.43 124.392 212.553C124.739 212.675 125.05 212.866 125.326 213.128C125.601 213.389 125.819 213.729 125.978 214.146C126.137 214.561 126.216 215.065 126.216 215.659V216.111H121.013V215.156H124.968C124.968 214.821 124.9 214.524 124.763 214.266C124.627 214.004 124.435 213.798 124.188 213.648C123.944 213.497 123.657 213.422 123.327 213.422C122.969 213.422 122.657 213.51 122.39 213.686C122.125 213.859 121.921 214.087 121.776 214.368C121.634 214.646 121.563 214.949 121.563 215.276V216.021C121.563 216.459 121.64 216.831 121.793 217.138C121.949 217.445 122.167 217.679 122.445 217.841C122.723 218 123.049 218.08 123.421 218.08C123.662 218.08 123.882 218.045 124.081 217.977C124.28 217.906 124.452 217.801 124.597 217.662C124.742 217.523 124.853 217.351 124.929 217.146L126.135 217.364C126.039 217.719 125.865 218.03 125.615 218.297C125.368 218.561 125.057 218.767 124.682 218.915C124.31 219.06 123.885 219.132 123.408 219.132ZM130.445 212.455V213.477H126.746V212.455H130.445ZM127.76 219V211.696C127.76 211.287 127.85 210.947 128.029 210.678C128.208 210.405 128.445 210.202 128.74 210.068C129.036 209.932 129.357 209.864 129.704 209.864C129.959 209.864 130.178 209.885 130.36 209.928C130.542 209.967 130.677 210.004 130.765 210.038L130.466 211.07C130.407 211.053 130.33 211.033 130.236 211.01C130.142 210.984 130.029 210.972 129.895 210.972C129.586 210.972 129.364 211.048 129.231 211.202C129.1 211.355 129.035 211.577 129.035 211.866V219H127.76ZM134.575 212.455V213.477H130.876V212.455H134.575ZM131.89 219V211.696C131.89 211.287 131.98 210.947 132.159 210.678C132.338 210.405 132.575 210.202 132.87 210.068C133.166 209.932 133.487 209.864 133.833 209.864C134.089 209.864 134.308 209.885 134.489 209.928C134.671 209.967 134.806 210.004 134.894 210.038L134.596 211.07C134.536 211.053 134.46 211.033 134.366 211.01C134.272 210.984 134.159 210.972 134.025 210.972C133.715 210.972 133.494 211.048 133.36 211.202C133.23 211.355 133.164 211.577 133.164 211.866V219H131.89ZM138.153 219.132C137.508 219.132 136.952 218.994 136.486 218.719C136.023 218.44 135.665 218.05 135.412 217.547C135.162 217.041 135.037 216.449 135.037 215.77C135.037 215.099 135.162 214.509 135.412 213.997C135.665 213.486 136.018 213.087 136.469 212.8C136.924 212.513 137.455 212.369 138.063 212.369C138.432 212.369 138.79 212.43 139.137 212.553C139.484 212.675 139.795 212.866 140.07 213.128C140.346 213.389 140.563 213.729 140.722 214.146C140.881 214.561 140.961 215.065 140.961 215.659V216.111H135.758V215.156H139.712C139.712 214.821 139.644 214.524 139.508 214.266C139.371 214.004 139.18 213.798 138.932 213.648C138.688 213.497 138.401 213.422 138.072 213.422C137.714 213.422 137.401 213.51 137.134 213.686C136.87 213.859 136.665 214.087 136.52 214.368C136.378 214.646 136.307 214.949 136.307 215.276V216.021C136.307 216.459 136.384 216.831 136.537 217.138C136.694 217.445 136.911 217.679 137.189 217.841C137.468 218 137.793 218.08 138.165 218.08C138.407 218.08 138.627 218.045 138.826 217.977C139.025 217.906 139.197 217.801 139.341 217.662C139.486 217.523 139.597 217.351 139.674 217.146L140.88 217.364C140.783 217.719 140.61 218.03 140.36 218.297C140.113 218.561 139.802 218.767 139.427 218.915C139.055 219.06 138.63 219.132 138.153 219.132ZM144.832 219.132C144.198 219.132 143.653 218.989 143.195 218.702C142.741 218.412 142.391 218.013 142.147 217.504C141.903 216.996 141.78 216.413 141.78 215.757C141.78 215.092 141.905 214.506 142.155 213.997C142.405 213.486 142.758 213.087 143.212 212.8C143.667 212.513 144.202 212.369 144.819 212.369C145.316 212.369 145.759 212.462 146.148 212.646C146.538 212.828 146.851 213.084 147.09 213.413C147.332 213.743 147.475 214.128 147.521 214.568H146.28C146.212 214.261 146.056 213.997 145.812 213.776C145.57 213.554 145.246 213.443 144.84 213.443C144.485 213.443 144.174 213.537 143.907 213.724C143.643 213.909 143.437 214.173 143.289 214.517C143.141 214.858 143.067 215.261 143.067 215.727C143.067 216.205 143.14 216.616 143.285 216.963C143.43 217.31 143.634 217.578 143.898 217.768C144.165 217.959 144.479 218.054 144.84 218.054C145.082 218.054 145.3 218.01 145.496 217.922C145.695 217.831 145.861 217.702 145.995 217.534C146.131 217.366 146.226 217.165 146.28 216.929H147.521C147.475 217.352 147.337 217.73 147.107 218.062C146.877 218.395 146.569 218.656 146.182 218.847C145.799 219.037 145.349 219.132 144.832 219.132ZM151.638 212.455V213.477H148.063V212.455H151.638ZM149.022 210.886H150.296V217.078C150.296 217.325 150.333 217.511 150.407 217.636C150.481 217.759 150.576 217.842 150.692 217.888C150.812 217.93 150.941 217.952 151.08 217.952C151.183 217.952 151.272 217.945 151.349 217.93C151.425 217.916 151.485 217.905 151.528 217.896L151.758 218.949C151.684 218.977 151.579 219.006 151.442 219.034C151.306 219.065 151.136 219.082 150.931 219.085C150.596 219.091 150.283 219.031 149.994 218.906C149.704 218.781 149.469 218.588 149.29 218.327C149.112 218.065 149.022 217.737 149.022 217.342V210.886Z"
        fill="white" />
    <circle cx="25" cy="215" fill="#1D3C77" r="8" />
    <path
        d="M121.842 148L128.173 135.472V135.367H120.798V132.727H131.514V135.404L125.175 148H121.842ZM139.087 148.336C137.805 148.331 136.701 148.015 135.776 147.388C134.857 146.762 134.148 145.855 133.651 144.667C133.159 143.478 132.915 142.049 132.92 140.379C132.92 138.713 133.166 137.294 133.658 136.12C134.156 134.947 134.864 134.055 135.784 133.443C136.708 132.827 137.81 132.518 139.087 132.518C140.365 132.518 141.464 132.827 142.384 133.443C143.308 134.06 144.019 134.955 144.516 136.128C145.013 137.296 145.26 138.713 145.255 140.379C145.255 142.054 145.006 143.486 144.509 144.674C144.017 145.862 143.311 146.77 142.391 147.396C141.471 148.022 140.37 148.336 139.087 148.336ZM139.087 145.658C139.962 145.658 140.661 145.218 141.183 144.338C141.705 143.458 141.963 142.138 141.958 140.379C141.958 139.22 141.839 138.256 141.6 137.485C141.367 136.714 141.034 136.135 140.601 135.748C140.174 135.36 139.669 135.166 139.087 135.166C138.217 135.166 137.521 135.601 136.999 136.471C136.477 137.341 136.214 138.643 136.209 140.379C136.209 141.552 136.326 142.531 136.559 143.317C136.798 144.097 137.134 144.684 137.566 145.077C137.999 145.464 138.506 145.658 139.087 145.658ZM155.617 145.136V144.331C155.617 143.719 155.746 143.158 156.005 142.646C156.268 142.129 156.648 141.716 157.146 141.408C157.648 141.094 158.259 140.938 158.98 140.938C159.711 140.938 160.325 141.092 160.822 141.4C161.324 141.708 161.702 142.121 161.956 142.638C162.214 143.15 162.343 143.714 162.343 144.331V145.136C162.343 145.748 162.214 146.312 161.956 146.829C161.697 147.341 161.317 147.751 160.815 148.06C160.312 148.373 159.701 148.529 158.98 148.529C158.249 148.529 157.635 148.373 157.138 148.06C156.641 147.751 156.263 147.341 156.005 146.829C155.746 146.312 155.617 145.748 155.617 145.136ZM157.787 144.331V145.136C157.787 145.489 157.871 145.822 158.04 146.136C158.214 146.449 158.528 146.605 158.98 146.605C159.432 146.605 159.741 146.451 159.905 146.143C160.074 145.835 160.158 145.499 160.158 145.136V144.331C160.158 143.968 160.079 143.63 159.92 143.317C159.761 143.004 159.447 142.847 158.98 142.847C158.533 142.847 158.222 143.004 158.048 143.317C157.874 143.63 157.787 143.968 157.787 144.331ZM147.779 136.396V135.591C147.779 134.974 147.911 134.41 148.174 133.898C148.438 133.381 148.818 132.968 149.315 132.66C149.817 132.352 150.424 132.198 151.135 132.198C151.871 132.198 152.487 132.352 152.984 132.66C153.481 132.968 153.859 133.381 154.118 133.898C154.376 134.41 154.506 134.974 154.506 135.591V136.396C154.506 137.013 154.374 137.577 154.11 138.089C153.852 138.601 153.472 139.011 152.969 139.32C152.472 139.623 151.861 139.775 151.135 139.775C150.409 139.775 149.795 139.62 149.293 139.312C148.796 138.999 148.418 138.589 148.159 138.082C147.906 137.57 147.779 137.008 147.779 136.396ZM149.964 135.591V136.396C149.964 136.759 150.049 137.095 150.218 137.403C150.392 137.711 150.697 137.865 151.135 137.865C151.592 137.865 151.903 137.711 152.067 137.403C152.236 137.095 152.321 136.759 152.321 136.396V135.591C152.321 135.228 152.241 134.89 152.082 134.577C151.923 134.263 151.607 134.107 151.135 134.107C150.692 134.107 150.387 134.266 150.218 134.584C150.049 134.902 149.964 135.238 149.964 135.591ZM148.763 148L159.263 132.727H161.217L150.717 148H148.763Z"
        fill="white" />
    <path
        d="M185.559 92.1392C184.843 92.1392 184.207 92.0166 183.65 91.7713C183.096 91.526 182.659 91.1847 182.337 90.7472C182.016 90.3097 181.845 89.8042 181.825 89.2308H183.695C183.711 89.5059 183.802 89.7462 183.968 89.9517C184.134 90.1539 184.354 90.3113 184.629 90.424C184.904 90.5367 185.213 90.593 185.554 90.593C185.919 90.593 186.242 90.5301 186.523 90.4041C186.805 90.2749 187.026 90.0959 187.185 89.8672C187.344 89.6385 187.422 89.375 187.418 89.0767C187.422 88.7685 187.342 88.4967 187.18 88.2614C187.017 88.026 186.782 87.8421 186.474 87.7095C186.169 87.5769 185.801 87.5107 185.37 87.5107H184.47V86.0888H185.37C185.725 86.0888 186.035 86.0275 186.3 85.9048C186.568 85.7822 186.779 85.6098 186.931 85.3878C187.084 85.1624 187.158 84.9022 187.155 84.6072C187.158 84.3189 187.094 84.0687 186.961 83.8565C186.832 83.6411 186.648 83.4737 186.409 83.3544C186.174 83.2351 185.897 83.1754 185.579 83.1754C185.267 83.1754 184.979 83.2318 184.714 83.3445C184.449 83.4571 184.235 83.6179 184.072 83.8267C183.91 84.0322 183.824 84.2775 183.814 84.5625H182.039C182.052 83.9924 182.216 83.492 182.531 83.0611C182.849 82.6269 183.274 82.2888 183.804 82.0469C184.334 81.8016 184.929 81.679 185.589 81.679C186.268 81.679 186.858 81.8066 187.359 82.0618C187.862 82.3137 188.252 82.6534 188.527 83.081C188.802 83.5085 188.94 83.9808 188.94 84.4979C188.943 85.0713 188.774 85.5518 188.433 85.9396C188.094 86.3274 187.65 86.581 187.1 86.7003V86.7798C187.816 86.8793 188.365 87.1444 188.746 87.5753C189.13 88.0028 189.321 88.5348 189.317 89.1712C189.317 89.7412 189.155 90.2517 188.83 90.7024C188.509 91.1499 188.065 91.5012 187.498 91.7564C186.934 92.0116 186.288 92.1392 185.559 92.1392ZM194.487 92.1939C193.669 92.1939 192.966 91.9867 192.38 91.5724C191.796 91.1548 191.347 90.5533 191.032 89.7678C190.721 88.9789 190.565 88.0294 190.565 86.919C190.568 85.8087 190.726 84.8641 191.037 84.0852C191.352 83.303 191.801 82.7064 192.384 82.2955C192.971 81.8845 193.672 81.679 194.487 81.679C195.303 81.679 196.004 81.8845 196.59 82.2955C197.177 82.7064 197.626 83.303 197.938 84.0852C198.253 84.8674 198.41 85.812 198.41 86.919C198.41 88.0327 198.253 88.9839 197.938 89.7727C197.626 90.5582 197.177 91.1581 196.59 91.5724C196.007 91.9867 195.306 92.1939 194.487 92.1939ZM194.487 90.6378C195.124 90.6378 195.626 90.3246 195.994 89.6982C196.365 89.0684 196.551 88.142 196.551 86.919C196.551 86.1103 196.466 85.4309 196.297 84.8807C196.128 84.3305 195.889 83.9162 195.581 83.6378C195.273 83.3561 194.908 83.2152 194.487 83.2152C193.854 83.2152 193.354 83.5301 192.986 84.1598C192.618 84.7862 192.433 85.706 192.429 86.919C192.426 87.7311 192.507 88.4138 192.673 88.9673C192.842 89.5208 193.081 89.9384 193.389 90.2202C193.697 90.4986 194.063 90.6378 194.487 90.6378ZM205.206 90.0909V89.554C205.206 89.1596 205.289 88.7966 205.454 88.4652C205.623 88.1338 205.869 87.867 206.19 87.6648C206.512 87.4626 206.901 87.3615 207.358 87.3615C207.829 87.3615 208.224 87.4626 208.542 87.6648C208.86 87.8636 209.1 88.1288 209.263 88.4602C209.428 88.7917 209.511 89.1562 209.511 89.554V90.0909C209.511 90.4853 209.428 90.8482 209.263 91.1797C209.097 91.5111 208.853 91.7779 208.532 91.9801C208.214 92.1823 207.822 92.2834 207.358 92.2834C206.894 92.2834 206.502 92.1823 206.18 91.9801C205.859 91.7779 205.615 91.5111 205.449 91.1797C205.287 90.8482 205.206 90.4853 205.206 90.0909ZM206.503 89.554V90.0909C206.503 90.3527 206.566 90.593 206.692 90.8118C206.818 91.0305 207.04 91.1399 207.358 91.1399C207.68 91.1399 207.9 91.0322 208.02 90.8168C208.142 90.598 208.204 90.3561 208.204 90.0909V89.554C208.204 89.2888 208.146 89.0469 208.03 88.8281C207.914 88.6061 207.69 88.495 207.358 88.495C207.047 88.495 206.826 88.6061 206.697 88.8281C206.568 89.0469 206.503 89.2888 206.503 89.554ZM200.03 84.2642V83.7273C200.03 83.3295 200.115 82.965 200.284 82.6335C200.453 82.3021 200.698 82.0369 201.02 81.8381C201.341 81.6359 201.731 81.5348 202.188 81.5348C202.655 81.5348 203.048 81.6359 203.366 81.8381C203.688 82.0369 203.93 82.3021 204.092 82.6335C204.255 82.965 204.336 83.3295 204.336 83.7273V84.2642C204.336 84.6619 204.253 85.0265 204.087 85.358C203.925 85.6861 203.683 85.9496 203.361 86.1484C203.04 86.3473 202.649 86.4467 202.188 86.4467C201.721 86.4467 201.326 86.3473 201.005 86.1484C200.687 85.9496 200.445 85.6844 200.279 85.353C200.113 85.0215 200.03 84.6586 200.03 84.2642ZM201.338 83.7273V84.2642C201.338 84.5294 201.399 84.7713 201.522 84.9901C201.648 85.2055 201.87 85.3132 202.188 85.3132C202.506 85.3132 202.725 85.2055 202.844 84.9901C202.967 84.7713 203.028 84.5294 203.028 84.2642V83.7273C203.028 83.4621 202.97 83.2202 202.854 83.0014C202.738 82.7794 202.516 82.6683 202.188 82.6683C201.873 82.6683 201.653 82.7794 201.527 83.0014C201.401 83.2235 201.338 83.4654 201.338 83.7273ZM200.597 92L207.597 81.8182H208.84L201.84 92H200.597Z"
        fill="white" />
    <path clip-rule="evenodd"
        d="M143.289 70.5611C136.254 70.3011 126.443 70.9603 121.5 72.5L125.5 69.4999C129.5 67.9999 135.813 66.2821 143.436 66.5638C150.918 66.8403 158 67.9999 160 74.5V78.4999C156 71.9999 150.465 70.8263 143.289 70.5611Z"
        fill="#FFCB9E" fill-rule="evenodd" />
    <path clip-rule="evenodd"
        d="M138.95 77.1523C129.688 76.3971 119.784 77.0098 115 78.5L118 75.5C120.5 74.5 129.629 72.3791 139.275 73.1655C144.113 73.56 148.526 73.8815 152.5 75.5C156.45 77.1087 158.5 79.0964 160 82.0964V86.5964C158.995 84.2775 154.852 81.1864 151.372 79.769C147.916 78.3614 143.566 77.5287 138.95 77.1523Z"
        fill="#FFCB9E" fill-rule="evenodd" />
</svg>
