<svg fill="none" height="244" viewBox="0 0 328 244" width="328" xmlns="http://www.w3.org/2000/svg">
    <rect fill="black" height="244" rx="16" width="328" />
    <path d="M16 228V35" stroke="white" stroke-dasharray="7 7" />
    <path d="M16 228H312" stroke="#EC6B31" />
    <path
        d="M204.117 89V79.5455H206.116V83.7141H206.241L209.643 79.5455H212.039L208.53 83.7788L212.08 89H209.689L207.099 85.1129L206.116 86.3132V89H204.117ZM215.454 89.1385C214.725 89.1385 214.097 88.9908 213.57 88.6953C213.047 88.3968 212.644 87.9751 212.361 87.4304C212.078 86.8826 211.936 86.2347 211.936 85.4869C211.936 84.7575 212.078 84.1173 212.361 83.5664C212.644 83.0155 213.043 82.5862 213.557 82.2784C214.074 81.9706 214.68 81.8168 215.375 81.8168C215.843 81.8168 216.279 81.8922 216.682 82.043C217.088 82.1907 217.442 82.4138 217.744 82.7124C218.048 83.0109 218.285 83.3864 218.455 83.8388C218.624 84.2881 218.709 84.8144 218.709 85.4176V85.9577H212.721V84.739H216.857C216.857 84.4558 216.796 84.205 216.673 83.9865C216.55 83.768 216.379 83.5972 216.16 83.4741C215.945 83.3479 215.694 83.2848 215.408 83.2848C215.109 83.2848 214.845 83.354 214.614 83.4925C214.386 83.628 214.207 83.8111 214.078 84.0419C213.949 84.2696 213.883 84.5236 213.88 84.8036V85.9624C213.88 86.3132 213.944 86.6164 214.074 86.8718C214.206 87.1272 214.392 87.3242 214.632 87.4627C214.872 87.6012 215.157 87.6705 215.486 87.6705C215.705 87.6705 215.905 87.6397 216.086 87.5781C216.268 87.5166 216.423 87.4242 216.553 87.3011C216.682 87.178 216.78 87.0272 216.848 86.8487L218.667 86.9688C218.575 87.4058 218.385 87.7874 218.099 88.1136C217.816 88.4368 217.45 88.6892 217 88.8707C216.554 89.0492 216.039 89.1385 215.454 89.1385ZM222.887 91.8068C222.249 91.8068 221.703 91.7191 221.248 91.5437C220.795 91.3713 220.435 91.1359 220.167 90.8374C219.9 90.5388 219.726 90.2034 219.646 89.831L221.465 89.5863C221.52 89.7279 221.608 89.8602 221.728 89.9833C221.848 90.1064 222.006 90.2049 222.203 90.2788C222.403 90.3557 222.646 90.3942 222.933 90.3942C223.36 90.3942 223.713 90.2895 223.99 90.0803C224.27 89.8741 224.41 89.5278 224.41 89.0415V87.7443H224.327C224.241 87.9413 224.111 88.1275 223.939 88.3029C223.767 88.4783 223.545 88.6214 223.274 88.7322C223.003 88.843 222.68 88.8984 222.305 88.8984C221.772 88.8984 221.288 88.7753 220.851 88.5291C220.417 88.2798 220.07 87.8997 219.812 87.3888C219.557 86.8749 219.429 86.2255 219.429 85.4407C219.429 84.6374 219.56 83.9665 219.821 83.4279C220.083 82.8893 220.431 82.4862 220.865 82.2184C221.302 81.9506 221.78 81.8168 222.3 81.8168C222.697 81.8168 223.03 81.8845 223.297 82.0199C223.565 82.1522 223.781 82.3184 223.944 82.5185C224.11 82.7154 224.238 82.9093 224.327 83.1001H224.401V81.9091H226.354V89.0692C226.354 89.6725 226.206 90.1772 225.91 90.5835C225.615 90.9897 225.206 91.2944 224.682 91.4975C224.162 91.7037 223.564 91.8068 222.887 91.8068ZM222.928 87.4212C223.245 87.4212 223.513 87.3427 223.731 87.1857C223.953 87.0257 224.122 86.7979 224.239 86.5025C224.359 86.204 224.419 85.8469 224.419 85.4315C224.419 85.016 224.361 84.6559 224.244 84.3512C224.127 84.0434 223.958 83.8049 223.736 83.6357C223.514 83.4664 223.245 83.3817 222.928 83.3817C222.605 83.3817 222.333 83.4695 222.111 83.6449C221.889 83.8172 221.722 84.0573 221.608 84.3651C221.494 84.6728 221.437 85.0283 221.437 85.4315C221.437 85.8408 221.494 86.1947 221.608 86.4933C221.725 86.7887 221.892 87.018 222.111 87.1811C222.333 87.3411 222.605 87.4212 222.928 87.4212ZM230.85 89.1385C230.121 89.1385 229.493 88.9908 228.967 88.6953C228.443 88.3968 228.04 87.9751 227.757 87.4304C227.474 86.8826 227.332 86.2347 227.332 85.4869C227.332 84.7575 227.474 84.1173 227.757 83.5664C228.04 83.0155 228.439 82.5862 228.953 82.2784C229.47 81.9706 230.076 81.8168 230.772 81.8168C231.239 81.8168 231.675 81.8922 232.078 82.043C232.484 82.1907 232.838 82.4138 233.14 82.7124C233.444 83.0109 233.681 83.3864 233.851 83.8388C234.02 84.2881 234.105 84.8144 234.105 85.4176V85.9577H228.117V84.739H232.253C232.253 84.4558 232.192 84.205 232.069 83.9865C231.946 83.768 231.775 83.5972 231.556 83.4741C231.341 83.3479 231.09 83.2848 230.804 83.2848C230.505 83.2848 230.241 83.354 230.01 83.4925C229.782 83.628 229.604 83.8111 229.474 84.0419C229.345 84.2696 229.279 84.5236 229.276 84.8036V85.9624C229.276 86.3132 229.34 86.6164 229.47 86.8718C229.602 87.1272 229.788 87.3242 230.028 87.4627C230.268 87.6012 230.553 87.6705 230.882 87.6705C231.101 87.6705 231.301 87.6397 231.482 87.5781C231.664 87.5166 231.819 87.4242 231.949 87.3011C232.078 87.178 232.176 87.0272 232.244 86.8487L234.063 86.9688C233.971 87.4058 233.781 87.7874 233.495 88.1136C233.212 88.4368 232.846 88.6892 232.397 88.8707C231.95 89.0492 231.435 89.1385 230.85 89.1385ZM237.055 79.5455V89H235.088V79.5455H237.055ZM241.076 89V79.5455H243.075V83.4464H247.133V79.5455H249.127V89H247.133V85.0945H243.075V89H241.076ZM254.985 85.9808V81.9091H256.952V89H255.064V87.712H254.99C254.83 88.1275 254.564 88.4614 254.191 88.7138C253.822 88.9661 253.371 89.0923 252.839 89.0923C252.365 89.0923 251.948 88.9846 251.588 88.7692C251.227 88.5537 250.946 88.2475 250.743 87.8505C250.543 87.4535 250.441 86.978 250.438 86.424V81.9091H252.405V86.0732C252.408 86.4917 252.52 86.8226 252.742 87.0657C252.963 87.3088 253.26 87.4304 253.633 87.4304C253.87 87.4304 254.091 87.3765 254.297 87.2688C254.504 87.158 254.67 86.9949 254.796 86.7795C254.925 86.564 254.988 86.2978 254.985 85.9808ZM258.262 89V79.5455H260.228V83.1001H260.289C260.375 82.9093 260.499 82.7154 260.662 82.5185C260.829 82.3184 261.044 82.1522 261.309 82.0199C261.576 81.8845 261.909 81.8168 262.306 81.8168C262.823 81.8168 263.3 81.9522 263.737 82.223C264.174 82.4908 264.523 82.8955 264.785 83.4371C265.047 83.9757 265.177 84.6513 265.177 85.4638C265.177 86.2547 265.05 86.9226 264.794 87.4673C264.542 88.009 264.197 88.4199 263.76 88.6999C263.326 88.9769 262.84 89.1154 262.301 89.1154C261.92 89.1154 261.595 89.0523 261.327 88.9261C261.063 88.8 260.846 88.6415 260.676 88.4506C260.507 88.2567 260.378 88.0613 260.289 87.8643H260.201V89H258.262ZM260.187 85.4545C260.187 85.8762 260.245 86.244 260.362 86.5579C260.479 86.8718 260.649 87.1165 260.87 87.2919C261.092 87.4643 261.361 87.5504 261.678 87.5504C261.998 87.5504 262.269 87.4627 262.491 87.2873C262.712 87.1088 262.88 86.8626 262.994 86.5487C263.111 86.2317 263.169 85.867 263.169 85.4545C263.169 85.0452 263.112 84.6851 262.998 84.3743C262.885 84.0634 262.717 83.8203 262.495 83.6449C262.274 83.4695 262.001 83.3817 261.678 83.3817C261.358 83.3817 261.087 83.4664 260.866 83.6357C260.647 83.8049 260.479 84.045 260.362 84.3558C260.245 84.6667 260.187 85.0329 260.187 85.4545Z"
        fill="#EC6B31" />
    <path
        d="M202.581 72L200.52 65.7H202.032L203.823 71.28H203.067L204.939 65.7H206.289L208.089 71.28H207.36L209.196 65.7H210.591L208.53 72H206.964L205.371 67.104H205.785L204.147 72H202.581ZM211.085 72V67.158H212.489V72H211.085ZM211.787 66.483C211.529 66.483 211.319 66.408 211.157 66.258C210.995 66.108 210.914 65.922 210.914 65.7C210.914 65.478 210.995 65.292 211.157 65.142C211.319 64.992 211.529 64.917 211.787 64.917C212.045 64.917 212.255 64.989 212.417 65.133C212.579 65.271 212.66 65.451 212.66 65.673C212.66 65.907 212.579 66.102 212.417 66.258C212.261 66.408 212.051 66.483 211.787 66.483ZM215.472 72.072C214.902 72.072 214.458 71.928 214.14 71.64C213.822 71.346 213.663 70.911 213.663 70.335V66.087H215.067V70.317C215.067 70.521 215.121 70.68 215.229 70.794C215.337 70.902 215.484 70.956 215.67 70.956C215.892 70.956 216.081 70.896 216.237 70.776L216.615 71.766C216.471 71.868 216.297 71.946 216.093 72C215.895 72.048 215.688 72.072 215.472 72.072ZM212.916 68.346V67.266H216.273V68.346H212.916ZM220.046 67.086C220.43 67.086 220.772 67.164 221.072 67.32C221.378 67.47 221.618 67.704 221.792 68.022C221.966 68.334 222.053 68.736 222.053 69.228V72H220.649V69.444C220.649 69.054 220.562 68.766 220.388 68.58C220.22 68.394 219.98 68.301 219.668 68.301C219.446 68.301 219.245 68.349 219.065 68.445C218.891 68.535 218.753 68.676 218.651 68.868C218.555 69.06 218.507 69.306 218.507 69.606V72H217.103V65.322H218.507V68.499L218.192 68.094C218.366 67.77 218.615 67.521 218.939 67.347C219.263 67.173 219.632 67.086 220.046 67.086Z"
        fill="white" />
    <path
        d="M76.3153 121.364C76.3153 122.157 76.165 122.831 75.8643 123.388C75.5661 123.944 75.1589 124.369 74.6428 124.663C74.129 124.954 73.5514 125.099 72.9098 125.099C72.2635 125.099 71.6835 124.953 71.1697 124.659C70.656 124.366 70.25 123.941 69.9517 123.384C69.6534 122.828 69.5043 122.154 69.5043 121.364C69.5043 120.571 69.6534 119.896 69.9517 119.339C70.25 118.783 70.656 118.359 71.1697 118.068C71.6835 117.775 72.2635 117.628 72.9098 117.628C73.5514 117.628 74.129 117.775 74.6428 118.068C75.1589 118.359 75.5661 118.783 75.8643 119.339C76.165 119.896 76.3153 120.571 76.3153 121.364ZM74.7564 121.364C74.7564 120.85 74.6795 120.417 74.5256 120.064C74.3741 119.711 74.1598 119.444 73.8828 119.261C73.6058 119.079 73.2815 118.988 72.9098 118.988C72.5381 118.988 72.2138 119.079 71.9368 119.261C71.6598 119.444 71.4444 119.711 71.2905 120.064C71.139 120.417 71.0632 120.85 71.0632 121.364C71.0632 121.877 71.139 122.311 71.2905 122.663C71.4444 123.016 71.6598 123.284 71.9368 123.466C72.2138 123.648 72.5381 123.739 72.9098 123.739C73.2815 123.739 73.6058 123.648 73.8828 123.466C74.1598 123.284 74.3741 123.016 74.5256 122.663C74.6795 122.311 74.7564 121.877 74.7564 121.364ZM78.6387 121.847V125H77.126V119.545H78.5677V120.508H78.6316C78.7524 120.191 78.9548 119.94 79.2389 119.755C79.523 119.568 79.8674 119.474 80.2723 119.474C80.6511 119.474 80.9813 119.557 81.263 119.723C81.5448 119.889 81.7637 120.125 81.92 120.433C82.0762 120.739 82.1544 121.103 82.1544 121.527V125H80.6416V121.797C80.644 121.463 80.5587 121.203 80.3859 121.016C80.2131 120.826 79.9752 120.732 79.6721 120.732C79.4685 120.732 79.2886 120.775 79.1324 120.863C78.9785 120.951 78.8577 121.078 78.7701 121.246C78.6849 121.412 78.6411 121.612 78.6387 121.847ZM70.5376 139.045C70.3459 139.045 70.166 139.03 69.9979 138.999C69.8321 138.971 69.6948 138.934 69.5859 138.889L69.9268 137.76C70.1044 137.814 70.2642 137.844 70.4062 137.849C70.5507 137.853 70.675 137.82 70.7791 137.749C70.8857 137.678 70.9721 137.558 71.0384 137.387L71.1271 137.156L69.1705 131.545H70.7614L71.8906 135.551H71.9474L73.0874 131.545H74.6889L72.5689 137.589C72.4671 137.883 72.3286 138.139 72.1534 138.357C71.9806 138.577 71.7616 138.746 71.4964 138.864C71.2313 138.985 70.9117 139.045 70.5376 139.045ZM77.4518 137.107C76.9002 137.107 76.4231 136.989 76.0207 136.755C75.6206 136.518 75.3116 136.189 75.0938 135.768C74.876 135.344 74.7671 134.853 74.7671 134.294C74.7671 133.731 74.876 133.238 75.0938 132.817C75.3116 132.393 75.6206 132.064 76.0207 131.83C76.4231 131.593 76.9002 131.474 77.4518 131.474C78.0034 131.474 78.4792 131.593 78.8793 131.83C79.2818 132.064 79.5919 132.393 79.8097 132.817C80.0275 133.238 80.1364 133.731 80.1364 134.294C80.1364 134.853 80.0275 135.344 79.8097 135.768C79.5919 136.189 79.2818 136.518 78.8793 136.755C78.4792 136.989 78.0034 137.107 77.4518 137.107ZM77.4589 135.935C77.7098 135.935 77.9193 135.864 78.0874 135.722C78.2555 135.577 78.3822 135.381 78.4674 135.132C78.555 134.884 78.5988 134.601 78.5988 134.283C78.5988 133.966 78.555 133.683 78.4674 133.435C78.3822 133.186 78.2555 132.99 78.0874 132.845C77.9193 132.701 77.7098 132.629 77.4589 132.629C77.2056 132.629 76.9925 132.701 76.8197 132.845C76.6492 132.99 76.5202 133.186 76.4326 133.435C76.3474 133.683 76.3048 133.966 76.3048 134.283C76.3048 134.601 76.3474 134.884 76.4326 135.132C76.5202 135.381 76.6492 135.577 76.8197 135.722C76.9925 135.864 77.2056 135.935 77.4589 135.935ZM84.318 134.678V131.545H85.8308V137H84.3783V136.009H84.3215C84.1984 136.329 83.9936 136.586 83.7072 136.78C83.4231 136.974 83.0763 137.071 82.6667 137.071C82.3021 137.071 81.9813 136.988 81.7043 136.822C81.4273 136.657 81.2107 136.421 81.0545 136.116C80.9006 135.81 80.8225 135.445 80.8201 135.018V131.545H82.3329V134.749C82.3353 135.071 82.4217 135.325 82.5921 135.512C82.7626 135.699 82.991 135.793 83.2775 135.793C83.4598 135.793 83.6302 135.751 83.7888 135.668C83.9475 135.583 84.0753 135.458 84.1724 135.292C84.2718 135.126 84.3203 134.921 84.318 134.678ZM86.7408 137V131.545H88.2074V132.497H88.2642C88.3637 132.159 88.5306 131.903 88.765 131.73C88.9993 131.555 89.2692 131.467 89.5746 131.467C89.6504 131.467 89.732 131.472 89.8196 131.482C89.9072 131.491 89.9842 131.504 90.0505 131.521V132.863C89.9794 132.842 89.8812 132.823 89.7557 132.806C89.6302 132.79 89.5154 132.781 89.4113 132.781C89.1887 132.781 88.9899 132.83 88.8147 132.927C88.6418 133.022 88.5045 133.154 88.4027 133.325C88.3033 133.495 88.2536 133.692 88.2536 133.914V137H86.7408ZM95.0115 137.107C94.4599 137.107 93.9829 136.989 93.5804 136.755C93.1803 136.518 92.8714 136.189 92.6536 135.768C92.4358 135.344 92.3269 134.853 92.3269 134.294C92.3269 133.731 92.4358 133.238 92.6536 132.817C92.8714 132.393 93.1803 132.064 93.5804 131.83C93.9829 131.593 94.4599 131.474 95.0115 131.474C95.5632 131.474 96.039 131.593 96.4391 131.83C96.8416 132.064 97.1517 132.393 97.3695 132.817C97.5873 133.238 97.6962 133.731 97.6962 134.294C97.6962 134.853 97.5873 135.344 97.3695 135.768C97.1517 136.189 96.8416 136.518 96.4391 136.755C96.039 136.989 95.5632 137.107 95.0115 137.107ZM95.0186 135.935C95.2696 135.935 95.4791 135.864 95.6472 135.722C95.8153 135.577 95.9419 135.381 96.0272 135.132C96.1148 134.884 96.1586 134.601 96.1586 134.283C96.1586 133.966 96.1148 133.683 96.0272 133.435C95.9419 133.186 95.8153 132.99 95.6472 132.845C95.4791 132.701 95.2696 132.629 95.0186 132.629C94.7653 132.629 94.5523 132.701 94.3794 132.845C94.209 132.99 94.08 133.186 93.9924 133.435C93.9071 133.683 93.8645 133.966 93.8645 134.283C93.8645 134.601 93.9071 134.884 93.9924 135.132C94.08 135.381 94.209 135.577 94.3794 135.722C94.5523 135.864 94.7653 135.935 95.0186 135.935ZM99.3191 137L97.8348 131.545H99.3653L100.21 135.21H100.26L101.141 131.545H102.643L103.538 135.189H103.584L104.415 131.545H105.942L104.461 137H102.86L101.922 133.57H101.855L100.917 137H99.3191ZM107.962 133.847V137H106.449V131.545H107.891V132.508H107.955C108.075 132.191 108.278 131.94 108.562 131.755C108.846 131.568 109.19 131.474 109.595 131.474C109.974 131.474 110.304 131.557 110.586 131.723C110.868 131.889 111.087 132.125 111.243 132.433C111.399 132.739 111.477 133.103 111.477 133.527V137H109.965V133.797C109.967 133.463 109.882 133.203 109.709 133.016C109.536 132.826 109.298 132.732 108.995 132.732C108.792 132.732 108.612 132.775 108.455 132.863C108.302 132.951 108.181 133.078 108.093 133.246C108.008 133.412 107.964 133.612 107.962 133.847Z"
        fill="white" />
    <path
        d="M203 125C203 118.373 208.373 113 215 113H259C265.627 113 271 118.373 271 125V228H203V125Z"
        fill="#EC6B31" />
    <path d="M58 172C58 165.373 63.3726 160 70 160H114C120.627 160 126 165.373 126 172V228H58V172Z"
        fill="#4A75C8" />
    <g clip-path="url(#clip0_632_505)">
        <path clip-rule="evenodd"
            d="M271.471 132.563L205.585 109.952L207.115 106L273 128.611L271.471 132.563ZM272.235 139L203 115.338L203.558 113.234L204.117 111.131L272.235 134.793V139Z"
            fill="#FFCB9E" fill-rule="evenodd" />
        <path
            d="M216.943 179V177.227L221.085 173.392C221.438 173.051 221.733 172.744 221.972 172.472C222.214 172.199 222.398 171.932 222.523 171.67C222.648 171.405 222.71 171.119 222.71 170.812C222.71 170.472 222.633 170.178 222.477 169.932C222.322 169.682 222.11 169.491 221.841 169.358C221.572 169.222 221.267 169.153 220.926 169.153C220.57 169.153 220.259 169.225 219.994 169.369C219.729 169.513 219.525 169.72 219.381 169.989C219.237 170.258 219.165 170.578 219.165 170.949H216.83C216.83 170.187 217.002 169.527 217.347 168.966C217.691 168.405 218.174 167.972 218.795 167.665C219.417 167.358 220.133 167.205 220.943 167.205C221.777 167.205 222.502 167.352 223.119 167.648C223.741 167.939 224.223 168.345 224.568 168.864C224.913 169.383 225.085 169.977 225.085 170.648C225.085 171.087 224.998 171.521 224.824 171.949C224.653 172.377 224.348 172.852 223.909 173.375C223.47 173.894 222.85 174.517 222.051 175.244L220.352 176.909V176.989H225.239V179H216.943ZM226.721 179V177.227L230.863 173.392C231.216 173.051 231.511 172.744 231.75 172.472C231.992 172.199 232.176 171.932 232.301 171.67C232.426 171.405 232.488 171.119 232.488 170.812C232.488 170.472 232.411 170.178 232.255 169.932C232.1 169.682 231.888 169.491 231.619 169.358C231.35 169.222 231.045 169.153 230.704 169.153C230.348 169.153 230.038 169.225 229.772 169.369C229.507 169.513 229.303 169.72 229.159 169.989C229.015 170.258 228.943 170.578 228.943 170.949H226.608C226.608 170.187 226.78 169.527 227.125 168.966C227.469 168.405 227.952 167.972 228.574 167.665C229.195 167.358 229.911 167.205 230.721 167.205C231.555 167.205 232.28 167.352 232.897 167.648C233.519 167.939 234.002 168.345 234.346 168.864C234.691 169.383 234.863 169.977 234.863 170.648C234.863 171.087 234.776 171.521 234.602 171.949C234.432 172.377 234.127 172.852 233.687 173.375C233.248 173.894 232.629 174.517 231.829 175.244L230.13 176.909V176.989H235.017V179H226.721ZM241.062 179.256C240.085 179.252 239.244 179.011 238.539 178.534C237.838 178.057 237.299 177.366 236.92 176.46C236.545 175.555 236.359 174.466 236.363 173.193C236.363 171.924 236.551 170.843 236.926 169.949C237.304 169.055 237.844 168.375 238.545 167.909C239.249 167.439 240.088 167.205 241.062 167.205C242.035 167.205 242.873 167.439 243.573 167.909C244.278 168.379 244.82 169.061 245.198 169.955C245.577 170.845 245.765 171.924 245.761 173.193C245.761 174.47 245.571 175.561 245.193 176.466C244.818 177.371 244.28 178.062 243.579 178.54C242.878 179.017 242.039 179.256 241.062 179.256ZM241.062 177.216C241.729 177.216 242.261 176.881 242.659 176.21C243.056 175.54 243.253 174.534 243.249 173.193C243.249 172.311 243.159 171.576 242.977 170.989C242.799 170.402 242.545 169.96 242.215 169.665C241.89 169.369 241.505 169.222 241.062 169.222C240.399 169.222 239.869 169.553 239.471 170.216C239.073 170.879 238.873 171.871 238.869 173.193C238.869 174.087 238.958 174.833 239.136 175.432C239.318 176.027 239.573 176.473 239.903 176.773C240.232 177.068 240.619 177.216 241.062 177.216ZM253.584 176.818V176.205C253.584 175.739 253.683 175.311 253.88 174.92C254.081 174.527 254.37 174.212 254.749 173.977C255.132 173.739 255.598 173.619 256.147 173.619C256.704 173.619 257.171 173.737 257.55 173.972C257.933 174.206 258.221 174.521 258.414 174.915C258.611 175.305 258.709 175.735 258.709 176.205V176.818C258.709 177.284 258.611 177.714 258.414 178.108C258.217 178.498 257.927 178.811 257.545 179.045C257.162 179.284 256.696 179.403 256.147 179.403C255.59 179.403 255.122 179.284 254.743 179.045C254.365 178.811 254.077 178.498 253.88 178.108C253.683 177.714 253.584 177.284 253.584 176.818ZM255.238 176.205V176.818C255.238 177.087 255.302 177.341 255.431 177.58C255.564 177.818 255.802 177.938 256.147 177.938C256.492 177.938 256.726 177.82 256.851 177.585C256.98 177.35 257.045 177.095 257.045 176.818V176.205C257.045 175.928 256.984 175.67 256.863 175.432C256.742 175.193 256.503 175.074 256.147 175.074C255.806 175.074 255.569 175.193 255.437 175.432C255.304 175.67 255.238 175.928 255.238 176.205ZM247.613 170.159V169.545C247.613 169.076 247.713 168.646 247.914 168.256C248.115 167.862 248.404 167.547 248.783 167.312C249.166 167.078 249.628 166.96 250.17 166.96C250.73 166.96 251.2 167.078 251.579 167.312C251.957 167.547 252.245 167.862 252.442 168.256C252.639 168.646 252.738 169.076 252.738 169.545V170.159C252.738 170.629 252.637 171.059 252.437 171.449C252.24 171.839 251.95 172.152 251.567 172.386C251.189 172.617 250.723 172.733 250.17 172.733C249.617 172.733 249.149 172.616 248.766 172.381C248.387 172.142 248.1 171.83 247.903 171.443C247.709 171.053 247.613 170.625 247.613 170.159ZM249.278 169.545V170.159C249.278 170.436 249.342 170.691 249.471 170.926C249.603 171.161 249.836 171.278 250.17 171.278C250.518 171.278 250.755 171.161 250.88 170.926C251.009 170.691 251.073 170.436 251.073 170.159V169.545C251.073 169.269 251.012 169.011 250.891 168.773C250.77 168.534 250.529 168.415 250.17 168.415C249.832 168.415 249.6 168.536 249.471 168.778C249.342 169.021 249.278 169.277 249.278 169.545ZM248.363 179L256.363 167.364H257.851L249.851 179H248.363Z"
            fill="white" />
    </g>
    <path
        d="M75.9432 197V195.227L80.0852 191.392C80.4375 191.051 80.733 190.744 80.9716 190.472C81.214 190.199 81.3977 189.932 81.5227 189.67C81.6477 189.405 81.7102 189.119 81.7102 188.812C81.7102 188.472 81.6326 188.178 81.4773 187.932C81.322 187.682 81.1098 187.491 80.8409 187.358C80.572 187.222 80.267 187.153 79.9261 187.153C79.5701 187.153 79.2595 187.225 78.9943 187.369C78.7292 187.513 78.5246 187.72 78.3807 187.989C78.2367 188.258 78.1648 188.578 78.1648 188.949H75.8295C75.8295 188.187 76.0019 187.527 76.3466 186.966C76.6913 186.405 77.1742 185.972 77.7955 185.665C78.4167 185.358 79.1326 185.205 79.9432 185.205C80.7765 185.205 81.5019 185.352 82.1193 185.648C82.7405 185.939 83.2235 186.345 83.5682 186.864C83.9129 187.383 84.0852 187.977 84.0852 188.648C84.0852 189.087 83.9981 189.521 83.8239 189.949C83.6534 190.377 83.3485 190.852 82.9091 191.375C82.4697 191.894 81.8504 192.517 81.0511 193.244L79.3523 194.909V194.989H84.2386V197H75.9432ZM90.2838 197.256C89.3065 197.252 88.4656 197.011 87.7611 196.534C87.0603 196.057 86.5205 195.366 86.1418 194.46C85.7668 193.555 85.5812 192.466 85.5849 191.193C85.5849 189.924 85.7724 188.843 86.1474 187.949C86.5262 187.055 87.066 186.375 87.7668 185.909C88.4713 185.439 89.3103 185.205 90.2838 185.205C91.2573 185.205 92.0944 185.439 92.7952 185.909C93.4997 186.379 94.0414 187.061 94.4202 187.955C94.799 188.845 94.9865 189.924 94.9827 191.193C94.9827 192.47 94.7933 193.561 94.4145 194.466C94.0395 195.371 93.5016 196.062 92.8009 196.54C92.1001 197.017 91.2611 197.256 90.2838 197.256ZM90.2838 195.216C90.9505 195.216 91.4827 194.881 91.8804 194.21C92.2781 193.54 92.4751 192.534 92.4713 191.193C92.4713 190.311 92.3804 189.576 92.1986 188.989C92.0205 188.402 91.7668 187.96 91.4372 187.665C91.1115 187.369 90.727 187.222 90.2838 187.222C89.6209 187.222 89.0906 187.553 88.6929 188.216C88.2952 188.879 88.0944 189.871 88.0906 191.193C88.0906 192.087 88.1796 192.833 88.3577 193.432C88.5395 194.027 88.7952 194.473 89.1247 194.773C89.4543 195.068 89.8406 195.216 90.2838 195.216ZM102.806 194.818V194.205C102.806 193.739 102.905 193.311 103.102 192.92C103.302 192.527 103.592 192.212 103.971 191.977C104.354 191.739 104.82 191.619 105.369 191.619C105.926 191.619 106.393 191.737 106.772 191.972C107.155 192.206 107.443 192.521 107.636 192.915C107.833 193.305 107.931 193.735 107.931 194.205V194.818C107.931 195.284 107.833 195.714 107.636 196.108C107.439 196.498 107.149 196.811 106.766 197.045C106.384 197.284 105.918 197.403 105.369 197.403C104.812 197.403 104.344 197.284 103.965 197.045C103.587 196.811 103.299 196.498 103.102 196.108C102.905 195.714 102.806 195.284 102.806 194.818ZM104.46 194.205V194.818C104.46 195.087 104.524 195.341 104.653 195.58C104.785 195.818 105.024 195.938 105.369 195.938C105.713 195.938 105.948 195.82 106.073 195.585C106.202 195.35 106.266 195.095 106.266 194.818V194.205C106.266 193.928 106.206 193.67 106.085 193.432C105.963 193.193 105.725 193.074 105.369 193.074C105.028 193.074 104.791 193.193 104.659 193.432C104.526 193.67 104.46 193.928 104.46 194.205ZM96.8347 188.159V187.545C96.8347 187.076 96.935 186.646 97.1358 186.256C97.3366 185.862 97.6263 185.547 98.0051 185.312C98.3877 185.078 98.8498 184.96 99.3915 184.96C99.9521 184.96 100.422 185.078 100.801 185.312C101.179 185.547 101.467 185.862 101.664 186.256C101.861 186.646 101.96 187.076 101.96 187.545V188.159C101.96 188.629 101.859 189.059 101.659 189.449C101.462 189.839 101.172 190.152 100.789 190.386C100.41 190.617 99.9445 190.733 99.3915 190.733C98.8384 190.733 98.3706 190.616 97.9881 190.381C97.6093 190.142 97.3214 189.83 97.1244 189.443C96.9312 189.053 96.8347 188.625 96.8347 188.159ZM98.4994 187.545V188.159C98.4994 188.436 98.5638 188.691 98.6926 188.926C98.8252 189.161 99.0581 189.278 99.3915 189.278C99.74 189.278 99.9767 189.161 100.102 188.926C100.23 188.691 100.295 188.436 100.295 188.159V187.545C100.295 187.269 100.234 187.011 100.113 186.773C99.9919 186.534 99.7513 186.415 99.3915 186.415C99.0544 186.415 98.8214 186.536 98.6926 186.778C98.5638 187.021 98.4994 187.277 98.4994 187.545ZM97.5847 197L105.585 185.364H107.073L99.0733 197H97.5847Z"
        fill="white" />
    <path
        d="M17.0251 227.278C16.9022 227.816 17.239 228.352 17.7775 228.475C18.3159 228.598 18.852 228.261 18.9749 227.723L17.0251 227.278ZM100 159.5L99.5528 160.394L100.291 160.763L100.793 160.109L100 159.5ZM230.667 113C230.667 115.946 233.054 118.333 236 118.333C238.946 118.333 241.333 115.946 241.333 113C241.333 110.055 238.946 107.667 236 107.667C233.054 107.667 230.667 110.055 230.667 113ZM19.6974 224.771C19.8367 224.236 19.5163 223.69 18.9819 223.551C18.4475 223.412 17.9013 223.732 17.7621 224.266L19.6974 224.771ZM19.4784 218.326C19.312 218.853 19.604 219.415 20.1306 219.581C20.6573 219.748 21.2191 219.456 21.3855 218.929L19.4784 218.326ZM23.3513 213.165C23.541 212.647 23.2743 212.072 22.7556 211.883C22.237 211.693 21.6627 211.96 21.473 212.478L23.3513 213.165ZM23.7208 206.712C23.5095 207.223 23.7519 207.808 24.2621 208.019C24.7724 208.23 25.3573 207.988 25.5687 207.478L23.7208 206.712ZM28.0194 201.891C28.2518 201.39 28.034 200.795 27.533 200.563C27.032 200.33 26.4374 200.548 26.2051 201.049L28.0194 201.891ZM28.9258 195.496C28.6721 195.987 28.8642 196.59 29.3548 196.844C29.8454 197.097 30.4487 196.905 30.7024 196.415L28.9258 195.496ZM33.6243 191.063C33.9002 190.585 33.7359 189.973 33.2574 189.697C32.7789 189.422 32.1674 189.586 31.8916 190.064L33.6243 191.063ZM35.1146 184.778C34.8153 185.242 34.9488 185.861 35.4129 186.16C35.8771 186.459 36.496 186.326 36.7953 185.862L35.1146 184.778ZM40.2315 180.84C40.5563 180.394 40.4574 179.768 40.0106 179.443C39.5639 179.119 38.9385 179.218 38.6138 179.664L40.2315 180.84ZM42.4169 174.759C42.0645 175.185 42.1236 175.815 42.5488 176.167C42.9741 176.52 43.6045 176.461 43.9569 176.035L42.4169 174.759ZM47.9897 171.509C48.3723 171.11 48.3596 170.477 47.9614 170.095C47.5631 169.712 46.9301 169.725 46.5474 170.123L47.9897 171.509ZM51.0492 165.815C50.6337 166.179 50.5917 166.81 50.9555 167.226C51.3193 167.641 51.951 167.683 52.3666 167.32L51.0492 165.815ZM57.097 163.576C57.5474 163.257 57.6536 162.632 57.3341 162.182C57.0145 161.731 56.3903 161.625 55.9399 161.945L57.097 163.576ZM61.2494 158.63C60.7637 158.893 60.5831 159.5 60.846 159.985C61.1088 160.471 61.7157 160.652 62.2014 160.389L61.2494 158.63ZM67.6566 157.904C68.1743 157.711 68.4381 157.136 68.2459 156.618C68.0536 156.1 67.478 155.836 66.9603 156.029L67.6566 157.904ZM73.0083 154.302C72.4668 154.411 72.1161 154.938 72.2249 155.48C72.3337 156.021 72.8609 156.372 73.4023 156.263L73.0083 154.302ZM79.3288 155.574C79.8808 155.556 80.3137 155.094 80.2957 154.542C80.2777 153.99 79.8156 153.557 79.2636 153.575L79.3288 155.574ZM85.5423 153.885C84.9946 153.813 84.4928 154.199 84.4215 154.747C84.3502 155.295 84.7363 155.797 85.284 155.868L85.5423 153.885ZM91.1573 157.091C91.6884 157.243 92.2418 156.935 92.3935 156.404C92.5451 155.873 92.2375 155.32 91.7065 155.168L91.1573 157.091ZM97.5841 157.274C97.0768 157.055 96.4885 157.289 96.2702 157.797C96.0519 158.304 96.2861 158.892 96.7934 159.111L97.5841 157.274ZM102.685 157.731C103.036 157.304 102.975 156.674 102.548 156.323C102.121 155.973 101.491 156.034 101.14 156.461L102.685 157.731ZM105.206 151.77C104.835 152.178 104.865 152.811 105.274 153.182C105.683 153.554 106.315 153.523 106.687 153.114L105.206 151.77ZM110.923 148.633C111.309 148.238 111.303 147.605 110.909 147.219C110.514 146.832 109.881 146.838 109.495 147.232L110.923 148.633ZM113.908 142.877C113.509 143.259 113.495 143.892 113.876 144.291C114.258 144.69 114.891 144.705 115.29 144.323L113.908 142.877ZM119.795 140.142C120.205 139.772 120.237 139.14 119.867 138.729C119.498 138.319 118.865 138.287 118.455 138.656L119.795 140.142ZM123.127 134.561C122.706 134.919 122.656 135.55 123.014 135.971C123.373 136.391 124.004 136.441 124.424 136.083L123.127 134.561ZM129.165 132.151C129.595 131.804 129.663 131.174 129.316 130.744C128.969 130.315 128.34 130.247 127.91 130.594L129.165 132.151ZM132.798 126.76C132.359 127.095 132.274 127.722 132.609 128.161C132.944 128.601 133.571 128.685 134.011 128.351L132.798 126.76ZM138.952 124.693C139.4 124.37 139.502 123.745 139.18 123.297C138.858 122.848 138.233 122.746 137.784 123.068L138.952 124.693ZM142.879 119.52C142.421 119.829 142.3 120.45 142.609 120.908C142.918 121.366 143.539 121.487 143.997 121.178L142.879 119.52ZM149.147 117.819C149.615 117.525 149.755 116.907 149.461 116.44C149.166 115.973 148.549 115.832 148.081 116.127L149.147 117.819ZM153.395 112.904C152.918 113.182 152.757 113.794 153.035 114.271C153.314 114.748 153.926 114.91 154.403 114.631L153.395 112.904ZM159.766 111.635C160.253 111.375 160.437 110.769 160.177 110.282C159.917 109.794 159.311 109.61 158.824 109.871L159.766 111.635ZM164.37 107.052C163.873 107.291 163.664 107.889 163.904 108.387C164.144 108.884 164.741 109.093 165.239 108.853L164.37 107.052ZM170.822 106.318C171.33 106.101 171.567 105.514 171.35 105.006C171.134 104.498 170.547 104.261 170.039 104.477L170.822 106.318ZM175.831 102.187C175.312 102.376 175.045 102.95 175.234 103.469C175.423 103.987 175.997 104.255 176.516 104.066L175.831 102.187ZM182.318 102.144C182.848 101.987 183.149 101.431 182.992 100.901C182.835 100.372 182.279 100.07 181.749 100.227L182.318 102.144ZM187.806 98.6554C187.267 98.7745 186.926 99.3082 187.045 99.8475C187.164 100.387 187.698 100.727 188.237 100.608L187.806 98.6554ZM194.241 99.5354C194.788 99.4616 195.172 98.9581 195.098 98.4107C195.024 97.8634 194.521 97.4795 193.973 97.5533L194.241 99.5354ZM200.222 97.012C199.67 97.032 199.239 97.4956 199.259 98.0475C199.279 98.5994 199.743 99.0306 200.295 99.0106L200.222 97.012ZM206.347 99.1279C206.897 99.1708 207.378 98.7592 207.421 98.2086C207.464 97.658 207.053 97.1768 206.502 97.1339L206.347 99.1279ZM212.747 98.0264C212.207 97.912 211.676 98.2573 211.562 98.7976C211.447 99.3379 211.793 99.8686 212.333 99.983L212.747 98.0264ZM218.125 101.647C218.643 101.838 219.218 101.573 219.409 101.055C219.599 100.536 219.334 99.9615 218.816 99.7706L218.125 101.647ZM224.572 102.398C224.088 102.131 223.48 102.307 223.213 102.791C222.947 103.274 223.122 103.883 223.606 104.149L224.572 102.398ZM228.642 107.438C229.081 107.773 229.708 107.689 230.043 107.25C230.378 106.811 230.294 106.184 229.855 105.849L228.642 107.438ZM234.581 110.009C234.192 109.617 233.559 109.614 233.167 110.003C232.775 110.392 232.773 111.025 233.162 111.417L234.581 110.009ZM18.9749 227.723C19.1931 226.767 19.434 225.782 19.6974 224.771L17.7621 224.266C17.4937 225.296 17.2479 226.301 17.0251 227.278L18.9749 227.723ZM21.3855 218.929C21.9768 217.058 22.6324 215.131 23.3513 213.165L21.473 212.478C20.7441 214.471 20.0788 216.427 19.4784 218.326L21.3855 218.929ZM25.5687 207.478C26.3343 205.629 27.1515 203.762 28.0194 201.891L26.2051 201.049C25.3252 202.946 24.4968 204.839 23.7208 206.712L25.5687 207.478ZM30.7024 196.415C31.6309 194.619 32.6052 192.831 33.6243 191.063L31.8916 190.064C30.8566 191.86 29.8677 193.674 28.9258 195.496L30.7024 196.415ZM36.7953 185.862C37.8978 184.152 39.0435 182.475 40.2315 180.84L38.6138 179.664C37.4026 181.331 36.236 183.039 35.1146 184.778L36.7953 185.862ZM43.9569 176.035C45.2586 174.465 46.6032 172.952 47.9897 171.509L46.5474 170.123C45.1248 171.604 43.7477 173.153 42.4169 174.759L43.9569 176.035ZM52.3666 167.32C53.9002 165.977 55.4774 164.725 57.097 163.576L55.9399 161.945C54.2607 163.136 52.6302 164.431 51.0492 165.815L52.3666 167.32ZM62.2014 160.389C63.976 159.428 65.7947 158.595 67.6566 157.904L66.9603 156.029C65.0052 156.755 63.1012 157.628 61.2494 158.63L62.2014 160.389ZM73.4023 156.263C75.3348 155.875 77.3105 155.64 79.3288 155.574L79.2636 153.575C77.1325 153.645 75.0468 153.893 73.0083 154.302L73.4023 156.263ZM85.284 155.868C87.2042 156.118 89.1622 156.522 91.1573 157.091L91.7065 155.168C89.6186 154.572 87.5635 154.148 85.5423 153.885L85.284 155.868ZM96.7934 159.111C97.7059 159.503 98.6257 159.931 99.5528 160.394L100.447 158.606C99.4869 158.125 98.5325 157.682 97.5841 157.274L96.7934 159.111ZM100.793 160.109C101.382 159.342 102.013 158.549 102.685 157.731L101.14 156.461C100.455 157.294 99.8101 158.105 99.2068 158.891L100.793 160.109ZM106.687 153.114C108.004 151.664 109.419 150.166 110.923 148.633L109.495 147.232C107.974 148.783 106.542 150.299 105.206 151.77L106.687 153.114ZM115.29 144.323C116.733 142.944 118.236 141.547 119.795 140.142L118.455 138.656C116.882 140.075 115.365 141.485 113.908 142.877L115.29 144.323ZM124.424 136.083C125.963 134.77 127.545 133.457 129.165 132.151L127.91 130.594C126.275 131.912 124.679 133.237 123.127 134.561L124.424 136.083ZM134.011 128.351C135.628 127.118 137.276 125.896 138.952 124.693L137.784 123.068C136.094 124.283 134.43 125.516 132.798 126.76L134.011 128.351ZM143.997 121.178C145.693 120.034 147.411 118.912 149.147 117.819L148.081 116.127C146.327 117.232 144.591 118.365 142.879 119.52L143.997 121.178ZM154.403 114.631C156.177 113.597 157.966 112.596 159.766 111.635L158.824 109.871C157.001 110.844 155.19 111.857 153.395 112.904L154.403 114.631ZM165.239 108.853C167.094 107.959 168.957 107.112 170.822 106.318L170.039 104.477C168.143 105.285 166.252 106.145 164.37 107.052L165.239 108.853ZM176.516 104.066C178.453 103.36 180.389 102.717 182.318 102.144L181.749 100.227C179.778 100.812 177.804 101.467 175.831 102.187L176.516 104.066ZM188.237 100.608C190.253 100.163 192.255 99.8031 194.241 99.5354L193.973 97.5533C191.929 97.829 189.872 98.1991 187.806 98.6554L188.237 100.608ZM200.295 99.0106C202.339 98.9365 204.359 98.9728 206.347 99.1279L206.502 97.1339C204.434 96.9726 202.338 96.9353 200.222 97.012L200.295 99.0106ZM212.333 99.983C214.304 100.4 216.236 100.952 218.125 101.647L218.816 99.7706C216.834 99.0408 214.809 98.4629 212.747 98.0264L212.333 99.983ZM223.606 104.149C225.331 105.1 227.011 106.194 228.642 107.438L229.855 105.849C228.147 104.544 226.384 103.397 224.572 102.398L223.606 104.149ZM233.162 111.417C233.869 112.13 234.564 112.876 235.247 113.658L236.753 112.342C236.043 111.529 235.319 110.751 234.581 110.009L233.162 111.417Z"
        fill="#4A75C8" />
    <circle cx="236" cy="113" fill="white" r="3" />
    <path
        d="M76.8849 30V19.8182H80.902C81.6742 19.8182 82.3321 19.9657 82.8757 20.2607C83.4193 20.5523 83.8336 20.9583 84.1186 21.4787C84.407 21.9957 84.5511 22.5923 84.5511 23.2685C84.5511 23.9446 84.4053 24.5412 84.1136 25.0582C83.822 25.5753 83.3994 25.978 82.8459 26.2663C82.2957 26.5547 81.6295 26.6989 80.8473 26.6989H78.2869V24.9737H80.4993C80.9136 24.9737 81.255 24.9025 81.5234 24.7599C81.7952 24.6141 81.9974 24.4136 82.13 24.1584C82.2659 23.8999 82.3338 23.6032 82.3338 23.2685C82.3338 22.9304 82.2659 22.6354 82.13 22.3835C81.9974 22.1283 81.7952 21.9311 81.5234 21.7919C81.2517 21.6494 80.907 21.5781 80.4893 21.5781H79.0376V30H76.8849ZM85.6096 30V22.3636H87.6629V23.696H87.7424C87.8816 23.2221 88.1153 22.8641 88.4434 22.6222C88.7716 22.3769 89.1494 22.2543 89.577 22.2543C89.683 22.2543 89.7974 22.2609 89.92 22.2741C90.0426 22.2874 90.1503 22.3056 90.2431 22.3288V24.2081C90.1437 24.1783 90.0062 24.1518 89.8305 24.1286C89.6548 24.1054 89.4941 24.0938 89.3483 24.0938C89.0367 24.0938 88.7583 24.1617 88.513 24.2976C88.2711 24.4302 88.0788 24.6158 87.9363 24.8544C87.7971 25.093 87.7275 25.3681 87.7275 25.6797V30H85.6096ZM94.133 30.1491C93.3607 30.1491 92.6929 29.9851 92.1294 29.657C91.5693 29.3255 91.1367 28.8648 90.8318 28.2749C90.5269 27.6816 90.3744 26.9938 90.3744 26.2116C90.3744 25.4228 90.5269 24.7334 90.8318 24.1435C91.1367 23.5502 91.5693 23.0895 92.1294 22.7614C92.6929 22.4299 93.3607 22.2642 94.133 22.2642C94.9052 22.2642 95.5714 22.4299 96.1315 22.7614C96.695 23.0895 97.1292 23.5502 97.4341 24.1435C97.739 24.7334 97.8915 25.4228 97.8915 26.2116C97.8915 26.9938 97.739 27.6816 97.4341 28.2749C97.1292 28.8648 96.695 29.3255 96.1315 29.657C95.5714 29.9851 94.9052 30.1491 94.133 30.1491ZM94.1429 28.5085C94.4942 28.5085 94.7875 28.4091 95.0229 28.2102C95.2582 28.008 95.4355 27.733 95.5548 27.3849C95.6775 27.0369 95.7388 26.6409 95.7388 26.1967C95.7388 25.7526 95.6775 25.3565 95.5548 25.0085C95.4355 24.6605 95.2582 24.3854 95.0229 24.1832C94.7875 23.9811 94.4942 23.88 94.1429 23.88C93.7883 23.88 93.49 23.9811 93.248 24.1832C93.0094 24.3854 92.8287 24.6605 92.7061 25.0085C92.5868 25.3565 92.5271 25.7526 92.5271 26.1967C92.5271 26.6409 92.5868 27.0369 92.7061 27.3849C92.8287 27.733 93.0094 28.008 93.248 28.2102C93.49 28.4091 93.7883 28.5085 94.1429 28.5085ZM102.409 33.0227C101.723 33.0227 101.135 32.9283 100.644 32.7393C100.157 32.5537 99.769 32.3002 99.4807 31.9787C99.1923 31.6572 99.0051 31.2959 98.9189 30.8949L100.878 30.6314C100.937 30.7839 101.032 30.9264 101.161 31.0589C101.29 31.1915 101.461 31.2976 101.673 31.3771C101.889 31.46 102.15 31.5014 102.459 31.5014C102.919 31.5014 103.299 31.3887 103.597 31.1634C103.899 30.9413 104.05 30.5684 104.05 30.0447V28.6477H103.96C103.867 28.8598 103.728 29.0604 103.542 29.2493C103.357 29.4382 103.118 29.5923 102.827 29.7116C102.535 29.831 102.187 29.8906 101.783 29.8906C101.209 29.8906 100.687 29.758 100.216 29.4929C99.7491 29.2244 99.3763 28.8151 99.0979 28.2649C98.8228 27.7114 98.6852 27.0121 98.6852 26.1669C98.6852 25.3018 98.8261 24.5793 99.1078 23.9993C99.3895 23.4193 99.7641 22.9851 100.231 22.6967C100.702 22.4084 101.217 22.2642 101.778 22.2642C102.205 22.2642 102.563 22.3371 102.851 22.483C103.14 22.6255 103.372 22.8045 103.547 23.0199C103.726 23.232 103.864 23.4408 103.96 23.6463H104.04V22.3636H106.143V30.0746C106.143 30.7242 105.984 31.2678 105.665 31.7053C105.347 32.1428 104.906 32.4709 104.343 32.6896C103.783 32.9117 103.138 33.0227 102.409 33.0227ZM102.454 28.2997C102.795 28.2997 103.083 28.2152 103.319 28.0462C103.557 27.8738 103.74 27.6286 103.866 27.3104C103.995 26.9889 104.06 26.6044 104.06 26.157C104.06 25.7095 103.997 25.3217 103.871 24.9936C103.745 24.6622 103.562 24.4053 103.324 24.223C103.085 24.0407 102.795 23.9496 102.454 23.9496C102.106 23.9496 101.812 24.044 101.574 24.233C101.335 24.4186 101.154 24.6771 101.032 25.0085C100.909 25.34 100.848 25.7228 100.848 26.157C100.848 26.5978 100.909 26.9789 101.032 27.3004C101.158 27.6186 101.338 27.8655 101.574 28.0412C101.812 28.2135 102.106 28.2997 102.454 28.2997ZM107.528 30V22.3636H109.581V23.696H109.661C109.8 23.2221 110.034 22.8641 110.362 22.6222C110.69 22.3769 111.068 22.2543 111.495 22.2543C111.601 22.2543 111.716 22.2609 111.838 22.2741C111.961 22.2874 112.069 22.3056 112.162 22.3288V24.2081C112.062 24.1783 111.925 24.1518 111.749 24.1286C111.573 24.1054 111.412 24.0938 111.267 24.0938C110.955 24.0938 110.677 24.1617 110.431 24.2976C110.189 24.4302 109.997 24.6158 109.855 24.8544C109.715 25.093 109.646 25.3681 109.646 25.6797V30H107.528ZM116.081 30.1491C115.296 30.1491 114.619 29.9901 114.053 29.6719C113.489 29.3504 113.055 28.8963 112.75 28.3097C112.445 27.7197 112.293 27.022 112.293 26.2166C112.293 25.4311 112.445 24.7417 112.75 24.1484C113.055 23.5552 113.484 23.0928 114.038 22.7614C114.595 22.4299 115.248 22.2642 115.997 22.2642C116.5 22.2642 116.969 22.3454 117.404 22.5078C117.841 22.6669 118.222 22.9072 118.547 23.2287C118.875 23.5502 119.13 23.9545 119.313 24.4418C119.495 24.9257 119.586 25.4924 119.586 26.142V26.7237H113.138V25.4112H117.593C117.593 25.1063 117.526 24.8362 117.394 24.6009C117.261 24.3655 117.077 24.1816 116.842 24.049C116.61 23.9131 116.34 23.8452 116.031 23.8452C115.71 23.8452 115.425 23.9197 115.176 24.0689C114.931 24.2147 114.739 24.4119 114.6 24.6605C114.46 24.9058 114.389 25.1792 114.386 25.4808V26.7287C114.386 27.1065 114.455 27.433 114.595 27.7081C114.737 27.9832 114.938 28.1953 115.196 28.3445C115.455 28.4936 115.761 28.5682 116.116 28.5682C116.351 28.5682 116.567 28.535 116.762 28.4688C116.958 28.4025 117.125 28.303 117.264 28.1705C117.404 28.0379 117.51 27.8755 117.583 27.6832L119.541 27.8125C119.442 28.2831 119.238 28.6941 118.93 29.0455C118.625 29.3935 118.231 29.6652 117.747 29.8608C117.266 30.053 116.711 30.1491 116.081 30.1491ZM127.022 24.5412L125.083 24.6605C125.05 24.4948 124.979 24.3456 124.869 24.2131C124.76 24.0772 124.616 23.9695 124.437 23.8899C124.261 23.8071 124.051 23.7656 123.805 23.7656C123.477 23.7656 123.2 23.8352 122.975 23.9744C122.75 24.1103 122.637 24.2926 122.637 24.5213C122.637 24.7036 122.71 24.8577 122.856 24.9837C123.002 25.1096 123.252 25.2107 123.606 25.2869L124.989 25.5653C125.731 25.7178 126.284 25.9631 126.649 26.3011C127.014 26.6392 127.196 27.0833 127.196 27.6335C127.196 28.134 127.048 28.5732 126.753 28.951C126.462 29.3288 126.061 29.6238 125.55 29.8359C125.043 30.0447 124.458 30.1491 123.795 30.1491C122.784 30.1491 121.979 29.9387 121.379 29.5178C120.783 29.0935 120.433 28.5168 120.33 27.7876L122.413 27.6783C122.476 27.9865 122.629 28.2218 122.871 28.3842C123.113 28.5433 123.422 28.6229 123.8 28.6229C124.172 28.6229 124.47 28.5516 124.695 28.4091C124.924 28.2633 125.04 28.076 125.043 27.8473C125.04 27.6551 124.959 27.4976 124.8 27.375C124.641 27.2491 124.395 27.1529 124.064 27.0866L122.741 26.8232C121.996 26.674 121.44 26.4155 121.076 26.0476C120.715 25.6797 120.534 25.2107 120.534 24.6406C120.534 24.1501 120.667 23.7275 120.932 23.3729C121.2 23.0182 121.576 22.7448 122.06 22.5526C122.547 22.3603 123.118 22.2642 123.77 22.2642C124.735 22.2642 125.494 22.468 126.047 22.8757C126.604 23.2834 126.929 23.8385 127.022 24.5412ZM134.583 24.5412L132.644 24.6605C132.611 24.4948 132.54 24.3456 132.431 24.2131C132.321 24.0772 132.177 23.9695 131.998 23.8899C131.822 23.8071 131.612 23.7656 131.367 23.7656C131.038 23.7656 130.762 23.8352 130.536 23.9744C130.311 24.1103 130.198 24.2926 130.198 24.5213C130.198 24.7036 130.271 24.8577 130.417 24.9837C130.563 25.1096 130.813 25.2107 131.168 25.2869L132.55 25.5653C133.292 25.7178 133.846 25.9631 134.21 26.3011C134.575 26.6392 134.757 27.0833 134.757 27.6335C134.757 28.134 134.61 28.5732 134.315 28.951C134.023 29.3288 133.622 29.6238 133.112 29.8359C132.605 30.0447 132.02 30.1491 131.357 30.1491C130.346 30.1491 129.54 29.9387 128.94 29.5178C128.344 29.0935 127.994 28.5168 127.891 27.7876L129.975 27.6783C130.038 27.9865 130.19 28.2218 130.432 28.3842C130.674 28.5433 130.984 28.6229 131.362 28.6229C131.733 28.6229 132.031 28.5516 132.257 28.4091C132.485 28.2633 132.601 28.076 132.605 27.8473C132.601 27.6551 132.52 27.4976 132.361 27.375C132.202 27.2491 131.957 27.1529 131.625 27.0866L130.303 26.8232C129.557 26.674 129.002 26.4155 128.637 26.0476C128.276 25.6797 128.095 25.2107 128.095 24.6406C128.095 24.1501 128.228 23.7275 128.493 23.3729C128.762 23.0182 129.138 22.7448 129.622 22.5526C130.109 22.3603 130.679 22.2642 131.332 22.2642C132.296 22.2642 133.055 22.468 133.609 22.8757C134.166 23.2834 134.49 23.8385 134.583 24.5412ZM140.237 30L138.159 22.3636H140.302L141.485 27.4943H141.555L142.788 22.3636H144.891L146.144 27.4645H146.208L147.372 22.3636H149.51L147.436 30H145.194L143.882 25.1974H143.787L142.475 30H140.237ZM150.339 30V22.3636H152.457V30H150.339ZM151.403 21.3793C151.088 21.3793 150.818 21.2749 150.593 21.0661C150.371 20.8539 150.26 20.6004 150.26 20.3054C150.26 20.0137 150.371 19.7635 150.593 19.5547C150.818 19.3426 151.088 19.2365 151.403 19.2365C151.718 19.2365 151.987 19.3426 152.209 19.5547C152.434 19.7635 152.547 20.0137 152.547 20.3054C152.547 20.6004 152.434 20.8539 152.209 21.0661C151.987 21.2749 151.718 21.3793 151.403 21.3793ZM157.916 22.3636V23.9545H153.317V22.3636H157.916ZM154.361 20.5341H156.479V27.6534C156.479 27.849 156.509 28.0014 156.568 28.1108C156.628 28.2169 156.711 28.2914 156.817 28.3345C156.926 28.3776 157.052 28.3991 157.195 28.3991C157.294 28.3991 157.394 28.3909 157.493 28.3743C157.592 28.3544 157.669 28.3395 157.722 28.3295L158.055 29.9055C157.949 29.9387 157.8 29.9768 157.607 30.0199C157.415 30.0663 157.181 30.0945 156.906 30.1044C156.396 30.1243 155.948 30.0563 155.564 29.9006C155.183 29.7448 154.886 29.5028 154.674 29.1747C154.462 28.8466 154.358 28.4323 154.361 27.9318V20.5341ZM161.277 25.5852V30H159.159V19.8182H161.217V23.7109H161.307C161.479 23.2602 161.758 22.9072 162.142 22.652C162.527 22.3935 163.009 22.2642 163.589 22.2642C164.119 22.2642 164.582 22.3802 164.976 22.6122C165.374 22.8409 165.682 23.1707 165.901 23.6016C166.123 24.0291 166.232 24.5412 166.229 25.1378V30H164.111V25.5156C164.114 25.045 163.995 24.6787 163.753 24.4169C163.514 24.1551 163.18 24.0241 162.749 24.0241C162.46 24.0241 162.205 24.0855 161.983 24.2081C161.764 24.3307 161.592 24.5097 161.466 24.745C161.343 24.977 161.28 25.2571 161.277 25.5852ZM170.576 30V19.8182H172.728V24.3075H172.863L176.527 19.8182H179.107L175.328 24.3771L179.152 30H176.576L173.787 25.8139L172.728 27.1065V30H170.576ZM182.808 30.1491C182.022 30.1491 181.346 29.9901 180.779 29.6719C180.216 29.3504 179.782 28.8963 179.477 28.3097C179.172 27.7197 179.019 27.022 179.019 26.2166C179.019 25.4311 179.172 24.7417 179.477 24.1484C179.782 23.5552 180.211 23.0928 180.764 22.7614C181.321 22.4299 181.974 22.2642 182.723 22.2642C183.227 22.2642 183.696 22.3454 184.13 22.5078C184.568 22.6669 184.949 22.9072 185.274 23.2287C185.602 23.5502 185.857 23.9545 186.039 24.4418C186.222 24.9257 186.313 25.4924 186.313 26.142V26.7237H179.865V25.4112H184.319C184.319 25.1063 184.253 24.8362 184.12 24.6009C183.988 24.3655 183.804 24.1816 183.568 24.049C183.336 23.9131 183.066 23.8452 182.758 23.8452C182.436 23.8452 182.151 23.9197 181.903 24.0689C181.658 24.2147 181.465 24.4119 181.326 24.6605C181.187 24.9058 181.116 25.1792 181.112 25.4808V26.7287C181.112 27.1065 181.182 27.433 181.321 27.7081C181.464 27.9832 181.664 28.1953 181.923 28.3445C182.181 28.4936 182.488 28.5682 182.843 28.5682C183.078 28.5682 183.293 28.535 183.489 28.4688C183.684 28.4025 183.852 28.303 183.991 28.1705C184.13 28.0379 184.236 27.8755 184.309 27.6832L186.268 27.8125C186.169 28.2831 185.965 28.6941 185.656 29.0455C185.352 29.3935 184.957 29.6652 184.473 29.8608C183.993 30.053 183.437 30.1491 182.808 30.1491ZM190.835 33.0227C190.149 33.0227 189.561 32.9283 189.07 32.7393C188.583 32.5537 188.195 32.3002 187.907 31.9787C187.618 31.6572 187.431 31.2959 187.345 30.8949L189.304 30.6314C189.364 30.7839 189.458 30.9264 189.587 31.0589C189.717 31.1915 189.887 31.2976 190.099 31.3771C190.315 31.46 190.577 31.5014 190.885 31.5014C191.346 31.5014 191.725 31.3887 192.023 31.1634C192.325 30.9413 192.476 30.5684 192.476 30.0447V28.6477H192.386C192.293 28.8598 192.154 29.0604 191.969 29.2493C191.783 29.4382 191.544 29.5923 191.253 29.7116C190.961 29.831 190.613 29.8906 190.209 29.8906C189.635 29.8906 189.113 29.758 188.643 29.4929C188.175 29.2244 187.802 28.8151 187.524 28.2649C187.249 27.7114 187.111 27.0121 187.111 26.1669C187.111 25.3018 187.252 24.5793 187.534 23.9993C187.816 23.4193 188.19 22.9851 188.658 22.6967C189.128 22.4084 189.644 22.2642 190.204 22.2642C190.631 22.2642 190.989 22.3371 191.278 22.483C191.566 22.6255 191.798 22.8045 191.974 23.0199C192.153 23.232 192.29 23.4408 192.386 23.6463H192.466V22.3636H194.569V30.0746C194.569 30.7242 194.41 31.2678 194.092 31.7053C193.773 32.1428 193.333 32.4709 192.769 32.6896C192.209 32.9117 191.564 33.0227 190.835 33.0227ZM190.88 28.2997C191.221 28.2997 191.51 28.2152 191.745 28.0462C191.984 27.8738 192.166 27.6286 192.292 27.3104C192.421 26.9889 192.486 26.6044 192.486 26.157C192.486 25.7095 192.423 25.3217 192.297 24.9936C192.171 24.6622 191.989 24.4053 191.75 24.223C191.511 24.0407 191.221 23.9496 190.88 23.9496C190.532 23.9496 190.239 24.044 190 24.233C189.761 24.4186 189.581 24.6771 189.458 25.0085C189.335 25.34 189.274 25.7228 189.274 26.157C189.274 26.5978 189.335 26.9789 189.458 27.3004C189.584 27.6186 189.765 27.8655 190 28.0412C190.239 28.2135 190.532 28.2997 190.88 28.2997ZM199.434 30.1491C198.649 30.1491 197.973 29.9901 197.406 29.6719C196.842 29.3504 196.408 28.8963 196.103 28.3097C195.798 27.7197 195.646 27.022 195.646 26.2166C195.646 25.4311 195.798 24.7417 196.103 24.1484C196.408 23.5552 196.837 23.0928 197.391 22.7614C197.948 22.4299 198.601 22.2642 199.35 22.2642C199.854 22.2642 200.323 22.3454 200.757 22.5078C201.194 22.6669 201.575 22.9072 201.9 23.2287C202.228 23.5502 202.484 23.9545 202.666 24.4418C202.848 24.9257 202.939 25.4924 202.939 26.142V26.7237H196.491V25.4112H200.946C200.946 25.1063 200.879 24.8362 200.747 24.6009C200.614 24.3655 200.43 24.1816 200.195 24.049C199.963 23.9131 199.693 23.8452 199.385 23.8452C199.063 23.8452 198.778 23.9197 198.529 24.0689C198.284 24.2147 198.092 24.4119 197.953 24.6605C197.814 24.9058 197.742 25.1792 197.739 25.4808V26.7287C197.739 27.1065 197.809 27.433 197.948 27.7081C198.09 27.9832 198.291 28.1953 198.549 28.3445C198.808 28.4936 199.114 28.5682 199.469 28.5682C199.704 28.5682 199.92 28.535 200.115 28.4688C200.311 28.4025 200.478 28.303 200.618 28.1705C200.757 28.0379 200.863 27.8755 200.936 27.6832L202.894 27.8125C202.795 28.2831 202.591 28.6941 202.283 29.0455C201.978 29.3935 201.584 29.6652 201.1 29.8608C200.619 30.053 200.064 30.1491 199.434 30.1491ZM206.139 19.8182V30H204.021V19.8182H206.139ZM210.516 30V19.8182H212.669V24.0192H217.039V19.8182H219.186V30H217.039V25.794H212.669V30H210.516ZM225.518 26.7486V22.3636H227.636V30H225.603V28.6129H225.523C225.351 29.0604 225.064 29.42 224.663 29.6918C224.266 29.9635 223.78 30.0994 223.207 30.0994C222.696 30.0994 222.247 29.9834 221.859 29.7514C221.471 29.5194 221.168 29.1896 220.949 28.7621C220.734 28.3345 220.625 27.8224 220.621 27.2259V22.3636H222.739V26.848C222.743 27.2988 222.864 27.6551 223.102 27.9169C223.341 28.1787 223.661 28.3097 224.062 28.3097C224.317 28.3097 224.556 28.2517 224.778 28.1357C225 28.0163 225.179 27.8407 225.315 27.6087C225.454 27.3767 225.522 27.09 225.518 26.7486ZM229.07 30V19.8182H231.188V23.6463H231.253C231.345 23.4408 231.48 23.232 231.655 23.0199C231.834 22.8045 232.066 22.6255 232.351 22.483C232.64 22.3371 232.998 22.2642 233.425 22.2642C233.982 22.2642 234.496 22.41 234.966 22.7017C235.437 22.9901 235.813 23.4259 236.095 24.0092C236.377 24.5893 236.518 25.3168 236.518 26.1918C236.518 27.0436 236.38 27.7628 236.105 28.3494C235.833 28.9328 235.462 29.3752 234.991 29.6768C234.524 29.9751 234 30.1243 233.42 30.1243C233.009 30.1243 232.66 30.0563 232.371 29.9205C232.086 29.7846 231.853 29.6139 231.67 29.4084C231.488 29.1996 231.349 28.9891 231.253 28.777H231.158V30H229.07ZM231.143 26.1818C231.143 26.6359 231.206 27.032 231.332 27.37C231.458 27.7081 231.64 27.9716 231.879 28.1605C232.118 28.3461 232.408 28.4389 232.749 28.4389C233.094 28.4389 233.385 28.3445 233.624 28.1555C233.863 27.9633 234.043 27.6982 234.166 27.3601C234.292 27.0187 234.355 26.6259 234.355 26.1818C234.355 25.741 234.294 25.3532 234.171 25.0185C234.048 24.6837 233.868 24.4219 233.629 24.233C233.39 24.044 233.097 23.9496 232.749 23.9496C232.404 23.9496 232.113 24.0407 231.874 24.223C231.639 24.4053 231.458 24.6638 231.332 24.9986C231.206 25.3333 231.143 25.7277 231.143 26.1818Z"
        fill="white" />
    <defs>
        <clipPath id="clip0_632_505">
            <path
                d="M203 125C203 118.373 208.373 113 215 113H259C265.627 113 271 118.373 271 125V228H203V125Z"
                fill="white" />
        </clipPath>
    </defs>
</svg>
