<svg fill="none" height="240" viewBox="0 0 232 240" width="232" xmlns="http://www.w3.org/2000/svg">
    <clipPath id="a">
        <path d="m0 0h232v240h-232z" />
    </clipPath>
    <g clip-path="url(#a)">
        <path
            d="m207.918 128.098 7.626-.159 3.758-.062c1.251 0 2.491 0 3.742-.034l-.257.255v-6.341l.285.283-7.562-.04c-2.525 0-5.044-.062-7.563-.09l.154-.153c0 1.037-.051 2.079-.074 3.133zm0 0-.085-3.14c0-1.059-.063-2.125-.075-3.201v-.153h.16c2.519-.029 5.038-.085 7.563-.091l7.563-.034h.285v.283l-.034 6.341v.255h-.251c-1.28 0-2.554 0-3.827-.028l-3.805-.062z"
            fill="#ebebeb" />
        <path
            d="m216.349 136.094 7.626-.159 3.758-.062c1.251-.029 2.496 0 3.742-.034l-.257.255-.029-6.324.286.283-7.563-.057c-2.525 0-5.044-.062-7.563-.09l.137-.136c0 1.037-.051 2.079-.074 3.133zm0 0-.08-3.14c-.028-1.059-.068-2.125-.08-3.201v-.153h.16c2.519-.029 5.038-.085 7.563-.091l7.563-.034h.285v.283l-.034 6.341v.255h-.251c-1.274 0-2.554 0-3.827 0l-3.805-.062z"
            fill="#ebebeb" />
        <path d="m199.441 136.088h15.126v-6.341h-15.126z" fill="#ebebeb" />
        <path
            d="m.525563 179.864 7.631277-.159 3.75856-.062c1.2452-.028 2.4904 0 3.7356-.034l-.2513.255-.0343-6.341.2856.283-7.5627-.039c-2.51901 0-5.04373-.063-7.562737-.091l.154225-.153c0 1.037-.045697 2.08-.074257 3.134zm0 0-.079969-3.139c-.02856-1.06-.062832-2.125-.074256-3.202v-.153h.154225c2.519007-.028 5.043727-.085 7.562737-.091l7.5627-.034h.2856v.284 6.341.255h-.2856c-1.2738 0-2.5532 0-3.8213 0l-3.80424-.063z"
            fill="#ebebeb" />
        <path d="m8.96804 187.854h15.12546v-6.341h-15.12546z" fill="#ebebeb" />
        <path
            d="m39.7157 61.4337 7.6313-.1587 3.7585-.0623h3.7357l-.2513.2493-.0343-6.3411.2856.2833-7.5627-.034c-2.519 0-5.0437-.0623-7.5628-.0907l.1543-.1586c0 1.037-.0457 2.0854-.0743 3.1394zm0 0-.0799-3.1338c0-1.0596-.0629-2.1307-.0743-3.2074v-.1246h.16c2.519 0 5.0437-.0907 7.5627-.0907l7.5513-.068h.2856v.2833l-.0286 6.3412v.255h-.257c-1.2738 0-2.5533 0-3.8213-.034l-3.8043-.0623z"
            fill="#ebebeb" />
        <path
            d="m207.918 6.62448 7.626-.15867 3.758-.06233c1.251-.02834 2.491 0 3.742-.02834l-.257.24934-.017-6.34114.285.283339-7.58-.034c-2.524-.005667-5.043-.062335-7.557-.096336l.154-.153003c0 1.03702-.051 2.08538-.074 3.1394zm0 0-.085-3.13374c0-1.05969-.063-2.13071-.075-3.2074v-.153004h.16c2.519-.028334 5.038-.0906684 7.563-.0906684l7.557-.0396676h.286v.28334l-.035 6.34114v.25501h-.251c-1.28 0-2.553 0-3.827-.034l-3.804-.04534z"
            fill="#ebebeb" />
        <path d="m184.002 85.9199h15.125v-6.3411h-15.125z" fill="#ebebeb" />
        <path
            d="m23.0252 39.6676c.2837-.1723.6098-.2635.9425-.2635.3326 0 .6588.0912.9425.2635l.4855.2776c.1656.085.3313.17.5027.2494.3015.1371.5592.3541.7446.627s.2914.5912.3064.92l.0685 2.3007 7.5627-.2323-.0742-2.3007c-.0076-.3306.0769-.6568.2442-.9428.1673-.2859.4109-.5205.704-.6779.33-.1715.6503-.3607.9596-.5667.2659-.1911.5795-.3064.9067-.3334s.6557.0354.9497.1804l2.0621 1.0653 3.5757-6.6131-2.0392-1.0654c-.292-.1581-.5345-.3931-.7007-.679-.1663-.2859-.2499-.6117-.2418-.9417.0122-.3781.0008-.7566-.0343-1.1333-.0367-.3326.0221-.6687.1697-.9695.1475-.3008.3778-.5541.6643-.7306l1.9706-1.2183-3.9984-6.3752-1.9821 1.2184c-.2825.1724-.6078.2637-.9396.2637-.3317 0-.657-.0913-.9396-.2637-.1599-.0963-.3199-.187-.4855-.272-.1609-.0921-.3268-.1753-.497-.2493-.3024-.1376-.5606-.3554-.7461-.6294-.1854-.2741-.291-.5936-.3049-.9233l-.0685-2.3064-7.5628.2323.0743 2.2667c.0246.3411-.0508.682-.217.9816s-.4162.5452-.7198.7071c-.3299.1716-.6503.3608-.9596.5667-.2711.1913-.5906.3038-.9226.3249-.332.021-.6633-.0503-.9567-.2059l-2.0392-1.0823-3.5757 6.6301 2.0392 1.088c.2922.156.5347.3898.7002.6752.1656.2853.2475.6108.2366.9399-.0073.3782.0061.7565.04 1.1333.0361.3331-.0235.6696-.1721.9705-.1486.3008-.3801.5538-.6676.7296l-1.965 1.2126 3.9985 6.3752zm1.8907-11.8436c.5783-1.0725 1.4642-1.9508 2.5457-2.5236 1.0816-.5729 2.31-.8147 3.5301-.6948 1.22.1199 2.3768.5962 3.324 1.3684.9472.7723 1.6422 1.8059 1.9971 2.9702.355 1.1642.3539 2.4067-.0031 3.5703s-1.0539 2.196-2.0024 2.9666c-.9486.7706-2.1062 1.2448-3.3265 1.3626-1.2202.1178-2.4483-.1261-3.5288-.7009-.7205-.3813-1.358-.9001-1.8758-1.5265-.5178-.6265-.9056-1.3484-1.1413-2.124-.2357-.7757-.3145-1.59-.232-2.396.0826-.806.3249-1.5879.713-2.3007z"
            fill="#ebebeb" />
        <path
            d="m48.5753 240c22.9029 0 41.4694-2.636 41.4694-5.888s-18.5665-5.888-41.4694-5.888-41.46934 2.636-41.46934 5.888 18.56644 5.888 41.46934 5.888z"
            fill="#ebebeb" />
        <path
            d="m199.487 171.013c-4.227-8.62-11.624-13.034-19.963-10.603-8.34 2.431-9.631 13.98-3.428 16.893 6.204 2.912 12.447-5.588 15.737-7.339s7.654 1.049 7.654 1.049z"
            fill="#1a998e" />
        <path
            d="m203.583 193.963c0-1.037-.063-2.08-.103-3.117-.074-2.074-.143-4.148-.223-6.233-.137-3.791-.571-7.52-2.136-11.016-1.4-3.172-3.738-5.846-6.706-7.668-1.101-.658-2.287-1.167-3.524-1.513-1.122-1.123-2.549-1.899-4.107-2.232-1.93-.389-3.914-.439-5.861-.148-.074 0-.068.119 0 .108 1.859-.233 3.746-.101 5.552.391.772.215 1.52.505 2.234.867.449.239.88.51 1.291.81-1.683-.343-3.42-.325-5.096.051-.603.14-1.193.33-1.765.567-.457-.098-.926-.138-1.393-.119-.609.022-1.214.108-1.805.255-1.207.337-2.36.839-3.428 1.49-.062.034 0 .125.058.091 1.052-.569 2.178-.99 3.347-1.252.564-.126 1.137-.209 1.713-.25.32-.02.641-.02.96 0-2.377 1.085-4.289 2.973-5.392 5.327 0 .062.068.119.097.051.657-1.362 1.614-2.56 2.801-3.505 1.186-.946 2.571-1.615 4.053-1.958.183-.045.372-.068.572-.107-.063.266-.052.566-.086.833-.057.419-.126.838-.211 1.252-.175.855-.402 1.699-.68 2.527-.282.836-.62 1.652-1.011 2.443-.373.841-.846 1.635-1.411 2.363-.006.006-.012.013-.015.021s-.005.016-.004.025c0 .008.003.017.007.024.005.008.01.014.018.019.007.005.015.008.023.009.009.002.018.001.026-.002.008-.002.016-.007.022-.013.007-.006.011-.013.014-.021.497-.776 1.08-1.496 1.537-2.301.444-.771.826-1.577 1.142-2.408.321-.839.57-1.703.743-2.584.091-.465.166-.935.223-1.405.054-.282.071-.57.051-.856.98-.146 1.974-.165 2.959-.057-.366 2.057-.765 4.199-1.925 5.984-.04.063.063.119.097.057.542-.949 1.019-1.934 1.428-2.947.385-.981.627-2.011.72-3.06 1.721.23 3.382.782 4.895 1.627 2.847 1.645 5.12 4.112 6.517 7.072 1.468 3.193 2.285 6.642 2.405 10.149.274 4.403.332 8.84.777 13.232 0 .289.486.385.543.057.109-.973.128-1.954.057-2.93z"
            fill="#263238" />
        <path
            d="m193.809 165.244c-.278-.336-.601-.634-.959-.884-.349-.284-.703-.567-1.074-.805-.732-.498-1.543-.871-2.399-1.105-.007-.002-.014-.002-.021-.002-.007.001-.013.003-.02.007-.006.003-.011.008-.015.013-.005.006-.008.012-.01.019-.002.006-.002.013-.001.02s.003.014.006.02c.004.006.008.011.014.016.005.004.012.007.018.009.861.212 1.668.597 2.371 1.133.354.261.691.533 1.022.822.294.305.62.579.971.816.063.057.143-.017.097-.079z"
            fill="#263238" />
        <path
            d="m180.318 168.366c-.7.808-1.348 1.658-1.943 2.544-.575.894-1.057 1.844-1.439 2.834 0 .028.034.045.051 0 .974-1.877 2.122-3.66 3.428-5.327.028-.028-.052-.113-.097-.051z"
            fill="#263238" />
        <path
            d="m189.411 167.516c-.089.538-.248 1.062-.474 1.558-.234.48-.503.943-.805 1.383 0 .028 0 .057.045.034.731-.831 1.198-1.858 1.343-2.952.011-.068-.097-.097-.109-.023z"
            fill="#263238" />
        <path
            d="m202.994 171.228s5.987-7.463 17.536-4.823c10.985 2.516 16.051 22.497 4.953 24.883-11.099 2.386-9.14-16.093-13.184-19.233-2.964-2.301-7.237-1.808-9.305-.827z"
            fill="#1a998e" />
        <path
            d="m229.458 177.32c-.753-.655-1.549-1.261-2.382-1.814-.783-.531-1.636-.952-2.536-1.252-.45-.681-.955-1.325-1.508-1.927-1.02-1.085-2.196-2.015-3.49-2.76h.343c.611-.031 1.223-.031 1.833 0 1.234.078 2.443.375 3.57.879.063.028.109-.074.046-.097-1.141-.489-2.335-.847-3.558-1.065-.596-.104-1.2-.156-1.805-.153-.325.002-.649.021-.972.057h-.188c-1.06-.53-2.177-.936-3.33-1.213l.32-.091c.571-.124 1.142-.209 1.713-.277 1.152-.132 2.315-.113 3.462.056.068 0 .086-.102 0-.107-1.16-.141-2.329-.188-3.496-.142-.979.027-1.953.152-2.907.374-.695-.128-1.397-.207-2.102-.238-4.033-.17-8.426 1.32-10.905 4.607s-2.964 7.673-3.427 11.64c-.677 5.529-.825 11.109-.44 16.666 0 .328.492.266.497-.046.154-4.709.32-9.423.777-14.116.211-2.176.44-4.357.805-6.511.265-1.854.802-3.66 1.594-5.36.859-1.738 2.217-3.185 3.901-4.16 1.691-.967 3.578-1.547 5.524-1.7 1.742-.145 3.496.018 5.181.482-.061.335-.07.676-.029 1.014.04.426.126.845.257 1.252.123.393.284.772.48 1.134.217.391.486.742.72 1.133.04.057.137 0 .091-.062-.474-.675-.781-1.452-.897-2.267-.068-.386-.114-.776-.137-1.167 0-.295 0-.567 0-.89 1.833.56 3.544 1.456 5.044 2.641.28.226.571.464.817.702-.381.353-.711.755-.983 1.196-.395.574-.739 1.18-1.028 1.814-.53 1.27-.889 2.603-1.068 3.966 0 .068.103.091.109 0 .214-1.326.661-2.605 1.319-3.779.304-.588.645-1.156 1.023-1.7.194-.272.394-.567.605-.811.114-.142.24-.289.343-.442 1.359 1.32 2.47 2.871 3.278 4.579-.547.572-1.004 1.224-1.353 1.932-.415.739-.776 1.506-1.08 2.295-.558 1.527-1.02 3.086-1.382 4.67 0 .068.097.09.108 0 .353-1.595.904-3.141 1.64-4.602.35-.717.716-1.426 1.096-2.125.399-.648.761-1.318 1.086-2.006.769 1.673 1.216 3.474 1.319 5.31 0 .068.114.062.109 0-.213-2.88-1.101-5.67-2.594-8.149.703.301 1.417.567 2.097.952.868.465 1.674 1.036 2.399 1.7.068.108.143.029.091-.022z"
            fill="#263238" />
        <path
            d="m220.982 177.739c-.343 1.133-.783 2.233-1.097 3.4-.318 1.097-.489 2.231-.509 3.372 0 .028.052.028.058 0 .311-2.29.864-4.541 1.65-6.715.004-.007.007-.014.007-.022.001-.008.001-.015-.002-.023-.002-.007-.005-.014-.01-.02s-.011-.011-.017-.015c-.007-.003-.015-.006-.022-.007-.008-.001-.016 0-.023.002-.008.002-.015.006-.021.011-.006.004-.011.01-.014.017z"
            fill="#263238" />
        <path
            d="m228.304 174.934c-.453-.434-.969-.799-1.53-1.082-.571-.259-1.164-.467-1.771-.624-.069 0-.091.091 0 .108.6.154 1.177.389 1.714.697.546.281 1.071.601 1.57.958.006-.002.012-.005.016-.009.005-.004.008-.009.01-.015.001-.006.001-.012 0-.018-.001-.005-.004-.011-.009-.015z"
            fill="#263238" />
        <path
            d="m208.683 161.254s1.103-13.407 11.15-17.754c8.391-3.626 13.195 5.724 7.266 11.453-4.798 4.63-12.498 2.539-18.416 6.301z"
            fill="#1a998e" />
        <path
            d="m225.237 146.096c-1.528.615-3.02 1.317-4.467 2.102-1.202.684-2.36 1.441-3.467 2.267.166-.34.309-.692.48-1.026.263-.516.571-1.026.851-1.513.618-1.016 1.362-1.951 2.216-2.782.052-.046-.034-.125-.08-.074-.851.831-1.63 1.732-2.33 2.692-.348.485-.667.99-.954 1.513-.296.482-.525 1.003-.68 1.547l-.108.079c-1.755 1.387-3.363 2.948-4.799 4.658 0-.13.052-.261.092-.385.183-.652.388-1.304.605-1.944.431-1.378 1.042-2.694 1.817-3.916.04-.056-.063-.113-.097-.051-.789 1.222-1.491 2.496-2.102 3.814-.281.644-.514 1.306-.697 1.983-.145.441-.254.892-.326 1.349-.44.567-.868 1.105-1.274 1.7-4.312 6.092-6.477 13.459-6.997 20.837-.152 2.197-.19 4.401-.114 6.602.01 2.222.201 4.439.571 6.63.029.142.246.096.246-.04-.052-1.938-.252-3.864-.292-5.803-.037-1.943.026-3.888.189-5.825.315-3.87 1.051-7.694 2.193-11.407 1.168-3.803 2.888-7.417 5.107-10.727.423-.085.845-.199 1.262-.306.417-.108 1-.255 1.503-.391.964-.248 1.902-.59 2.798-1.02.006-.004.012-.009.016-.015s.007-.012.008-.019c.002-.007.002-.014.001-.021s-.004-.013-.007-.019c-.004-.006-.009-.011-.015-.015s-.012-.007-.019-.009-.014-.002-.021-.001c-.007.002-.014.004-.02.008-.89.479-1.856.807-2.856.969-.788.159-1.605.255-2.393.436.731-1.054 1.508-2.074 2.336-3.049 1.914.175 3.845.034 5.712-.419.994-.239 1.971-.541 2.925-.907 1.011-.385 1.959-.878 2.953-1.292.006-.003.012-.007.017-.012.004-.005.008-.011.011-.018.002-.006.003-.013.003-.02-.001-.007-.002-.014-.005-.02-.003-.007-.008-.012-.013-.017s-.011-.008-.018-.011c-.006-.002-.013-.003-.02-.003-.008 0-.014.002-.021.005-1.799.973-3.762 1.61-5.792 1.881-1.793.286-3.605.434-5.421.442.714-.81 1.451-1.603 2.24-2.346 2.639-2.493 5.774-4.782 9.247-5.978.016.001.03-.005.042-.015.011-.01.018-.024.018-.039.001-.015-.004-.03-.014-.041-.011-.011-.025-.018-.04-.018z"
            fill="#263238" />
        <path
            d="m217.057 146.141c-.453.565-.865 1.162-1.233 1.785-.375.657-.672 1.355-.886 2.08 0 0 .029.039.04 0 .337-.658.617-1.343.96-1.995.332-.646.734-1.254 1.199-1.813.052-.04-.034-.114-.08-.057z"
            fill="#263238" />
        <path
            d="m226.408 150.601c-.653.36-1.345.647-2.062.855-.688.228-1.387.417-2.096.567-.035 0 0 .062 0 .057.74-.077 1.47-.235 2.176-.471.695-.262 1.374-.565 2.033-.906.069-.04.012-.136-.051-.102z"
            fill="#263238" />
        <path
            d="m200.87 158.846c-.063.567-1.52-4.874-10.019-9.707-7.712-4.392-16.925-15.816-9.357-23.036 6.107-5.825 22.192 6.874 19.376 32.743z"
            fill="#1a998e" />
        <path
            d="m206.719 190.076c-.124-5.671-.574-11.33-1.348-16.95-.672-5.165-1.876-10.248-3.593-15.17-.629-1.774-1.354-3.513-2.137-5.23.044-.669.032-1.34-.034-2.006-.04-.862-.12-1.7-.2-2.573s-.165-1.7-.268-2.567-.286-1.7-.32-2.556c0-.079-.131-.062-.109 0 .17.896.271 1.804.303 2.715.063.827.114 1.654.137 2.482.023.827 0 1.66 0 2.493 0 .295 0 .612-.028.935-.8-1.7-1.651-3.326-2.582-4.93.571-3.496-.172-7.152-.891-10.569 0-.068-.12-.034-.103.034.356 1.785.547 3.599.571 5.418.034 1.434-.034 2.867-.04 4.307l-.617-1.032c-1.102-1.785-2.285-3.536-3.53-5.23.102-.829.075-1.668-.08-2.488-.14-.922-.346-1.833-.617-2.726-.274-.889-.571-1.768-.942-2.629s-.857-1.728-1.211-2.612c-.034-.08-.143 0-.103.039.454.84.811 1.727 1.063 2.647.283.86.516 1.736.696 2.623.183.884.326 1.774.452 2.675.085.567.137 1.207.24 1.802-1.819-2.424-3.806-4.719-5.947-6.868-.051-.051-.125.028-.08.079 3.24 3.613 6.134 7.517 8.643 11.663l.268.464c-.468-.289-1.005-.521-1.445-.765-.823-.453-1.645-.901-2.479-1.349l-2.405-1.303c-.411-.227-.817-.465-1.239-.68-.502-.222-.983-.485-1.44-.788-.063-.051-.131.051-.063.085.817.448 1.543 1.134 2.331 1.61s1.599.986 2.428 1.445c1.508.833 3.147 1.434 4.638 2.301 1.028 1.79 1.98 3.624 2.856 5.502-.903-.567-1.822-1.133-2.759-1.643-.6-.335-1.205-.663-1.817-.981-.607-.279-1.181-.623-1.713-1.025-.011-.006-.024-.007-.036-.005s-.023.008-.031.017-.013.02-.015.032c-.001.012.001.024.008.035.991.886 2.088 1.647 3.267 2.267 1.091.629 2.193 1.241 3.324 1.79.914 1.98 1.735 3.992 2.462 6.035 3.576 10.048 4.89 20.713 5.518 31.304.188 3.156.286 6.313.326 9.475s-.132 6.313-.126 9.469c0 .022.009.044.025.06s.038.025.061.025c.022 0 .044-.009.06-.025s.025-.038.025-.06c.383-2.799.446-5.667.571-8.466.126-2.8.132-5.729.075-8.602z"
            fill="#263238" />
        <path
            d="m191.279 144.594c-1.551-.678-3.058-1.45-4.513-2.312-1.475-.828-2.907-1.73-4.289-2.703 0 0-.052 0 0 .039 1.306 1.037 2.682 1.984 4.118 2.834 1.506.834 3.063 1.574 4.661 2.216.034.051.097-.046.023-.074z"
            fill="#263238" />
        <path
            d="m193.741 133.238c-.126-.488-.28-.969-.446-1.445.005-.009.008-.019.008-.029s-.003-.019-.008-.028c-.108-.272-.222-.567-.331-.81l-.04-.102-.069-.153c-.028 0 0 0 0 0 .029 0 .052.187.08.277.013.052.028.103.046.153.561 1.875.982 3.788 1.262 5.724 0 .062.103.062.098 0-.087-1.212-.287-2.413-.6-3.587z"
            fill="#263238" />
        <path d="m215.709 191.849-.611 7.135-1.856 21.766h-19.901l-1.856-21.766-.606-7.135z"
            fill="#37474f" />
        <path d="m216.109 191.849-.628 7.367h-24.379l-.623-7.367z" fill="#263238" />
        <path d="m217.674 189.016h-28.56v6.8h28.56z" fill="#37474f" />
        <path
            d="m.297119 220.988 28.925781-.136 28.9257-.051 57.8514-.096 57.852.096 28.925.045 28.926.142-28.926.136-28.925.051-57.852.096-57.8514-.096-28.9257-.051z"
            fill="#263238" />
        <path
            d="m164.273 4.03473h-96.5339c-1.2947.01185-2.5744.27659-3.7659.77911-1.1916.50252-2.2718 1.23296-3.1788 2.14963s-1.6231 2.00161-2.1075 3.19283c-.4843 1.1913-.7274 2.4655-.7153 3.75v197.2047c-.029 2.592.9803 5.09 2.8063 6.946 1.8259 1.855 4.3193 2.915 6.9327 2.948h96.5334c2.616-.024 5.115-1.077 6.949-2.928 1.833-1.851 2.851-4.349 2.83-6.944v-197.2041c.029-2.5946-.982-5.09441-2.81-6.94981-1.829-1.8554-4.325-2.91447-6.94-2.94436zm3.661 200.98427c0 5.191-3.919 9.39-8.751 9.39h-86.3773c-4.8438 0-8.7623-4.199-8.7623-9.39v-183.6382c0-10.5743 3.9185-11.0899 8.7623-11.0899h17.3018c1.0053 0 1.8278 1.1333 1.8278 2.5387v.6063c0 3.2924 1.8164 3.3038 4.0498 3.3038h40.0189c2.25 0 4.049 0 4.049-3.3038v-.6063c0-1.4054.812-2.5387 1.834-2.5387h17.308c4.832 0 8.75 1.4053 8.75 11.0899z"
            fill="#263238" />
        <path
            d="m121.455 12.6256h-10.916c-.179 0-.35-.0704-.476-.1958-.127-.1254-.198-.2955-.198-.4728 0-.1774.071-.3475.198-.4729.126-.1254.297-.1958.476-.1958h10.916c.179 0 .35.0704.477.1958.126.1254.197.2955.197.4729 0 .1773-.071.3474-.197.4728-.127.1254-.298.1958-.477.1958z"
            fill="#fff" />
        <path
            d="m167.934 21.3808v183.6382c0 5.191-3.919 9.39-8.751 9.39h-86.3717c-4.8438 0-8.7622-4.199-8.7622-9.39v-183.6382c0-10.5742 3.9184-11.0899 8.7622-11.0899h17.3018c1.0053 0 1.8278 1.1334 1.8278 2.5387v.6064c0 3.2924 1.8165 3.3037 4.0499 3.3037h40.0182c2.251 0 4.05 0 4.05-3.3037v-.6064c0-1.4053.811-2.5387 1.834-2.5387h17.307c4.833 0 8.734 1.4054 8.734 11.0899z"
            fill="#fff" />
        <path d="m74.565 28.3906-3.0731-2.8504 3.0731-2.8561.4741.5044-2.5304 2.3517 2.5304 2.3517z"
            fill="#c7c7c7" />
        <path
            d="m159.903 23.7609c0 .1188-.036.2349-.102.3337-.067.0988-.161.1758-.272.2212-.111.0455-.232.0574-.35.0342-.117-.0232-.225-.0804-.31-.1644-.084-.084-.142-.191-.165-.3075-.024-.1166-.012-.2373.034-.3471s.123-.2036.223-.2696.217-.1012.336-.1012c.08-.0008.159.0142.233.0442.074.0299.141.0741.197.13.057.056.101.1225.131.1957s.046.1517.045.2308z"
            fill="#c7c7c7" />
        <path
            d="m159.903 25.8916c0 .1188-.036.2349-.102.3337-.067.0988-.161.1758-.272.2213-.111.0454-.232.0573-.35.0341-.117-.0231-.225-.0803-.31-.1644-.084-.084-.142-.191-.165-.3075-.024-.1165-.012-.2373.034-.3471.046-.1097.123-.2035.223-.2695s.217-.1013.336-.1013c.08-.0007.159.0143.233.0442s.141.0741.197.1301c.057.0559.101.1224.131.1956.03.0733.046.1517.045.2308z"
            fill="#c7c7c7" />
        <path
            d="m159.903 28.0223c0 .1188-.036.2349-.102.3337-.067.0988-.161.1758-.272.2212-.111.0455-.232.0574-.35.0342-.117-.0232-.225-.0804-.31-.1644-.084-.084-.142-.191-.165-.3075-.024-.1166-.012-.2373.034-.3471s.123-.2036.223-.2696.217-.1012.336-.1012c.08-.0008.159.0143.233.0442s.141.0741.197.13c.057.056.101.1225.131.1957s.046.1517.045.2308z"
            fill="#c7c7c7" />
        <path
            d="m87.1257 14.4163-.1657.1644-.0971.0906c-.4281-.4221-1.0072-.6591-1.6108-.6591s-1.1827.237-1.6108.6591l-.0914-.0963-.1656-.1643.2113-.187c.1532-.1178.3178-.2203.4913-.306.2036-.1021.421-.1746.6454-.2154.1085 0 .2171-.0283.3256-.0453h.2856.2171c.195.0264.3865.0739.5712.1417.138.0518.2717.1143.3998.187.1355.077.2636.1661.3827.2663l.1771.1587z"
            fill="#c7c7c7" />
        <path
            d="m84.1725 15.1927-.2684-.2607c.3584-.3529.843-.551 1.348-.551s.9896.1981 1.348.551l-.2684.2607c-.2869-.2831-.675-.442-1.0796-.442s-.7927.1589-1.0796.442z"
            fill="#c7c7c7" />
        <path
            d="m86.0689 15.459-.2627.2607c-.0719-.0737-.158-.1323-.2532-.1723s-.1975-.0606-.3009-.0606-.2057.0206-.3009.0606c-.0951.04-.1812.0986-.2531.1723l-.2628-.2607c.1064-.1079.2335-.1937.3737-.2522.1403-.0586.2909-.0888.4431-.0888s.3028.0302.4431.0888c.1403.0585.2673.1443.3737.2522z"
            fill="#c7c7c7" />
        <path
            d="m85.492 15.952c0 .0631-.0253.1237-.0703.1683s-.106.0697-.1696.0697c-.0313 0-.0622-.0062-.091-.0182s-.0548-.0296-.0767-.0518c-.0218-.0222-.0389-.0485-.0503-.0773-.0115-.0289-.017-.0597-.0162-.0907 0-.0616.0247-.1207.0686-.1643.0439-.0435.1035-.068.1656-.068.0312-.0008.0623.0047.0914.016.029.0113.0555.0283.0779.05.0223.0216.0401.0475.0522.0761.0122.0285.0184.0592.0184.0902z"
            fill="#c7c7c7" />
        <path
            d="m70.8294 14.915c0-.1358.0407-.2686.1169-.3815s.1844-.2008.3111-.2525c.1266-.0517.2659-.065.4001-.038.1342.0269.2573.0928.3538.1892.0964.0965.1618.2192.1878.3526.026.1333.0115.2714-.0417.3966s-.1426.2319-.2571.3065c-.1144.0747-.2486.1139-.3855.1128-.0905 0-.1801-.0178-.2636-.0523-.0836-.0345-.1594-.0851-.2231-.1489-.0637-.0637-.1141-.1393-.1482-.2225s-.0513-.1722-.0505-.262z"
            fill="#c7c7c7" />
        <path
            d="m72.9885 14.915c0-.1353.0404-.2677.1161-.3803.0757-.1127.1833-.2005.3093-.2526.1259-.0521.2646-.066.3985-.04s.2571.0908.354.1861.1631.217.1905.3496c.0273.1327.0144.2703-.0371.3957-.0514.1254-.1391.2329-.252.3089s-.246.1172-.3824.1183c-.0912.0008-.1817-.0164-.2663-.0505-.0845-.0342-.1613-.0846-.2261-.1483-.0648-.0638-.1162-.1396-.1513-.2232-.0351-.0835-.0532-.1731-.0532-.2637z"
            fill="#c7c7c7" />
        <path
            d="m75.1589 14.915c0-.1356.0406-.2682.1165-.381.076-.1127.1839-.2006.3102-.2525s.2653-.0655.3993-.039c.1341.0264.2573.0917.3539.1876.0967.0959.1625.2181.1892.3511.0266.133.0129.2709-.0394.3962s-.1409.2324-.2545.3077c-.1137.0754-.2473.1156-.384.1156-.1833 0-.3591-.0723-.4887-.2009-.1296-.1285-.2025-.303-.2025-.4848z"
            fill="#c7c7c7" />
        <path
            d="m77.3294 14.9152c0-.1359.0407-.2687.1169-.3816s.1844-.2007.3111-.2525c.1266-.0517.2658-.0649.4001-.038.1342.0269.2573.0928.3538.1892.0964.0965.1618.2192.1878.3526s.0115.2714-.0417.3966-.1426.2319-.2571.3065c-.1144.0747-.2486.114-.3855.1128-.0905 0-.1801-.0177-.2636-.0523-.0836-.0345-.1594-.0851-.2231-.1488-.0637-.0638-.1141-.1394-.1482-.2226-.0341-.0831-.0513-.1722-.0505-.2619z"
            fill="#c7c7c7" />
        <path
            d="m79.4944 14.915c0-.1356.0405-.2682.1165-.381.0759-.1127.1839-.2006.3101-.2525.1263-.0519.2653-.0655.3994-.039.1341.0264.2572.0917.3539.1876.0966.0959.1625.2181.1891.3511.0267.133.013.2709-.0393.3962s-.1409.2324-.2546.3077c-.1136.0754-.2473.1156-.384.1156-.1833 0-.3591-.0723-.4887-.2009-.1296-.1285-.2024-.303-.2024-.4848z"
            fill="#c7c7c7" />
        <path d="m160.16 16.4337h-5.615v-2.6067h5.615zm-5.324-.289h5.027v-2.0287h-5.027z"
            fill="#c7c7c7" />
        <path d="m158.629 14.269h-3.616v1.7h3.616z" fill="#c7c7c7" />
        <path d="m160.657 14.4277h-.497v1.377h.497z" fill="#c7c7c7" />
        <path
            d="m79.8315 203.183h-.7882v3.598h-1.4737v-1.836h-2.6161v1.836h-1.4737v-3.598h-.794l3.5757-3.667z"
            fill="#ebebeb" />
        <path d="m159.314 199.517h-8.614v1.218h8.614z" fill="#ebebeb" />
        <path d="m159.314 202.537h-8.614v1.218h8.614z" fill="#ebebeb" />
        <path d="m159.314 205.557h-8.614v1.219h8.614z" fill="#ebebeb" />
        <path d="m118.45 202.667-2.45 2.59-2.45-2.59.434-.402 2.016 2.131 2.016-2.131z"
            fill="#ebebeb" />
        <path
            d="m116 207.937c-.88 0-1.74-.259-2.472-.744s-1.302-1.174-1.639-1.981c-.337-.806-.425-1.694-.253-2.55.171-.857.595-1.643 1.218-2.261.622-.617 1.415-1.037 2.278-1.208.863-.17 1.758-.083 2.571.251.813.335 1.508.9 1.997 1.626s.75 1.58.75 2.453c-.003 1.17-.473 2.291-1.307 3.118s-1.964 1.293-3.143 1.296zm0-8.245c-.764 0-1.51.225-2.145.646s-1.13 1.019-1.422 1.719c-.293.7-.369 1.47-.22 2.213s.517 1.426 1.057 1.962c.54.535 1.228.9 1.977 1.048s1.525.072 2.231-.218c.705-.29 1.308-.781 1.733-1.411.424-.63.65-1.371.65-2.128 0-1.016-.407-1.991-1.131-2.709s-1.706-1.122-2.73-1.122z"
            fill="#ebebeb" />
        <path
            d="m109.357 187.661c0 .292-.087.577-.25.819s-.395.431-.667.543c-.271.111-.57.14-.858.084-.288-.057-.553-.198-.76-.404-.208-.206-.349-.468-.407-.754-.057-.286-.028-.582.085-.851.112-.27.303-.5.547-.662.244-.161.531-.248.825-.248.195-.001.389.037.569.111.181.074.345.182.483.319s.247.3.321.479c.075.179.113.371.112.564z"
            fill="#dbdbdb" />
        <path
            d="m118.411 187.661c0 .442-.132.874-.38 1.241-.247.367-.599.653-1.01.822s-.864.213-1.3.127c-.437-.086-.838-.298-1.152-.611-.315-.312-.529-.71-.616-1.143s-.043-.882.128-1.29c.17-.408.459-.757.829-1.002s.805-.376 1.25-.376c.596.001 1.168.237 1.59.655.421.419.659.986.661 1.577z"
            fill="#1a998e" />
        <path
            d="m125.933 187.661c0 .292-.087.577-.25.819s-.395.431-.666.543c-.272.111-.57.14-.858.084-.289-.057-.553-.198-.761-.404s-.349-.468-.406-.754c-.058-.286-.028-.582.084-.851.113-.27.303-.5.547-.662.244-.161.532-.248.825-.248.196-.001.389.037.569.111.181.074.345.182.483.319s.248.3.322.479.112.371.111.564z"
            fill="#dbdbdb" />
        <path d="m134.461 146.611h-38.8243v12.649h38.8243z" fill="#017c83" />
        <path
            d="m106.815 154.703v-3.4c-.001-.042.007-.083.023-.122s.039-.074.069-.104c.03-.029.066-.053.105-.068.039-.016.081-.024.123-.023.043-.001.085.007.124.023.04.015.076.038.106.068.03.029.054.065.071.104.016.038.025.08.025.122v3.1h1.588c.086 0 .169.034.23.095.061.06.095.142.095.228s-.034.168-.095.228c-.061.061-.144.095-.23.095h-1.914c-.044 0-.088-.009-.129-.026-.041-.018-.078-.044-.108-.077-.03-.032-.053-.071-.067-.112-.014-.042-.02-.087-.016-.131z"
            fill="#fff" />
        <path
            d="m113.098 151.468c.381.395.593.921.593 1.467 0 .547-.212 1.073-.593 1.468-.176.195-.392.351-.633.458s-.502.164-.766.165c-.268-.001-.534-.056-.779-.164-.246-.107-.467-.263-.649-.459-.374-.398-.582-.923-.582-1.468 0-.544.208-1.069.582-1.467.181-.197.402-.354.648-.461.246-.108.511-.163.78-.163.264.001.526.057.767.164s.456.264.632.46zm-.074 1.467c0-.376-.143-.738-.4-1.014-.117-.13-.262-.234-.422-.305-.161-.071-.335-.107-.512-.107-.176 0-.35.036-.511.107s-.305.175-.422.305c-.262.273-.406.637-.4 1.014-.006.376.137.738.4 1.009.116.132.26.237.421.309s.336.109.512.109c.177 0 .352-.037.513-.109s.304-.177.421-.309c.266-.27.418-.631.423-1.009z"
            fill="#fff" />
        <path
            d="m114.686 152.941c.003-.278.061-.553.172-.809.11-.256.27-.488.47-.683.201-.195.438-.348.698-.452s.539-.156.819-.153c.485-.001.955.158 1.337.454.035.026.063.06.085.098.021.037.035.079.041.122.005.043.002.087-.01.129s-.032.081-.059.115c-.027.035-.06.063-.099.085-.038.021-.08.035-.123.04-.044.005-.088.002-.13-.01-.042-.011-.082-.031-.116-.058-.265-.203-.591-.313-.926-.312-.195-.002-.388.034-.569.107-.18.073-.344.181-.482.318-.138.129-.249.284-.325.457-.075.172-.114.358-.114.546 0 .189.039.375.114.547.076.173.187.328.325.456.138.137.302.246.482.319.181.073.374.109.569.106.29.001.575-.078.823-.226v-.794h-.857c-.088-.002-.171-.039-.233-.101s-.097-.146-.098-.233c.001-.086.037-.168.099-.229.062-.06.145-.094.232-.094h1.143c.044-.001.087.006.129.021.041.016.078.039.11.069s.058.066.075.106c.018.04.028.083.028.127v1.286c.003.032.003.065 0 .097v.028c-.02.059-.061.109-.114.142-.38.294-.849.454-1.331.453-.564.009-1.109-.204-1.515-.593-.405-.389-.639-.921-.65-1.481z"
            fill="#fff" />
        <path
            d="m119.679 151.303c-.001-.042.007-.083.023-.122.015-.039.039-.074.069-.104.03-.029.065-.053.104-.068.039-.016.081-.024.124-.023.042-.001.085.007.125.022.039.016.076.039.107.069.03.029.055.064.072.103s.026.081.027.123v3.4c-.003.086-.039.166-.101.226-.062.059-.144.092-.23.092-.043.001-.085-.007-.124-.023-.039-.015-.074-.039-.104-.068-.03-.03-.054-.065-.069-.104-.016-.039-.024-.081-.023-.123z"
            fill="#fff" />
        <path
            d="m122.066 154.703c0 .085-.033.165-.093.225-.06.059-.142.093-.227.093-.084 0-.166-.034-.226-.093-.06-.06-.093-.14-.093-.225v-3.4c-.002-.051.01-.102.033-.149.023-.046.056-.086.098-.117.069-.046.154-.065.236-.053.083.013.158.056.21.121l1.89 2.595v-2.391c0-.083.033-.162.092-.22.059-.059.139-.092.222-.092.084 0 .165.033.225.091.059.059.094.138.095.221v3.4c-.001.084-.035.164-.095.223s-.14.093-.225.094c-.046 0-.092-.011-.133-.032-.042-.02-.078-.05-.107-.087l-.028-.034-1.874-2.578z"
            fill="#fff" />
        <path
            d="m125.665 48.7004v4.1424h-2.953v-4.1424c0-3.9668-3.022-7.1458-6.735-7.1458s-6.711 3.2131-6.711 7.1458v10.3702h-2.954v-10.3702c0-5.6668 4.347-10.2399 9.711-10.2399s9.642 4.6071 9.642 10.2399z"
            fill="#c7c7c7" />
        <path d="m106.312 52.8542 2.954.119v6.0975h-2.954z" fill="#a6a6a6" />
        <path d="m129.475 55.5969h-26.95v24.2539h26.95z" fill="#1a998e" />
        <path d="m129.475 55.5969h-13.475v24.2539h13.475z" fill="#000" opacity=".1" />
        <path
            d="m117.137 68.6135 1.142 5.3041h-4.787l1.143-5.3041c-.443-.2729-.785-.6816-.973-1.1642-.188-.4827-.212-1.013-.069-1.5106s.446-.9354.862-1.2471.923-.4803 1.445-.4803 1.029.1686 1.445.4803c.417.3117.719.7495.862 1.2471s.119 1.0279-.069 1.5106c-.188.4826-.53.8913-.973 1.1642z"
            fill="#263238" />
        <g stroke-miterlimit="10">
            <path d="m150.706 106.615h-69.4064v11.787h69.4064z" fill="#fff" stroke="#ebebeb" />
            <path d="m88.2168 109.868v5.038" stroke="#37474f" />
            <path d="m90.753 112.384h-5.0723" stroke="#37474f" />
            <path d="m90.0103 110.604-3.5872 3.565" stroke="#37474f" />
            <path d="m90.0103 114.169-3.5872-3.565" stroke="#37474f" />
            <path d="m96.8306 109.868v5.038" stroke="#37474f" />
            <path d="m99.3724 112.384h-5.078" stroke="#37474f" />
            <path d="m98.624 110.604-3.5871 3.565" stroke="#37474f" />
            <path d="m98.624 114.169-3.5871-3.565" stroke="#37474f" />
            <path d="m105.444 109.868v5.038" stroke="#37474f" />
            <path d="m107.986 112.384h-5.078" stroke="#37474f" />
            <path d="m107.244 110.604-3.593 3.565" stroke="#37474f" />
            <path d="m107.244 114.169-3.593-3.565" stroke="#37474f" />
            <path d="m114.064 109.868v5.038" stroke="#37474f" />
            <path d="m116.6 112.384h-5.078" stroke="#37474f" />
            <path d="m115.857 110.604-3.593 3.565" stroke="#37474f" />
            <path d="m115.857 114.169-3.593-3.565" stroke="#37474f" />
            <path d="m122.677 109.868v5.038" stroke="#37474f" />
            <path d="m125.213 112.384h-5.078" stroke="#37474f" />
            <path d="m124.471 110.604-3.587 3.565" stroke="#37474f" />
            <path d="m124.471 114.169-3.587-3.565" stroke="#37474f" />
            <path d="m131.291 109.868v5.038" stroke="#37474f" />
            <path d="m133.827 112.384h-5.072" stroke="#37474f" />
            <path d="m133.085 110.604-3.587 3.565" stroke="#37474f" />
            <path d="m133.085 114.169-3.587-3.565" stroke="#37474f" />
            <path
                d="m147.696 112.48c-.319.481-.753.875-1.263 1.148-.511.273-1.081.416-1.661.416s-1.151-.143-1.661-.416c-.511-.273-.945-.667-1.264-1.148.319-.48.753-.875 1.264-1.148.51-.273 1.081-.415 1.661-.415s1.15.142 1.661.415c.51.273.944.668 1.263 1.148z"
                stroke="#ebebeb" />
        </g>
        <path
            d="m144.772 113.755c.709 0 1.285-.571 1.285-1.275s-.576-1.275-1.285-1.275c-.71 0-1.286.571-1.286 1.275s.576 1.275 1.286 1.275z"
            fill="#ebebeb" />
        <path d="m147.096 110.123-4.564 4.528" stroke="#ebebeb" stroke-miterlimit="10" />
        <path
            d="m97.3388 94.3408h-.914v1.5923c0 .1083-.0433.212-.1204.2886-.0772.0765-.1818.1195-.2908.1195-.1091 0-.2137-.043-.2908-.1195-.0772-.0766-.1205-.1803-.1205-.2886v-4.335c0-.0534.0107-.1062.0314-.1553.0207-.0492.0511-.0938.0894-.1313.0383-.0374.0836-.0669.1335-.0868s.1032-.0297.157-.029h1.3252c.2161-.0129.4326.0182.6362.0915.2036.0732.39.1869.5476.3342.1577.1473.2833.325.3691.5222.0859.1972.1302.4098.1302.6246 0 .2149-.0443.4274-.1302.6247-.0858.1972-.2114.3749-.3691.5222-.1576.1473-.344.261-.5476.3342s-.4201.1044-.6362.0915zm-.914-.816h.914c.1056.009.2121-.0038.3125-.0377s.1927-.0881.2709-.1592c.0781-.0712.1406-.1576.1833-.254.0427-.0963.0647-.2004.0647-.3057 0-.1052-.022-.2093-.0647-.3056-.0427-.0964-.1052-.1829-.1833-.254-.0782-.0711-.1705-.1254-.2709-.1593-.1004-.0338-.2069-.0467-.3125-.0376h-.914z"
            fill="#1a998e" />
        <path
            d="m102.051 95.1228h-1.799l-.3655.9577c-.0321.0747-.0853.1385-.1532.1838-.068.0453-.1477.07-.2295.0712-.0472.0086-.0956.0086-.1428 0-.1025-.0383-.1857-.115-.2317-.2136-.0459-.0986-.051-.2112-.0139-.3134l1.6396-4.3295c.032-.0769.087-.1424.157-.1879s.153-.0689.237-.0671c.083-.0022.165.0211.235.0667.069.0456.123.1114.153.1883l1.64 4.3295c.037.1022.032.2148-.014.3134s-.13.1753-.232.2136c-.047.0096-.096.0096-.143 0-.081-.0001-.161-.0245-.228-.0699-.067-.0455-.119-.11-.149-.1851zm-.302-.8047-.572-1.581-.645 1.581z"
            fill="#1a998e" />
        <path
            d="m103.902 95.0605c.032-.039.072-.0713.116-.095.045-.0237.094-.0384.145-.0431.05-.0048.101.0005.149.0154.049.015.094.0393.133.0717.398.3359.895.5347 1.416.5667.33.0067.653-.0883.926-.2721.092-.0548.169-.1317.224-.2238s.086-.1963.09-.3032c.004-.082-.018-.1632-.063-.2323-.058-.0886-.134-.164-.223-.221-.314-.1772-.659-.2944-1.017-.3457-.33-.056-.653-.1531-.959-.289-.279-.1195-.517-.3162-.686-.5667-.114-.1794-.174-.3882-.171-.6006.005-.2111.059-.4182.158-.605s.241-.3483.413-.4717c.376-.2578.823-.3926 1.28-.3854.583.0248 1.146.2222 1.616.5667.084.0564.142.1436.162.2424.019.0988-.002.2012-.059.2846-.027.0422-.062.0785-.103.1069s-.087.0483-.137.0583c-.049.0101-.099.0102-.148.0003-.05-.0099-.096-.0296-.138-.0578-.34-.2736-.756-.4377-1.193-.4704-.296-.005-.586.0822-.829.2494-.082.0481-.15.1159-.199.197-.049.0812-.077.1732-.08.2677-.006.0717.012.1432.051.204.053.0765.121.1419.2.1926.284.1659.599.2756.925.323.352.062.695.1647 1.023.306.3.1311.557.3431.742.6121.115.188.176.4034.177.6233-.008.2257-.07.4463-.182.6434-.111.1971-.268.365-.457.49-.399.281-.877.4279-1.366.4193-.696-.0315-1.363-.2905-1.896-.7367-.072-.066-.115-.1563-.123-.2529-.007-.0966.022-.1925.083-.2684z"
            fill="#1a998e" />
        <path
            d="m108.774 95.0605c.032-.0388.071-.071.115-.0947.044-.0236.093-.0382.143-.043.05-.0047.1.0005.148.0154.048.0148.093.0391.131.0713.398.3359.895.5347 1.417.5667.329.0075.653-.0876.925-.2721.093-.0549.171-.1317.227-.2237.056-.0919.088-.1961.093-.3033.002-.0826-.022-.1637-.068-.2323-.056-.0898-.133-.1655-.223-.221-.312-.1774-.655-.2946-1.011-.3457-.329-.0552-.65-.1524-.954-.289-.28-.1194-.52-.316-.691-.5667-.113-.1803-.172-.3885-.172-.6006.005-.2111.059-.4182.158-.605s.241-.3483.414-.4717c.375-.2578.822-.3926 1.279-.3854.584.0248 1.147.2222 1.617.5667.084.0564.142.1436.161.2424s-.002.2012-.059.2846c-.026.0422-.061.0785-.102.1069-.042.0284-.088.0483-.137.0583-.049.0101-.1.0102-.149.0003s-.096-.0296-.137-.0578c-.341-.2736-.757-.4377-1.194-.4704-.296-.005-.585.0822-.828.2494-.082.0481-.151.1159-.2.197-.049.0812-.076.1732-.08.2677-.006.0717.012.1432.051.204.054.0765.122.1419.2.1926.285.1649.599.2745.926.323.351.062.694.1647 1.022.306.299.1301.555.3425.737.6121.119.1862.18.4029.177.6233-.007.2253-.069.4457-.179.6428-.11.1972-.266.3653-.455.4906-.4.2821-.881.4292-1.371.4193-.697-.0315-1.363-.2905-1.896-.7367-.071-.0667-.114-.1574-.12-.254-.007-.0966.024-.192.085-.2673z"
            fill="#1a998e" />
        <path
            d="m125.665 91.8304c.481.5023.749 1.1687.749 1.8615s-.268 1.3592-.749 1.8615c-.225.2441-.499.4394-.804.574-.304.1345-.634.2054-.967.2081-.34-.0019-.677-.0722-.989-.2066s-.594-.3301-.827-.5755c-.47-.508-.731-1.1722-.731-1.8615s.261-1.3535.731-1.8615c.233-.2464.514-.4429.826-.5774.313-.1345.649-.2041.99-.2047.334.0014.663.0716.968.2062.305.1347.578.3308.803.5759zm-.097 1.8587c0-.4743-.18-.9314-.503-1.2807-.147-.1635-.328-.2945-.53-.3843-.201-.0898-.42-.1365-.641-.1371-.226-.0016-.449.044-.656.1338-.206.0898-.392.2219-.543.3876-.326.3481-.506.8059-.503 1.2807-.005.4751.175.9338.503 1.2807.152.1655.337.2979.543.3887.207.0907.43.1378.656.1383.221-.003.44-.0514.641-.1421.202-.0907.382-.2218.53-.3849.333-.345.521-.803.526-1.2807z"
            fill="#1a998e" />
        <path
            d="m131.325 95.7291c.018.0502.026.1034.022.1565-.003.0531-.017.105-.041.1526s-.058.0899-.098.1244c-.041.0345-.089.0605-.14.0765-.055.0089-.11.0089-.165 0-.101.0023-.201-.0253-.286-.0793-.101-.0631-.183-.1509-.24-.255-.118-.2794-.17-.5816-.154-.884-.001-.1121-.033-.2218-.091-.3174-.057-.0862-.133-.158-.223-.2096-.127-.0808-.265-.1402-.411-.1757h-.874v1.5924c-.001.0535-.013.1064-.034.1557-.021.0492-.052.0938-.091.1311-.039.0374-.084.0668-.135.0866-.05.0198-.103.0296-.157.0289-.054 0-.106-.0104-.156-.0306-.049-.0202-.093-.0499-.131-.0872-.038-.0374-.068-.0818-.088-.1306s-.031-.1011-.031-.1539v-4.3351c-.001-.0531.009-.1058.029-.1549.02-.0492.05-.0938.088-.1313.038-.0376.083-.0672.133-.0871.049-.02.102-.0298.156-.0291h1.325c.326-.0013.645.0977.913.2834.268.1858.471.4491.582.754.11.3048.123.6362.037.9486-.087.3125-.269.5907-.521.7964.098.078.185.1696.257.272.161.2338.246.5104.245.7934-.01.146-.001.2929.029.4363.062.0199.118.0554.162.1031s.075.1059.089.1689zm-1.033-2.958c0-.1-.019-.1991-.057-.2915-.038-.0925-.095-.1765-.166-.2472-.071-.0706-.156-.1265-.249-.1644s-.193-.0571-.294-.0563h-.908v1.4904h.908c.198.0001.389-.076.531-.2123.143-.1364.227-.3223.235-.5187z"
            fill="#1a998e" />
        <path
            d="m132.851 95.5421v-3.9667c-.001-.0486.008-.0969.026-.1419.019-.045.046-.0859.081-.1203.034-.0344.075-.0615.121-.0797.045-.0182.094-.0273.143-.0265h.805c.63 0 1.235.2484 1.68.6905.446.4421.696 1.0417.696 1.6669s-.25 1.2248-.696 1.6669c-.445.4421-1.05.6905-1.68.6905h-.805c-.05 0-.099-.0099-.145-.0291s-.087-.0474-.122-.0828c-.034-.0354-.062-.0773-.08-.1233-.018-.0461-.026-.0952-.024-.1445zm.754-.3797h.422c.43 0 .843-.1695 1.147-.4713s.475-.7112.475-1.138c0-.4269-.171-.8362-.475-1.138s-.717-.4714-1.147-.4714h-.422z"
            fill="#1a998e" />
        <path
            d="m221.136 28.8043s-4.358 34.6015-11.521 42.3876c-8.568 9.3389-14.852 7.9732-18.279 12.79-3.473-4.8225-9.71-3.4511-18.313-12.7956-7.157-7.7862-11.504-42.3877-11.504-42.3877 18.85-9.0668 29.817-19.26704 29.817-19.26704.314.323 11.224 10.33054 29.8 19.27274z"
            fill="#37474f" />
        <path
            d="m191.313 9.54289v74.43901c-3.473-4.8225-9.71-3.4511-18.312-12.7956-7.158-7.7862-11.504-42.3877-11.504-42.3877 18.849-9.0668 29.816-19.26704 29.816-19.26704z"
            fill="#455a64" />
        <path
            d="m216.486 31.5924s-3.678 29.2293-9.71 35.8084c-7.272 7.8996-12.567 6.7379-15.474 10.8066-2.93-4.0687-8.203-2.907-15.474-10.8066-6.043-6.5791-9.711-35.8084-9.711-35.8084 15.937-7.6785 25.191-16.292 25.191-16.292s9.259 8.6135 25.178 16.292z"
            fill="#455a64" />
        <path
            d="m166.123 31.5924s3.679 29.2236 9.711 35.8084c7.26 7.8939 12.526 6.7435 15.462 10.801v-62.9014c-.263.2833-9.482 8.7325-25.173 16.292z"
            fill="#37474f" />
        <path
            d="m199.574 54.9563c4.562-4.5256 4.562-11.8631 0-16.3888-4.562-4.5256-11.958-4.5256-16.52 0-4.561 4.5257-4.561 11.8631 0 16.3888 4.562 4.5256 11.958 4.5256 16.52 0z"
            fill="#1a998e" />
        <path d="m189.982 54.2936-5.203-5.3722 1.93-1.8417 2.868 2.9638 6.18-9.4126 2.245 1.4507z"
            fill="#fff" />
        <path d="m19.1067 111.993h40.0757v-8.234h-40.0757z" fill="#c7c7c7" />
        <path d="m48.4268 111.925 1.1195 10.523 13.8574 98.512h3.9642l-10.9386-98.512-.8911-10.523z"
            fill="#c7c7c7" />
        <path d="m10.9158 220.96h3.9641l13.8574-98.512 1.1196-10.523h-7.1172l-.8854 10.523z"
            fill="#c7c7c7" />
        <path d="m17.6046 188.778h44.2055v-2.471h-44.2055z" fill="#c7c7c7" />
        <path d="m56.4293 122.08h-6.883l-1.1195-10.155h7.1114z" fill="#a6a6a6" />
        <path d="m21.8542 122.08h6.8831l1.1195-10.155h-7.1172z" fill="#a6a6a6" />
        <path
            d="m24.4532 64.1878c1.6851.8726 2.0107 3.8817 7.3457 3.7174.7597 0 1.3823-.323 2.0792-.068 1.0225.3683 1.8279 1.1787 2.7361 1.768.7304.4871 1.5621.8048 2.4333.9294 1.6714.196 3.3596-.1906 4.7753-1.0937.8739-.5327 1.605-1.2694 2.4504-1.8474s5.9462-1.802 6.8088-4.6468c.5426-1.8077.4626-3.8647-1.7136-6.5055-.5022-.4702-.8437-1.0844-.9768-1.7567-.0013-.5891.1335-1.1707.3941-1.7.2993-.6018.4088-1.2792.3142-1.9437-.2429-.6354-.6344-1.2045-1.1424-1.6604-.7997-.9577-.6512-2.3404 0-4.0404.2582-.7214.3461-1.4919.257-2.2523s-.3529-1.4904-.7711-2.1338c-.5243-.7371-1.1425-1.4037-1.8393-1.9834-.9767-.918-1.1424-1.768-1.5822-3.0657-.8054-2.4707-2.102-3.6041-3.6272-4.3748-1.3766-.6913-1.3309-.4306-2.8103-.2096-1.4908-.9044-3.2469-1.28-4.9809-1.0654-1.6108.204-2.9417 1.275-4.1583 2.3007-1.0853.918-2.0792 1.9041-2.1363 3.4511-.04.8897.1828 1.7737.1371 2.6634-.0514 1.1333-.6855 1.853-1.4452 2.567-1.1328.9558-1.9142 2.2571-2.222 3.7005-.1999 1.207.9996 3.0827-.4055 4.8677-1.2338 1.5754-3.4272 3.4001-3.9984 5.3722-1.7651 6.1598 2.4733 8.1715 4.0783 9.0102z"
            fill="#263238" />
        <path
            d="m45.1251 67.5085c2.4504-.3683 6.2146.0907 7.517-2.618.5154-.4167.9235-.949 1.1907-1.553.2671-.604.3857-1.2624.3458-1.9208-.1705-1.4055-.8265-2.7091-1.8564-3.6891-.5972-.5583-1.1194-1.1906-1.5537-1.8813-.1377-.5424-.2388-1.0933-.3027-1.6491.101-.7089.293-1.4021.5712-2.0627-.5312 1.1334-1.0282 2.3574-.5312 3.6041.073.1778.1589.3502.257.5157.1786.6556.4235 1.2917.7312 1.8984.8054 1.5867 1.5422 3.0204 1.4337 4.8734-.0189.619-.1688 1.2272-.4398 1.785-1.0601.9224-2.3841 1.493-3.7871 1.6321-.0343 0-.0343.0623 0 .0566 1.2687-.1272 2.4857-.5654 3.5414-1.275-1.4223 2.0231-4.7295 1.7454-7.1229 2.2157-.0799-.0056-.0571.0737.0058.068zm7.7055-3.077v-.051c.4242-1.5016.3153-3.1021-.3085-4.5335-.3884-.9463-.971-1.7963-1.3537-2.7484-.0628-.1643-.1257-.3286-.1828-.493.5712.7367 1.2909 1.3544 1.8278 2.0797 1.1425 1.5754 1.508 3.4511.417 5.1625-.1232.2038-.2606.3988-.4112.5837z"
            fill="#263238" />
        <path
            d="m47.2844 38.6022c.9159.7887 1.7874 1.6267 2.6104 2.5104.5763.5749.9216 1.3384.9711 2.1477.0213.8167-.2386 1.6162-.7369 2.2667-.1885.272-.3713.5667-.5369.8387-.0414.5258.0428 1.0539.2456 1.5414.3941.935 1.2852 1.513 1.7136 2.4594.6683 1.53-.0685 2.788-.7197 4.1537.4741-1.1333 1.1424-2.227.7654-3.4964-.297-1.037-1.0624-1.598-1.6393-2.4424-.3512-.5363-.5486-1.1572-.5712-1.7963-.5141 1.0313-.6969 2.1193.217 3.2017.04.051 0 .119-.0685.0737-1.1424-1.1334-.8454-2.5558-.1428-3.7741.0432-.7197.2033-1.4277.4741-2.0967 0-.068.1314 0 .1199.051-.1028.5326-.2399 1.0653-.3141 1.5923l.1199-.1756c.9139-1.2977 1.2738-2.8334.2228-4.1935-.7883-1.037-1.8621-1.853-2.7418-2.8334-.0457-.0113-.0114-.0453.0114-.0283z"
            fill="#263238" />
        <path
            d="m54.156 145.603s-10.2302 22.542-10.2417 22.559c-1.9763 4.301-3.6385 8.104-4.3068 10.155-.0032.011-.0032.023 0 .034-.2112.462-.311.966-.2914 1.473v.034c.8911 1.457 35.0719 18.134 36.4657 18.332 1.3937.199 2.0277-3.728 1.2223-5.428s-11.0185-13.895-11.0185-13.895l10.0132-22.634z"
            fill="#eb9481" />
        <path
            d="m46.0161 163.532s-2.0906 4.613-2.102 4.63c-1.9764 4.301-3.6386 8.104-4.3069 10.155-.0031.011-.0031.023 0 .034-.1571.478-.2549.972-.2913 1.473v.034c.8911 1.457 35.0719 18.134 36.4656 18.332 1.3938.199 2.0278-3.728 1.2224-5.428s-11.0185-13.895-11.0185-13.895l2.1991-4.67z"
            fill="#ebebeb" />
        <path
            d="m75.7703 198.145c-1.3937-.181-35.586-16.842-36.4828-18.298-.3484-.567 1.8051-5.633 4.5697-11.702l.0857-.193 22.1855 10.507-.1942.368s10.2131 12.189 11.0299 13.889c.8169 1.7.1999 5.622-1.1938 5.429z"
            fill="#263238" />
        <path
            d="m76.8954 197.204c.497.533-.6454 2.511-1.1709 2.46s-37.6995-18.383-38.2707-18.837c-.5712-.453.7826-2.589 1.5766-2.346.7939.244 37.865 18.723 37.865 18.723z"
            fill="#1a998e" />
        <path
            d="m67.7792 179.796c-2.0621-1.524-5.0038-2.533-7.5342-1.774-.0971.029-.0514.17.0343.182 2.5113.361 4.976.99 7.3514 1.875.036.009.074.006.1078-.01.0338-.015.0615-.041.0786-.073.0172-.033.0227-.071.0158-.107-.0068-.036-.0258-.069-.0537-.093z"
            fill="#fff" />
        <path
            d="m68.9329 181.575c-2.0621-1.524-5.0038-2.533-7.5342-1.773-.0971 0-.0514.164.0285.181 2.5126.361 4.979.988 7.3571 1.87.0363.013.0762.013.1122-.001.0361-.014.0659-.04.084-.074.0181-.033.0232-.073.0145-.11-.0088-.037-.0308-.07-.0621-.093z"
            fill="#fff" />
        <path
            d="m70.0868 183.349c-2.062-1.524-5.0094-2.533-7.5341-1.774-.0971.034-.0571.17 0 .182 2.5133.36 4.98.989 7.3571 1.875.0378.024.0835.031.1269.021s.0809-.037.1044-.074c.0235-.038.031-.083.0208-.126s-.0372-.081-.0751-.104z"
            fill="#fff" />
        <path
            d="m47.7357 174.503c-1.8736-2.436-5.7121.442-3.8214 2.885 1.8907 2.442 5.6949-.442 3.8214-2.885z"
            fill="#fff" />
        <path
            d="m60.1878 126.007c-.2285 6.556-12.9663 34.873-12.9663 34.873l22.3398 10.2s18.0329-31.49 16.3592-45.997c-1.428-12.308-32.6442-35.0717-37.6537-41.4865-.7426-.952-.4912-4.7828-.4912-4.7828h-20.2663v4.7828c7.7398 16.2977 30.8907 35.8485 32.6043 41.5885.0676.263.0926.534.0742.805z"
            fill="#37474f" />
        <path
            d="m69.4355 166.349c-3.6785-1.751-2.599-1.304-6.2832-3.009-1.8108-.833-10.8929-5.055-12.7207-5.525-.0099-.005-.0211-.005-.0313-.002-.0102.004-.0185.012-.023.021-.0045.01-.005.021-.0012.031.0037.01.0113.019.0212.023 1.5651 1.054 10.7443 5.061 12.5665 5.86 3.7299 1.632 2.6789 1.133 6.426 2.708.0628.034.1142-.073.0457-.107z"
            fill="#263238" />
        <path
            d="m32.6273 87.042c6.1172 9.2497 12.9565 18.009 20.4548 26.198 1.8393 1.989 3.7299 3.921 5.6206 5.859 1.5994 1.643 3.233 3.457 3.6272 5.786.4455 2.595-.5712 5.179-1.3881 7.599-.8967 2.663-1.7992 5.327-2.7532 7.967-1.0281 2.834-5.2322 13.142-5.9233 14.53-.3485.691 5.5635-14.167 6.5174-16.91.9539-2.742 1.9364-5.468 2.7532-8.245.4736-1.414.6675-2.905.5712-4.392-.1856-1.433-.7623-2.789-1.6679-3.921-1.6451-2.176-3.7814-4.018-5.6492-6.007-3.8728-4.114-7.5647-8.385-11.0757-12.812-3.9885-5.0092-7.712-10.2203-11.1556-15.6124-.0034-.0045-.0058-.0096-.0071-.0151-.0013-.0054-.0014-.0111-.0003-.0166.0011-.0056.0034-.0108.0067-.0154.0032-.0046.0075-.0084.0124-.0112s.0103-.0046.016-.0052c.0056-.0006.0113 0 .0167.0018s.0103.0046.0145.0084c.0041.0038.0075.0085.0097.0137z"
            fill="#263238" />
        <path
            d="m20.5919 194.751s-.9996 24.713-.9996 24.73c.1142 4.726.297 8.868.5712 10.999-.0032.013-.0032.026 0 .039.0141.507.1471 1.004.3884 1.451 1.4394.918 39.5387 1.134 40.8696.697 1.3309-.436.1828-4.239-1.2909-5.417-1.4737-1.179-16.028-7.73-16.028-7.73l.7597-24.696z"
            fill="#eb9481" />
        <path
            d="m19.7922 214.59s-.1999 4.874-.1999 4.891c.1142 4.726.297 8.868.5712 10.999-.0032.013-.0032.026 0 .039.0729.497.2032.984.3884 1.451 1.4394.918 39.5387 1.134 40.8696.697 1.3309-.436.1828-4.239-1.2909-5.417-1.4737-1.179-16.028-7.73-16.028-7.73l.1543-4.998z"
            fill="#ebebeb" />
        <path
            d="m61.4503 232.656c-1.3309.436-39.4131.26-40.8754-.658-.5712-.34-.851-5.848-1.0224-12.517v-.21l24.5617-.159v.414s14.5543 6.539 16.0337 7.718 2.639 4.975 1.3024 5.412z"
            fill="#263238" />
        <path
            d="m62.0384 231.301c.6798.267.5255 2.539 0 2.715s-42.0291-.193-42.7374-.351c-.7083-.159-.4341-2.675.3884-2.8s42.349.436 42.349.436z"
            fill="#1a998e" />
        <path
            d="m46.1875 219.611c-2.5247-.482-5.6206-.108-7.557 1.666-.08.068 0 .176.1028.147 2.4143-.76 4.9037-1.261 7.4256-1.496.0425.004.0846-.009.1173-.036s.0532-.066.057-.108c.0037-.042-.0095-.084-.0368-.117-.0273-.032-.0665-.052-.1089-.056z"
            fill="#fff" />
        <path
            d="m47.9813 220.71c-2.5248-.481-5.615-.107-7.5571 1.666-.0742.068 0 .176.1086.148 2.4207-.77 4.9179-1.28 7.4485-1.519.0297-.012.0551-.032.073-.058.018-.027.0275-.058.0275-.089 0-.032-.0095-.063-.0275-.089-.0179-.027-.0433-.047-.073-.059z"
            fill="#fff" />
        <path
            d="m49.8262 221.81c-2.5247-.482-5.6207-.114-7.5571 1.666-.0799.068 0 .175.1029.147 2.4141-.761 4.9036-1.262 7.4256-1.496.021.002.0422 0 .0623-.007.0201-.006.0388-.016.055-.029.0162-.014.0295-.03.0393-.049.0098-.018.0158-.039.0176-.06.0019-.02-.0004-.041-.0067-.061s-.0165-.039-.03-.055-.0301-.029-.0488-.039-.0391-.016-.0601-.017z"
            fill="#fff" />
        <path
            d="m25.8243 223.532c-2.759-1.382-4.9295 2.868-2.1706 4.25 2.7589 1.383 4.9066-2.861 2.1706-4.25z"
            fill="#fff" />
        <path
            d="m44.8282 211.604-24.9044.204s4.1469-100.909 1.3709-104.207c-6.6032-7.8371-5.5521-18.2867-1.1025-28.7816h22.7054s-1.091 15.935-.9825 16.3827c6.9687 30.2209 2.9131 116.4019 2.9131 116.4019z"
            fill="#37474f" />
        <path
            d="m43.4571 206.543c-5.4321-.419-19.7408.04-21.5458.318-.0399 0-.0399.073 0 .085 1.7879.362 18.1929-.153 21.5401-.284.013-.003.0246-.01.0331-.021.0085-.01.0134-.023.0141-.036.0006-.013-.0031-.027-.0105-.038-.0075-.011-.0183-.019-.031-.024z"
            fill="#263238" />
        <path
            d="m43.4116 85.0019c-.2285 2.8334-.1142 7.7182-1.7764 7.7918-1.6622.0737-1.3595-5.8651-1.4052-7.2251-.0457-1.2411-.4741-1.0711-.5198.391-.1256 3.9667 0 7.4745 2.1021 7.3101 2.102-.1643 2.1077-6.3128 2.0563-7.7181-.0286-.7367-.377-1.4394-.457-.5497z"
            fill="#263238" />
        <path
            d="m41.7551 92.9921c-.1034 1.0017-.0823 2.0123.0629 3.009.0285.0794.3484 0 .3827-.051.1942-.4137.04-2.363.0914-2.8844.0098-.0706-.009-.1423-.0524-.1991-.0434-.0569-.1078-.0943-.179-.1041-.0712-.0097-.1434.009-.2007.052s-.095.1069-.1049.1776z"
            fill="#263238" />
        <path
            d="m42.4576 96.5054c.7083 2.4934 1.4337 7.2646 1.2623 8.5006 0 .113-.1827.153-.2056.034-.2285-1.338-1.2338-7.7695-1.3366-8.4439-.1028-.6743.0914-.7877.2799-.0907z"
            fill="#263238" />
        <path
            d="m38.0879 98.4718c.3315-.3222.6866-.6195 1.0625-.8896.3712-.289.7425-.5667 1.1424-.8444.7882-.5667 1.5993-1.054 2.4276-1.5414.8282-.4873 1.6393-.9123 2.479-1.3373s1.8221-.7764 2.7018-1.2127c.0514-.0283.0971.0453.0457.0737-.834.459-1.6108 1.0313-2.4219 1.5357-.8111.5043-1.6222 1.0256-2.439 1.53-.8169.5043-1.588.9973-2.3877 1.4847-.4189.2531-.8416.5024-1.2681.748-.3851.2463-.7857.4677-1.1995.663-.1371.051-.217-.1246-.1428-.2097z"
            fill="#263238" />
        <path
            d="m23.6764 159.101c.3656-8.087.9539-17.097 1.0682-25.195.0609-4.046.0914-8.094.0914-12.144 0-4.017.0285-9.384-.1828-13.396-.1086-2.04-3.73-3.615-4.4668-9.5542-.5097-3.3804-.2382-6.8315.7939-10.0925.257-.7932.5603-1.5708.9083-2.3291 0-.051.0971 0 .0742.0454-1.4495 3.3348-2.0516 6.9716-1.7536 10.5912.1053 1.8248.4906 3.6232 1.1424 5.3322.9711 2.397 3.3644 4.341 3.4901 5.616.1885 1.898.217 3.542.2399 5.452.0228 1.909.0457 3.966.0571 5.95 0 4.05-.0114 8.099-.0343 12.149-.0914 8.055-.3046 16.109-.6397 24.163-.3427 8.047-2.4448 48.367-2.5819 49.302 0 .102-.1827.079-.177 0 .2513-4.081 1.605-37.821 1.9706-45.89z"
            fill="#263238" />
        <path
            d="m37.1284 60.221c5.4036 11.0616 12.2638 23.0412 18.6841 24.9339 6.1119 1.785 17.9586-13.1016 21.7057-17.0004 1.3367-1.4167-9.5219-9.5202-11.207-8.2905-3.1759 2.3177-8.8822 8.6305-9.8418 8.4095s-8.9451-7.7522-16.1651-14.099c-4.404-3.876-6.9172-1.6207-3.1759 6.0465z"
            fill="#eb9481" />
        <path
            d="m86.9145 61.1334c1.4851-.6177 12.9206-.9804 12.9206-3.4398s-14.56-1.768-14.56-1.768z"
            fill="#eb9481" />
        <path
            d="m64.9802 61.4224c1.9992-2.4651 3.7585-5.1002 5.495-5.6102 1.2052-.34 14.1487.2154 16.1765.0964s9.2363.0623 9.402 1.819c.2399 2.4877-8.3053 2.4651-9.2135 3.7401-3.1474 4.3861-15.1141 10.8802-15.1141 10.8802z"
            fill="#eb9481" />
        <path
            d="m96.2479 57.7673c-.1251-.4665-.4202-.8703-.8282-1.1333-.8854-.6121-2.0506-.6687-3.0902-.7481-1.5784-.1435-3.1661-.1568-4.7467-.0396-.0076 0-.0149.003-.0202.0083-.0054.0053-.0084.0125-.0084.02s.003.0147.0084.02c.0053.0054.0126.0083.0202.0083 1.1824 0 2.3647 0 3.5471.1247 1.083.0451 2.1576.2085 3.2045.4874.4732.1248.9011.3802 1.2338.7366.1179.1245.2023.2765.2452.4419.043.1655.0431.339.0004.5045-.3484 1.0823-2.5019 1.4054-3.4958 1.6264-1.2966.289-2.6446.5666-3.9527.8046-.0571 0-.0286.1021 0 .0907 1.3538-.2663 2.7875-.374 4.1469-.6177 1.1025-.1983 2.2849-.4193 3.1759-1.1333.1981-.1275.3558-.3079.4548-.5205.0991-.2126.1355-.4486.105-.6809z"
            fill="#263238" />
        <path
            d="m76.1045 52.4097.3766-1.9133 22.503 4.3598c.2037.0394.3833.1575.4992.3283s.1587.3803.1189.5824l-.0767.3893c-.0397.2021-.1588.3802-.331.4952-.1721.115-.3833.1575-.587.118z"
            fill="#1a998e" />
        <path d="m76.4896 50.5024-.3766 1.9132 2.7134.5257.3766-1.9132z" fill="#000" opacity=".1" />
        <path
            d="m67.8876 48.0658-.6625 3.4c-.1126.5693-.111 1.155.0047 1.7237.1156.5687.3431 1.1092.6693 1.5907s.7448.8945 1.2319 1.2155 1.0331.5436 1.607.6553c.5738.1116 1.1642.11 1.7374-.0047.5732-.1148 1.118-.3404 1.6034-.664.4853-.3236.9016-.7389 1.2252-1.2222.3235-.4832.548-1.0249.6605-1.5942l.6683-3.4001c.1125-.5697.1108-1.1557-.005-1.7248-.1158-.569-.3434-1.1098-.6699-1.5915-.3264-.4818-.7453-.895-1.2328-1.2162-.4874-.3211-1.0339-.5438-1.6081-.6554-.5742-.1117-1.1649-.11-1.7385.0049-.5736.1148-1.1187.3407-1.6043.6646-.9807.6541-1.6593 1.6679-1.8866 2.8184zm7.3457.85c-.1217.5017-.3966.9539-.7872 1.2947-.3905.3408-.8777.5536-1.3948.6093.4567.2477.8262.628 1.0589 1.0898.2328.4618.3177.9832.2435 1.4943-.2685 1.3487-1.765 2.1987-3.3473 1.8927-1.5822-.306-2.6504-1.6547-2.3876-2.9977.1231-.5066.4021-.9626.7982-1.3048s.8897-.5536 1.4123-.6049c-.4589-.2453-.8303-.6251-1.0634-1.0876s-.3165-.9852-.2389-1.4965c.2685-1.3544 1.765-2.1931 3.3473-1.887 1.5822.306 2.6275 1.6433 2.359 2.9977z"
            fill="#1a998e" />
        <path
            d="m76.6655 49.6367-.7171 3.6429c-.0381.1935.0891.381.2842.4188l.1794.0348c.195.0378.384-.0885.4221-.282l.7171-3.6429c.0381-.1935-.0891-.381-.2842-.4188l-.1794-.0348c-.195-.0378-.384.0885-.4221.282z"
            fill="#1a998e" />
        <path
            d="m77.5517 49.8102-.7171 3.6429c-.0381.1936.0892.3811.2842.4189l.1794.0347c.1951.0378.3841-.0884.4222-.282l.7171-3.6429c.0381-.1935-.0892-.381-.2843-.4188l-.1794-.0348c-.195-.0377-.384.0885-.4221.282z"
            fill="#1a998e" />
        <path
            d="m93.6089 52.9958.6683.1304.3827-1.9324.5713.1133-.2 1.0087.6683.1304.2-1.0087.5083.0963-.3141 1.5924.6683.1303.3141-1.5924.7198.1417-.417 2.1251.6683.1303.417-2.1251.6797.1304-.5312 2.7144-5.9862-1.1561.5312-2.72.8282.1643z"
            fill="#1a998e" />
        <path
            d="m16.9307 82.2309 31.8845.5213-2.4961-9.4749c.8318-1.189 1.3912-2.5443 1.6389-3.9707.2477-1.4263.1776-2.8892-.2052-4.2858-.7654-2.7881-4.3926-6.9645-6.6202-9.6335-5.4151-6.4602-10.1218-3.5418-11.624-1.8814-5.7349 6.3638-12.5779 28.725-12.5779 28.725z"
            fill="#1a998e" />
        <path
            d="m32.6272 57.1892.0286-1.802 1.2052 1.3374 1.3024-.4024-.6341 1.1334.6112.6403-.9482.0907v1.224l-1.0624-.8443-.8511.697.0971-1.0314-1.2395-.5666zm13.5889 20.2475-1.0053.9124-.9253-.4874.3256 1.0484-1.1996.6176 1.1424.4874-.2799.9067.834-.3174.8225 1.0314.1257-1.3487 1.7136-.5667-1.6679-.7197zm-11.6582-6.7265.9767 1.9267.9654-1.8417 1.8392.3174-.9767-1.9381 1.3652-1.292-1.9364.068-.3884-1.8814-.9882 1.9324-2.5819-.1983 1.5194 1.5583-1.4051 1.071zm7.6027-11.1352.4684-.782-.8797.0793-.3027-.7197-.4741.782-.7711-.187.4626.6687-.5712.5667.9254-.085.5198.952.2113-.884.6969.2493zm-14.9541 20.6158.4684-.7764-.874.0737-.3084-.7197-.4684.7877-.7711-.187.4626.663-.5712.5667.9311-.0794.5141.9521.2113-.8897.7026.255zm5.2436-14.048.4684-.7764-.8796.0737-.3028-.7197-.4741.7877-.7711-.1927.4627.6687-.5712.5667.931-.0793.5141.952.2114-.8897.7025.255zm-5.6777 2.108-.16-.51-.3084.4137-.4398-.153.1599.5157-.3827.2606.4741.0624v.476l.3256-.442.6226.153-.3085-.442.3885-.2097zm14.7999 12.1553-.16-.51-.3141.4137-.4342-.1474.16.51-.3884.2664.4798.0566v.4761l.3256-.4364.6226.1473-.3085-.442.3884-.204zm4.4268-14.813.4055-.357-.5083-.1077-.0457-.459-.4056.357-.3998-.238.1428.4534-.4284.2153.5369.1133.12.629.2798-.4646.3485.2663zm-7.9969 9.5712.3999-.357-.5084-.1077-.0457-.459-.3998.357-.4056-.238.1428.4534-.4284.2153.5369.1134.12.629.2799-.4647.3484.2663zm-16.4621 3.0034.3999-.357-.5084-.1133-.04-.459-.4055.3626-.3999-.2436.1371.459-.4284.2153.537.1133.1199.6234.2799-.459.3484.2663z"
            fill="#fff" />
        <path
            d="m37.7852 72.7219c1.3634-.1246 2.7344-.1473 4.1012-.068.6798.0454 1.3538.1247 2.0278.221.3313.0454.6683.0794 1.0053.1134.3529.0425.7096.0425 1.0625 0 0 0 .04.0453 0 .051-.3259.0726-.6559.1256-.9882.1586-.3253.0199-.6515.0199-.9768 0-.6854-.0453-1.3766-.119-2.062-.1643-1.388-.102-2.7761-.1983-4.1698-.1983-.0857 0-.0857-.1077 0-.1134z"
            fill="#263238" />
        <path
            d="m34.6893 74.4956c1.0831-.3139 2.1835-.5655 3.2959-.7536.5712-.0964 1.1424-.1587 1.6793-.2041.2666-.0226.535-.0396.8054-.051h.8911c.0342 0 .04.0454 0 .051-.2799 0-.5712.102-.834.1417l-.8339.1303-1.668.2607c-1.1157.1587-2.2277.3362-3.3358.5327-.0457-.0057-.0571-.0907 0-.1077z"
            fill="#263238" />
        <path
            d="m32.6273 53.1489c.137.5666 2.856 4.2217 5.4549 4.097.8454-.0453.8226-4.6354.8226-4.6354l.0742-.34 1.0682-4.7544-5.6378-3.5758-.8111-.4703s-.2056 1.2977-.4684 2.9637l-.0343.2323c0 .0964 0 .1814-.0399.272-.04.2437-.08.4931-.1086.7424-.0285.2493-.0571.3797-.0742.5667l-.0686.6007c-.1562 1.4281-.2153 2.865-.177 4.3011z"
            fill="#eb9481" />
        <path
            d="m33.1299 46.4337c.4874 1.3333 1.2609 2.5457 2.2668 3.5534s2.2204 1.7868 3.5595 2.2834l1.0681-4.7544-5.6378-3.5758-.8111-.4703s-.1828 1.2977-.4455 2.9637z"
            fill="#263238" />
        <path
            d="m46.7875 39.7582c1.6736 8.4095-3.2045 10.3249-5.0266 10.6762-1.6508.323-7.3286 1.2127-9.8647-6.9588-2.5362-8.1715.8682-11.5886 4.6153-12.5236s8.6138.425 10.276 8.8062z"
            fill="#eb9481" />
        <path
            d="m44.3196 38.4775c-.1884.0425-.3791.0747-.5712.0964-.2003.0653-.4165.0653-.6169 0-.0579-.0348-.1026-.0874-.1274-.1499-.0248-.0624-.0282-.1312-.0096-.1958.0567-.1223.1455-.2273.257-.304s.2417-.1224.377-.1323c.2696-.0625.553-.0221.794.1133.0495.0356.0879.0843.1107.1406.0229.0563.0294.1178.0186.1775-.0107.0597-.0382.1153-.0792.1602-.0411.045-.0941.0776-.153.094z"
            fill="#263238" />
        <path
            d="m38.3163 40.1946c.1925-.0292.3832-.0689.5712-.119.2112-.0121.4123-.0939.5712-.2324.0412-.0526.0636-.1174.0636-.1841s-.0224-.1315-.0636-.1842c-.0961-.0952-.2166-.1625-.3486-.1945-.1319-.0319-.2701-.0274-.3997.0132-.2754.034-.527.172-.7025.3853-.0396.0512-.0628.113-.0667.1774-.0038.0644.0119.1285.0451.1839.0331.0555.0823.0999.1411.1274.0589.0275.1247.0369.1889.027z"
            fill="#263238" />
        <path
            d="m39.5844 41.2712s-.04.034-.0343.0567c.1029.5667.1257 1.2467-.3655 1.513 0 0 0 .0397 0 .034.634-.187.594-1.0823.3998-1.6037z"
            fill="#263238" />
        <path d="m38.979 40.7443c-.9425.068-.7369 1.938.1371 1.87.8739-.068.6511-1.9267-.1371-1.87z"
            fill="#263238" />
        <path
            d="m38.6192 40.8859c-.1543.119-.2913.323-.4913.3684-.1999.0453-.4169-.1304-.5712-.3004-.0342 0 0 0 0 0 .0343.357.2114.7084.6055.7197s.5712-.3343.6226-.7027c-.0342-.0453-.1028-.136-.1656-.085z"
            fill="#263238" />
        <path
            d="m43.1658 40.7272s.0457 0 .0457.0454c.0457.5666.1885 1.241.7369 1.377v.034c-.6569-.0227-.8397-.901-.7826-1.4564z"
            fill="#263238" />
        <path
            d="m43.6229 40.0699c.9311-.1644 1.1938 1.7.3313 1.8474-.8625.1473-1.1138-1.6831-.3313-1.8474z"
            fill="#263238" />
        <path
            d="m44.0284 40.1379c.1656.0794.337.238.514.221.1771-.017.3313-.238.4341-.4476h.0343c.0571.3513 0 .7423-.3427.8556-.3427.1134-.5712-.1643-.714-.5043-.0229-.0283.0286-.1587.0743-.1247z"
            fill="#263238" />
        <path
            d="m40.6469 46.156c.1485.1303.3027.306.514.3117.2182-.0197.4301-.0833.6227-.187 0 0 .0342 0 0 0-.0759.1192-.1829.2158-.3096.2796-.1266.0639-.2684.0926-.4102.083-.1221-.0233-.2345-.082-.323-.1688-.0885-.0867-.149-.1976-.1739-.3185 0 0 .0571-.017.08 0z"
            fill="#263238" />
        <path
            d="m42.8404 43.776s.2285.8443.2799 1.2523c0 .0397-.0971.068-.2342.0964-.3442.1054-.711.1152-1.0605.0282-.3494-.0869-.6682-.2672-.9215-.5213 0-.034 0-.085.0571-.0623.5653.2914 1.2108.3928 1.8392.289 0-.1133-.4341-1.4394-.3712-1.4507.3227-.0104.6455.022.9596.0963-.417-1.7793-1.1424-3.4794-1.5137-5.2587 0-.0624.08-.0964.1028-.0397.8124 1.7972 1.4401 3.671 1.8736 5.5931.0285.2267-.8511.0284-1.0111-.0226z"
            fill="#263238" />
        <path
            d="m42.8405 44.9773c-.1865.3606-.464.6671-.8054.8897-.1899.1163-.4113.1717-.6341.1587-.4798-.0397-.5712-.459-.5712-.833.0149-.1924.0513-.3824.1086-.5667.5793.3172 1.2464.4404 1.9021.3513z"
            fill="#263238" />
        <path
            d="m42.0065 45.867c-.1899.1163-.4113.1718-.634.1587-.4798-.0397-.5712-.459-.5712-.833.2483-.041.5033.0035.7225.1262.2193.1227.3896.3161.4827.5481z"
            fill="#ff9abb" />
        <path
            d="m32.8387 44.201c1.6165-.0284 1.508-3.6891 1.508-3.6891s6.6031-2.0911 6.3974-7.6275c1.1704 2.101 3.1118 3.6739 5.4207 4.3918 0 0-1.091-5.9502-6.0433-6.4432 0 0-6.2432-1.309-8.9165 3.8364-2.6732 5.1455.5484 9.5656 1.6337 9.5316z"
            fill="#263238" />
        <path
            d="m40.7098 32.4991c.1971.8313.2146 1.6945.0514 2.533-.1506.8472-.4774 1.6539-.9596 2.3688-.1199.1802-.2515.3525-.3942.5156l-.1999.255c-.0742.0794-.1542.153-.2342.2267-.0799.0737-.3084.3004-.4683.442l-.5256.3854c-.0856.0623-.1713.1246-.2627.1813l-.2799.1587-.5712.3117c-.3884.17-.7883.3173-1.1881.459.3656-.221.7426-.4024 1.0967-.6234l.5255-.3513.2571-.1757c.0856-.0623.1599-.1303.2399-.1983l.4741-.3967c.1542-.1417.2913-.2947.4341-.442l.217-.221.1885-.2437c.1301-.1568.2503-.3215.3599-.493.4604-.6836.7986-1.4408.9996-2.2384.1023-.4.1729-.8074.2113-1.2184.0429-.4103.0525-.8234.0286-1.2353z"
            fill="#263238" />
        <path
            d="m30.3254 39.1802-.3999.8047 2.6733 1.9493.8568-1.8077zm2.0849 1.9154-1.8507-1.1901.0914-.187 2.0734.7424z"
            fill="#1a998e" />
        <path
            d="m30.4339 37.7579-.0628.8953 3.2159.799.1142-2.0004zm2.6618.9916-2.1648-.408v-.2096l2.1991-.085z"
            fill="#1a998e" />
        <path
            d="m34.0782 43.4983s-2.1648-2.4537-3.3015-1.6604c-1.1367.7934.6854 4.4881 2.1648 4.8565.1866.0616.384.085.58.0687.196-.0164.3866-.0721.5602-.1638.1737-.0917.3267-.2174.4498-.3696s.2138-.3277.2664-.5157z"
            fill="#eb9481" />
        <path
            d="m31.325 42.8863v.0396c.4835.1744.9244.4483 1.2936.8038.3692.3556.6583.7846.8484 1.259-.0687-.0929-.1569-.1697-.2585-.2253-.1017-.0556-.2143-.0886-.33-.0967-.1158-.0081-.2319.0089-.3404.0498-.1085.041-.2067.1048-.2878.1872 0 0 0 .0566.0343.051.1688-.0751.3572-.0958.5385-.0592.1814.0366.3466.1286.4725.2632.2193.22.411.4655.5712.731.0571.085.2171 0 .1714-.0794-.1485-1.2863-1.3309-2.9467-2.7132-2.924z"
            fill="#263238" />
        <path
            d="m27.6063 55.3929c-7.2657 12.433-18.12425 40.9709-20.08919 45.0511-1.33091 2.771 13.26909 10.075 13.88599 8.058.7939-2.578 10.9271-35.8197 11.5897-50.6497.3084-6.8511-3.0617-6.4375-5.3865-2.4594z"
            fill="#eb9481" />
        <path
            d="m15.4684 114.849c.7711-.669 1.1424-.272.794 1.496-.3485 1.768-3.1702 8.5-.7255 9.265 2.4448.765 6.2833-8.749 6.6374-11.73.3542-2.981-.1942-7.934-.1942-7.934-1.1253 1.723-4.2726 5.582-6.5117 8.903z"
            fill="#eb9481" />
        <path
            d="m19.7522 125.236-18.27848-3.264c-.571207-.045-.919641-.419-.822537-.839l1.633647-7.406c.08757-.222.24794-.408.45522-.528.20727-.121.44936-.168.68718-.135l18.30707 3.264c.5712.051.9196.425.8225.839l-1.6736 7.412c-.0864.22-.2451.404-.4503.523-.2053.12-.4451.167-.6807.134z"
            fill="#a6a6a6" />
        <path
            d="m19.9923 124.369-18.34137-3.264c-.5712-.051-.913922-.425-.82253-.839l1.67934-7.412c.08585-.223.24588-.41.45362-.531.20773-.12.45073-.167.68879-.132l18.31275 3.264c.5712.046.914.42.8226.833l-1.6508 7.418c-.0867.223-.2469.409-.4544.53-.2075.12-.4501.167-.688.133z"
            fill="#c7c7c7" />
        <path
            d="m19.621 122.017c-.4227-.158-.8226 0-.8911.352-.0121.202.0442.403.1601.571.1158.167.2846.291.4796.352.4284.159.8283 0 .8968-.345.0121-.204-.0448-.407-.1617-.575-.117-.168-.2872-.293-.4837-.355z"
            fill="#263238" />
        <path
            d="m8.4882 99.1689c-3.72425 4.9871-7.02581 10.8631-7.10578 17.3461-.02419.721.19494 1.429.62262 2.012-.0914 2.901 1.26807 3.819 1.26807 3.819.75399 2.726 2.28481 3.474 2.28481 3.474s.21706 2.34 1.87926 2.306 2.57042-3.87 4.02702-6.67c3.3301-6.426 9.3848-13.725 10.5272-15.481z"
            fill="#eb9481" />
        <path
            d="m9.7106 113.172c-.99306 1.871-1.85939 3.806-2.59326 5.791-.66219 2.227-1.15669 4.5-1.47942 6.8 0 .015-.00602.03-.01673.04-.01071.011-.02524.017-.04039.017s-.02968-.006-.04039-.017c-.01071-.01-.01673-.025-.01673-.04.18183-4.493 1.60017-8.852 4.10124-12.603.02856-.119.08568-.085.08568.012z"
            fill="#263238" />
        <path
            d="m6.06628 110.616c-.81111 1.91-2.21627 5.27-2.72464 11.707 0 0-.03427 0-.03998 0-.22224-4.085.7032-8.152 2.67323-11.747.06283-.113.14851-.074.09139.04z"
            fill="#263238" />
        <path
            d="m4.10134 109.278c-1.26236 3.298-1.63364 5.537-2.08489 9.203h-.03427c.06854-4.221.5712-5.752 2.01063-9.265.0457-.119.15423-.068.10853.062z"
            fill="#263238" />
    </g>
</svg>