<svg fill="none" height="25" width="106" xmlns="http://www.w3.org/2000/svg">
    <path
        d="M13.938 19H9.811l-4.488-7.219-1.535 1.102V19H.156V1.867H3.79v7.84c.242-.336.48-.672.715-1.008.234-.336.473-.672.715-1.008l4.64-5.824h4.032L7.914 9.45 13.938 19Zm6.977-13.348c1.21 0 2.254.235 3.129.703a4.805 4.805 0 0 1 2.027 2.016c.477.883.715 1.961.715 3.234v1.735h-8.45c.04 1.008.34 1.8.903 2.379.57.57 1.36.855 2.367.855.836 0 1.602-.086 2.297-.258.695-.171 1.41-.43 2.145-.773v2.766a8.515 8.515 0 0 1-2.04.703c-.703.148-1.558.222-2.566.222-1.312 0-2.476-.242-3.492-.726a5.424 5.424 0 0 1-2.379-2.215c-.57-.992-.855-2.242-.855-3.75 0-1.531.257-2.805.773-3.82.523-1.024 1.25-1.79 2.18-2.297.93-.516 2.011-.774 3.246-.774Zm.023 2.543c-.695 0-1.273.223-1.734.668-.453.446-.715 1.145-.785 2.098h5.015a3.531 3.531 0 0 0-.293-1.418 2.202 2.202 0 0 0-.82-.984c-.36-.243-.82-.364-1.383-.364Zm12.286 16.57c-1.828 0-3.226-.32-4.195-.96-.961-.633-1.442-1.524-1.442-2.672 0-.79.247-1.45.739-1.98.492-.532 1.215-.91 2.168-1.137a2.41 2.41 0 0 1-.961-.762c-.274-.36-.41-.738-.41-1.137 0-.5.144-.914.433-1.242.29-.336.707-.664 1.254-.984a3.549 3.549 0 0 1-1.64-1.43c-.399-.656-.598-1.43-.598-2.32 0-.954.207-1.762.621-2.426.422-.672 1.031-1.184 1.828-1.535.805-.352 1.781-.528 2.93-.528.242 0 .523.016.843.047.32.031.614.067.88.106.273.039.456.07.55.093h4.57v1.817l-2.05.527c.187.29.328.598.422.926.093.328.14.676.14 1.043 0 1.406-.492 2.504-1.476 3.293-.977.781-2.336 1.172-4.078 1.172a23.864 23.864 0 0 1-1.172-.094c-.18.14-.317.29-.41.445a.943.943 0 0 0-.141.493c0 .171.07.316.21.433.15.11.368.195.657.258.297.055.664.082 1.102.082h2.226c1.438 0 2.532.309 3.282.926.757.617 1.136 1.523 1.136 2.718 0 1.532-.64 2.72-1.922 3.563-1.273.844-3.105 1.266-5.496 1.266Zm.153-2.331c.851 0 1.582-.082 2.191-.247.617-.156 1.09-.382 1.418-.68.328-.288.492-.636.492-1.042 0-.328-.098-.59-.293-.785-.187-.188-.476-.32-.867-.399-.383-.078-.875-.117-1.477-.117H32.99c-.438 0-.832.07-1.184.211-.344.14-.617.336-.82.586a1.4 1.4 0 0 0-.305.89c0 .493.235.88.703 1.16.477.282 1.141.423 1.993.423Zm.574-9.938c.672 0 1.164-.207 1.476-.621.313-.414.47-.977.47-1.688 0-.789-.165-1.378-.493-1.769-.32-.398-.805-.598-1.453-.598-.657 0-1.149.2-1.477.598-.328.39-.492.98-.492 1.77 0 .71.16 1.273.48 1.687.329.414.825.621 1.489.621Zm14.114-6.844c1.21 0 2.254.235 3.129.703a4.805 4.805 0 0 1 2.027 2.016c.477.883.715 1.961.715 3.234v1.735h-8.45c.04 1.008.34 1.8.903 2.379.57.57 1.36.855 2.367.855.836 0 1.602-.086 2.297-.258.695-.171 1.41-.43 2.145-.773v2.766a8.515 8.515 0 0 1-2.04.703c-.703.148-1.558.222-2.566.222-1.312 0-2.476-.242-3.492-.726a5.424 5.424 0 0 1-2.379-2.215c-.57-.992-.855-2.242-.855-3.75 0-1.531.257-2.805.773-3.82.523-1.024 1.25-1.79 2.18-2.297.93-.516 2.011-.774 3.246-.774Zm.023 2.543c-.695 0-1.273.223-1.734.668-.453.446-.715 1.145-.785 2.098h5.015a3.531 3.531 0 0 0-.293-1.418 2.202 2.202 0 0 0-.82-.984c-.36-.243-.82-.364-1.383-.364ZM60.116 19h-3.574V.766h3.574V19Z"
        fill="#000" />
    <path
        d="M77.71 19h-4.147l-3.985-6.48L65.594 19h-3.89l5.683-8.836-5.32-8.297h4.007l3.692 6.164 3.62-6.164h3.915l-5.38 8.496L77.712 19Z"
        fill="#FF5306" />
    <path
        d="m95.99 19-1.242-4.078h-6.246L87.259 19h-3.914l6.047-17.203h4.442L99.904 19H95.99Zm-2.11-7.125-1.242-3.984a45.519 45.519 0 0 0-.316-1.02c-.125-.422-.254-.848-.387-1.277a30.668 30.668 0 0 1-.305-1.137c-.078.32-.187.719-.328 1.195a116.259 116.259 0 0 1-.656 2.239l-1.23 3.984h4.465ZM101.772 19V1.867h3.633V19h-3.633Z"
        fill="#000" />
</svg>
