<svg fill="none" height="403" width="1171" xmlns="http://www.w3.org/2000/svg">
    <g clip-path="url(#a)">
        <path
            d="M853.008 402.194h-55.68v-49.715h53.692l1.988 49.715ZM1086.17 402.194h-55.68v-49.715h53.69l1.99 49.715ZM1029.5 0h55.68v58.664h-55.68V0ZM796.831 0h55.68v58.664h-55.68V0Z"
            fill="#FF5306" />
        <path clip-rule="evenodd"
            d="M829.292 201.346 712.886 84.94 797.255.57l116.406 116.407L1030.07.57l84.37 84.37-116.41 116.406 116.41 116.406-84.37 84.369-116.409-116.406-116.406 116.406-84.369-84.369 116.406-116.406Z"
            fill="#FF5306" fill-rule="evenodd" />
        <path clip-rule="evenodd"
            d="M884.972 201.346 768.566 84.94 852.935.57l116.406 116.407L1085.75.57l84.37 84.37-116.41 116.406 116.41 116.406-84.37 84.369-116.409-116.406-116.406 116.406-84.369-84.369 116.406-116.406Z"
            fill="#000" fill-rule="evenodd" />
        <path
            d="M15.38 287.997V116.368h36.288v75.675h2.262l61.763-75.675h43.494l-63.69 76.848 64.444 94.781h-43.41l-47.013-70.562-17.85 21.789v48.773H15.38Zm209.773 2.515c-13.241 0-24.638-2.682-34.192-8.046-9.498-5.419-16.816-13.073-21.956-22.962-5.14-9.944-7.71-21.705-7.71-35.281 0-13.241 2.57-24.861 7.71-34.862 5.14-10 12.375-17.794 21.705-23.381 9.386-5.587 20.392-8.38 33.018-8.38 8.492 0 16.398 1.368 23.716 4.106 7.375 2.682 13.8 6.732 19.275 12.151 5.531 5.42 9.833 12.236 12.906 20.448 3.073 8.157 4.609 17.711 4.609 28.661v9.805H175.541v-22.124h75.088c0-5.14-1.117-9.693-3.352-13.66-2.235-3.967-5.336-7.067-9.302-9.302-3.911-2.291-8.464-3.436-13.66-3.436-5.419 0-10.224 1.257-14.414 3.771-4.135 2.458-7.375 5.783-9.722 9.973-2.346 4.134-3.547 8.743-3.603 13.827v21.035c0 6.369 1.173 11.872 3.52 16.509 2.402 4.637 5.782 8.213 10.14 10.727 4.358 2.514 9.525 3.771 15.503 3.771 3.967 0 7.599-.559 10.895-1.676 3.296-1.117 6.117-2.793 8.464-5.028 2.346-2.235 4.134-4.972 5.363-8.213l33.019 2.179c-1.676 7.933-5.112 14.861-10.308 20.783-5.14 5.866-11.788 10.448-19.945 13.744-8.101 3.24-17.459 4.861-28.074 4.861Zm138.895 48.438c-11.565 0-21.481-1.592-29.75-4.777-8.213-3.129-14.749-7.403-19.61-12.822-4.86-5.419-8.017-11.509-9.47-18.269l33.019-4.442c1.005 2.57 2.598 4.973 4.777 7.208 2.179 2.234 5.056 4.022 8.631 5.363 3.632 1.397 8.045 2.095 13.241 2.095 7.766 0 14.163-1.9 19.191-5.699 5.084-3.743 7.626-10.028 7.626-18.855v-23.549h-1.508c-1.564 3.576-3.911 6.956-7.04 10.14-3.128 3.185-7.151 5.783-12.067 7.794-4.917 2.011-10.783 3.017-17.599 3.017-9.665 0-18.465-2.235-26.398-6.704-7.877-4.526-14.163-11.426-18.856-20.7-4.637-9.33-6.955-21.118-6.955-35.365 0-14.582 2.374-26.761 7.123-36.538 4.749-9.777 11.062-17.096 18.939-21.956 7.934-4.861 16.621-7.291 26.063-7.291 7.207 0 13.241 1.229 18.102 3.687 4.86 2.402 8.771 5.419 11.732 9.051 3.017 3.575 5.336 7.095 6.956 10.559h1.341v-21.621h35.448v129.978c0 10.951-2.681 20.113-8.045 27.488-5.363 7.375-12.794 12.906-22.291 16.593-9.442 3.743-20.309 5.615-32.6 5.615Zm.754-79.613c5.755 0 10.616-1.425 14.582-4.274 4.023-2.905 7.096-7.04 9.219-12.403 2.178-5.419 3.268-11.9 3.268-19.442 0-7.543-1.062-14.079-3.185-19.61-2.123-5.587-5.195-9.917-9.218-12.99-4.023-3.073-8.911-4.609-14.666-4.609-5.866 0-10.81 1.592-14.833 4.777-4.022 3.128-7.067 7.486-9.134 13.073-2.067 5.587-3.101 12.04-3.101 19.359 0 7.43 1.034 13.855 3.101 19.274 2.123 5.364 5.168 9.526 9.134 12.487 4.023 2.905 8.967 4.358 14.833 4.358Zm147.779 31.175c-13.241 0-24.638-2.682-34.192-8.046-9.497-5.419-16.816-13.073-21.956-22.962-5.14-9.944-7.71-21.705-7.71-35.281 0-13.241 2.57-24.861 7.71-34.862 5.14-10 12.375-17.794 21.705-23.381 9.386-5.587 20.392-8.38 33.018-8.38 8.492 0 16.398 1.368 23.717 4.106 7.374 2.682 13.799 6.732 19.274 12.151 5.531 5.42 9.833 12.236 12.906 20.448 3.073 8.157 4.609 17.711 4.609 28.661v9.805H462.97v-22.124h75.087c0-5.14-1.117-9.693-3.352-13.66-2.235-3.967-5.335-7.067-9.302-9.302-3.911-2.291-8.464-3.436-13.66-3.436-5.419 0-10.224 1.257-14.414 3.771-4.134 2.458-7.375 5.783-9.721 9.973-2.347 4.134-3.548 8.743-3.604 13.827v21.035c0 6.369 1.173 11.872 3.52 16.509 2.402 4.637 5.782 8.213 10.14 10.727 4.358 2.514 9.526 3.771 15.504 3.771 3.966 0 7.598-.559 10.894-1.676 3.296-1.117 6.118-2.793 8.464-5.028 2.347-2.235 4.135-4.972 5.364-8.213l33.018 2.179c-1.676 7.933-5.112 14.861-10.308 20.783-5.14 5.866-11.788 10.448-19.945 13.744-8.101 3.24-17.459 4.861-28.074 4.861Zm116.604-174.144v171.629h-35.7V116.368h35.7Z"
            fill="#000" />
    </g>
    <defs>
        <clipPath id="a">
            <path d="M0 0h1170.12v402.195H0z" fill="#fff" />
        </clipPath>
    </defs>
</svg>
