<svg fill="none" height="1024" width="1024" xmlns="http://www.w3.org/2000/svg">
    <path
        d="M400.827 765.546h-70.266v-62.738h67.756l2.51 62.738ZM695.065 765.546h-70.266v-62.738h67.757l2.509 62.738ZM623.545 258h70.266v74.03h-70.266V258ZM329.934 258H400.2v74.03h-70.266V258Z"
        fill="#FF5306" />
    <path clip-rule="evenodd"
        d="M370.898 512.087 224 365.189 330.469 258.72l146.898 146.898L624.265 258.72l106.469 106.469-146.898 146.898 146.898 146.898-106.469 106.469-146.898-146.898-146.898 146.898L224 658.985l146.898-146.898Z"
        fill="#FF5306" fill-rule="evenodd" />
    <path clip-rule="evenodd"
        d="M441.164 512.087 294.266 365.189 400.735 258.72l146.898 146.898L694.531 258.72 801 365.189 654.102 512.087 801 658.985 694.531 765.454 547.633 618.556 400.735 765.454 294.266 658.985l146.898-146.898Z"
        fill="#fff" fill-rule="evenodd" />
</svg>
