<svg fill="none" height="24" width="71" xmlns="http://www.w3.org/2000/svg">
    <path
        d="M.264 19V4.455H3.34v6.413h.192l5.235-6.413h3.686l-5.398 6.512L12.516 19h-3.68l-3.984-5.98-1.513 1.847V19H.264Zm17.603.213c-1.122 0-2.088-.227-2.898-.682a4.669 4.669 0 0 1-1.86-1.946c-.436-.843-.654-1.84-.654-2.99 0-1.122.218-2.107.654-2.954a4.83 4.83 0 0 1 1.84-1.982c.795-.473 1.727-.71 2.798-.71.72 0 1.39.116 2.01.348.624.227 1.169.57 1.633 1.03.469.459.833 1.037 1.094 1.733.26.69.39 1.5.39 2.429v.83h-9.211v-1.874h6.363c0-.436-.094-.822-.284-1.158a2.035 2.035 0 0 0-.788-.788 2.249 2.249 0 0 0-1.158-.292c-.459 0-.866.107-1.221.32a2.24 2.24 0 0 0-.824.845c-.2.35-.3.741-.306 1.172v1.783c0 .54.1 1.006.299 1.399.203.393.49.696.86.909.368.213.806.32 1.313.32.336 0 .644-.048.923-.142.28-.095.519-.237.718-.427.198-.189.35-.421.454-.696l2.798.185a3.821 3.821 0 0 1-.873 1.761c-.436.498-1 .886-1.69 1.165-.687.275-1.48.412-2.38.412Zm11.597 4.105c-.98 0-1.821-.135-2.522-.405-.696-.265-1.25-.627-1.662-1.086a3.341 3.341 0 0 1-.802-1.549l2.798-.376c.085.218.22.421.405.61.185.19.428.342.731.455.308.119.682.178 1.123.178.658 0 1.2-.161 1.626-.483.43-.317.646-.85.646-1.598v-1.996h-.127c-.133.303-.332.59-.597.86a3.01 3.01 0 0 1-1.023.66c-.416.17-.914.256-1.491.256-.82 0-1.565-.19-2.238-.568-.667-.384-1.2-.969-1.598-1.755-.393-.79-.589-1.79-.589-2.997 0-1.236.201-2.268.604-3.096.402-.829.937-1.45 1.605-1.861a4.148 4.148 0 0 1 2.209-.618c.61 0 1.122.104 1.534.312.412.204.743.46.994.767.256.303.452.602.59.895h.113V8.091h3.004v11.016c0 .928-.227 1.704-.681 2.33-.455.624-1.085 1.093-1.89 1.405-.8.318-1.72.476-2.762.476Zm.064-6.747c.487 0 .9-.12 1.235-.362.341-.246.602-.597.781-1.051.185-.46.277-1.009.277-1.648 0-.64-.09-1.193-.27-1.662-.18-.474-.44-.84-.78-1.1-.341-.261-.756-.391-1.244-.391-.497 0-.916.135-1.257.404-.34.266-.599.635-.774 1.108-.175.474-.262 1.02-.262 1.64 0 .63.087 1.175.262 1.634.18.455.438.808.774 1.059.341.246.76.369 1.258.369Zm12.349 2.642c-1.123 0-2.088-.227-2.898-.682a4.669 4.669 0 0 1-1.86-1.946c-.437-.843-.654-1.84-.654-2.99 0-1.122.217-2.107.653-2.954a4.83 4.83 0 0 1 1.84-1.982c.795-.473 1.728-.71 2.798-.71.72 0 1.39.116 2.01.348a4.46 4.46 0 0 1 1.633 1.03c.47.459.834 1.037 1.094 1.733.26.69.39 1.5.39 2.429v.83h-9.21v-1.874h6.363c0-.436-.095-.822-.284-1.158a2.035 2.035 0 0 0-.789-.788 2.249 2.249 0 0 0-1.157-.292c-.46 0-.867.107-1.222.32a2.24 2.24 0 0 0-.824.845c-.199.35-.3.741-.305 1.172v1.783c0 .54.1 1.006.298 1.399.204.393.49.696.86.909.369.213.807.32 1.313.32.337 0 .644-.048.924-.142.279-.095.518-.237.717-.427.199-.189.35-.421.455-.696l2.798.185a3.82 3.82 0 0 1-.874 1.761c-.435.498-.999.886-1.69 1.165-.687.275-1.48.412-2.38.412Zm9.707-14.758V19h-3.026V4.455h3.026Z"
        fill="#000" />
    <path
        d="m57.892.09 3.813 6.446h.148L65.685.09H70.2l-5.771 9.454 5.9 9.455H65.73l-3.878-6.454h-.148L57.827 19h-4.58l5.92-9.455L53.358.091h4.533Z"
        fill="#FF5306" />
</svg>
