<svg height="24" viewBox="0 0 512 512" width="24" xmlns="http://www.w3.org/2000/svg">
    <g fill="#808080">
        <path
            d="m256.002 182.774c-12.718 0-21.761 5.37-21.761 13.283v107.673c0 6.782 9.044 13.565 21.761 13.565 12.152 0 22.043-6.783 22.043-13.565v-107.673c0-7.913-9.891-13.283-22.043-13.283z" />
        <path
            d="m256.002 116.361c-13 0-23.174 9.326-23.174 20.065s10.174 20.348 23.174 20.348c12.718 0 22.892-9.609 22.892-20.348 0-10.738-10.175-20.065-22.892-20.065z" />
        <path
            d="m256 0c-121.602 0-220 98.348-220 219.873 0 99.231 65.333 181.626 153.417 209.609l50.032 73.747c3.722 5.486 9.921 8.771 16.551 8.771s12.829-3.285 16.551-8.771l50.032-73.747c88.123-27.996 153.417-110.421 153.417-209.609 0-121.602-98.477-219.873-220-219.873zm48.645 393.099c-4.555 1.274-8.51 4.12-11.165 8.033l-37.48 55.244-37.479-55.243c-2.656-3.913-6.611-6.76-11.166-8.033-74.978-20.965-131.355-89.919-131.355-173.227 0-99.183 80.748-179.873 180-179.873s180 80.69 180 179.873c0 83.391-56.46 152.285-131.355 173.226z" />
    </g>
</svg>