<svg fill="none" height="48" width="48" xmlns="http://www.w3.org/2000/svg">
    <path
        d="M4 12c0-3.772 0-5.656 1.172-6.828C6.344 4 8.228 4 12 4c3.772 0 5.656 0 6.828 1.172C20 6.344 20 8.228 20 12v24c0 3.772 0 5.656-1.172 6.828C17.656 44 15.772 44 12 44c-3.772 0-5.656 0-6.828-1.172C4 41.656 4 39.772 4 36V12Zm24 0c0-3.772 0-5.656 1.172-6.828C30.344 4 32.228 4 36 4c3.772 0 5.656 0 6.828 1.172C44 6.344 44 8.228 44 12v24c0 3.772 0 5.656-1.172 6.828C41.656 44 39.772 44 36 44c-3.772 0-5.656 0-6.828-1.172C28 41.656 28 39.772 28 36V12Z"
        fill="#FF5306" />
</svg>
