<svg fill="none" height="21" width="22" xmlns="http://www.w3.org/2000/svg">
    <path
        d="m18.467 7.694.246-.566a4.36 4.36 0 0 1 2.22-2.25l.759-.339a.53.53 0 0 0 0-.963l-.717-.319A4.37 4.37 0 0 1 18.724.931L18.471.32a.506.506 0 0 0-.942 0l-.253.61a4.37 4.37 0 0 1-2.25 2.327l-.718.32a.53.53 0 0 0 0 .962l.76.338a4.36 4.36 0 0 1 2.219 2.251l.246.566c.18.414.753.414.934 0ZM18 10c.67 0 1.313-.11 1.915-.312.057.43.085.867.085 1.312 0 5.523-4.477 10-10 10S0 16.523 0 11 4.477 1 10 1c.906 0 1.783.12 2.617.346A6 6 0 0 0 18 10Zm-7 0V5l-5 7h3v5l5-7h-3Z"
        fill="#999" />
</svg>
