<svg id="Layer_1" style="enable-background:new 0 0 32 32" version="1.1" viewBox="0 0 32 32" xml:space="preserve" xmlns="http://www.w3.org/2000/svg">
    <style>
        .st0{fill:none;stroke:#000;stroke-width:1.5;stroke-linecap:round;stroke-linejoin:round;stroke-miterlimit:10}
    </style>
    <path class="st0" d="M15.8 30.2h-13c-1 0-1.7-.8-1.7-1.7h0c0-3.7 3-6.7 6.7-6.7h3.1c3.7 0 6.7 3 6.7 6.7h0c-.1 1-.9 1.7-1.8 1.7zM9.2 7.3c-2.5 0-4.6 2-4.6 4.6s2 6.4 4.6 6.4 4.6-3.9 4.6-6.4-2-4.6-4.6-4.6zM28.8 22H18.7c-1.2 0-2.2-1-2.2-2.2h0c0-2.9 2.3-5.2 5.2-5.2h4.1c2.9 0 5.2 2.3 5.2 5.2h0c0 1.2-1 2.2-2.2 2.2zM23.7 1.8c-2.2 0-4 1.8-4 4s1.8 5.7 4 5.7 4-3.5 4-5.7-1.7-4-4-4z"/>
</svg>
