<svg fill="none" height="12" viewBox="0 0 17 12" width="17" xmlns="http://www.w3.org/2000/svg">
    <path
        d="M15.5786 4.80016H4.08198L6.83925 2.05488C7.06499 1.82914 7.19181 1.52297 7.19181 1.20372C7.19181 0.884473 7.06499 0.578302 6.83925 0.352561C6.61351 0.12682 6.30734 0 5.98809 0C5.66885 0 5.36268 0.12682 5.13694 0.352561L0.341678 5.14782C0.232538 5.26183 0.146984 5.39627 0.0899273 5.54343C-0.0299758 5.83529 -0.0299758 6.16266 0.0899273 6.45452C0.146984 6.60168 0.232538 6.73612 0.341678 6.85013L5.13694 11.6454C5.24838 11.7578 5.38097 11.8469 5.52706 11.9078C5.67314 11.9687 5.82984 12 5.98809 12C6.14635 12 6.30304 11.9687 6.44913 11.9078C6.59522 11.8469 6.72781 11.7578 6.83925 11.6454C6.95161 11.5339 7.0408 11.4014 7.10166 11.2553C7.16252 11.1092 7.19386 10.9525 7.19386 10.7942C7.19386 10.636 7.16252 10.4793 7.10166 10.3332C7.0408 10.1871 6.95161 10.0545 6.83925 9.94308L4.08198 7.19779H15.5786C15.8966 7.19779 16.2015 7.07149 16.4263 6.84667C16.6511 6.62185 16.7774 6.31692 16.7774 5.99898C16.7774 5.68103 16.6511 5.37611 16.4263 5.15129C16.2015 4.92647 15.8966 4.80016 15.5786 4.80016Z"
        fill="#454545" />
</svg>
