<svg height="24" viewBox="0 0 512 512" width="24" xmlns="http://www.w3.org/2000/svg">
    <g fill="#808080">
        <path
            d="m367.57 256.909c-9.839-4.677-19.878-8.706-30.093-12.081 33.083-24.832 54.523-64.373 54.523-108.828 0-74.99-61.009-136-136-136s-136 61.01-136 136c0 44.504 21.488 84.084 54.633 108.911-30.368 9.998-58.863 25.555-83.803 46.069-45.732 37.617-77.529 90.086-89.532 147.743-3.762 18.066.745 36.622 12.363 50.908 11.561 14.216 28.704 22.369 47.032 22.369h246.307c11.046 0 20-8.954 20-20s-8.954-20-20-20h-246.307c-8.538 0-13.689-4.766-15.999-7.606-3.989-4.905-5.533-11.29-4.236-17.519 20.755-99.695 108.691-172.521 210.24-174.977 1.759.068 3.526.102 5.302.102 1.793 0 3.578-.035 5.354-.104 31.12.73 61.05 7.832 89.044 21.14 9.977 4.74 21.907.499 26.649-9.478 4.742-9.976.5-21.907-9.477-26.649zm-106.692-25.032c-1.623-.029-3.249-.044-4.878-.044-1.614 0-3.228.016-4.84.046-50.695-2.529-91.16-44.567-91.16-95.879 0-52.935 43.065-96 96-96s96 43.065 96 96c0 51.299-40.445 93.329-91.122 95.877z" />
        <path
            d="m492 397h-55v-55c0-11.046-8.954-20-20-20s-20 8.954-20 20v55h-55c-11.046 0-20 8.954-20 20s8.954 20 20 20h55v55c0 11.046 8.954 20 20 20s20-8.954 20-20v-55h55c11.046 0 20-8.954 20-20s-8.954-20-20-20z" />
    </g>
</svg>