<svg height="24" viewBox="0 0 512.001 512.001" width="24" xmlns="http://www.w3.org/2000/svg">
    <g fill="#808080">
        <path
            d="m503.186 326.083c-8.965-6.418-21.436-4.354-27.853 4.612l-98.4 137.447c-2.687 3.116-6.055 3.789-7.859 3.909-1.856.123-5.412-.112-8.549-3.051l-63.595-62.061c-7.89-7.7-20.53-7.546-28.23.345s-7.545 20.529.345 28.23l63.704 62.167c.059.057.119.115.179.172 9.551 9.092 22.299 14.149 35.415 14.149 1.127 0 2.259-.037 3.389-.113 14.288-.952 27.626-7.9 36.596-19.063.232-.289.455-.583.671-.884l98.8-138.006c6.417-8.965 4.353-21.435-4.613-27.853z" />
        <path
            d="m250.716 271.399c1.754.068 3.514.102 5.284.102 1.773 0 3.537-.034 5.293-.102 51.318 1.233 100.594 20.362 139.276 54.179 8.302 7.257 20.913 6.41 28.169-1.891 7.257-8.301 6.41-20.912-1.891-28.169-26.353-23.039-56.863-40.309-89.595-51.086 33.064-24.782 54.496-64.277 54.496-108.683.001-74.852-60.895-135.749-135.749-135.749s-135.75 60.897-135.75 135.75c0 44.423 21.448 83.93 54.534 108.711-30.313 9.98-58.756 25.508-83.65 45.983-45.648 37.548-77.386 89.92-89.367 147.471-3.755 18.033.744 36.555 12.34 50.815 11.54 14.191 28.651 22.329 46.947 22.329h175.983c11.026 0 19.963-8.938 19.963-19.963s-8.939-19.963-19.963-19.963h-175.984c-8.522 0-13.664-4.757-15.97-7.592-3.982-4.896-5.523-11.269-4.228-17.487 20.718-99.513 108.496-172.205 209.862-174.655zm-90.539-135.648c0-52.838 42.986-95.824 95.824-95.824s95.824 42.986 95.824 95.824c0 51.215-40.386 93.173-90.983 95.703-1.612-.03-3.225-.045-4.84-.045-1.609 0-3.217.016-4.823.046-50.607-2.522-91.002-44.484-91.002-95.704z" />
    </g>
</svg>