<svg height="24" viewBox="0 0 512 512" width="24" xmlns="http://www.w3.org/2000/svg">
    <g fill="#808080">
        <path
            d="m416 213.333h-320c-41.173 0-74.667 33.493-74.667 74.667v27.776c0 46.976 36.224 87.104 80.768 89.429 23.552 1.323 46.165-7.04 63.296-23.317 6.443-6.101 11.797-13.013 15.979-20.544 14.592 26.219 42.56 43.989 74.624 43.989s60.032-17.771 74.645-43.989c4.181 7.531 9.536 14.443 15.979 20.544 16 15.211 36.693 23.445 58.667 23.445 1.515 0 3.072-.043 4.608-.128 44.544-2.325 80.768-42.453 80.768-89.429v-27.776c0-41.173-33.494-74.667-74.667-74.667zm53.333 102.443c0 35.797-27.157 66.368-60.544 68.139-17.771.981-34.645-5.291-47.509-17.472-12.864-12.224-19.947-28.715-19.947-46.443 0-5.888-4.779-10.667-10.667-10.667s-10.666 4.779-10.666 10.667c0 35.285-28.715 64-64 64s-64-28.715-64-64c0-5.888-4.779-10.667-10.667-10.667s-10.667 4.779-10.667 10.667c0 17.728-7.083 34.219-19.947 46.443-12.864 12.181-29.803 18.347-47.509 17.472-33.387-1.771-60.544-32.32-60.544-68.139v-27.776c0-29.419 23.936-53.333 53.333-53.333h320c29.397 0 53.333 23.915 53.333 53.333v27.776z" />
        <path
            d="m437.333 376.405c-5.888 0-10.667 4.779-10.667 10.667v71.595c0 17.643-14.357 32-32 32h-277.333c-17.643 0-32-14.357-32-32v-71.573c0-5.888-4.779-10.667-10.667-10.667s-10.666 4.778-10.666 10.666v71.573c0 29.419 23.936 53.334 53.333 53.334h277.333c29.398 0 53.334-23.915 53.334-53.333v-71.595c0-5.888-4.779-10.667-10.667-10.667z" />
        <path
            d="m266.667 106.667h-21.333c-17.643 0-32 14.357-32 32v85.333c0 5.888 4.779 10.667 10.667 10.667h64c5.888 0 10.667-4.779 10.667-10.667v-85.333c-.001-17.643-14.359-32-32.001-32zm10.666 106.666h-42.667v-74.667c0-5.867 4.779-10.667 10.667-10.667h21.333c5.888 0 10.667 4.8 10.667 10.667z" />
        <path
            d="m265.451 5.739c-1.835-3.52-5.461-5.717-9.429-5.739-3.413.469-7.573 2.197-9.451 5.675-7.787 14.699-33.237 63.893-33.237 79.659-.001 23.53 19.135 42.666 42.666 42.666s42.667-19.136 42.667-42.667c0-14.4-23.232-60.458-33.216-79.594zm-9.451 100.928c-11.755 0-21.333-9.557-21.333-21.312.128-5.739 9.941-28.288 21.269-51.179 11.243 22.891 21.099 45.419 21.397 51.2-.021 11.755-9.578 21.291-21.333 21.291z" />
    </g>
</svg>