<svg height="24" viewBox="0 0 24 24" width="24" xmlns="http://www.w3.org/2000/svg">
    <path
        d="m22.922 1.7a2.985 2.985 0 0 0 -2.458-.648l-6.18 1.123a3.993 3.993 0 0 0 -2.284 1.286 3.993 3.993 0 0 0 -2.284-1.289l-6.18-1.123a3 3 0 0 0 -3.536 2.951v16.834l12 2.183 12-2.183v-16.834a2.992 2.992 0 0 0 -1.078-2.3zm-11.922 19.1-9-1.634v-15.166a1 1 0 0 1 1.179-.983l6.179 1.123a2 2 0 0 1 1.642 1.968zm11-1.636-9 1.636v-14.692a2 2 0 0 1 1.642-1.968l6.179-1.123a1 1 0 0 1 1.179.983z"
        fill="#808080" />
</svg>