<svg height="24" viewBox="0 0 512.021 512.021" width="24" xmlns="http://www.w3.org/2000/svg">
    <path
        d="m301.258 256.01 201.387-201.365c12.501-12.501 12.501-32.769 0-45.269-12.501-12.501-32.769-12.501-45.269 0l-201.366 201.386-201.365-201.386c-12.501-12.501-32.769-12.501-45.269 0s-12.501 32.769 0 45.269l201.386 201.365-201.386 201.366c-12.501 12.501-12.501 32.769 0 45.269s32.769 12.501 45.269 0l201.365-201.387 201.365 201.387c12.501 12.501 32.769 12.501 45.269 0 12.501-12.501 12.501-32.769 0-45.269z"
        fill="#808080" />
</svg>