<svg height="24" viewBox="0 0 24 24" width="24" xmlns="http://www.w3.org/2000/svg">
    <g fill="#808080">
        <path
            d="m24 11.247a12.012 12.012 0 1 0 -11.983 12.753h6.983a5.005 5.005 0 0 0 5-5zm-2 7.753a3 3 0 0 1 -3 3h-6.983a10.041 10.041 0 0 1 -7.476-3.343 9.917 9.917 0 0 1 -2.476-7.814 10.043 10.043 0 0 1 8.656-8.761 10.564 10.564 0 0 1 1.3-.082 9.921 9.921 0 0 1 6.379 2.3 10.041 10.041 0 0 1 3.6 7.042z" />
        <path d="m8 9h4a1 1 0 0 0 0-2h-4a1 1 0 0 0 0 2z" />
        <path d="m16 11h-8a1 1 0 0 0 0 2h8a1 1 0 0 0 0-2z" />
        <path d="m16 15h-8a1 1 0 0 0 0 2h8a1 1 0 0 0 0-2z" />
    </g>
</svg>