<svg height="24" viewBox="0 0 24 24" width="24" xmlns="http://www.w3.org/2000/svg">
    <g fill="#808080">
        <path
            d="m19 4h-.508l-2.184-2.832a3.023 3.023 0 0 0 -2.376-1.168h-3.864a3.023 3.023 0 0 0 -2.376 1.168l-2.184 2.832h-.508a5.006 5.006 0 0 0 -5 5v10a5.006 5.006 0 0 0 5 5h14a5.006 5.006 0 0 0 5-5v-10a5.006 5.006 0 0 0 -5-5zm-9.724-1.61a1.006 1.006 0 0 1 .792-.39h3.864a1.008 1.008 0 0 1 .792.39l1.242 1.61h-7.932zm12.724 16.61a3 3 0 0 1 -3 3h-14a3 3 0 0 1 -3-3v-10a3 3 0 0 1 3-3h14a3 3 0 0 1 3 3z" />
        <path d="m12 8a6 6 0 1 0 6 6 6.006 6.006 0 0 0 -6-6zm0 10a4 4 0 1 1 4-4 4 4 0 0 1 -4 4z" />
    </g>
</svg>