<svg height="24" viewBox="0 0 512.005 512.005" width="24" xmlns="http://www.w3.org/2000/svg">
    <g fill="#808080">
        <path
            d="m392.002 25.003c-17.654 0-34.971 3.905-50.759 11.358-46.773-48.459-123.665-48.504-170.481 0-15.789-7.454-33.106-11.358-50.759-11.358-65.617 0-119 53.383-119 119 0 52.105 33.155 126.673 78.825 154.854l-14.377 57.508c-2.37 9.471 4.811 18.638 14.552 18.638h29.188l3.84 11.521c3.819 11.455 1.483 23.833-6.247 33.11-17.374 20.848-19.836 50.592-6.126 74.015l6.399 10.932c2.791 4.768 7.807 7.424 12.959 7.424 11.438 0 18.825-12.511 12.932-22.58l-6.399-10.931c-7.345-12.549-6.026-28.484 3.282-39.654 14.43-17.315 18.789-40.42 11.661-61.803l-.678-2.034h19.189c9.76 0 16.916-9.187 14.552-18.638l-14.384-57.534c15.108-9.37 27.784-22.851 38.204-37.43 5.11 4.761 10.363 8.885 15.725 12.35l-12.649 50.615c-2.366 9.472 4.812 18.637 14.553 18.637h19.358l-3.46 15.774c-6.441 23.077-2.16 47.46 11.779 66.976 10.437 14.61 12.014 33.705 4.116 49.829l-7.261 14.822c-3.645 7.439-.567 16.425 6.872 20.069 7.425 3.636 16.417.583 20.069-6.872l7.261-14.823c12.753-26.038 10.206-56.87-6.646-80.463-8.691-12.168-11.319-27.393-7.212-41.77.181-.632-.267 1.351 5.192-23.543h29.93c9.761 0 16.914-9.185 14.553-18.637l-12.649-50.615c5.362-3.465 10.615-7.589 15.725-12.35 10.419 14.577 23.095 28.059 38.204 37.43l-14.384 57.534c-2.37 9.471 4.811 18.638 14.552 18.638h19.188l-.678 2.033c-7.128 21.384-2.769 44.488 11.661 61.804 9.309 11.17 10.627 27.105 3.282 39.653l-6.399 10.932c-5.894 10.07 1.495 22.58 12.932 22.58 5.151 0 10.168-2.656 12.959-7.424l6.399-10.933c13.71-23.422 11.248-53.166-6.126-74.014-7.73-9.277-10.066-21.655-6.247-33.111l3.84-11.521h29.188c9.76 0 16.916-9.187 14.552-18.638l-14.377-57.508c45.515-28.085 78.825-102.569 78.825-154.854 0-65.616-53.382-118.998-119-118.998zm-136 5c49.557 0 89 40.911 89 90 0 26.388-11.094 61.605-28.263 89.722-18.348 30.046-40.485 47.278-60.737 47.278-46.554 0-89-85.846-89-137 0-49.633 39.954-90 89-90zm-123.712 281 8.5 34c-28.956 0 27.9 0-41.576 0l8.5-34zm-12.288-30c-46.582 0-89-85.885-89-137 0-62.266 62.861-105.751 121.365-82.92-9.775 17.415-15.365 37.521-15.365 58.92 0 34.611 14.983 81.704 41.038 118.003-17.771 27.452-38.602 42.997-58.038 42.997zm156.79 32c-2.386 0-34.936 0-41.58 0l6.86-27.448c9.339 1.929 18.506 1.932 27.86 0zm127.498-2 8.5 34c-13.146 0-28.989 0-41.576 0l8.5-34zm48.451-77.278c-18.347 30.046-40.485 47.277-60.738 47.277-19.436 0-40.267-15.544-58.038-42.997 26.146-36.427 41.038-83.515 41.038-118.003 0-21.4-5.59-41.505-15.365-58.92 58.438-22.804 121.365 20.588 121.365 82.92-.001 26.39-11.094 61.608-28.262 89.723z" />
        <path
            d="m193.29 145.331c8.066 12.101 18.157 22.522 29.993 30.977l24 17.143c5.218 3.726 12.221 3.725 17.438 0l24-17.143c11.836-8.454 21.927-18.876 29.992-30.977 18.212-27.317-1.324-64.328-34.427-64.328-10.6 0-20.591 3.959-28.284 11.177-7.694-7.219-17.685-11.177-28.284-11.177-33.1 0-52.64 37.008-34.428 64.328zm26.383-30.996c4.448-4.446 11.643-4.447 16.089.001l9.634 9.633c5.859 5.857 15.354 5.857 21.213 0l9.635-9.634c2.147-2.148 5.005-3.332 8.043-3.332 9.086 0 14.485 10.16 9.465 17.688-10.752 16.13-21.4 22.442-37.749 34.12-16.413-11.723-27.018-18.022-37.75-34.12-2.999-4.498-2.401-10.535 1.42-14.356z" />
    </g>
</svg>