<svg fill="none" height="24" width="24" xmlns="http://www.w3.org/2000/svg">
    <path
        d="M22.5 10.5a5.255 5.255 0 0 0-5.746-5.226 5.25 5.25 0 0 0-9.508 0A5.25 5.25 0 0 0 4.5 15.242V19.5A1.5 1.5 0 0 0 6 21h12a1.5 1.5 0 0 0 1.5-1.5v-4.257a5.26 5.26 0 0 0 3-4.743Zm-8.227 2.818.75-3a.75.75 0 0 1 1.454.364l-.75 3a.75.75 0 0 1-1.454-.364ZM11.25 10.5a.75.75 0 0 1 1.5 0v3a.75.75 0 0 1-1.5 0v-3Zm-3.182-.727a.75.75 0 0 1 .91.545l.75 3a.75.75 0 0 1-.734.932.75.75 0 0 1-.726-.568l-.75-3a.75.75 0 0 1 .55-.91ZM18 19.5H6v-3.804a5.2 5.2 0 0 0 .75.054h10.5c.25 0 .502-.018.75-.054V19.5Z"
        fill="#000" />
</svg>
