<svg height="24" viewBox="0 0 24 24" width="24" xmlns="http://www.w3.org/2000/svg">
    <g fill="#808080">
        <path
            d="m17.721 3-1.413-1.832a3.023 3.023 0 0 0 -2.376-1.168h-3.864a3.023 3.023 0 0 0 -2.376 1.168l-1.413 1.832z" />
        <path d="m8 14a4 4 0 1 1 8 0 4 4 0 1 1 -8 0" />
        <path
            d="m19 5h-14a5.006 5.006 0 0 0 -5 5v9a5.006 5.006 0 0 0 5 5h14a5.006 5.006 0 0 0 5-5v-9a5.006 5.006 0 0 0 -5-5zm-7 15a6 6 0 1 1 6-6 6.006 6.006 0 0 1 -6 6z" />
    </g>
</svg>