<svg fill="none" height="20" viewBox="0 0 20 20" width="20" xmlns="http://www.w3.org/2000/svg">
    <path
        d="M15.7484 3.13297H14.0265V2.75957C14.0265 1.23793 12.7885 0 11.2669 0H8.73313C7.21149 0 5.97352 1.23793 5.97352 2.75961V3.13301H4.25157C2.86258 3.13301 1.73254 4.26305 1.73254 5.65203V7.14234C1.73254 7.57383 2.08231 7.92359 2.51379 7.92359H2.8325L3.42723 17.0776C3.53372 18.7163 4.90348 20 6.54567 20H13.4543C14.2442 20 14.9984 19.7044 15.5779 19.1676C16.1568 18.6313 16.5091 17.9029 16.57 17.1164C16.6032 16.6862 16.2815 16.3105 15.8513 16.2773C15.4212 16.2435 15.0454 16.5658 15.0121 16.9959C14.9496 17.8043 14.2654 18.4375 13.4543 18.4375H6.54567C5.72458 18.4375 5.03969 17.7957 4.98645 16.9763L4.39829 7.92359H15.6016L15.2654 13.0993C15.2374 13.5298 15.5638 13.9016 15.9943 13.9296C16.4253 13.9575 16.7966 13.6312 16.8246 13.2006L17.1675 7.92359H17.4862C17.9177 7.92359 18.2674 7.57383 18.2674 7.14234V5.65203C18.2674 4.26301 17.1374 3.13297 15.7484 3.13297ZM7.53602 2.75961C7.53602 2.09949 8.07305 1.5625 8.73313 1.5625H11.2669C11.927 1.5625 12.464 2.09949 12.464 2.75961V3.13301H7.53602V2.75961ZM3.29508 6.36109V5.65203C3.29508 5.12461 3.72418 4.69551 4.25161 4.69551H15.7484C16.2759 4.69551 16.705 5.12461 16.705 5.65203V6.36109H3.29508Z"
        fill="#041330" fill-opacity="0.5" />
    <path
        d="M7.42352 10.7158V15.0642C7.42352 15.4957 7.77329 15.8455 8.20477 15.8455C8.63626 15.8455 8.98602 15.4957 8.98602 15.0642V10.7158C8.98602 10.2843 8.63626 9.93457 8.20477 9.93457C7.77329 9.93457 7.42352 10.2843 7.42352 10.7158Z"
        fill="#041330" fill-opacity="0.5" />
    <path
        d="M11.014 10.7158V15.0642C11.014 15.4957 11.3637 15.8455 11.7952 15.8455C12.2267 15.8455 12.5765 15.4957 12.5765 15.0642V10.7158C12.5765 10.2843 12.2267 9.93457 11.7952 9.93457C11.3637 9.93457 11.014 10.2843 11.014 10.7158Z"
        fill="#041330" fill-opacity="0.5" />
</svg>