<svg fill="none" height="20" viewBox="0 0 20 20" width="20" xmlns="http://www.w3.org/2000/svg">
    <path
        d="M2.12244 0V20H13.7844L17.8776 15.9068V0L2.12244 0ZM3.29431 1.17188H16.7058V14.8307H12.7083V18.8281H3.29427L3.29431 1.17188ZM16.1245 16.0026L13.8802 18.2469V16.0026H16.1245Z"
        fill="#041330" fill-opacity="0.5" />
    <path d="M7.5 3.58105H12.5V4.75293H7.5V3.58105Z" fill="#041330" fill-opacity="0.5" />
    <path d="M5.20831 6.49707H14.7916V7.66895H5.20831V6.49707Z" fill="#041330" fill-opacity="0.5" />
    <path d="M5.20831 8.99707H14.7916V10.1689H5.20831V8.99707Z" fill="#041330" fill-opacity="0.5" />
    <path d="M5.20831 11.4971H14.7916V12.6689H5.20831V11.4971Z" fill="#041330" fill-opacity="0.5" />
    <path d="M5.20831 14.8311H6.43874V16.0029H5.20831V14.8311Z" fill="#041330" fill-opacity="0.5" />
    <path d="M7.61066 14.8311H10V16.0029H7.61066V14.8311Z" fill="#041330" fill-opacity="0.5" />
</svg>