<svg fill="none" height="27" width="63" xmlns="http://www.w3.org/2000/svg">
    <path
        d="M.738 23.074a.5.5 0 1 0 .524.852l-.524-.852ZM20.5 11.5l-.25-.433-.006.003-.006.004.262.426Zm13-6.5.181.466L33.5 5Zm16-4V.5h-.018l-.018.001L49.5 1Zm7.833 22.5a2.667 2.667 0 1 0 5.334 0 2.667 2.667 0 0 0-5.334 0ZM20.5 11.5l.25.433.005-.003.016-.01.065-.036a84.632 84.632 0 0 1 1.195-.674c.803-.447 1.928-1.065 3.219-1.746 2.585-1.367 5.814-2.98 8.431-3.998l-.362-.932c-2.674 1.04-5.945 2.676-8.536 4.045a168.712 168.712 0 0 0-4.443 2.437l-.067.038-.017.01-.004.002h-.001l.249.434Zm13.181-6.034a66.879 66.879 0 0 1 11.29-3.288c1.426-.279 2.57-.449 3.358-.55a31.674 31.674 0 0 1 1.19-.128l.013-.001h.003L49.5 1l-.036-.499h-.006a3.836 3.836 0 0 0-.08.007l-.245.023c-.214.02-.527.054-.93.106-.807.103-1.975.276-3.424.56a67.876 67.876 0 0 0-11.46 3.337l.362.932ZM49.5 1.5c1.956 0 3.514.855 4.781 2.292 1.28 1.45 2.253 3.486 2.993 5.798 1.48 4.624 1.977 10.194 2.227 13.943l.998-.066c-.25-3.751-.752-9.43-2.273-14.182-.76-2.375-1.786-4.558-3.195-6.155C53.611 1.52 51.794.5 49.5.5v1ZM1.262 23.926l19.5-12-.524-.852-19.5 12 .524.852Z"
        fill="#FF5306" />
</svg>
