<svg height="24" viewBox="0 0 36 36" width="24" xmlns="http://www.w3.org/2000/svg">
    <path
        d="m33 6.4-3.7-3.7c-.318-.303-.741-.472-1.18-.472s-.862.169-1.18.472l-3.29 3.3h-17.65c-.53 0-1.039.211-1.414.586s-.586.884-.586 1.414v22c0 .53.211 1.039.586 1.414s.884.586 1.414.586h22c.53 0 1.039-.211 1.414-.586s.586-.884.586-1.414v-18.24l3-3c.313-.313.488-.737.488-1.18 0-.442-.175-.867-.488-1.18zm-14.17 13.73-4.19.93 1-4.15 9.55-9.57 3.23 3.23zm10.67-10.7-3.23-3.23 1.85-1.85 3.23 3.23z"
        fill="#808080" />
</svg>