<svg fill="none" height="26" width="72" xmlns="http://www.w3.org/2000/svg">
    <path
        d="M.501 23.467a.5.5 0 0 0 .998.066L.5 23.467ZM65.833 23a2.667 2.667 0 1 0 5.334 0 2.667 2.667 0 0 0-5.334 0ZM1.5 23.533c.248-3.719 1.116-9.29 2.905-13.915C5.298 7.304 6.41 5.26 7.764 3.8 9.113 2.35 10.676 1.5 12.5 1.5v-1c-2.175 0-3.987 1.025-5.468 2.62-1.474 1.589-2.643 3.763-3.56 6.137-1.837 4.75-2.719 10.429-2.97 14.21l.997.066ZM12.5 1.5H42v-1H12.5v1Zm29.5 0H57v-1H42v1Zm15 0c3.908 0 6.543 3.329 8.283 7.867 1.724 4.495 2.47 9.938 2.718 13.666l.998-.066c-.252-3.772-1.006-9.329-2.782-13.959C64.457 4.421 61.592.5 57 .5v1Z"
        fill="#FF5306" />
</svg>
