<svg height="24" viewBox="0 0 36 36" width="24" xmlns="http://www.w3.org/2000/svg">
    <g fill="#808080">
        <path
            d="m28 30h-22v-22h13.22l2-2h-15.22c-.53 0-1.039.211-1.414.586s-.586.884-.586 1.414v22c0 .53.211 1.039.586 1.414s.884.586 1.414.586h22c.53 0 1.039-.211 1.414-.586s.586-.884.586-1.414v-15l-2 2z" />
        <path
            d="m33.53 5.84-3.37-3.37c-.15-.15-.327-.269-.523-.35s-.405-.123-.617-.123-.422.042-.617.123c-.196.081-.373.2-.523.35l-13.71 13.79-1.11 4.81c-.047.233-.042.474.015.705.056.231.164.447.314.631.15.185.339.334.554.436.214.103.449.157.687.158.123.014.247.014.37 0l4.85-1.07 13.68-13.81c.15-.15.269-.327.35-.523.081-.195.123-.405.123-.617s-.042-.422-.123-.617c-.081-.196-.2-.373-.35-.523zm-14.72 14.24-3.66.81.85-3.63 10.32-10.39 2.82 2.82zm11.46-11.52-2.82-2.82 1.55-1.58 2.84 2.84z" />
    </g>
</svg>