<svg fill="none" height="27" width="63" xmlns="http://www.w3.org/2000/svg">
    <path
        d="M62.667 23.5a2.667 2.667 0 1 1-5.334 0 2.667 2.667 0 0 1 5.334 0ZM40.5 11.5l.25-.433.006.003.006.004-.262.426ZM27.5 5l-.181.466L27.5 5Zm-16-4V.5h.018l.018.001L11.5 1ZM1.499 23.533a.5.5 0 1 1-.998-.066l.998.066ZM40.5 11.5l-.25.433-.005-.003-.016-.01-.065-.036a84.632 84.632 0 0 0-1.195-.674 168.082 168.082 0 0 0-3.219-1.746c-2.585-1.367-5.814-2.98-8.431-3.998l.362-.932c2.674 1.04 5.945 2.676 8.536 4.045a168.712 168.712 0 0 1 4.443 2.437l.067.038.017.01.004.002h.001l-.249.434ZM27.319 5.466a66.879 66.879 0 0 0-11.29-3.288 51.662 51.662 0 0 0-3.358-.55 31.674 31.674 0 0 0-1.19-.128l-.013-.001h-.003L11.5 1l.036-.499h.006a3.836 3.836 0 0 1 .08.007l.245.023c.214.02.527.054.93.106.807.103 1.975.276 3.424.56a67.876 67.876 0 0 1 11.46 3.337l-.362.932ZM11.5 1.5c-1.956 0-3.514.855-4.781 2.292-1.28 1.45-2.253 3.486-2.993 5.798C2.246 14.214 1.75 19.784 1.5 23.533L.5 23.467c.25-3.751.752-9.43 2.273-14.182.76-2.375 1.786-4.558 3.195-6.155C7.389 1.52 9.206.5 11.5.5v1Zm48.238 22.426-19.5-12 .524-.852 19.5 12-.524.852Z"
        fill="#FF5306" />
</svg>
