<svg fill="none" height="32" width="80" xmlns="http://www.w3.org/2000/svg">
    <path
        d="M.511 30.895a.5.5 0 0 0 .978.21l-.978-.21ZM73.833 3a2.667 2.667 0 1 0 5.334 0 2.667 2.667 0 0 0-5.334 0ZM1.49 31.105c.993-4.634 3.154-11.583 6.397-17.36 1.622-2.889 3.501-5.46 5.62-7.305C15.623 4.598 17.954 3.5 20.5 3.5v-1c-2.854 0-5.41 1.236-7.65 3.185-2.237 1.947-4.183 4.625-5.836 7.57-3.307 5.89-5.496 12.94-6.503 17.64l.978.21ZM20.5 3.5c3.17 0 5.572 1.632 7.643 4.19 2.083 2.573 3.776 6.016 5.535 9.534 1.744 3.488 3.552 7.046 5.849 9.726 2.311 2.697 5.158 4.55 8.973 4.55v-1c-3.435 0-6.026-1.647-8.214-4.2-2.203-2.57-3.958-6.012-5.714-9.524-1.741-3.482-3.485-7.039-5.652-9.716-2.18-2.692-4.84-4.56-8.42-4.56v1Zm28 28c3.478 0 5.8-1.893 7.603-4.598 1.784-2.675 3.123-6.243 4.607-9.705 1.499-3.498 3.157-6.923 5.59-9.477 2.41-2.532 5.595-4.22 10.2-4.22v-1c-4.895 0-8.336 1.812-10.925 4.53-2.567 2.696-4.284 6.271-5.785 9.773-1.516 3.538-2.802 6.97-4.518 9.545-1.697 2.545-3.75 4.152-6.772 4.152v1Z"
        fill="#FF5306" />
</svg>
