<svg height="24" viewBox="0 0 512 512" width="24" xmlns="http://www.w3.org/2000/svg">
    <g fill="#808080">
        <path
            d="m304.453 454.161c83.112-96.388 143.162-166.03 143.162-262.545 0-105.658-85.958-191.616-191.615-191.616s-191.615 85.958-191.615 191.615c0 96.515 60.05 166.157 143.162 262.545 7.802 9.048 15.781 18.304 23.935 27.839h-103.482v30h256v-30h-103.482c8.154-9.534 16.133-18.79 23.935-27.838zm-173.123-145.411c-25.551-41.398-36.945-77.523-36.945-117.135 0-89.114 72.5-161.615 161.615-161.615s161.615 72.501 161.615 161.615c0 39.611-11.395 75.737-36.945 117.135-24.06 38.984-58.76 79.225-98.936 125.82-8.372 9.71-16.943 19.649-25.733 29.941-8.791-10.292-100.61-116.777-124.671-155.761z" />
        <path
            d="m343.263 224.014c10.139-11.327 15.722-25.944 15.722-41.157 0-34.038-27.692-61.73-61.73-61.73-15.465 0-30.091 5.79-41.254 15.817-11.163-10.027-25.789-15.817-41.254-15.817-34.038 0-61.73 27.692-61.73 61.73 0 15.213 5.583 29.83 15.722 41.158 8.633 9.646 87.274 84.708 87.274 84.708s78.617-75.063 87.25-84.709zm-152.172-20.007c-5.207-5.819-8.075-13.33-8.075-21.15 0-17.496 14.234-31.73 31.73-31.73 11.574 0 22.236 6.315 27.825 16.481l4.274 7.773h18.309l4.274-7.773c5.589-10.166 16.251-16.481 27.825-16.481 17.496 0 31.73 14.234 31.73 31.73 0 7.82-2.868 15.332-8.075 21.15-5.223 5.835-38.581 38.042-64.909 63.244-26.327-25.203-59.685-57.409-64.908-63.244z" />
    </g>
</svg>