<svg height="24" viewBox="0 0 512 512" width="24" xmlns="http://www.w3.org/2000/svg">
    <path
        d="m256 0c-141.152 0-256 114.848-256 256 0 49.216 13.792 96.48 39.936 137.216l-38.784 96.832c-2.368 5.952-.992 12.736 3.552 17.28 3.04 3.04 7.136 4.672 11.296 4.672 2.016 0 4-.384 5.952-1.152l96.832-38.784c40.736 26.144 88 39.936 137.216 39.936 141.152 0 256-114.848 256-256s-114.848-256-256-256zm0 480c-45.632 0-89.312-13.504-126.272-39.072-2.688-1.888-5.888-2.848-9.088-2.848-2.016 0-4.032.384-5.952 1.152l-69.952 28.032 28.032-69.952c1.984-4.992 1.344-10.656-1.696-15.04-25.568-36.96-39.072-80.64-39.072-126.272 0-123.52 100.48-224 224-224s224 100.48 224 224-100.48 224-224 224z"
        fill="#808080" />
</svg>