<svg height="24" viewBox="0 0 24 24" width="24" xmlns="http://www.w3.org/2000/svg">
    <path
        d="m13.5 6.5a1.5 1.5 0 0 1 -3 0 1.5 1.5 0 0 1 3 0zm10.5 12.5v-6.66a12.209 12.209 0 0 0 -11.164-12.312 12 12 0 0 0 -12.807 12.826c.442 6.354 6.053 11.146 13.054 11.146h5.917a5.006 5.006 0 0 0 5-5zm-11.3-16.976a10.2 10.2 0 0 1 9.3 10.316v6.66a3 3 0 0 1 -3 3h-5.917c-6.034 0-10.683-3.9-11.058-9.284a10 10 0 0 1 9.991-10.716c.227 0 .456.009.684.024zm1.3 15.976v-6a2 2 0 0 0 -2-2h-1a1 1 0 0 0 0 2h1v6a1 1 0 0 0 2 0z"
        fill="#808080" />
</svg>