<svg fill="none" height="20" viewBox="0 0 20 20" width="20" xmlns="http://www.w3.org/2000/svg">
    <path clip-rule="evenodd"
        d="M16.5 3.5H14C13.6022 3.5 13.2206 3.34196 12.9393 3.06066C12.658 2.77936 12.5 2.39782 12.5 2C12.5 1.60218 12.658 1.22064 12.9393 0.93934C13.2206 0.658035 13.6022 0.5 14 0.5H17C17.663 0.5 18.2989 0.763392 18.7678 1.23223C19.2366 1.70107 19.5 2.33696 19.5 3V6C19.5 6.39782 19.342 6.77936 19.0607 7.06066C18.7794 7.34196 18.3978 7.5 18 7.5C17.6022 7.5 17.2206 7.34196 16.9393 7.06066C16.658 6.77936 16.5 6.39782 16.5 6V3.5ZM6 3.5H3.5V6C3.5 6.39782 3.34196 6.77936 3.06066 7.06066C2.77936 7.34196 2.39782 7.5 2 7.5C1.60218 7.5 1.22064 7.34196 0.93934 7.06066C0.658035 6.77936 0.5 6.39782 0.5 6V3C0.5 2.33696 0.763392 1.70107 1.23223 1.23223C1.70107 0.763392 2.33696 0.5 3 0.5H6C6.39782 0.5 6.77936 0.658035 7.06066 0.93934C7.34196 1.22064 7.5 1.60218 7.5 2C7.5 2.39782 7.34196 2.77936 7.06066 3.06066C6.77936 3.34196 6.39782 3.5 6 3.5ZM6 16.5H3.5V14C3.5 13.6022 3.34196 13.2206 3.06066 12.9393C2.77936 12.658 2.39782 12.5 2 12.5C1.60218 12.5 1.22064 12.658 0.93934 12.9393C0.658035 13.2206 0.5 13.6022 0.5 14V17C0.5 17.663 0.763392 18.2989 1.23223 18.7678C1.70107 19.2366 2.33696 19.5 3 19.5H6C6.39782 19.5 6.77936 19.342 7.06066 19.0607C7.34196 18.7794 7.5 18.3978 7.5 18C7.5 17.6022 7.34196 17.2206 7.06066 16.9393C6.77936 16.658 6.39782 16.5 6 16.5ZM14 16.5H16.5V14C16.5 13.6022 16.658 13.2206 16.9393 12.9393C17.2206 12.658 17.6022 12.5 18 12.5C18.3978 12.5 18.7794 12.658 19.0607 12.9393C19.342 13.2206 19.5 13.6022 19.5 14V17C19.5 17.663 19.2366 18.2989 18.7678 18.7678C18.2989 19.2366 17.663 19.5 17 19.5H14C13.6022 19.5 13.2206 19.342 12.9393 19.0607C12.658 18.7794 12.5 18.3978 12.5 18C12.5 17.6022 12.658 17.2206 12.9393 16.9393C13.2206 16.658 13.6022 16.5 14 16.5Z"
        fill="#7E7E7E" fill-rule="evenodd" />
</svg>