<svg height="24" viewBox="0 0 512.047 512.047" width="24" xmlns="http://www.w3.org/2000/svg">
    <g fill="#808080">
        <path d="m64 128.024a128 128 0 1 1 256 0 128 128 0 1 1 -256 0" />
        <path
            d="m192 298.69c-105.985.13-191.871 86.015-192 192 0 11.782 9.551 21.333 21.333 21.333h341.333c11.782 0 21.333-9.551 21.333-21.333-.128-105.985-86.014-191.87-191.999-192z" />
        <path
            d="m469.333 168.024c-24.717 1.231-43.79 22.211-42.667 46.933 1.123-24.722-17.949-45.702-42.667-46.933-24.717 1.231-43.79 22.211-42.667 46.933 0 36.907 48.128 80.149 72.107 99.392 7.731 6.19 18.722 6.19 26.453 0 23.979-19.2 72.107-62.485 72.107-99.392 1.124-24.723-17.948-45.702-42.666-46.933z" />
    </g>
</svg>