<svg height="24" viewBox="0 0 512 512" width="24" xmlns="http://www.w3.org/2000/svg">
    <g fill="#808080">
        <path
            d="m407 18h-194.625c-46.98 0-86.855 31.02-100.219 73.652h-7.156c-57.898 0-105 47.102-105 105v193.191c0 57.898 47.102 105 105 105h194.625c46.98 0 86.855-31.016 100.219-73.652h7.156c57.898 0 105-47.102 105-105v-193.191c0-57.898-47.102-105-105-105zm75 298.191c0 41.355-33.645 75-75 75h-2.395c.008-.449.02-.895.02-1.348v-193.191c0-57.898-47.105-105-105-105h-155.355c11.895-25.742 37.941-43.652 68.105-43.652h194.625c41.355 0 75 33.645 75 75zm-182.375 148.653h-194.625c-41.355 0-75-33.645-75-75v-193.191c0-41.355 33.645-75 75-75h194.625c41.355 0 75 33.645 75 75v193.191c0 41.355-33.645 75-75 75zm0 0" />
        <path
            d="m134.879 292.047c37.848 0 68.637 30.789 68.637 68.633 0 8.285 6.715 15 15 15 8.281 0 15-6.715 15-15 0-54.387-44.25-98.633-98.637-98.633-8.281 0-15 6.715-15 15 0 8.281 6.719 15 15 15zm0 0" />
        <path
            d="m128.66 351.465c8.512 0 15.434 6.922 15.434 15.434 0 8.285 6.719 15 15 15 8.285 0 15-6.715 15-15 0-25.051-20.379-45.434-45.434-45.434-8.285 0-15 6.715-15 15 0 8.281 6.715 15 15 15zm0 0" />
        <path
            d="m143.195 234.598c64.938 0 117.77 52.828 117.77 117.766 0 8.285 6.715 15 15 15 8.281 0 15-6.715 15-15 0-81.48-66.289-147.766-147.77-147.766-8.285 0-15 6.715-15 15 0 8.281 6.715 15 15 15zm0 0" />
    </g>
</svg>