<svg fill="none" height="26" width="18" xmlns="http://www.w3.org/2000/svg">
    <path clip-rule="evenodd"
        d="M10.93 26c1.325-1.958 1.447-4.072.367-6.344-.3 1.219-.85 1.958-1.648 2.22.741-2.118.122-4.406-1.859-6.864-.043 2.539-.653 4.388-1.83 5.548-1.622 1.596-1.603 3.398.057 5.404C-.873 22.297-1.846 17.38 3.1 11.21c.307 1.49 1.05 2.406 2.23 2.745C4.045 8.495 5.399 3.844 9.392 0c.025 8.53 2.64 9.289 5.948 13.097 3.571 4.569 1.473 9.842-4.408 12.903Z"
        fill="#FF5306" fill-rule="evenodd" />
</svg>
