<svg fill="none" height="226" viewBox="0 0 226 226" width="226" xmlns="http://www.w3.org/2000/svg">
    <path
        d="m70.1542 46.2217c11.2529-6.8553 27.3224-10.4995 44.0608-9.944 16.714.5603 33.396 5.2875 45.944 14.3934 1.263.9166 2.839 1.2936 4.381 1.0481 1.542-.2454 2.923-1.0933 3.839-2.357.917-1.2637 1.294-2.8398 1.049-4.3815-.246-1.5416-1.094-2.9227-2.358-3.8392-14.878-10.7915-33.994-16.0084-52.46-16.6252-18.4329-.6168-36.9131 3.3288-50.5767 11.6579-.6856.3889-1.2861.9117-1.7659 1.5372-.4797.6255-.8289 1.341-1.0268 2.104-.198.7631-.2406 1.5581-.1254 2.3379s.3859 1.5286.796 2.2018.9513 1.2571 1.5914 1.7172 1.3661.7868 2.135.9609c.7688.1741 1.5648.192 2.3406.0526.7759-.1394 1.5158-.4332 2.176-.8641zm49.4238 5.5935c-.768-.0908-1.546-.0297-2.29.1801s-1.439.5641-2.046 1.0426c-.608.4785-1.114 1.072-1.492 1.7464s-.619 1.4166-.71 2.1842-.03 1.5457.18 2.2896c.21.744.564 1.4394 1.043 2.0465.478.607 1.072 1.1139 1.746 1.4916s1.417.6189 2.184.7098c36.862 4.3788 60.851 32.8454 67.876 72.876.293 1.514 1.169 2.854 2.44 3.728 1.271.875 2.835 1.216 4.355.95 1.52-.267 2.874-1.12 3.771-2.375.897-1.256 1.265-2.813 1.026-4.337-7.647-43.576-34.63-77.3724-78.083-82.5328zm-31.5557 47.46c-17.9717 14.3838-28.2594 45.5298-8.5927 85.2678.6802 1.397.7804 3.007.2787 4.477-.5017 1.471-1.5647 2.683-2.957 3.373-1.3922.69-3.0009.801-4.4749.31-1.4741-.492-2.6939-1.546-3.3935-2.934-21.583-43.603-11.3941-81.138 11.785-99.6844 11.4836-9.1907 25.9991-13.4894 40.6421-11.1917 14.69 2.3071 28.933 11.1681 40.073 27.2191.456.634.781 1.352.957 2.113s.198 1.55.066 2.32-.416 1.505-.836 2.164c-.419.659-.966 1.228-1.607 1.674-.642.445-1.365.759-2.129.922s-1.553.172-2.32.027c-.768-.145-1.499-.441-2.151-.871-.652-.431-1.211-.986-1.646-1.635-9.577-13.7956-21.15-20.5615-32.234-22.3035-11.14-1.7515-22.3642 1.4737-31.4607 8.7527zm22.0257 94.6848c-12.0488-24.342-15.726-44.918-13.5366-58.539 1.0829-6.752 3.5316-11.361 6.6056-14.13 2.971-2.669 7.11-4.152 12.859-3.611 7.641.725 11.22 3.239 13.428 6.239 2.552 3.465 3.898 8.333 5.433 15.269l.462 2.104c2.848 13.108 6.615 30.402 24.888 43.576 1.266.913 2.843 1.285 4.384 1.035 1.541-.249 2.919-1.101 3.832-2.367.913-1.267 1.285-2.844 1.035-4.384-.25-1.541-1.101-2.92-2.368-3.832-14.548-10.491-17.467-23.768-20.368-36.98l-.376-1.695c-1.46-6.601-3.193-13.936-7.444-19.704-4.596-6.239-11.55-10.005-21.795-10.975-8.522-.81-16.07 1.389-21.8327 6.568-5.6547 5.085-8.9929 12.477-10.3678 21.023-2.7214 16.973 1.9917 40.124 14.6147 65.624.7168 1.355 1.9348 2.377 3.3938 2.847 1.458.471 3.043.355 4.417-.325s2.429-1.868 2.94-3.314c.51-1.445.437-3.032-.204-4.424zm-55.017-142.5261c1.0324 1.1702 1.5578 2.7025 1.4607 4.26-.0971 1.5574-.8088 3.0126-1.9786 4.0455-7.5145 6.634-12.5854 13.3104-17.6233 22.0679-.3858.67-.8998 1.2573-1.5127 1.7286-.6128.4713-1.3124.8173-2.059 1.0182-.7465.2009-1.5253.2528-2.2919.1527s-1.5059-.3502-2.1759-.736c-.6699-.3858-1.2573-.8998-1.7286-1.5126-.4713-.6129-.8173-1.3125-1.0182-2.0591-.2008-.7465-.2527-1.5253-.1527-2.2919.1001-.7666.3502-1.5059.736-2.1759 5.537-9.6191 11.3754-17.3737 20.0387-25.0153 1.1702-1.0325 2.7025-1.5579 4.26-1.4607 1.5575.0971 3.0126.8088 4.0455 1.9786zm115.58 83.0311c-.262-1.522-1.112-2.88-2.366-3.781s-2.812-1.273-4.338-1.036-2.898 1.065-3.819 2.304c-.922 1.24-1.319 2.792-1.106 4.321 2.401 15.43 10.381 25.176 20.034 32.125.627.452 1.337.775 2.09.952s1.533.204 2.295.079c.763-.125 1.494-.398 2.151-.805.658-.407 1.228-.94 1.68-1.568.451-.627.774-1.338.951-2.09.177-.753.204-1.533.079-2.296-.124-.762-.398-1.493-.805-2.151-.407-.657-.94-1.227-1.567-1.679-7.651-5.508-13.457-12.684-15.279-24.375zm-56.867-.259c.771-.057 1.546.037 2.28.279.735.242 1.414.626 2 1.131.586.504 1.067 1.119 1.415 1.81.348.69.557 1.443.614 2.214 1.436 19.186 8.461 35.439 19.747 48.354.525.58.929 1.258 1.19 1.995.26.737.37 1.519.325 2.3-.045.78-.246 1.544-.59 2.246-.343.702-.824 1.329-1.412 1.843-.589.515-1.274.907-2.016 1.154s-1.526.343-2.305.284c-.78-.06-1.54-.274-2.236-.631-.696-.356-1.313-.848-1.817-1.445-13.005-14.879-20.999-33.557-22.624-55.224-.058-.771.037-1.546.278-2.28.242-.734.626-1.414 1.13-1.999.504-.586 1.119-1.067 1.808-1.415.69-.349 1.442-.558 2.213-.616zm-18.4662-68.7413c.7126-.2999 1.3592-.7372 1.9028-1.2869.5436-.5498.9736-1.2012 1.2654-1.9171.2918-.716.4398-1.4824.4355-2.2555-.0044-.7731-.161-1.5378-.4609-2.2504-.2998-.7126-.7371-1.3591-1.2869-1.9027-.5497-.5436-1.2012-.9736-1.9171-1.2655-.7159-.2918-1.4823-.4398-2.2554-.4354-.7732.0043-1.5379.1609-2.2505.4608-42.2431 17.7645-63.3035 57.508-57.7053 104.982.0903.767.3309 1.51.708 2.184.3772.675.8835 1.269 1.4902 1.748.6066.479 1.3016.833 2.0454 1.044.7437.21 1.5216.272 2.2892.182.7677-.091 1.51-.331 2.1846-.708.6747-.377 1.2685-.884 1.7474-1.49.479-.607.8338-1.302 1.0441-2.046.2104-.744.2722-1.522.1819-2.289-5.052-42.846 13.6871-77.2403 50.5816-92.7637z"
        fill="#808080" />
</svg>