<svg fill="none" height="22" viewBox="0 0 22 22" width="22" xmlns="http://www.w3.org/2000/svg">
    <clipPath id="a">
        <path d="m0 0h22v22h-22z" />
    </clipPath>
    <g clip-path="url(#a)">
        <path
            d="m21.4859 11.2057c0-.9013-.0732-1.55902-.2314-2.2411h-10.2923v4.0682h6.0413c-.1217 1.0109-.7795 2.5335-2.2411 3.5566l-.0205.1362 3.2542 2.521.2255.0225c2.0706-1.9123 3.2643-4.726 3.2643-8.0634z"
            fill="#4285f4" />
        <path
            d="m10.9621 21.9245c2.9598 0 5.4445-.9745 7.2594-2.6553l-3.4592-2.6797c-.9256.6456-2.1681 1.0962-3.8002 1.0962-2.89885 0-5.35924-1.9122-6.2363-4.5553l-.12856.0109-3.3838 2.6187-.04425.1231c1.80266 3.5809 5.50546 6.0414 9.79291 6.0414z"
            fill="#34a853" />
        <path
            d="m4.72589 13.1303c-.23142-.6821-.36536-1.4129-.36536-2.1681s.13394-1.48599.35318-2.16807l-.00613-.14527-3.42621-2.66082-.1121.05332c-.742957 1.48601-1.16927 3.15473-1.16927 4.92084 0 1.7661.426313 3.4348 1.16927 4.9208z"
            fill="#fbbc05" />
        <path
            d="m10.9621 4.23869c2.0585 0 3.447.88916 4.2387 1.6322l3.0938-3.02071c-1.9001-1.76613-4.3727-2.85018-7.3325-2.85018-4.28745 0-7.99025 2.46039-9.79291 6.04135l3.54443 2.75277c.88924-2.6431 3.34963-4.55543 6.24848-4.55543z"
            fill="#eb4335" />
    </g>
</svg>