<svg fill="none" height="38" width="38" xmlns="http://www.w3.org/2000/svg">
    <rect fill="#fff" height="38" rx="4" width="38" />
    <path
        d="M19 29a9.671 9.671 0 0 1-3.875-.788 10.147 10.147 0 0 1-3.187-2.15 10.147 10.147 0 0 1-2.15-3.187A9.67 9.67 0 0 1 9 19a9.64 9.64 0 0 1 .788-3.887 10.202 10.202 0 0 1 2.15-3.175 10.125 10.125 0 0 1 3.187-2.15A9.693 9.693 0 0 1 19 9c1.383 0 2.68.263 3.888.788a10.173 10.173 0 0 1 3.174 2.15 10.21 10.21 0 0 1 2.15 3.175A9.622 9.622 0 0 1 29 19a9.671 9.671 0 0 1-.788 3.875 10.16 10.16 0 0 1-2.15 3.188 10.164 10.164 0 0 1-3.175 2.15A9.655 9.655 0 0 1 19 29Zm0-2.05c.433-.6.808-1.225 1.125-1.875.317-.65.575-1.342.775-2.075h-3.8c.2.733.458 1.425.775 2.075.317.65.692 1.275 1.125 1.875Zm-2.6-.4c-.3-.55-.562-1.121-.787-1.713A14.898 14.898 0 0 1 15.05 23H12.1a8.295 8.295 0 0 0 1.813 2.175A7.201 7.201 0 0 0 16.4 26.55Zm5.2 0a7.2 7.2 0 0 0 2.488-1.375A8.28 8.28 0 0 0 25.9 23h-2.95a14.76 14.76 0 0 1-.562 1.838 13.642 13.642 0 0 1-.788 1.712ZM11.25 21h3.4a13.612 13.612 0 0 1-.15-2c0-.35.012-.688.038-1.012.026-.324.063-.653.112-.988h-3.4a8.163 8.163 0 0 0 0 4Zm5.4 0h4.7a12.719 12.719 0 0 0 .15-2 13.682 13.682 0 0 0-.15-2h-4.7a13.6 13.6 0 0 0-.15 2c0 .35.012.687.038 1.013.026.326.063.655.112.987Zm6.7 0h3.4c.083-.333.146-.662.188-.987a8.25 8.25 0 0 0 0-2.025A8.185 8.185 0 0 0 26.75 17h-3.4a12.728 12.728 0 0 1 .15 2 13.45 13.45 0 0 1-.15 2Zm-.4-6h2.95a8.303 8.303 0 0 0-1.812-2.175A7.188 7.188 0 0 0 21.6 11.45c.3.55.563 1.121.788 1.713.225.592.413 1.204.562 1.837Zm-5.85 0h3.8c-.2-.733-.458-1.425-.775-2.075A12.701 12.701 0 0 0 19 11.05c-.433.6-.808 1.225-1.125 1.875-.317.65-.575 1.342-.775 2.075Zm-5 0h2.95c.15-.633.338-1.246.563-1.838.225-.592.488-1.163.787-1.712a7.2 7.2 0 0 0-2.488 1.375A8.28 8.28 0 0 0 12.1 15Z"
        fill="#00143B" fill-opacity=".5" />
</svg>
