<svg height="24" viewBox="0 0 512 512" width="24" xmlns="http://www.w3.org/2000/svg">
    <g fill="#808080">
        <path
            d="m164.961 331.004h.023c.02 0 .039-.004.059-.004h271.957c6.695 0 12.582-4.441 14.422-10.879l60-210c1.293-4.527.387-9.395-2.445-13.152-2.836-3.758-7.27-5.969-11.977-5.969h-366.633l-10.723-48.254c-1.527-6.863-7.613-11.746-14.645-11.746h-90c-8.285 0-15 6.715-15 15s6.715 15 15 15h77.969c1.898 8.551 51.313 230.918 54.156 243.711-15.941 6.93-27.125 22.824-27.125 41.289 0 24.813 20.188 45 45 45h272c8.285 0 15-6.715 15-15s-6.715-15-15-15h-272c-8.27 0-15-6.73-15-15 0-8.258 6.707-14.977 14.961-14.996zm312.152-210.004-51.429 180h-248.652l-40-180zm0 0" />
        <path
            d="m150 436c0 24.813 20.188 45 45 45s45-20.188 45-45-20.188-45-45-45-45 20.188-45 45zm45-15c8.27 0 15 6.73 15 15s-6.73 15-15 15-15-6.73-15-15 6.73-15 15-15zm0 0" />
        <path
            d="m362 436c0 24.813 20.188 45 45 45s45-20.188 45-45-20.188-45-45-45-45 20.188-45 45zm45-15c8.27 0 15 6.73 15 15s-6.73 15-15 15-15-6.73-15-15 6.73-15 15-15zm0 0" />
    </g>
</svg>