<svg fill="none" height="21" width="20" xmlns="http://www.w3.org/2000/svg">
    <path
        d="M19.75 10.246c0-.733-.066-1.433-.188-2.107h-9.477V12l5.458.001a4.641 4.641 0 0 1-2.025 3.109v2.504h3.249c1.897-1.744 2.983-4.322 2.983-7.367Z"
        fill="#4285F4" />
    <path
        d="M13.519 15.109c-.904.606-2.069.96-3.431.96-2.632 0-4.865-1.761-5.664-4.136H1.073v2.583a10.095 10.095 0 0 0 9.015 5.518c2.725 0 5.014-.89 6.68-2.422l-3.249-2.503Z"
        fill="#34A853" />
    <path
        d="M4.108 10.018c0-.667.112-1.312.316-1.917V5.518H1.073A9.913 9.913 0 0 0 0 10.018c0 1.618.387 3.146 1.073 4.499l3.35-2.582a6.005 6.005 0 0 1-.315-1.917Z"
        fill="#FABB05" />
    <path
        d="M10.088 3.965c1.487 0 2.819.509 3.87 1.503l2.88-2.857C15.087.993 12.808 0 10.087 0a10.097 10.097 0 0 0-9.015 5.518l3.35 2.583c.8-2.375 3.033-4.136 5.665-4.136Z"
        fill="#E94235" />
</svg>
