<svg height="24" viewBox="0 0 512 512" width="24" xmlns="http://www.w3.org/2000/svg">
    <path
        d="m470.549 111.573-157.312-74.944c-34.628-20.684-77.728-21.051-112.704-.96l-159.082 75.904c-.597.299-1.216.619-1.792.96-37.752 21.586-50.858 69.689-29.272 107.441 7.317 12.798 18.08 23.284 31.064 30.266l43.883 20.907v104.533c.026 46.743 30.441 88.039 75.072 101.931 31.059 8.985 63.264 13.384 95.595 13.056 32.326.362 64.531-4 95.595-12.949 44.631-13.891 75.046-55.188 75.072-101.931v-104.683l42.667-20.395v175.957c0 11.782 9.551 21.333 21.333 21.333s21.333-9.551 21.333-21.333v-256c.142-25.051-19.638-48.193-41.452-59.093zm-86.549 264.214c.011 27.959-18.129 52.69-44.8 61.077-27.046 7.728-55.073 11.479-83.2 11.136-28.127.343-56.154-3.408-83.2-11.136-26.671-8.388-44.811-33.118-44.8-61.077v-84.309l70.763 33.707c17.46 10.368 37.401 15.816 57.707 15.765 19.328.137 38.331-4.98 54.976-14.805l72.554-34.668zm68.267-164.054-160.896 76.8c-22.434 13.063-50.241 12.693-72.32-.96l-157.419-74.88c-17.547-9.462-24.101-31.357-14.639-48.903 3.2-5.934 7.998-10.853 13.85-14.201l159.893-76.373c22.441-13.034 50.233-12.665 72.32.96l157.312 74.944c11.569 6.424 18.807 18.555 18.965 31.787.021 12.534-6.433 24.19-17.066 30.826z"
        fill="#808080" />
</svg>