<svg height="24" viewBox="0 0 512 512" width="24" xmlns="http://www.w3.org/2000/svg">
    <g fill="#808080">
        <path
            d="m125.765 430.773c-43.02 0-88.741 14.234-88.741 40.612s45.722 40.613 88.741 40.613 88.741-14.235 88.741-40.613-45.722-40.612-88.741-40.612z" />
        <path
            d="m125.767 153.902c-69.22 0-125.535 56.315-125.535 125.535 0 42.977 20.444 89.185 60.765 137.341 29.686 35.455 58.943 58.239 60.175 59.192 1.352 1.047 2.974 1.57 4.595 1.57s3.242-.523 4.595-1.57c1.231-.953 30.49-23.737 60.175-59.192 40.321-48.156 60.765-94.365 60.765-137.341 0-69.22-56.315-125.535-125.535-125.535zm47.075 125.535c0 25.998-21.076 47.074-47.075 47.074-25.998 0-47.074-21.076-47.074-47.074s21.076-47.075 47.074-47.075c25.999 0 47.075 21.077 47.075 47.075z" />
        <path
            d="m460.525 220.803c-12.67-5.163-29.356-8.007-46.981-8.007-17.624 0-34.31 2.844-46.981 8.007-14.807 6.034-22.962 14.893-22.962 24.944s8.154 18.911 22.962 24.944c12.67 5.163 29.355 8.007 46.981 8.007 17.625 0 34.31-2.844 46.981-8.007 14.806-6.033 22.96-14.893 22.96-24.944s-8.154-18.909-22.96-24.944z" />
        <path
            d="m125.765 493.246c-37.606 0-77.275-10.877-86.664-31.237-1.351 2.93-2.077 6.057-2.077 9.377 0 26.379 45.722 40.613 88.741 40.613s88.741-14.235 88.741-40.613c0-3.319-.726-6.446-2.077-9.377-9.388 20.359-49.057 31.237-86.664 31.237z" />
        <path
            d="m460.525 251.937c-12.67 5.163-29.355 8.007-46.981 8.007-17.625 0-34.31-2.844-46.981-8.007-9.987-4.069-16.933-9.428-20.406-15.567-1.676 2.963-2.555 6.104-2.555 9.377 0 10.051 8.154 18.911 22.962 24.944 12.67 5.163 29.355 8.007 46.981 8.007 17.625 0 34.31-2.844 46.981-8.007 14.806-6.033 22.96-14.893 22.96-24.944 0-3.271-.879-6.414-2.555-9.377-3.473 6.139-10.42 11.498-20.406 15.567z" />
        <path
            d="m413.546 0c-54.159 0-98.22 44.062-98.22 98.22 0 33.45 15.85 69.339 47.108 106.673 22.935 27.392 45.566 45.015 46.518 45.752 1.353 1.047 2.974 1.57 4.595 1.57s3.241-.523 4.595-1.57c.952-.737 23.584-18.36 46.518-45.752 31.258-37.333 47.107-73.222 47.107-106.673-.002-54.158-44.063-98.22-98.221-98.22zm36.181 98.22c0 19.982-16.199 36.181-36.181 36.181s-36.181-16.199-36.181-36.181 16.199-36.18 36.181-36.18 36.181 16.198 36.181 36.18z" />
        <path
            d="m125.767 153.902c-4.781 0-9.497.278-14.14.801 62.587 7.048 111.394 60.294 111.394 124.734 0 42.977-20.444 89.185-60.765 137.341-19.802 23.65-39.4 41.648-50.63 51.304 5.606 4.82 9.136 7.57 9.546 7.887 1.352 1.047 2.974 1.57 4.595 1.57s3.242-.523 4.595-1.57c1.231-.953 30.49-23.737 60.175-59.192 40.321-48.156 60.765-94.365 60.765-137.341 0-69.219-56.315-125.534-125.535-125.534z" />
        <path
            d="m413.546 0c-4.801 0-9.522.352-14.141 1.022 47.481 6.876 84.08 47.841 84.08 97.198 0 33.45-15.85 69.339-47.107 106.673-14.096 16.836-28.068 29.971-36.973 37.774 5.583 4.892 9.179 7.694 9.546 7.977 1.353 1.047 2.974 1.57 4.595 1.57s3.241-.523 4.595-1.57c.952-.737 23.584-18.36 46.518-45.752 31.258-37.333 47.107-73.222 47.107-106.673-.001-54.157-44.062-98.219-98.22-98.219z" />
        <path
            d="m242.226 478.903c-4.13 0-7.488-3.338-7.507-7.474-.019-4.147 3.327-7.524 7.474-7.542l9.916-.045h.035c4.13 0 7.489 3.338 7.507 7.474.019 4.147-3.327 7.524-7.474 7.542l-9.916.045c-.012 0-.024 0-.035 0zm39.665-.18c-4.13 0-7.488-3.338-7.507-7.474-.019-4.147 3.327-7.524 7.474-7.542l9.916-.045h.035c4.13 0 7.488 3.338 7.507 7.474.019 4.147-3.327 7.524-7.474 7.542l-9.916.045c-.012 0-.024 0-.035 0zm39.666-.181c-4.13 0-7.488-3.338-7.507-7.474-.019-4.146 3.327-7.524 7.474-7.542l9.915-.045h.035c4.13 0 7.488 3.338 7.507 7.474.018 4.147-3.327 7.524-7.474 7.542l-9.915.045c-.012 0-.024 0-.035 0zm39.666-.18c-4.13 0-7.488-3.338-7.507-7.474-.019-4.146 3.327-7.524 7.474-7.542l9.916-.045h.035c4.13 0 7.488 3.338 7.507 7.474.018 4.146-3.327 7.524-7.474 7.542l-9.916.045c-.012 0-.024 0-.035 0zm39.665-.179c-4.13 0-7.488-3.338-7.507-7.474-.019-4.147 3.327-7.524 7.474-7.542l9.916-.045h.035c4.13 0 7.488 3.338 7.507 7.474.019 4.147-3.327 7.524-7.474 7.542l-9.916.045c-.012 0-.023 0-.035 0zm39.666-.18c-4.129 0-7.487-3.337-7.507-7.472-.021-4.146 3.324-7.524 7.472-7.544l1.405-.007c2.512-.011 5.029-.189 7.488-.529 4.1-.572 7.896 2.302 8.465 6.41.567 4.107-2.302 7.897-6.41 8.465-3.115.43-6.303.656-9.474.67l-1.402.007c-.012 0-.025 0-.037 0zm37.351-11.311c-2.379 0-4.719-1.128-6.177-3.231-2.361-3.408-1.515-8.085 1.893-10.449 2.392-1.657 4.671-3.516 6.778-5.523 3-2.861 7.753-2.746 10.615.256 2.86 3.001 2.746 7.754-.256 10.615-2.667 2.542-5.554 4.894-8.58 6.992-1.307.906-2.797 1.34-4.273 1.34zm23.744-30.96c-.837 0-1.689-.141-2.522-.438-3.906-1.393-5.942-5.688-4.551-9.593.976-2.735 1.742-5.57 2.28-8.428.768-4.075 4.698-6.755 8.767-5.988 4.074.767 6.756 4.693 5.988 8.767-.683 3.625-1.655 7.223-2.893 10.692-1.093 3.072-3.985 4.988-7.069 4.988zm1.215-39c-3.263 0-6.268-2.145-7.212-5.439-.801-2.79-1.831-5.542-3.061-8.177-1.753-3.758-.128-8.226 3.629-9.979 3.762-1.752 8.226-.128 9.979 3.629 1.562 3.346 2.868 6.839 3.886 10.384 1.143 3.985-1.159 8.144-5.145 9.288-.693.199-1.39.294-2.076.294zm-21.775-32.389c-1.63 0-3.269-.527-4.648-1.615-2.283-1.804-4.726-3.44-7.256-4.866-3.613-2.034-4.892-6.614-2.857-10.226 2.035-3.613 6.616-4.893 10.226-2.857 3.206 1.806 6.299 3.879 9.192 6.162 3.254 2.569 3.81 7.291 1.24 10.545-1.481 1.878-3.678 2.857-5.897 2.857zm-36.548-13.608c-.112 0-.225-.002-.338-.008-.839-.037-1.684-.056-2.532-.056h-7.051c-4.147 0-7.508-3.36-7.508-7.508 0-4.146 3.36-7.508 7.508-7.508h7.051c1.059 0 2.134.023 3.196.071 4.142.183 7.352 3.69 7.167 7.832-.176 4.031-3.5 7.177-7.493 7.177zm-39.67-.063h-9.916c-4.147 0-7.508-3.36-7.508-7.508 0-4.146 3.361-7.508 7.508-7.508h9.916c4.147 0 7.508 3.362 7.508 7.508 0 4.147-3.361 7.508-7.508 7.508zm-39.666 0h-9.916c-4.147 0-7.508-3.36-7.508-7.508 0-4.146 3.361-7.508 7.508-7.508h9.916c4.147 0 7.508 3.362 7.508 7.508 0 4.147-3.361 7.508-7.508 7.508zm-39.667 0h-9.916c-4.147 0-7.508-3.36-7.508-7.508 0-4.146 3.361-7.508 7.508-7.508h9.916c4.147 0 7.508 3.362 7.508 7.508 0 4.147-3.36 7.508-7.508 7.508zm-38.249-7.468c-1.369 0-2.755-.374-3.998-1.158-3.219-2.03-6.243-4.401-8.991-7.042-2.988-2.874-3.081-7.627-.206-10.615 2.872-2.986 7.626-3.081 10.615-.206 2.015 1.937 4.233 3.676 6.593 5.163 3.508 2.212 4.558 6.849 2.345 10.356-1.429 2.262-3.867 3.502-6.358 3.502zm-21.821-31.806c-3.522 0-6.663-2.488-7.362-6.072-.688-3.532-1.037-7.16-1.037-10.786l.003-.592c.048-4.116 3.4-7.421 7.506-7.421.03 0 .06 0 .089.001 4.147.048 7.469 3.448 7.42 7.594l-.002.417c0 2.664.256 5.327.76 7.914.793 4.07-1.863 8.012-5.933 8.805-.485.095-.969.14-1.444.14zm8.205-37.681c-1.518 0-3.048-.458-4.374-1.41-3.368-2.419-4.137-7.11-1.719-10.478 2.222-3.094 4.768-5.971 7.567-8.552 3.05-2.811 7.798-2.618 10.609.428 2.812 3.048 2.62 7.798-.428 10.609-2.053 1.894-3.921 4.005-5.551 6.275-1.467 2.041-3.768 3.128-6.104 3.128zm33.052-19.868c-3.706 0-6.93-2.744-7.433-6.519-.547-4.11 2.342-7.886 6.452-8.433 2.454-.326 4.962-.492 7.458-.492h3.428c4.147 0 7.508 3.361 7.508 7.508s-3.361 7.508-7.508 7.508h-3.428c-1.836 0-3.679.121-5.478.36-.336.047-.669.068-.999.068z" />
    </g>
</svg>