<svg height="24" viewBox="0 0 512 512" width="24" xmlns="http://www.w3.org/2000/svg">
    <path
        d="m498.195 222.695c-.012-.012-.023-.023-.035-.035l-208.855-208.848c-8.902-8.906-20.738-13.813-33.328-13.813s-24.426 4.902-33.332 13.809l-208.746 208.742c-.07.07-.141.145-.211.215-18.281 18.387-18.25 48.219.09 66.559 8.379 8.383 19.445 13.238 31.277 13.746.48.047.965.07 1.453.07h8.324v153.699c0 30.414 24.746 55.16 55.168 55.16h81.711c8.281 0 15-6.715 15-15v-120.5c0-13.879 11.289-25.168 25.168-25.168h48.195c13.879 0 25.168 11.289 25.168 25.168v120.5c0 8.285 6.715 15 15 15h81.711c30.422 0 55.168-24.746 55.168-55.16v-153.699h7.719c12.586 0 24.422-4.902 33.332-13.809 18.359-18.371 18.367-48.254.023-66.637zm0 0"
        fill="#808080" />
</svg>