<svg height="24" viewBox="0 0 480 480" width="24" xmlns="http://www.w3.org/2000/svg">
    <path
        d="m240 0c-132.547 0-240 107.453-240 240s107.453 240 240 240 240-107.453 240-240c-.148-132.484-107.516-239.852-240-240zm185.863 115.121-16.633 70.703-87.628 29.207-73.602-58.871v-86.746l84-33.598c38.031 17.23 70.523 44.684 93.863 79.305zm1.336 247.641-79.336 12.527-43.199-57.066 22.008-88 86.656-28.879 49.641 59.566c-3.383 36.371-15.668 71.352-35.77 101.852zm-294.711 12.582-79.687-12.582c-20.102-30.508-32.383-65.496-35.762-101.875l49.602-59.566 86.656 28.879 22.008 88.047zm-116.418-138.328c.426-35.688 9.43-70.754 26.25-102.23l12.977 55.199zm174.176 74.984-21.223-84.977 70.977-56.777 70.992 56.801-21.238 84.953zm234.457-122.047 12.977-55.199c16.82 31.477 25.824 66.539 26.25 102.23zm-114.519-162.633-70.184 28.071-70.559-27.942c45.672-15.223 95.043-15.266 140.742-.129zm-162.567 8.68 84.383 33.441v86.719l-73.602 58.871-87.629-29.207-16.633-70.703c23.262-34.496 55.613-61.879 93.48-79.121zm-81.449 345.07 65.031 10.274 39.328 61.601c-40.961-13.453-77.188-38.402-104.359-71.875zm127.297 78.035-47.738-74.738 42.273-56.367h104l42.879 56.641-41.598 72.902c-32.723 8.059-66.844 8.605-99.809 1.602zm122.039-8.234 34.098-59.672 64.261-10.136c-25.816 31.793-59.828 55.93-98.359 69.809zm0 0"
        fill="#808080" />
</svg>