<svg fill="none" height="20" width="20" xmlns="http://www.w3.org/2000/svg">
    <path clip-rule="evenodd"
        d="M.52 5.823C0 6.77 0 7.915 0 10.203v1.522c0 3.9 0 5.851 1.172 7.063C2.343 20 4.229 20 8 20h4c3.771 0 5.657 0 6.828-1.212C20 17.576 20 15.626 20 11.725v-1.521c0-2.289 0-3.433-.52-4.381-.518-.949-1.467-1.537-3.364-2.715l-2-1.241C12.111.622 11.108 0 10 0 8.892 0 7.89.622 5.884 1.867l-2 1.241C1.987 4.286 1.039 4.874.52 5.823ZM9.25 16a.75.75 0 1 0 1.5 0v-3a.75.75 0 1 0-1.5 0v3Z"
        fill="#999" fill-rule="evenodd" />
</svg>
