<svg fill="none" height="24" viewBox="0 0 24 24" width="24" xmlns="http://www.w3.org/2000/svg">
    <g fill="#808080">
        <path
            d="m20.947 8.30496c-.0101-.75738-.1519-1.50723-.419-2.216-.2317-.59785-.5855-1.1408-1.0388-1.59417-.4534-.45337-.9964-.80718-1.5942-1.03883-.6997-.26265-1.4388-.40466-2.186-.42-.962-.043-1.267-.055-3.709-.055-2.44201 0-2.75501 0-3.71001.055-.74684.01545-1.48565.15747-2.185.42-.59794.23149-1.14097.58524-1.59436 1.03863s-.80715.99643-1.03864 1.59437c-.26316.69913-.40487 1.43811-.419 2.185-.043.963-.056 1.268-.056 3.71004 0 2.442 0 2.754.056 3.71.015.748.156 1.486.419 2.187.23188.5977.5859 1.1405 1.03944 1.5937s.99663.8068 1.59456 1.0383c.69744.2732 1.43638.4253 2.185.45.963.043 1.268.056 3.71001.056 2.442 0 2.755 0 3.71-.056.7471-.0148 1.4864-.1564 2.186-.419.5977-.232 1.1405-.5859 1.5938-1.0392.4534-.4533.8073-.9962 1.0392-1.5938.263-.7.404-1.438.419-2.187.043-.962.056-1.267.056-3.71-.002-2.44204-.002-2.75204-.058-3.70904zm-8.953 8.29704c-2.55401 0-4.62301-2.069-4.62301-4.623 0-2.55404 2.069-4.62304 4.62301-4.62304 1.2261 0 2.402.48706 3.2689 1.35404.867.86698 1.3541 2.0429 1.3541 3.269s-.4871 2.4019-1.3541 3.2689c-.8669.867-2.0428 1.3541-3.2689 1.3541zm4.807-8.33904c-.1416.00013-.2818-.02766-.4127-.08179-.1308-.05413-.2497-.13353-.3499-.23366-.1001-.10013-.1795-.21902-.2336-.34986-.0541-.13085-.0819-.27109-.0818-.41269 0-.1415.0279-.28162.082-.41234.0542-.13073.1335-.24952.2336-.34957.1-.10006.2188-.17942.3496-.23357.1307-.05415.2708-.08202.4123-.08202s.2816.02787.4123.08202c.1308.05415.2495.13351.3496.23357.1001.10005.1794.21884.2336.34957.0541.13072.082.27084.082.41234 0 .596-.482 1.078-1.077 1.078z" />
        <path
            d="m11.994 14.9821c1.6585 0 3.003-1.3445 3.003-3.003s-1.3445-3.00303-3.003-3.00303-3.003 1.34453-3.003 3.00303 1.3445 3.003 3.003 3.003z" />
    </g>
</svg>