<svg height="24" viewBox="0 0 45.999 45.999" width="24" xmlns="http://www.w3.org/2000/svg">
    <path
        d="m39.264 6.736c-8.982-8.981-23.545-8.982-32.528 0-8.982 8.982-8.981 23.545 0 32.528 8.982 8.98 23.545 8.981 32.528 0 8.981-8.983 8.98-23.545 0-32.528zm-13.265 26.264c0 1.657-1.343 3-3 3s-3-1.343-3-3v-12c0-1.657 1.343-3 3-3s3 1.343 3 3zm-3.053-17.128c-1.728 0-2.88-1.224-2.844-2.735-.036-1.584 1.116-2.771 2.879-2.771 1.764 0 2.88 1.188 2.917 2.771-.001 1.511-1.152 2.735-2.952 2.735z"
        fill="#808080" />
</svg>