<svg height="24" viewBox="0 0 24 24" width="24" xmlns="http://www.w3.org/2000/svg">
    <g fill="#808080">
        <path
            d="m12 .021a10.077 10.077 0 0 0 -10.065 10.066c0 5.274 8.166 12.329 9.1 13.117l.967.817.967-.817c.932-.788 9.1-7.843 9.1-13.117a10.077 10.077 0 0 0 -10.069-10.066zm0 20.043c-3.065-2.792-7.067-7.328-7.067-9.977a7.067 7.067 0 1 1 14.134 0c0 2.644-4.003 7.182-7.067 9.977z" />
        <path d="m9.003 10.002a2.997 2.997 0 1 1 5.994 0 2.997 2.997 0 1 1 -5.994 0" />
    </g>
</svg>