<svg height="24" viewBox="0 0 512 512" width="24" xmlns="http://www.w3.org/2000/svg">
    <g fill="#808080">
        <path
            d="m255.104 512.171-14.871-12.747c-20.501-17.166-199.508-171.763-199.508-284.847 0-118.398 95.981-214.379 214.379-214.379s214.379 95.981 214.379 214.379c0 113.085-179.007 267.682-199.423 284.932zm0-465.618c-92.753.105-167.918 75.27-168.023 168.023 0 71.042 110.132 184.53 168.023 236.473 57.892-51.964 168.023-165.517 168.023-236.473-.105-92.753-75.269-167.917-168.023-168.023z" />
        <path
            d="m255.104 299.555c-46.932 0-84.978-38.046-84.978-84.978s38.046-84.978 84.978-84.978 84.978 38.046 84.978 84.978-38.045 84.978-84.978 84.978zm0-127.468c-23.466 0-42.489 19.023-42.489 42.489s19.023 42.489 42.489 42.489 42.489-19.023 42.489-42.489-19.022-42.489-42.489-42.489z" />
    </g>
</svg>