<svg enable-background="new 0 0 508.779 508.779" height="512" viewBox="0 0 508.779 508.779"
    width="512" xmlns="http://www.w3.org/2000/svg">
    <g fill="#808080">
        <path
            d="m403.723 180.395v-31.061c0-82.475-66.859-149.334-149.334-149.334s-149.333 66.859-149.333 149.333v31.061c-39.236 20.023-63.952 60.334-64 104.384v106.667c.071 64.772 52.561 117.263 117.333 117.333h192c64.772-.071 117.263-52.561 117.333-117.333v-106.666c-.047-44.05-24.763-84.362-63.999-104.384zm-149.334-116.395c47.128 0 85.333 38.205 85.333 85.333v18.112h-170.666v-18.112c0-47.128 38.205-85.333 85.333-85.333zm149.334 327.445c0 29.455-23.878 53.333-53.333 53.333h-192c-29.455 0-53.333-23.878-53.333-53.333v-106.666c0-29.455 23.878-53.333 53.333-53.333h192c29.455 0 53.333 23.878 53.333 53.333z" />
        <path
            d="m243.723 295.445h21.333c17.673 0 32 14.327 32 32 0 17.673-14.327 32-32 32h-21.333c-17.673 0-32-14.327-32-32 0-17.673 14.327-32 32-32z" />
    </g>
</svg>