<svg height="24" viewBox="0 0 512 512" width="24" xmlns="http://www.w3.org/2000/svg">
    <path
        d="m405.333 179.712v-30.379c0-82.474-66.858-149.333-149.333-149.333s-149.333 66.859-149.333 149.333v30.379c-38.826 16.945-63.944 55.259-64 97.621v128c.07 58.881 47.785 106.597 106.666 106.667h213.333c58.881-.07 106.596-47.786 106.667-106.667v-128c-.055-42.362-25.174-80.676-64-97.621zm-128 182.955c0 11.782-9.551 21.333-21.333 21.333s-21.333-9.551-21.333-21.333v-42.667c0-11.782 9.551-21.333 21.333-21.333s21.333 9.551 21.333 21.333zm85.334-192h-213.334v-21.333c0-58.91 47.756-106.667 106.667-106.667s106.667 47.756 106.667 106.667z"
        fill="#808080" />
</svg>