<svg fill="none" height="91" width="123" xmlns="http://www.w3.org/2000/svg">
    <g fill="#282828">
        <path
            d="M16.424 1.296a9.134 9.134 0 0 1 3.748 3.701c.886 1.6 1.329 3.46 1.329 5.572s-.443 3.973-1.329 5.572a9.134 9.134 0 0 1-3.748 3.701c-1.617.868-3.49 1.297-5.633 1.297H2.255V0h8.537c2.141 0 4.015.429 5.632 1.296Zm-1.41 13.831c1.07-1.129 1.606-2.645 1.606-4.558 0-1.913-.247-2.373-.731-3.303a5.249 5.249 0 0 0-2.05-2.175c-.885-.512-1.894-.773-3.048-.773H7.136V16.81h3.655c1.74 0 3.152-.565 4.222-1.694v.01ZM34.465 6.262c.67.251 1.257.617 1.75 1.098l-1.966 3.47a5.673 5.673 0 0 0-1.163-.574 3.388 3.388 0 0 0-1.133-.178c-.989 0-1.771.324-2.348.962-.577.648-.865 1.589-.865 2.833v7.245h-4.665V6.22h4.078l.36 1.872c.948-1.464 2.256-2.206 3.924-2.206 1.668 0 1.349.125 2.018.376h.01ZM36.206 20.71c-.504-.48-.762-1.098-.762-1.84s.258-1.359.762-1.84c.505-.48 1.154-.721 1.947-.721.793 0 1.41.24 1.915.721.505.481.762 1.098.762 1.84s-.258 1.36-.762 1.84c-.505.481-1.143.721-1.915.721-.773 0-1.442-.24-1.947-.72ZM14.581 86.489C9.927 83.949 6.333 80.384 3.8 75.794 1.267 71.204 0 65.925 0 59.956c0-5.97 1.297-11.26 3.882-15.88 2.585-4.61 6.189-8.186 10.823-10.695 4.623-2.52 9.906-3.774 15.847-3.774 8.444 0 15.683 3.01 21.727 9.043l-8.248 8.374c-3.645-3.534-8.032-5.311-13.15-5.311-5.117 0-6.466.763-9.102 2.279-2.647 1.526-4.686 3.659-6.127 6.43-1.442 2.76-2.162 5.948-2.162 9.534 0 3.586.72 6.774 2.162 9.534 1.441 2.76 3.48 4.903 6.127 6.43 2.636 1.526 5.674 2.279 9.103 2.279 3.429 0 5.334-.502 7.836-1.495a18.95 18.95 0 0 0 6.539-4.307l7.836 8.875c-6.158 6.022-13.582 9.043-22.294 9.043-8.711 0-11.553-1.275-16.218-3.816v-.01ZM100.543 48.017v40.96h-11.11l-.814-4.892c-3.43 3.815-7.898 5.718-13.397 5.718-5.499 0-7.095-.899-10.01-2.697-2.913-1.798-5.19-4.307-6.816-7.548-1.637-3.23-2.45-6.92-2.45-11.071 0-4.15.813-7.841 2.45-11.071 1.637-3.23 3.903-5.75 6.817-7.548 2.914-1.799 6.25-2.698 10.009-2.698 3.758 0 5.23.481 7.517 1.453a16.376 16.376 0 0 1 5.88 4.193l.813-4.81h11.111v.011ZM85.19 76.003c1.802-1.902 2.698-4.411 2.698-7.506 0-3.094-.896-5.593-2.698-7.506-1.802-1.903-4.11-2.865-6.94-2.865-2.833 0-5.129.973-6.9 2.907-1.771 1.934-2.657 4.422-2.657 7.464 0 3.042.886 5.53 2.657 7.465 1.771 1.934 4.067 2.906 6.9 2.906 2.83 0 5.148-.951 6.94-2.865ZM110.181 30.935h12.82v58.042h-12.82V30.935Z" />
    </g>
</svg>
