<svg fill="none" height="24" width="24" xmlns="http://www.w3.org/2000/svg">
    <g clip-path="url(#a)">
        <path
            d="m20.467 7.694.246-.566a4.36 4.36 0 0 1 2.22-2.25l.76-.339a.53.53 0 0 0 0-.963l-.718-.319a4.37 4.37 0 0 1-2.25-2.326L20.47.32a.506.506 0 0 0-.942 0l-.253.61a4.37 4.37 0 0 1-2.25 2.327l-.718.32a.53.53 0 0 0 0 .962l.76.338a4.36 4.36 0 0 1 2.22 2.251l.245.566c.18.414.754.414.935 0Zm-6.08-2.355c.273.433.648.754 1.123.961l.565.247c.38.165.688.398.924.698V10a5 5 0 1 1-10 0V6a5 5 0 0 1 7.996-4.003c-.24.18-.443.401-.61.664A2.46 2.46 0 0 0 14 4c0 .484.13.93.387 1.339M3.055 11H5.07a7.002 7.002 0 0 0 13.858 0h2.016A9.004 9.004 0 0 1 13 18.945V23h-2v-4.055A9.004 9.004 0 0 1 3.055 11Z"
            fill="#041330" />
    </g>
    <defs>
        <clipPath id="a">
            <path d="M0 0h24v24H0z" fill="#fff" />
        </clipPath>
    </defs>
</svg>
