<svg height="24" viewBox="0 0 512.465 512.465" width="24" xmlns="http://www.w3.org/2000/svg">
    <g fill="#808080">
        <path
            d="m406.428 167.05c1.936.789 3.986 1.183 6.037 1.183s4.102-.394 6.037-1.183c3.814-1.554 93.417-38.814 93.417-104.454 0-34.388-28.368-62.364-63.238-62.364-13.113 0-25.706 3.983-36.216 11.233-10.51-7.25-23.103-11.233-36.216-11.233-34.87 0-63.238 27.976-63.238 62.364 0 65.64 89.602 102.9 93.417 104.454zm-30.179-134.818c9.318 0 18.084 4.006 24.049 10.99 3.04 3.559 7.486 5.609 12.167 5.609s9.127-2.05 12.167-5.609c5.965-6.984 14.73-10.99 24.049-10.99 17.225 0 31.238 13.621 31.238 30.364 0 33.391-44.068 61.098-67.346 72.094-17.481-8.46-67.563-35.874-67.563-72.094.001-16.743 14.014-30.364 31.239-30.364z" />
        <path
            d="m348.359 176.282c-26.227-36.072-62.082-61.243-104.154-72.989-35.897-9.942-73.122-9.588-107.648 1.023-32.317 9.932-61.746 28.539-85.104 53.809-23.283 25.189-39.507 55.869-46.918 88.723-7.875 34.914-5.461 71.468 6.983 105.72 22.612 63.653 77.84 111.22 144.146 124.14.05.01.099.019.149.028 12.28 2.272 23.398 3.307 28.531 3.307 8.836 0 16-7.164 16-16s-7.164-16-16-16c-2.414 0-11.459-.695-22.64-2.76-55.234-10.792-101.231-50.437-120.051-103.48-.014-.04-.028-.079-.042-.118-20.552-56.518-8.088-117.019 33.341-161.839 41.576-44.98 101.654-62.069 160.68-45.723 28.734 8.022 54.04 23.638 74.329 45.679-76.141 15.957-133.497 83.618-133.497 164.431 0 92.636 75.364 168 168 168s168-75.364 168-168c.001-91.334-73.261-165.874-164.105-167.951zm-3.894 303.95c-25.163 0-48.746-6.877-68.983-18.839 70.926-34.072 115.371-109.526 108.296-189.441-.643-7.849-2.189-20.053-5.906-33.729l-.073-.268c-2.017-8.286-10.228-13.582-18.673-11.895-8.665 1.729-14.289 10.154-12.562 18.82.04.198.171.79.428 1.735 3.086 11.355 4.366 21.492 4.896 27.997.003.038.007.076.01.114 6.391 71.975-37.449 139.622-105.109 164.034-23.708-24.49-38.324-57.833-38.324-94.53 0-74.991 61.01-136 136-136s136 61.009 136 136-61.01 136.002-136 136.002zm33.359-242.166c.063.26.1.447.122.557-.038-.188-.078-.373-.122-.557z" />
    </g>
</svg>