<svg height="24" viewBox="0 0 24 24" width="24" xmlns="http://www.w3.org/2000/svg">
    <g fill="#808080">
        <path
            d="m20 0h-16a4 4 0 0 0 -4 4v12a4 4 0 0 0 4 4h2.9l4.451 3.763a1 1 0 0 0 1.292 0l4.457-3.763h2.9a4 4 0 0 0 4-4v-12a4 4 0 0 0 -4-4zm2 16a2 2 0 0 1 -2 2h-2.9a2 2 0 0 0 -1.291.473l-3.809 3.217-3.807-3.217a2 2 0 0 0 -1.293-.473h-2.9a2 2 0 0 1 -2-2v-12a2 2 0 0 1 2-2h16a2 2 0 0 1 2 2z" />
        <path d="m7 7h5a1 1 0 0 0 0-2h-5a1 1 0 0 0 0 2z" />
        <path d="m17 9h-10a1 1 0 0 0 0 2h10a1 1 0 0 0 0-2z" />
        <path d="m17 13h-10a1 1 0 0 0 0 2h10a1 1 0 0 0 0-2z" />
    </g>
</svg>