<svg height="24" viewBox="0 0 471 471.7209" width="24" xmlns="http://www.w3.org/2000/svg">
    <g fill="#808080">
        <path
            d="m141.008 221.5c0 55.785 45.223 101.008 101.008 101.008s101.008-45.223 101.008-101.008-45.223-101.008-101.008-101.008c-55.758.063-100.945 45.25-101.008 101.008zm101.008 6.383c-16.762.094-30.965-12.32-33.109-28.945-2.145-16.621 8.441-32.238 24.68-36.398v-8.539c0-3.867 3.133-7 7-7s7 3.133 7 7v8.113c15.883 2.688 27.477 16.496 27.375 32.609 0 3.82-3.098 6.918-6.918 6.918s-6.918-3.098-6.918-6.918c-.012-10.574-8.59-19.137-19.164-19.125s-19.137 8.594-19.121 19.168c.012 10.57 8.594 19.133 19.168 19.117 17.145.098 31.383 13.254 32.832 30.34 1.449 17.082-10.371 32.449-27.254 35.434v8.344c0 3.867-3.133 7-7 7s-7-3.133-7-7v-8.773c-14.629-3.863-24.852-17.051-24.949-32.18 0-3.91 3.172-7.082 7.082-7.082s7.082 3.172 7.082 7.082c.023 9.777 7.391 17.977 17.109 19.043.359-.059.727-.086 1.094-.09.527 0 1.051.063 1.566.18 10.5-.258 18.832-8.922 18.68-19.422-.152-10.504-8.734-18.922-19.234-18.875zm0 0" />
        <path
            d="m404.121 370.668c-.051.027-.105.055-.164.082l-64.98 30.699c.699 3.598 1.004 7.258.906 10.922-.102 3.789-3.203 6.809-6.992 6.809-.066 0-.133 0-.199 0l-95.102-2.617c-3.867-.105-6.914-3.324-6.809-7.191s3.328-6.914 7.191-6.809l87.418 2.406c-2.898-16.941-17.344-29.488-34.523-29.988l-57.852-1.59c-11.426-.328-22.629-3.223-32.781-8.469l-5.887-3.047c-28.91-15.063-63.746-13.102-90.781 5.113l-2.316 84.16 9.941-5.324c9.879-5.313 21.438-6.578 32.234-3.527l98.18 27.559c18.922 3.875 38.586 1.68 56.188-6.281l136.02-87.984c-7.762-7.945-19.781-9.941-29.691-4.922zm0 0" />
        <path d="m37.359 465.766 3.449-125.215 49.445 1.363-3.449 125.215zm0 0" />
        <path
            d="m248.586 83v-76c0-3.867-3.133-7-7-7s-7 3.133-7 7v76c0 3.867 3.133 7 7 7s7-3.133 7-7zm0 0" />
        <path
            d="m308.586 83v-36c0-3.867-3.133-7-7-7s-7 3.133-7 7v36c0 3.867 3.133 7 7 7s7-3.133 7-7zm0 0" />
        <path
            d="m188.586 83v-36c0-3.867-3.133-7-7-7s-7 3.133-7 7v36c0 3.867 3.133 7 7 7s7-3.133 7-7zm0 0" />
    </g>
</svg>