<svg height="24" viewBox="0 0 510.7 510.7" width="24" xmlns="http://www.w3.org/2000/svg">
    <g fill="#808080">
        <path
            d="m139.288 194.395c27.534 0 49.935-22.401 49.935-49.935s-22.401-49.935-49.935-49.935-49.935 22.401-49.935 49.935 22.401 49.935 49.935 49.935zm0-69.87c10.992 0 19.935 8.943 19.935 19.935s-8.943 19.935-19.935 19.935-19.935-8.943-19.935-19.935 8.943-19.935 19.935-19.935z" />
        <path
            d="m460.065 339.954h-20.353c.538-2.889 1.752-6.371 4.229-10.211 7.626-11.818 9.257-22.255 10.695-31.464.907-5.803 1.764-11.284 4.094-17.608 2.064-5.602 6.035-10.152 10.101-13.619l14.07 34.682 27.799-11.278-50.304-124.389-12.221 2.473c-1.395.282-34.405 7.354-55.046 45.576-15.065 27.898-48.984 49.559-90.249 58.239l-8.225-30.175-14.667 4.293c-28.364 8.301-42.815 15.631-71.839 33.442-9.918 6.086-23.149 9.823-39.544 11.206 7.295-9.797 27.204-36.107 27.204-36.107 20.404-26.695 48.349-63.255 48.349-110.554 0-57.825-47.044-104.869-104.869-104.869s-104.87 47.044-104.87 104.869c0 47.299 27.944 83.859 48.349 110.554 0 0 18.552 24.501 25.505 33.827-23.471-.397-41.755 5.92-55.618 19.156-16.171 15.439-22.754 40.986-17.554 64.357l-35.101 23.343 41.5 75.053h20.131l15.554-17.504c15.698-17.665 38.254-27.796 61.885-27.796 19.934 0 39.236 7.226 54.352 20.347 17.204 14.933 33.913 23.304 49.663 24.879 2.982.298 5.814.434 8.515.434 14.611 0 25.36-3.961 35.022-7.522 10.89-4.013 19.494-7.183 33.979-5.304 6.12.793 11.691 1.172 16.795 1.172 28.626-.001 42.347-11.939 53.158-29.678 3.734-6.127 8.947-9.666 13.918-11.216 11.009-3.433 24.963 11.156 24.963 11.156l28.343-13.931c5.043 13.879 7.605 28.395 7.605 43.213h30c0-20.02-3.77-39.597-11.203-58.186zm-320.777-270.363c41.283 0 74.869 33.586 74.869 74.869 0 37.147-23.39 67.748-42.184 92.336 0 0-24.625 32.613-32.686 43.479-8.061-10.866-32.686-43.479-32.686-43.479-18.794-24.588-42.184-55.189-42.184-92.336.002-41.283 33.588-74.869 74.871-74.869zm292.681 325.452c-13.559-7.445-25.3-7.482-33.26-5.924-13.553 2.653-25.546 11.548-33.771 25.045-5.944 9.755-11.082 18.18-40.479 14.368-21.809-2.826-35.833 2.344-48.211 6.906-10.02 3.693-17.935 6.611-30.178 5.386-9.324-.932-20.729-7.048-32.983-17.684-20.572-17.857-46.858-27.692-74.017-27.692-32.094 0-62.733 13.717-84.111 37.645l-15.33-27.724 31.825-21.165-4.866-11.459c-7.178-16.903-1.863-34.797 6.783-43.052 9.915-9.466 23.915-12.582 45.393-10.104 46.494 5.364 80.865.75 105.076-14.107 21.556-13.228 33.442-19.753 50.004-25.579l7.152 26.241 13.07-1.82c57.174-7.959 104.074-36.354 125.459-75.956 7.252-13.428 16.334-21.122 23.403-25.419l14.237 35.346c-9.283 6.198-20.9 16.567-26.587 32.001-3.36 9.121-4.541 16.68-5.583 23.349-1.257 8.044-2.088 13.359-6.263 19.829-16.127 24.992-6.872 45.742-5.764 48.026l4.102 8.451h22.565l7.035 17.861z" />
    </g>
</svg>