<svg fill="none" height="22" width="22" xmlns="http://www.w3.org/2000/svg">
    <path
        d="M18.863 7.145c-.802-1.4-2.039-2.183-3.677-2.33-.867-.077-1.675.145-2.459.36-.608.167-1.182.325-1.727.325-.545 0-1.117-.158-1.721-.325-.786-.215-1.598-.441-2.468-.36-1.564.147-2.815.95-3.623 2.324-.747 1.273-1.126 3.034-1.126 5.236 0 1.736.645 3.888 1.72 5.758.55.956 2.019 3.18 3.744 3.18 1.323 0 2.026-.406 2.54-.702.357-.206.572-.33.932-.33.36 0 .576.125.932.33.516.296 1.218.701 2.542.701 1.726 0 3.194-2.224 3.745-3.18 1.077-1.868 1.719-4.02 1.719-5.757.002-2.259-.35-3.97-1.073-5.23Zm-9.582 7.98c-.57 0-1.031-.923-1.031-2.063 0-1.139.462-2.062 1.031-2.062.57 0 1.031.923 1.031 2.063 0 1.139-.461 2.062-1.03 2.062Zm3.438 0c-.57 0-1.031-.923-1.031-2.063 0-1.139.461-2.062 1.03-2.062.57 0 1.032.923 1.032 2.063 0 1.139-.462 2.062-1.031 2.062Z"
        fill="#999" />
    <path
        d="M11.391 4.81a4.424 4.424 0 0 0 2.528-1.238 4.21 4.21 0 0 0 1.203-2.5.343.343 0 0 0-.367-.384c-.547.04-1.58.252-2.524 1.196A4.194 4.194 0 0 0 11 4.434a.344.344 0 0 0 .391.376Z"
        fill="#999" />
</svg>
