<svg fill="none" height="20" viewBox="0 0 20 20" width="20" xmlns="http://www.w3.org/2000/svg">
    <path
        d="M6.72488 10.4526L13.6911 17.0901C13.8074 17.2009 13.9618 17.2627 14.1224 17.2627C14.283 17.2627 14.4374 17.2009 14.5536 17.0901L14.5611 17.0826C14.6177 17.0289 14.6627 16.9642 14.6935 16.8925C14.7242 16.8209 14.7401 16.7437 14.7401 16.6657C14.7401 16.5877 14.7242 16.5105 14.6935 16.4389C14.6627 16.3672 14.6177 16.3025 14.5611 16.2488L8.00113 9.99883L14.5611 3.75133C14.6177 3.69761 14.6627 3.63295 14.6935 3.56128C14.7242 3.48962 14.7401 3.41244 14.7401 3.33445C14.7401 3.25646 14.7242 3.17928 14.6935 3.10762C14.6627 3.03595 14.6177 2.97129 14.5611 2.91758L14.5536 2.91008C14.4374 2.79927 14.283 2.73746 14.1224 2.73746C13.9618 2.73746 13.8074 2.79927 13.6911 2.91008L6.72488 9.54758C6.66362 9.60595 6.61484 9.67615 6.58152 9.75393C6.54819 9.83172 6.53101 9.91546 6.53101 10.0001C6.53101 10.0847 6.54819 10.1684 6.58152 10.2462C6.61484 10.324 6.66362 10.3942 6.72488 10.4526Z"
        fill="black" />
</svg>