<svg height="24" viewBox="0 0 335.288 335.288" width="24" xmlns="http://www.w3.org/2000/svg">
    <g fill="#808080">
        <path
            d="m131.578 322.058c4.521 5.194 12.881 6.388 18.694 2.679l142.179-91.014c5.809-3.715 6.004-10.029.463-14.109l-11.436-8.391-73.411 49.913-3.014-.085c-63.842-1.809-90.54-33.893-93.996-38.417l-71.267-80.745-34.151 17.19c-6.15 3.093-7.478 9.818-2.95 15.013z" />
        <path
            d="m113.073 209.232c2.773 3.696 28.458 35.487 91.651 37.278l2.016.055 121.93-82.889c4.67-3.173 7.062-7.551 6.551-12.018-.511-4.481-3.859-8.235-9.188-10.293-64.411-24.877-99.217-72.153-122.246-103.43-7.216-9.804-12.915-17.546-18.237-22.877-6.612-6.628-18.529-8.793-27.121-4.29l-130.084 72.498c-4.613 2.415-7.761 6.503-8.634 11.216-.874 4.716.605 9.654 4.046 13.563zm-78.803-115 130.08-72.491c1.193-.63 2.682-.953 4.296-.953 3.081 0 6.168 1.179 8.068 3.075 4.651 4.677 10.388 12.458 17.019 21.461 22.438 30.476 59.997 81.482 127.8 107.677.14.055.273.113.39.162-.085.064-.171.131-.28.198l-118.562 80.611c-57.579-2.29-79.88-32.005-80.081-32.291l-89.89-101.892c-.91-1.029-1.315-2.107-1.142-3.042.177-.929.944-1.796 2.302-2.515z" />
        <path
            d="m133.38 198.357c11.983 9.134 35.366 22.663 69.279 23.303.487.03-17.579-2.49-23.047-14.741-2.802-6.297-8.041-10.577-14.876-9.67-8.242 1.108-19.434 1.541-29.566-1.632-6.579-2.058-7.27-1.437-1.79 2.74z" />
    </g>
</svg>