<svg height="24" viewBox="0 0 24 24" width="24" xmlns="http://www.w3.org/2000/svg">
    <path
        d="m19.1 12.9a2.8 2.8 0 0 0 .1-.9 2.8 2.8 0 0 0 -.1-.9l2.1-1.6a.7.7 0 0 0 .1-.6l-1.9-3.4a.7.7 0 0 0 -.6-.2l-2.4 1a6.5 6.5 0 0 0 -1.6-.9l-.4-2.6a.5.5 0 0 0 -.5-.4h-3.8a.5.5 0 0 0 -.5.4l-.3 2.6a5.6 5.6 0 0 0 -1.7.9l-2.4-1a.4.4 0 0 0 -.5.2l-2 3.4c-.1.2 0 .4.2.6l2 1.6a2.8 2.8 0 0 0 -.1.9 2.8 2.8 0 0 0 .1.9l-2.1 1.6a.7.7 0 0 0 -.1.6l1.9 3.4a.7.7 0 0 0 .6.2l2.4-1a6.5 6.5 0 0 0 1.6.9l.4 2.6a.5.5 0 0 0 .5.4h3.8a.5.5 0 0 0 .5-.4l.3-2.6a5.6 5.6 0 0 0 1.7-.9l2.4 1a.4.4 0 0 0 .5-.2l2-3.4c.1-.2 0-.4-.2-.6zm-7.1 2.7a3.6 3.6 0 1 1 3.6-3.6 3.6 3.6 0 0 1 -3.6 3.6z"
        fill="#808080" />
</svg>