<svg fill="none" height="16" viewBox="0 0 16 16" width="16" xmlns="http://www.w3.org/2000/svg">
    <g clip-path="url(#clip0_656_8249)">
        <path
            d="M13.9769 10.6464C14.1451 10.713 14.3281 10.75 14.5197 10.75C15.336 10.75 16 10.0859 16 9.26964V7.91467C16 7.09842 15.336 6.43436 14.5197 6.43436C14.3281 6.43436 14.1451 6.47136 13.9769 6.53789V4.48633H6.35666V7.54392C5.70478 7.5927 5.05784 7.74327 4.43631 7.99583C4.05334 8.15148 3.75194 8.44611 3.58759 8.82545C3.5135 8.99648 3.47134 9.17611 3.46066 9.35714C3.30044 9.40789 3.14203 9.46477 2.98703 9.52777C2.60406 9.68342 2.30266 9.97805 2.13831 10.3574C2.06422 10.5284 2.02206 10.708 2.01137 10.8891C1.85116 10.9398 1.69278 10.9967 1.53775 11.0597C1.15478 11.2153 0.853344 11.51 0.689 11.8893C0.588531 12.1213 0.5465 12.369 0.562719 12.6146H0V13.6446C0 14.6275 0.799625 15.4271 1.78253 15.4271H12.28C13.2629 15.4271 14.0625 14.6275 14.0625 13.6446V12.6146H13.4955C13.8074 12.1169 13.9769 11.5371 13.9769 10.9289V10.6464H13.9769ZM9.98606 10.2769C10.0957 10.3135 10.2042 10.353 10.3108 10.3963C10.6271 10.5249 10.7847 10.8888 10.6622 11.2075L10.121 12.6147H9.08691L9.98606 10.2769ZM11.4353 11.8088C11.5449 11.8454 11.6535 11.8849 11.7601 11.9282C12.0357 12.0402 12.1907 12.3309 12.145 12.6147H11.1254L11.4353 11.8088ZM14.5197 7.37189C14.819 7.37189 15.0625 7.61539 15.0625 7.9147V9.26967C15.0625 9.56898 14.819 9.81248 14.5197 9.81248C14.2204 9.81248 13.9769 9.56898 13.9769 9.26967V7.9147C13.9769 7.61539 14.2204 7.37189 14.5197 7.37189ZM13.0394 5.42389V10.9289C13.0394 11.2123 12.9872 11.4869 12.8884 11.7419C12.7152 11.4338 12.4448 11.1946 12.1131 11.0598C11.9581 10.9968 11.7997 10.9399 11.6395 10.8891C11.6288 10.7081 11.5866 10.5285 11.5125 10.3575C11.3482 9.97811 11.0468 9.68349 10.6638 9.52783C10.5088 9.46483 10.3504 9.40795 10.1902 9.3572C10.1795 9.17617 10.1373 8.99658 10.0632 8.82552C9.89891 8.44617 9.5975 8.15155 9.2145 7.99589C8.593 7.7433 7.94603 7.59277 7.29416 7.54395V5.42386L13.0394 5.42389ZM4.78928 8.86439C6.10231 8.33077 7.5485 8.33077 8.8615 8.86439C9.17784 8.99295 9.33547 9.35686 9.21291 9.67558L8.08247 12.6147H5.56828L4.43784 9.67558C4.31531 9.35686 4.47294 8.99295 4.78928 8.86439ZM3.34 10.3963C3.44656 10.353 3.55513 10.3135 3.66472 10.2769L4.56384 12.6147H3.52978L2.98856 11.2075C2.866 10.8888 3.02366 10.5249 3.34 10.3963ZM1.89069 11.9282C1.99725 11.8849 2.10581 11.8454 2.21541 11.8088L2.52534 12.6147H1.50578C1.46009 12.3309 1.61506 12.0403 1.89069 11.9282ZM13.125 13.6446C13.125 14.1106 12.7459 14.4897 12.28 14.4897H1.78253C1.31659 14.4897 0.9375 14.1106 0.9375 13.6446V13.5522H13.125V13.6446Z"
            fill="#7E7E7E" />
        <path
            d="M8.36255 3.54907H9.30005C9.30005 3.29354 9.35674 3.18647 9.44258 3.02444C9.55464 2.81285 9.69414 2.5495 9.69414 2.061C9.69414 1.5725 9.55467 1.30913 9.44261 1.0975C9.35677 0.93541 9.30008 0.828348 9.30008 0.572754H8.36258C8.36258 1.06129 8.50205 1.32466 8.61411 1.53625C8.69995 1.69835 8.75664 1.80538 8.75664 2.061C8.75664 2.31653 8.69995 2.4236 8.61411 2.58563C8.50202 2.79725 8.36255 3.0606 8.36255 3.54907Z"
            fill="#7E7E7E" />
        <path
            d="M10.6394 3.54904H11.5769C11.5769 3.2935 11.6336 3.18644 11.7194 3.02441C11.8315 2.81282 11.971 2.54947 11.971 2.061C11.971 1.5725 11.8315 1.30913 11.7194 1.0975C11.6336 0.935441 11.5769 0.828379 11.5769 0.572754H10.6394C10.6394 1.06129 10.7789 1.32463 10.8909 1.53625C10.9768 1.69832 11.0335 1.80538 11.0335 2.061C11.0335 2.31653 10.9768 2.4236 10.8909 2.58563C10.7789 2.79722 10.6394 3.06057 10.6394 3.54904Z"
            fill="#7E7E7E" />
    </g>
    <defs>
        <clipPath id="clip0_656_8249">
            <rect fill="white" height="16" width="16" />
        </clipPath>
    </defs>
</svg>