<svg id="Layer_1" style="enable-background:new 0 0 64 64" version="1.1" viewBox="0 0 64 64" xml:space="preserve" xmlns="http://www.w3.org/2000/svg">
    <style>
        .st1{fill:none;stroke:#00b1e4;stroke-width:2;stroke-linecap:round;stroke-linejoin:round;stroke-miterlimit:10}
    </style>
    <path d="M40.6 20.6c0 .7-.1 1.5-.3 2.1-1 3.7-4.3 6.4-8.3 6.4s-7.3-2.7-8.3-6.4c-.2-.7-.3-1.4-.3-2.1 0-4.7 3.8-8.6 8.6-8.6s8.6 3.8 8.6 8.6z" style="fill:none;stroke:#126bb5;stroke-width:2;stroke-miterlimit:10"/>
    <path d="M40.3 22.7c-1 3.7-4.3 6.4-8.3 6.4s-7.3-2.7-8.3-6.4c.9-3.7 4.3-6.4 8.3-6.4s7.3 2.7 8.3 6.4z" style="fill:none;stroke:#00b1e4;stroke-width:2;stroke-miterlimit:10"/>
    <path d="M43 52h4.7v-1.4c0-8.7-7-15.7-15.7-15.7h0c-8.7 0-15.7 7-15.7 15.7V52H21" style="fill:none;stroke:#126bb5;stroke-width:2;stroke-linecap:round;stroke-linejoin:round;stroke-miterlimit:10"/>
    <path class="st1" d="M27 44h10v8H27zM35 44h-6v-2c0-1.7 1.3-3 3-3h0c1.7 0 3 1.3 3 3v2zM32 48h0"/>
</svg>
