<svg height="24" viewBox="0 0 24 24" width="24" xmlns="http://www.w3.org/2000/svg">
    <g fill="#808080">
        <path
            d="m11.122 12.536a3 3 0 0 0 -4.244 0l-6.84 6.84a4.991 4.991 0 0 0 4.962 4.624h14a4.969 4.969 0 0 0 2.753-.833z" />
        <path d="m16 6a2 2 0 1 1 4 0 2 2 0 1 1 -4 0" />
        <path
            d="m19 0h-14a5.006 5.006 0 0 0 -5 5v11.586l5.464-5.464a5 5 0 0 1 7.072 0l10.631 10.631a4.969 4.969 0 0 0 .833-2.753v-14a5.006 5.006 0 0 0 -5-5zm-1 10a4 4 0 1 1 4-4 4 4 0 0 1 -4 4z" />
    </g>
</svg>