<svg height="24" viewBox="0 0 56 56" width="24" xmlns="http://www.w3.org/2000/svg">
    <path
        d="m20.3194 6 15.7827.0013c3.7277.0238 5.6808.373 7.57 1.2968l.4195.2149c1.891 1.0113 3.3841 2.5044 4.3954 4.3954 1.0477 1.9591 1.4576 3.8506 1.5076 7.5825l.0053.8285v15.3611l-.0053.8285c-.05 3.7319-.4599 5.6234-1.5076 7.5825-1.0113 1.891-2.5044 3.3841-4.3954 4.3954-1.9591 1.0477-3.8506 1.4576-7.5825 1.5076l-.8285.0053h-15.3611l-.8285-.0053c-3.7319-.05-5.6234-.4599-7.5825-1.5076-1.891-1.0113-3.3841-2.5044-4.3954-4.3954-1.0477-1.9591-1.4576-3.8506-1.5076-7.5825l-.0053-.8285.0013-15.7827c.0238-3.7277.373-5.6808 1.2968-7.57l.2149-.4195c1.0113-1.891 2.5044-3.3841 4.3954-4.3954 1.9591-1.0477 3.8506-1.4576 7.5825-1.5076zm13.1585 22.0465-9.2335 11.0204c-.4914.5864-1.3377.7037-1.966.2951l-.1226-.0887-5.0969-4.0918-7.1368 7.0232c.0736.1583.1523.315.2363.4721.7317 1.3682 1.7966 2.4331 3.1648 3.1648 1.498.8011 2.9512 1.1159 6.2585 1.1543l.7378.0041h15.3611l.7378-.0041c3.3072-.0384 4.7605-.3532 6.2585-1.1543 1.3682-.7317 2.4331-1.7966 3.1648-3.1648.4375-.818.7299-1.6226.9115-2.723zm2.2027-19.0465h-15.3611l-.7378.0041c-3.3072.0384-4.7605.3532-6.2585 1.1543-1.3682.7317-2.4331 1.7966-3.1648 3.1648-.8584 1.605-1.1584 3.1586-1.1584 6.9963v15.3611l.0041.7378c.0107.9205.0428 1.6974.1008 2.3716l6.8023-6.6817c.5061-.4971 1.2846-.5675 1.868-.1879l.1219.0882 4.9908 4.0059 9.283-11.0778c.5111-.61 1.4014-.7091 2.0313-.2503l.1149.0926 12.6799 11.3651.003-.4634v-15.3611l-.0041-.7378c-.0384-3.3072-.3532-4.7605-1.1543-6.2585-.7317-1.3682-1.7966-2.4331-3.1648-3.1648-1.605-.8584-3.1586-1.1584-6.9963-1.1584zm-16.1806 8c1.3807 0 2.5 1.1193 2.5 2.5s-1.1193 2.5-2.5 2.5-2.5-1.1193-2.5-2.5 1.1193-2.5 2.5-2.5z"
        fill="#808080" />
</svg>