<svg fill="none" height="40" width="40" xmlns="http://www.w3.org/2000/svg">
    <path
        d="M0 8c0-3.772 0-5.656 1.172-6.828C2.344 0 4.228 0 8 0c3.772 0 5.656 0 6.828 1.172C16 2.344 16 4.228 16 8v24c0 3.772 0 5.656-1.172 6.828C13.656 40 11.772 40 8 40c-3.772 0-5.656 0-6.828-1.172C0 37.656 0 35.772 0 32V8Zm24 0c0-3.772 0-5.656 1.172-6.828C26.344 0 28.228 0 32 0c3.772 0 5.656 0 6.828 1.172C40 2.344 40 4.228 40 8v24c0 3.772 0 5.656-1.172 6.828C37.656 40 35.772 40 32 40c-3.772 0-5.656 0-6.828-1.172C24 37.656 24 35.772 24 32V8Z"
        fill="#FF5306" />
</svg>
