<svg height="24" viewBox="0 0 24 24" width="24" xmlns="http://www.w3.org/2000/svg">
    <g fill="#808080">
        <path
            d="m19 0h-14a5.006 5.006 0 0 0 -5 5v14a5.006 5.006 0 0 0 5 5h14a5.006 5.006 0 0 0 5-5v-14a5.006 5.006 0 0 0 -5-5zm-14 2h14a3 3 0 0 1 3 3v14a2.951 2.951 0 0 1 -.3 1.285l-9.163-9.163a5 5 0 0 0 -7.072 0l-3.465 3.464v-9.586a3 3 0 0 1 3-3zm0 20a3 3 0 0 1 -3-3v-1.586l4.878-4.878a3 3 0 0 1 4.244 0l9.163 9.164a2.951 2.951 0 0 1 -1.285.3z" />
        <path
            d="m16 10.5a3.5 3.5 0 1 0 -3.5-3.5 3.5 3.5 0 0 0 3.5 3.5zm0-5a1.5 1.5 0 1 1 -1.5 1.5 1.5 1.5 0 0 1 1.5-1.5z" />
    </g>
</svg>