<svg height="24" viewBox="0 0 24 24" width="24" xmlns="http://www.w3.org/2000/svg">
    <path
        d="m6 6c-.398 0-.779.158-1.061.439-.281.282-.439.663-.439 1.061v3.663c0 .398.158.779.439 1.061.282.281.663.439 1.061.439h2.082c0 .526-.032 1.054-.093 1.581-.093.558-.249 1.055-.465 1.488-.218.435-.496.775-.838 1.025-.341.278-.775.418-1.302.418v2.325c.868 0 1.627-.186 2.279-.558.647-.368 1.203-.877 1.628-1.488.426-.674.74-1.412.93-2.187.191-.855.285-1.728.279-2.604v-5.163c0-.398-.158-.779-.439-1.061-.282-.281-.663-.439-1.061-.439zm9 0c-.398 0-.779.158-1.061.439-.281.282-.439.663-.439 1.061v3.663c0 .398.158.779.439 1.061.282.281.663.439 1.061.439h2.082c0 .526-.031 1.054-.093 1.581-.093.558-.249 1.055-.465 1.488-.218.435-.496.775-.838 1.025-.341.278-.775.418-1.302.418v2.325c.868 0 1.627-.186 2.279-.558.647-.368 1.203-.877 1.628-1.488.426-.674.74-1.412.93-2.187.191-.855.285-1.728.279-2.604v-5.163c0-.398-.158-.779-.439-1.061-.282-.281-.663-.439-1.061-.439z"
        fill="#808080" />
</svg>