<svg height="24" viewBox="0 0 24 24" width="24" xmlns="http://www.w3.org/2000/svg">
    <path
        d="m18 18c.398 0 .779-.158 1.061-.439.281-.282.439-.663.439-1.061v-3.663c0-.398-.158-.779-.439-1.061-.282-.281-.663-.439-1.061-.439h-2.082c0-.526.032-1.054.093-1.581.093-.558.249-1.055.465-1.488.218-.435.496-.776.839-1.024.34-.28.773-.419 1.302-.419v-2.325c-.869 0-1.628.186-2.28.558-.647.368-1.203.877-1.628 1.488-.426.674-.74 1.413-.93 2.187-.191.855-.285 1.728-.279 2.604v5.163c0 .398.158.779.439 1.061.282.281.663.439 1.061.439zm-9 0c.398 0 .779-.158 1.061-.439.281-.282.439-.663.439-1.061v-3.663c0-.398-.158-.779-.439-1.061-.282-.281-.663-.439-1.061-.439h-2.082c0-.526.032-1.054.093-1.581.093-.558.249-1.055.465-1.488.218-.435.496-.776.838-1.024.341-.28.775-.419 1.302-.419v-2.325c-.868 0-1.627.186-2.279.558-.647.368-1.203.877-1.628 1.488-.426.674-.74 1.413-.93 2.187-.191.855-.285 1.728-.279 2.604v5.163c0 .398.158.779.439 1.061.282.281.663.439 1.061.439z"
        fill="#808080" />
</svg>