<svg height="24" viewBox="0 0 24 24" width="24" xmlns="http://www.w3.org/2000/svg">
    <g fill="#808080">
        <path
            d="m11.948 24.009-.354-.157c-.394-.173-9.594-4.328-9.594-11.852v-6.524a2.983 2.983 0 0 1 2.051-2.832l7.949-2.635 7.949 2.635a2.983 2.983 0 0 1 2.051 2.832v6.524c0 8.577-9.288 11.755-9.684 11.887zm.052-21.903-7.316 2.426a.992.992 0 0 0 -.684.944v6.524c0 5.494 6.44 9.058 8.047 9.861 1.604-.645 7.953-3.598 7.953-9.861v-6.524a.992.992 0 0 0 -.684-.944z" />
        <path
            d="m11.111 14.542h-.033a1.872 1.872 0 0 1 -1.345-.6l-2.306-2.4 1.441-1.382 2.244 2.34 5.181-5.181 1.414 1.414-5.261 5.261a1.873 1.873 0 0 1 -1.335.548z" />
    </g>
</svg>