<svg height="24" viewBox="0 0 24 24" width="24" xmlns="http://www.w3.org/2000/svg">
    <path
        d="m18.581 2.14-6.265-2.089a1 1 0 0 0 -.632 0l-6.265 2.089a4.993 4.993 0 0 0 -3.419 4.743v5.117c0 7.563 9.2 11.74 9.594 11.914a1 1 0 0 0 .812 0c.394-.174 9.594-4.351 9.594-11.914v-5.117a4.993 4.993 0 0 0 -3.419-4.743zm-1.863 7.577-4.272 4.272a1.873 1.873 0 0 1 -1.335.553h-.033a1.872 1.872 0 0 1 -1.345-.6l-2.306-2.4a1 1 0 1 1 1.441-1.382l2.244 2.34 4.188-4.2a1 1 0 0 1 1.414 1.414z"
        fill="#808080" />
</svg>