<svg fill="none" height="18" viewBox="0 0 20 18" width="20" xmlns="http://www.w3.org/2000/svg">
    <path
        d="M19.9865 1.01888C20.084 0.565014 19.639 0.182322 19.205 0.347946L0.377012 7.53538C0.150412 7.6219 0.000530883 7.83908 6.21378e-05 8.08162C-0.000406608 8.3242 0.148615 8.54197 0.374902 8.62935L5.66403 10.6721V17.1061C5.66403 17.3775 5.8504 17.6134 6.11446 17.6762C6.37676 17.7386 6.65027 17.6138 6.77324 17.3698L8.96076 13.0289L14.2991 16.9907C14.6239 17.2317 15.0906 17.0784 15.2088 16.6911C20.1931 0.349235 19.9776 1.05993 19.9865 1.01888ZM15.3388 3.07815L6.16692 9.61008L2.22055 8.08596L15.3388 3.07815ZM6.83589 10.5723L14.8307 4.87872C7.95127 12.1361 8.31057 11.7541 8.28057 11.7945C8.236 11.8544 8.35811 11.6207 6.83589 14.6414V10.5723ZM14.3303 15.5545L9.63126 12.0672L18.1277 3.10393L14.3303 15.5545Z"
        fill="#041330" fill-opacity="0.5" />
</svg>