<svg fill="none" height="20" width="20" xmlns="http://www.w3.org/2000/svg">
    <g clip-rule="evenodd" fill="#00143B" fill-opacity=".5" fill-rule="evenodd">
        <path
            d="M4 8a2 2 0 1 0 0 4 2 2 0 0 0 0-4Zm-4 2a4 4 0 1 1 8 0 4 4 0 0 1-8 0ZM16 2a2 2 0 1 0 0 4 2 2 0 0 0 0-4Zm-4 2a4 4 0 1 1 8 0 4 4 0 0 1-8 0ZM16 14a2 2 0 1 0 0 4 2 2 0 0 0 0-4Zm-4 2a4 4 0 1 1 8 0 4 4 0 0 1-8 0Z" />
        <path
            d="m13.474 5.88-6.5 3.5-.948-1.76 6.5-3.5.948 1.76ZM12.526 15.88l-6.5-3.5.948-1.76 6.5 3.5-.948 1.76Z" />
    </g>
</svg>
