<svg height="24" viewBox="0 0 512 512" width="24" xmlns="http://www.w3.org/2000/svg">
    <path
        d="m481.508 210.336-413.094-171.41c-17.403-7.222-37.064-4.045-51.309 8.287-14.245 12.334-20.203 31.338-15.547 49.595l36.769 144.192h180.026c8.284 0 15.001 6.716 15.001 15.001 0 8.284-6.716 15.001-15.001 15.001h-180.026l-36.769 144.191c-4.656 18.258 1.301 37.262 15.547 49.595 14.274 12.357 33.937 15.495 51.31 8.287l413.094-171.409c18.808-7.804 30.491-25.302 30.491-45.665s-11.683-37.862-30.492-45.665z"
        fill="#808080" />
</svg>