<svg height="24" viewBox="0 0 512 512" width="24" xmlns="http://www.w3.org/2000/svg">
    <g fill="#808080">
        <path d="m220.949 296.609 84.539-45.461-84.539-46.258zm0 0" />
        <path
            d="m508.234 153.527-.023-.234c-.434-4.121-4.75-40.781-22.57-59.422-20.598-21.93-43.949-24.594-55.18-25.871-.93-.109-1.781-.203-2.543-.305l-.895-.094c-67.688-4.922-169.91-5.594-170.934-5.602h-.18c-1.023.008-103.246.68-171.543 5.602l-.902.094c-.727.098-1.527.188-2.398.289-11.102 1.281-34.203 3.949-54.859 26.668-16.973 18.449-21.879 54.32-22.383 58.352l-.059.523c-.152 1.715-3.766 42.539-3.766 83.523v38.313c0 40.984 3.613 81.809 3.766 83.523l.027.262c.434 4.051 4.746 40.035 22.484 58.688 19.367 21.199 43.855 24 57.027 25.508 2.082.238 3.879.445 5.098.66l1.184.16c39.082 3.723 161.617 5.555 166.813 5.629l.156.004.152-.004c1.027-.004 103.246-.676 170.934-5.602l.895-.09c.852-.113 1.813-.215 2.867-.324 11.043-1.172 34.016-3.605 54.391-26.016 16.973-18.449 21.879-54.32 22.383-58.352l.059-.523c.152-1.715 3.766-42.539 3.766-83.523v-38.313c0-40.984-3.613-81.805-3.766-83.523zm-173.558 115.993-113.113 60.824c-3.105 1.672-6.48 2.504-9.848 2.504-3.676 0-7.344-.992-10.652-2.965-6.336-3.789-10.117-10.457-10.117-17.836v-122.719c0-7.414 3.805-14.094 10.18-17.875 6.375-3.777 14.066-3.914 20.57-.355l113.113 61.895c6.691 3.66 10.832 10.676 10.805 18.305-.027 7.625-4.219 14.609-10.938 18.223zm0 0" />
    </g>
</svg>