<svg height="24" viewBox="0 0 512 512" width="24" xmlns="http://www.w3.org/2000/svg">
    <g fill="#808080">
        <path
            d="m417.913 174.581c-14.567 0-27.565 6.815-36 17.415-8.435-10.6-21.433-17.415-36-17.415s-27.565 6.815-36 17.415c-8.435-10.6-21.433-17.415-36-17.415-9.643 0-18.598 2.988-26 8.08v-82.661c0-25.364-20.636-46-46-46s-46 20.636-46 46v55.585c-10.223-12.479-22.09-23.615-35.214-32.917-20.693-14.669-49.462-9.765-64.128 10.928-7.105 10.024-9.883 22.216-7.818 34.328 2.063 12.111 8.721 22.695 18.746 29.801 13.314 9.438 23.743 22.358 30.158 37.366l58.997 138.013c7.614 77.853 73.44 138.896 153.26 138.896 25.525 0 50.814-6.377 73.135-18.442 4.858-2.626 6.668-8.693 4.042-13.552-2.625-4.858-8.694-6.669-13.552-4.042-19.41 10.491-41.41 16.036-63.626 16.036-73.888 0-134-60.112-134-134v-258c0-14.337 11.664-26 26-26 14.337 0 26 11.663 26 26v220.914c0 5.522 4.478 10 10 10s10-4.478 10-10v-100.333c0-14.337 11.663-26 26-26s26 11.663 26 26v100.333c0 5.522 4.478 10 10 10s10-4.478 10-10v-100.333c0-14.337 11.663-26 26-26s26 11.663 26 26v100.333c0 5.522 4.478 10 10 10s10-4.478 10-10v-100.333c0-14.337 11.663-26 26-26s26 11.663 26 26v137.419c0 20.355-4.443 39.899-13.208 58.089-2.397 4.976-.308 10.952 4.668 13.35 1.399.674 2.878.993 4.334.993 3.72 0 7.293-2.085 9.016-5.661 10.08-20.92 15.19-43.385 15.19-66.771v-137.419c0-25.364-20.636-46-46-46zm-338.849 6.827c-5.667-4.017-9.43-9.998-10.596-16.844-1.167-6.847.402-13.736 4.419-19.403 4.017-5.665 9.998-9.428 16.844-10.595 1.477-.252 2.955-.376 4.424-.376 5.338 0 10.535 1.645 14.979 4.794 19.09 13.531 35.222 31.399 46.779 51.788v129.715l-39.865-93.258c-7.868-18.403-20.656-34.248-36.984-45.821z" />
        <path
            d="m72.051 60.842-3.716 21.662c-.644 3.751.899 7.543 3.979 9.78 3.079 2.239 7.163 2.532 10.531.762l19.454-10.228 19.453 10.228c1.463.769 3.061 1.148 4.652 1.148 2.073 0 4.137-.645 5.879-1.91 3.079-2.237 4.621-6.028 3.979-9.78l-3.715-21.662 15.738-15.341c2.726-2.657 3.706-6.631 2.53-10.251-1.177-3.62-4.306-6.259-8.072-6.807l-21.75-3.16-9.727-19.709c-1.684-3.413-5.16-5.574-8.967-5.574s-7.282 2.161-8.968 5.574l-9.727 19.709-21.75 3.16c-3.767.548-6.896 3.187-8.072 6.807s-.195 7.594 2.53 10.251zm19.633-16.523c3.257-.474 6.072-2.52 7.529-5.471l3.086-6.254 3.086 6.254c1.457 2.951 4.272 4.997 7.529 5.471l6.901 1.003-4.994 4.867c-2.356 2.298-3.432 5.607-2.876 8.852l1.179 6.873-6.172-3.245c-1.457-.766-3.055-1.148-4.653-1.148s-3.197.383-4.653 1.148l-6.173 3.245 1.18-6.873c.556-3.244-.52-6.554-2.876-8.852l-4.994-4.867z" />
        <path
            d="m414.045 447.46c-2.63 0-5.21 1.07-7.07 2.93s-2.93 4.44-2.93 7.07 1.069 5.21 2.93 7.07c1.86 1.859 4.44 2.93 7.07 2.93s5.21-1.07 7.069-2.93c1.87-1.86 2.931-4.44 2.931-7.07s-1.061-5.21-2.931-7.07c-1.86-1.86-4.44-2.93-7.069-2.93z" />
    </g>
</svg>