<svg fill="none" height="24" viewBox="0 0 24 24" width="24" xmlns="http://www.w3.org/2000/svg">
    <path
        d="m19.633 7.99704c.013.175.013.349.013.523 0 5.32496-4.053 11.46096-11.46 11.46096-2.282 0-4.402-.661-6.186-1.809.324.037.636.05.973.05 1.81299.0044 3.57465-.6018 5.001-1.721-.84058-.0152-1.65542-.2925-2.33076-.7932s-1.17746-1.1999-1.43624-1.9998c.249.037.499.062.761.062.361 0 .724-.05 1.061-.137-.91224-.1841-1.73253-.6786-2.32138-1.3993-.58886-.7206-.90993-1.623-.90862-2.55366v-.05c.537.299 1.16.48596 1.82.51096-.55291-.36737-1.00628-.86593-1.31966-1.45117-.31338-.58523-.47703-1.23893-.47634-1.90279 0-.748.199-1.434.548-2.032 1.01214 1.24502 2.2745 2.26356 3.70534 2.98966 1.43083.7261 2.99826 1.14356 4.60066 1.22534-.062-.3-.1-.611-.1-.923-.0003-.52904.1037-1.05294.3061-1.54176.2023-.48881.499-.93296.8731-1.30705s.8182-.67078 1.307-.87311c.4889-.20233 1.0128-.30634 1.5418-.30608 1.16 0 2.207.486 2.943 1.272.9018-.17438 1.7665-.50357 2.556-.973-.3006.93082-.9302 1.72011-1.771 2.22.7998-.09122 1.5814-.30154 2.319-.624-.5509.8031-1.2335 1.50735-2.019 2.083z"
        fill="#808080" />
</svg>