<svg height="24" viewBox="0 0 24 24" width="24" xmlns="http://www.w3.org/2000/svg">
    <path
        d="m3.412 1.32c-1.178 0-1.584.122-2.031.366-.432.229-.786.582-1.016 1.014-.243.448-.365.853-.365 2.071v9.137c0 1.178.122 1.585.365 2.031.244.447.57.772 1.016 1.016.406.244.813.365 2.031.365h2.72l1.138-1.34h-4.264c-.347.046-.701-.011-1.016-.164-.203-.08-.366-.283-.488-.486-.122-.325-.203-.65-.162-1.016v-9.908c-.04-.325 0-.69.162-1.015.081-.203.285-.365.488-.487.325-.122.65-.204 1.016-.164h17.867c.325-.04.69.002 1.016.164.203.082.364.284.486.487.122.324.203.65.162 1.015v9.95c.04.324 0 .69-.162 1.015-.081.203-.283.365-.486.486-.325.122-.65.203-1.016.163h-4.264l1.137 1.341 2.803-.04c1.218 0 1.623-.122 2.07-.366.433-.229.787-.583 1.016-1.016.243-.406.365-.813.365-2.03v-9.139c0-1.218-.122-1.623-.365-2.07-.23-.432-.583-.786-1.016-1.015-.447-.244-.852-.366-2.07-.366h-17.137zm8.451 12.198c-.071.003-.141.021-.205.053-.064.033-.12.078-.165.134l-7.106 8.162c-.082.089-.126.206-.123.326-.002.065.009.129.032.189.024.061.06.115.106.161s.1.082.161.105c.06.024.124.035.189.032h14.293c.122 0 .245-.04.326-.121.203-.163.204-.489.041-.692l-7.107-8.162-.041-.04c-.111-.097-.253-.149-.4-.147z"
        fill="#808080" />
</svg>