<svg height="24" viewBox="0 0 24 24" width="24" xmlns="http://www.w3.org/2000/svg">
    <path
        d="m7.72 16.456 1.761-.508 10.603-10.73c.084-.086.13-.201.13-.321-.001-.119-.049-.234-.133-.319l-.635-.642c-.041-.042-.09-.076-.144-.099s-.112-.035-.171-.035-.117.011-.172.034c-.054.022-.104.055-.145.097l-10.575 10.702-.52 1.82zm12.983-13.792.635.643c.876.887.884 2.318.016 3.196l-10.926 11.058-3.764 1.084c-.23.064-.476.035-.684-.082s-.361-.311-.426-.541c-.048-.165-.049-.341-.002-.506l1.095-3.84 10.897-11.029c.207-.209.454-.374.726-.486.271-.113.563-.17.857-.168.294.001.585.061.855.176.271.115.516.283.721.494zm-11.519 1.153c.496 0 .898.407.898.909.001.119-.022.236-.066.346-.045.11-.111.21-.195.295-.083.084-.182.151-.292.197-.109.046-.226.07-.345.071h-3.592c-.992 0-1.796.814-1.796 1.817v10.906c0 1.004.804 1.818 1.796 1.818h10.776c.992 0 1.797-.814 1.797-1.818v-3.635c0-.502.402-.909.898-.909s.898.407.898.91v3.634c0 2.008-1.609 3.636-3.593 3.636h-10.776c-1.984 0-3.592-1.628-3.592-3.636v-10.906c0-2.007 1.608-3.635 3.592-3.635z"
        fill="#808080" />
</svg>