<svg height="24" viewBox="0 0 24 24" width="24" xmlns="http://www.w3.org/2000/svg">
    <path
        d="m21.789 1.48.59.59c.813.814.69 2.257-.277 3.223l-12.167 12.167-3.942 1.442c-.495.182-.977-.054-1.075-.525-.033-.171-.018-.348.045-.51l1.47-3.976 12.133-12.134c.967-.966 2.41-1.09 3.223-.276zm-12.385 1.21c.131 0 .261.026.383.076.121.05.231.124.324.217s.167.203.217.324c.05.122.076.252.076.383s-.026.261-.076.383c-.05.121-.124.231-.217.324s-.203.167-.324.217c-.122.05-.252.076-.383.076h-4c-.53 0-1.039.211-1.414.586s-.586.884-.586 1.414v12c0 .53.211 1.039.586 1.414s.884.586 1.414.586h12c.53 0 1.039-.211 1.414-.586s.586-.884.586-1.414v-4c0-.265.105-.52.293-.707.187-.188.442-.293.707-.293s.52.105.707.293c.188.187.293.442.293.707v4c0 1.061-.421 2.078-1.172 2.828-.75.751-1.767 1.172-2.828 1.172h-12c-1.061 0-2.078-.421-2.828-1.172-.751-.75-1.172-1.767-1.172-2.828v-12c0-1.061.421-2.078 1.172-2.828.75-.751 1.767-1.172 2.828-1.172z"
        fill="#808080" />
</svg>