<svg height="24" viewBox="0 0 512 512" width="24" xmlns="http://www.w3.org/2000/svg">
    <g fill="#808080">
        <path
            d="m149.793 454.637 12.059-241.098c1.109-22.223 10.754-43.059 27.164-58.668 16.41-15.605 37.699-24.203 59.949-24.203h103.145c-2.457-28.164-26.152-50.336-54.945-50.336h-45.25v-5.082c0-41.492-33.754-75.25-75.25-75.25-41.488 0-75.25 33.758-75.25 75.25v5.082h-45.25c-30.418 0-55.164 24.75-55.164 55.168v321.332c0 30.422 24.746 55.168 55.164 55.168h112.617c-13.32-16.016-20.047-36.164-18.988-57.363zm-18.379-379.387c0-24.949 20.301-45.25 45.25-45.25 24.953 0 45.25 20.301 45.25 45.25v5.082h-90.5zm0 0" />
        <path
            d="m510.977 456.137-12.059-241.102c-1.496-29.98-27.137-54.367-57.152-54.367h-192.801c-30.016 0-55.656 24.391-57.152 54.367l-12.055 241.102c-.742 14.813 4.406 28.813 14.496 39.418s23.813 16.445 38.645 16.445h224.934c14.832 0 28.559-5.84 38.645-16.445 10.09-10.605 15.238-24.605 14.5-39.418zm-90.36-180.055c0 41.492-33.758 75.25-75.25 75.25-41.496 0-75.25-33.758-75.25-75.25v-20.082c0-8.285 6.715-15 15-15 8.281 0 15 6.715 15 15v20.082c0 24.953 20.297 45.25 45.25 45.25 24.949 0 45.25-20.297 45.25-45.25v-20.082c0-8.285 6.715-15 15-15 8.281 0 15 6.715 15 15zm0 0" />
    </g>
</svg>