<svg height="24" viewBox="0 0 512 512" width="24" xmlns="http://www.w3.org/2000/svg">
    <g fill="#808080">
        <path
            d="m334.809 232.992-113.113-61.891c-6.504-3.559-14.191-3.426-20.566.352-6.379 3.781-10.184 10.461-10.184 17.875v122.719c0 7.379 3.781 14.047 10.117 17.832 3.309 1.977 6.977 2.969 10.652 2.969 3.367 0 6.742-.832 9.848-2.504l113.117-60.824c6.715-3.613 10.906-10.594 10.938-18.223.027-7.629-4.113-14.641-10.809-18.305zm-113.86 63.617v-91.719l84.539 46.258zm0 0" />
        <path
            d="m508.234 153.527-.023-.234c-.434-4.121-4.75-40.777-22.57-59.422-20.598-21.93-43.949-24.594-55.18-25.871-.93-.105-1.781-.203-2.543-.305l-.895-.094c-67.688-4.922-169.91-5.594-170.934-5.598l-.09-.004-.09.004c-1.023.004-103.246.676-171.543 5.598l-.902.094c-.727.098-1.527.188-2.398.289-11.102 1.281-34.203 3.949-54.859 26.672-16.973 18.445-21.879 54.316-22.383 58.348l-.059.523c-.152 1.715-3.766 42.539-3.766 83.523v38.313c0 40.984 3.613 81.809 3.766 83.527l.027.258c.434 4.055 4.746 40.039 22.484 58.691 19.367 21.195 43.855 24 57.027 25.508 2.082.238 3.875.441 5.098.656l1.184.164c39.082 3.719 161.617 5.551 166.813 5.625l.156.004.156-.004c1.023-.004 103.242-.676 170.93-5.598l.895-.094c.855-.113 1.816-.215 2.871-.324 11.039-1.172 34.016-3.605 54.387-26.02 16.973-18.449 21.883-54.32 22.383-58.348l.059-.523c.152-1.719 3.77-42.539 3.77-83.523v-38.313c-.004-40.984-3.617-81.805-3.77-83.523zm-26.238 121.836c0 37.934-3.313 77-3.625 80.586-1.273 9.879-6.449 32.574-14.719 41.563-12.75 14.027-25.848 15.418-35.41 16.43-1.156.121-2.227.238-3.195.359-65.469 4.734-163.832 5.461-168.363 5.488-5.082-.074-125.824-1.922-163.715-5.441-1.941-.316-4.039-.559-6.25-.809-11.215-1.285-26.566-3.043-38.371-16.027l-.277-.297c-8.125-8.465-13.152-29.688-14.43-41.148-.238-2.711-3.637-42.238-3.637-80.703v-38.313c0-37.891 3.305-76.914 3.625-80.574 1.52-11.637 6.793-32.957 14.719-41.574 13.141-14.453 26.996-16.055 36.16-17.113.875-.102 1.691-.195 2.445-.293 66.422-4.758 165.492-5.465 169.047-5.492 3.555.023 102.59.734 168.422 5.492.809.102 1.691.203 2.641.313 9.426 1.074 23.672 2.699 36.746 16.645l.121.129c8.125 8.465 13.152 30.059 14.43 41.75.227 2.559 3.637 42.172 3.637 80.719zm0 0" />
    </g>
</svg>