<svg height="24" viewBox="0 0 512 512" width="24" xmlns="http://www.w3.org/2000/svg">
    <g fill="#808080">
        <path
            d="m510.977 456.137-12.055-241.102c-1.496-29.98-27.137-54.367-57.152-54.367h-89.434v-25.168c0-30.418-24.75-55.168-55.168-55.168h-45.25v-5.082c0-41.492-33.758-75.25-75.25-75.25s-75.25 33.758-75.25 75.25v5.082h-45.25c-30.422 0-55.168 24.75-55.168 55.168v321.332c0 30.422 24.75 55.168 55.168 55.168h401.668c14.832 0 28.555-5.84 38.645-16.445 10.086-10.605 15.238-24.605 14.496-39.418zm-379.559-380.887c0-24.949 20.301-45.25 45.25-45.25s45.25 20.301 45.25 45.25v5.082h-90.5zm-100.418 381.582v-321.332c0-13.879 11.289-25.168 25.168-25.168h241c13.879 0 25.168 11.289 25.168 25.168v25.168h-73.367c-30.02 0-55.656 24.391-57.152 54.367l-12.059 241.102c-.453 9.133 1.336 17.953 5.133 25.863h-128.723c-13.879 0-25.168-11.289-25.168-25.168zm443.742 18.047c-4.367 4.594-10.371 7.121-16.906 7.121h-224.934c-6.535 0-12.543-2.527-16.91-7.121-4.371-4.594-6.598-10.719-6.27-17.246l12.055-241.102c.699-14.02 13.152-25.863 27.191-25.863h192.801c14.039 0 26.488 11.844 27.188 25.863l12.059 241.102c.324 6.527-1.902 12.652-6.273 17.246zm0 0" />
        <path
            d="m405.617 241c-8.281 0-15 6.715-15 15v20.082c0 24.953-20.297 45.25-45.25 45.25-24.949 0-45.25-20.297-45.25-45.25v-20.082c0-8.285-6.715-15-15-15-8.281 0-15 6.715-15 15v20.082c0 41.492 33.758 75.25 75.25 75.25s75.25-33.758 75.25-75.25v-20.082c0-8.285-6.715-15-15-15zm0 0" />
    </g>
</svg>