<svg height="24" viewBox="0 0 512 512" width="24" xmlns="http://www.w3.org/2000/svg">
    <g fill="#808080">
        <path
            d="m166 331.004h271.004c6.711 0 12.598-4.438 14.414-10.883l60.004-210.004c1.289-4.527.406-9.391-2.434-13.152-2.844-3.75-7.266-5.965-11.984-5.965h-365.633l-10.723-48.25c-1.523-6.871-7.617-11.75-14.648-11.75h-91c-8.289 0-15 6.711-15 15 0 8.293 6.711 15 15 15h78.961l54.168 243.75c-15.938 6.93-27.129 22.793-27.129 41.254 0 24.813 20.188 45 45 45h271.004c8.293 0 15-6.707 15-15 0-8.289-6.707-15-15-15h-271.004c-8.262 0-15-6.723-15-15s6.738-15 15-15zm0 0" />
        <path
            d="m151 436.004c0 24.816 20.188 45 45.004 45 24.813 0 45-20.184 45-45 0-24.813-20.188-45-45-45-24.816 0-45.004 20.188-45.004 45zm0 0" />
        <path
            d="m362.004 436.004c0 24.816 20.188 45 45 45 24.816 0 45-20.184 45-45 0-24.813-20.184-45-45-45-24.813 0-45 20.188-45 45zm0 0" />
    </g>
</svg>